<svg xmlns="http://www.w3.org/2000/svg" height="282px" width="512px" version="1.1"><polyline points="84.0,37.0,78.0,40.0,86.0,38.0,94.0,35.0,102.0,36.0" stroke="black" stroke-width="1" fill="none" />
<polyline points="148.0,33.0,156.0,34.0,164.0,35.0,172.0,36.0" stroke="black" stroke-width="1" fill="none" />
<polyline points="167.0,23.0,175.0,23.0,183.0,26.0,191.0,26.0,199.0,26.0,207.0,25.0,215.0,25.0,223.0,26.0,220.0,39.0,221.0,47.0,223.0,51.0,231.0,52.0,239.0,51.0,247.0,47.0,253.0,56.0" stroke="black" stroke-width="1" fill="none" />
<polyline points="254.0,51.0,262.0,52.0" stroke="black" stroke-width="1" fill="none" />
<polyline points="253.0,56.0,249.0,48.0" stroke="black" stroke-width="1" fill="none" />
<polyline points="273.0,175.0,269.0,183.0" stroke="black" stroke-width="1" fill="none" />
<polyline points="250.0,179.0,243.0,187.0" stroke="black" stroke-width="1" fill="none" />
<polyline points="213.0,192.0,221.0,191.0,229.0,189.0,237.0,188.0,245.0,185.0,253.0,179.0,261.0,184.0,269.0,183.0,277.0,174.0,285.0,174.0,293.0,177.0,301.0,180.0,309.0,179.0,317.0,178.0,325.0,175.0,333.0,175.0,341.0,177.0,349.0,177.0,357.0,176.0,365.0,174.0,373.0,171.0,381.0,166.0,389.0,163.0,397.0,159.0,405.0,155.0,413.0,154.0,421.0,154.0,429.0,156.0,437.0,156.0,445.0,158.0,453.0,160.0,461.0,161.0,469.0,160.0,477.0,158.0,485.0,157.0,493.0,148.0,501.0,150.0" stroke="black" stroke-width="1" fill="none" />
<polyline points="496.0,148.0,493.0,156.0,498.0,157.0,507.0,160.0" stroke="black" stroke-width="1" fill="none" />
<polyline points="506.0,155.0,504.0,155.0,499.0,154.0,492.0,158.0,487.0,155.0,494.0,147.0" stroke="black" stroke-width="1" fill="none" />
<polyline points="407.0,154.0,390.0,162.0,374.0,170.0" stroke="black" stroke-width="1" fill="none" />
<polyline points="349.0,257.0,357.0,259.0" stroke="black" stroke-width="1" fill="none" />
<polyline points="369.0,262.0,377.0,266.0,383.0,267.0" stroke="black" stroke-width="1" fill="none" />
<polyline points="414.0,253.0,406.0,252.0,398.0,251.0,390.0,251.0,382.0,250.0,374.0,248.0,366.0,248.0,358.0,248.0,350.0,247.0,342.0,246.0,334.0,245.0,331.0,241.0,323.0,241.0,315.0,241.0,307.0,241.0,299.0,239.0,291.0,238.0,283.0,238.0,275.0,237.0,267.0,236.0,259.0,235.0,251.0,234.0,243.0,233.0" stroke="black" stroke-width="1" fill="none" />
<polyline points="234.0,244.0,242.0,247.0,250.0,247.0,258.0,248.0,266.0,248.0,274.0,248.0,282.0,249.0,290.0,250.0,298.0,251.0,306.0,252.0,314.0,253.0,322.0,253.0,330.0,253.0,338.0,253.0,346.0,254.0,354.0,254.0,362.0,255.0,369.0,259.0,377.0,259.0,385.0,264.0,393.0,266.0,401.0,265.0,409.0,263.0,413.0,266.0,421.0,269.0,429.0,269.0,436.0,270.0,444.0,270.0,452.0,272.0,460.0,273.0,468.0,273.0,476.0,275.0,484.0,275.0" stroke="black" stroke-width="1" fill="none" />
<polyline points="482.0,274.0,479.0,282.0,480.0,281.0,488.0,282.0,496.0,280.0,499.0,276.0,507.0,278.0" stroke="black" stroke-width="1" fill="none" />
<polyline points="496.0,274.0,495.0,282.0" stroke="black" stroke-width="1" fill="none" />
<polyline points="212.0,240.0,204.0,239.0,196.0,238.0,188.0,237.0" stroke="black" stroke-width="1" fill="none" />
<polyline points="177.0,236.0,185.0,237.0,193.0,235.0,201.0,236.0,209.0,237.0,217.0,238.0,225.0,239.0,233.0,239.0,241.0,240.0,249.0,243.0,257.0,243.0,265.0,244.0,273.0,245.0,281.0,246.0,289.0,246.0,297.0,247.0,305.0,248.0,313.0,249.0,321.0,249.0,329.0,249.0,337.0,250.0,345.0,250.0,353.0,251.0,361.0,251.0,369.0,252.0,377.0,253.0,385.0,254.0,393.0,255.0,401.0,256.0,409.0,255.0" stroke="black" stroke-width="1" fill="none" />
<polyline points="203.0,180.0,195.0,178.0,187.0,174.0,179.0,174.0,171.0,170.0,163.0,168.0,155.0,167.0" stroke="black" stroke-width="1" fill="none" />
<polyline points="148.0,179.0,140.0,180.0,132.0,185.0,124.0,190.0,116.0,191.0,108.0,191.0,100.0,191.0,92.0,191.0,84.0,196.0,76.0,187.0,68.0,195.0,64.0,199.0,56.0,196.0,49.0,188.0,52.0,180.0" stroke="black" stroke-width="1" fill="none" />
<polyline points="52.0,181.0,53.0,189.0,56.0,197.0" stroke="black" stroke-width="1" fill="none" />
<polyline points="49.0,193.0,41.0,181.0,33.0,174.0,25.0,172.0" stroke="black" stroke-width="1" fill="none" />
<polyline points="22.0,159.0,23.0,157.0,31.0,153.0" stroke="black" stroke-width="1" fill="none" />
<polyline points="26.0,137.0,25.0,131.0,17.0,130.0" stroke="black" stroke-width="1" fill="none" />
<polyline points="21.0,123.0,16.0,117.0,14.0,107.0,8.0,98.0,0.0,96.0" stroke="black" stroke-width="1" fill="none" />
<polyline points="1.0,91.0,8.0,99.0,11.0,103.0,18.0,111.0,16.0,119.0,25.0,127.0,23.0,139.0,29.0,144.0,32.0,152.0,25.0,155.0,23.0,161.0,28.0,163.0,24.0,169.0,25.0,177.0,33.0,175.0,41.0,183.0,46.0,191.0" stroke="black" stroke-width="1" fill="none" />
<polyline points="64.0,199.0,67.0,191.0" stroke="black" stroke-width="1" fill="none" />
<polyline points="78.0,189.0,84.0,197.0,89.0,197.0,97.0,196.0,105.0,200.0,113.0,201.0,121.0,206.0,129.0,207.0,137.0,207.0,145.0,206.0,153.0,210.0,161.0,211.0,169.0,214.0,177.0,214.0" stroke="black" stroke-width="1" fill="none" />
<polyline points="170.0,177.0,162.0,176.0,173.0,171.0" stroke="black" stroke-width="1" fill="none" />
<polyline points="141.0,179.0,129.0,187.0" stroke="black" stroke-width="1" fill="none" />
<polyline points="87.0,252.0,95.0,251.0,103.0,250.0,111.0,247.0,119.0,245.0,127.0,243.0,135.0,241.0,143.0,240.0,151.0,238.0,159.0,237.0,167.0,235.0,175.0,236.0,183.0,233.0,191.0,232.0,199.0,232.0,207.0,232.0,215.0,231.0,223.0,231.0,231.0,231.0,239.0,231.0,247.0,230.0,255.0,230.0" stroke="black" stroke-width="1" fill="none" />
<polyline points="91.0,255.0,83.0,256.0,75.0,261.0,67.0,262.0,59.0,264.0" stroke="black" stroke-width="1" fill="none" />
<polyline points="64.0,269.0,56.0,269.0,48.0,274.0,40.0,275.0,35.0,282.0,27.0,282.0" stroke="black" stroke-width="1" fill="none" />
<polyline points="256.0,64.0,512.0,64.0" stroke="black" stroke-width="1" fill="none" />
</svg>