<svg xmlns="http://www.w3.org/2000/svg" height="680px" width="509px" version="1.1"><polyline points="196.5,69.0,196.5,81.0,192.0,85.5,183.0,97.5,166.5,99.0,162.0,102.0,156.0,114.0,142.5,130.5,130.5,142.5,117.0,154.5,111.0,154.5,106.5,142.5,118.5,144.0,130.5,142.5,142.5,130.5,154.5,124.5,156.0,114.0,174.0,103.5,186.0,94.5,192.0,76.5" stroke="black" stroke-width="1" fill="none" />
<polyline points="162.0,100.5,174.0,93.0,177.0,100.5,166.5,112.5" stroke="black" stroke-width="1" fill="none" />
<polyline points="160.5,115.5,162.0,103.5" stroke="black" stroke-width="1" fill="none" />
<polyline points="133.5,124.5,121.5,120.0" stroke="black" stroke-width="1" fill="none" />
<polyline points="115.5,123.0,127.5,129.0" stroke="black" stroke-width="1" fill="none" />
<polyline points="133.5,130.5,121.5,129.0,120.0,133.5,108.0,133.5" stroke="black" stroke-width="1" fill="none" />
<polyline points="108.0,139.5,96.0,138.0,81.0,150.0,64.5,162.0,54.0,174.0,37.5,186.0,21.0,198.0,25.5,210.0,33.0,222.0,10.5,234.0,1.5,232.5" stroke="black" stroke-width="1" fill="none" />
<polyline points="0.0,243.0,12.0,234.0,24.0,226.5,36.0,220.5,48.0,211.5,52.5,183.0,60.0,174.0,63.0,184.5" stroke="black" stroke-width="1" fill="none" />
<polyline points="72.0,163.5,84.0,154.5,96.0,144.0,108.0,129.0,111.0,126.0,100.5,138.0,91.5,150.0,82.5,162.0,73.5,174.0,67.5,186.0,63.0,186.0,55.5,198.0,57.0,204.0,42.0,216.0" stroke="black" stroke-width="1" fill="none" />
<polyline points="49.5,210.0,61.5,196.5,73.5,174.0,93.0,162.0,79.5,174.0,94.5,171.0,96.0,157.5,103.5,162.0" stroke="black" stroke-width="1" fill="none" />
<polyline points="102.0,148.5,109.5,160.5,100.5,166.5,85.5,178.5,73.5,186.0" stroke="black" stroke-width="1" fill="none" />
<polyline points="88.5,148.5,78.0,160.5,70.5,172.5,58.5,178.5,67.5,190.5,69.0,189.0,75.0,181.5,87.0,175.5,90.0,159.0,99.0,162.0,103.5,141.0,105.0,145.5,117.0,150.0" stroke="black" stroke-width="1" fill="none" />
<polyline points="126.0,139.5,127.5,135.0,127.5,123.0,144.0,103.5,160.5,91.5,172.5,79.5,195.0,67.5,190.5,69.0,178.5,76.5,166.5,82.5,154.5,96.0,142.5,105.0,130.5,114.0,118.5,117.0,106.5,120.0" stroke="black" stroke-width="1" fill="none" />
<polyline points="19.5,204.0,31.5,217.5" stroke="black" stroke-width="1" fill="none" />
<polyline points="13.5,207.0,0.0,217.5,12.0,208.5,25.5,195.0,37.5,186.0,49.5,178.5,61.5,163.5,73.5,154.5,85.5,145.5" stroke="black" stroke-width="1" fill="none" />
<polyline points="126.0,247.5,138.0,220.5,150.0,204.0,162.0,193.5,174.0,184.5,186.0,178.5,198.0,171.0,198.0,171.0,177.0,183.0,160.5,195.0,148.5,207.0,139.5,219.0,132.0,231.0,127.5,243.0,126.0,255.0,126.0,267.0,129.0,279.0,136.5,291.0" stroke="black" stroke-width="1" fill="none" />
<polyline points="145.5,280.5,157.5,268.5,169.5,259.5,181.5,253.5,193.5,249.0,205.5,246.0,217.5,243.0,229.5,241.5,241.5,240.0,253.5,238.5,265.5,238.5,277.5,240.0,289.5,241.5,301.5,243.0,313.5,247.5,325.5,246.0,337.5,250.5,349.5,255.0,361.5,262.5,373.5,273.0,385.5,286.5" stroke="black" stroke-width="1" fill="none" />
<polyline points="405.0,240.0,393.0,220.5,381.0,207.0" stroke="black" stroke-width="1" fill="none" />
<polyline points="381.0,207.0,391.5,219.0,399.0,231.0,405.0,243.0,409.5,255.0,412.5,267.0,414.0,279.0,412.5,291.0,411.0,303.0,403.5,315.0,402.0,330.0,397.5,342.0,391.5,354.0,385.5,355.5,387.0,367.5" stroke="black" stroke-width="1" fill="none" />
<polyline points="379.5,349.5,367.5,346.5,358.5,343.5,346.5,340.5,345.0,340.5,331.5,333.0,319.5,331.5,306.0,328.5,294.0,327.0,282.0,328.5,270.0,327.0,258.0,327.0" stroke="black" stroke-width="1" fill="none" />
<polyline points="259.5,318.0,271.5,318.0,283.5,319.5,295.5,321.0,307.5,322.5,319.5,325.5,331.5,328.5,343.5,331.5,355.5,334.5,367.5,337.5,379.5,340.5,396.0,358.5,399.0,370.5,396.0,382.5,391.5,394.5,388.5,406.5,378.0,418.5,385.5,411.0" stroke="black" stroke-width="1" fill="none" />
<polyline points="397.5,448.5,409.5,468.0,421.5,463.5" stroke="black" stroke-width="1" fill="none" />
<polyline points="414.0,480.0,402.0,478.5" stroke="black" stroke-width="1" fill="none" />
<polyline points="414.0,489.0,426.0,489.0,432.0,501.0,444.0,502.5,456.0,505.5,472.5,505.5,484.5,508.5,496.5,511.5,508.5,514.5" stroke="black" stroke-width="1" fill="none" />
<polyline points="498.0,529.5,486.0,531.0" stroke="black" stroke-width="1" fill="none" />
<polyline points="486.0,516.0,474.0,511.5,462.0,511.5,450.0,508.5,438.0,510.0" stroke="black" stroke-width="1" fill="none" />
<polyline points="442.5,484.5,454.5,487.5,466.5,489.0" stroke="black" stroke-width="1" fill="none" />
<polyline points="462.0,498.0,484.5,510.0" stroke="black" stroke-width="1" fill="none" />
<polyline points="490.5,496.5,478.5,504.0,472.5,492.0,460.5,493.5,448.5,492.0,436.5,486.0,426.0,477.0,414.0,475.5,402.0,475.5,385.5,477.0,373.5,480.0" stroke="black" stroke-width="1" fill="none" />
<polyline points="376.5,483.0,388.5,480.0" stroke="black" stroke-width="1" fill="none" />
<polyline points="390.0,492.0,402.0,493.5,414.0,495.0,426.0,499.5,412.5,514.5,418.5,504.0,421.5,510.0,427.5,516.0,439.5,519.0,451.5,519.0,460.5,514.5,474.0,529.5,486.0,528.0,489.0,534.0,501.0,534.0" stroke="black" stroke-width="1" fill="none" />
<polyline points="495.0,484.5,486.0,496.5,492.0,486.0,507.0,477.0" stroke="black" stroke-width="1" fill="none" />
<polyline points="499.5,516.0,487.5,520.5,475.5,522.0,463.5,523.5,451.5,522.0,454.5,505.5,438.0,489.0,451.5,474.0" stroke="black" stroke-width="1" fill="none" />
<polyline points="420.0,466.5,409.5,457.5,397.5,448.5" stroke="black" stroke-width="1" fill="none" />
<polyline points="367.5,486.0,379.5,490.5,391.5,484.5,396.0,484.5,408.0,487.5,420.0,486.0,432.0,481.5,444.0,478.5" stroke="black" stroke-width="1" fill="none" />
<polyline points="397.5,499.5,400.5,508.5,412.5,511.5,424.5,513.0,427.5,528.0,424.5,540.0,420.0,552.0,412.5,564.0,403.5,576.0,394.5,588.0,384.0,600.0,373.5,612.0,363.0,624.0,348.0,636.0,334.5,648.0,315.0,660.0,291.0,672.0,273.0,679.5,285.0,675.0,297.0,670.5,309.0,664.5,321.0,657.0,333.0,649.5,345.0,639.0,357.0,628.5,369.0,616.5,381.0,603.0,393.0,589.5,405.0,574.5,417.0,556.5" stroke="black" stroke-width="1" fill="none" />
<polyline points="367.5,474.0,355.5,495.0,342.0,513.0,330.0,528.0,318.0,531.0,325.5,532.5,336.0,520.5,345.0,508.5,352.5,496.5,346.5,514.5,334.5,532.5,322.5,544.5,310.5,553.5,298.5,558.0,286.5,562.5" stroke="black" stroke-width="1" fill="none" />
<polyline points="238.5,552.0,223.5,540.0,210.0,528.0,195.0,525.0,183.0,543.0" stroke="black" stroke-width="1" fill="none" />
<polyline points="177.0,549.0,189.0,523.5,198.0,522.0,187.5,534.0,183.0,546.0,180.0,558.0,177.0,570.0" stroke="black" stroke-width="1" fill="none" />
<polyline points="171.0,513.0,159.0,514.5" stroke="black" stroke-width="1" fill="none" />
<polyline points="171.0,508.5,159.0,507.0,147.0,508.5,145.5,513.0" stroke="black" stroke-width="1" fill="none" />
<polyline points="168.0,498.0,180.0,496.5" stroke="black" stroke-width="1" fill="none" />
<polyline points="168.0,435.0,166.5,423.0,165.0,411.0,163.5,399.0,162.0,387.0,160.5,375.0,163.5,363.0,174.0,354.0,162.0,364.5" stroke="black" stroke-width="1" fill="none" />
<polyline points="147.0,324.0,159.0,324.0,171.0,322.5,183.0,322.5,195.0,321.0,207.0,322.5,219.0,322.5,231.0,324.0" stroke="black" stroke-width="1" fill="none" />
<polyline points="223.5,300.0,214.5,298.5,202.5,297.0" stroke="black" stroke-width="1" fill="none" />
<polyline points="190.5,298.5,183.0,297.0,162.0,309.0,172.5,301.5,184.5,297.0,196.5,294.0,208.5,291.0,220.5,291.0,226.5,295.5,238.5,292.5,250.5,289.5" stroke="black" stroke-width="1" fill="none" />
<polyline points="268.5,303.0,280.5,304.5,292.5,307.5,306.0,313.5,318.0,316.5,330.0,319.5" stroke="black" stroke-width="1" fill="none" />
<polyline points="324.0,303.0,349.5,315.0,367.5,327.0,384.0,348.0,381.0,360.0,384.0,372.0,384.0,384.0,381.0,396.0,381.0,408.0,381.0,426.0,378.0,438.0,376.5,450.0,372.0,462.0,367.5,474.0,363.0,486.0,357.0,498.0,349.5,510.0,342.0,522.0,333.0,534.0,319.5,546.0" stroke="black" stroke-width="1" fill="none" />
<polyline points="258.0,561.0,246.0,556.5,234.0,549.0,222.0,537.0,210.0,526.5,198.0,514.5,186.0,499.5,174.0,478.5,162.0,448.5,150.0,414.0" stroke="black" stroke-width="1" fill="none" />
<polyline points="156.0,409.5,156.0,421.5,160.5,433.5,166.5,445.5,169.5,457.5,174.0,469.5" stroke="black" stroke-width="1" fill="none" />
<polyline points="166.5,436.5,162.0,424.5,157.5,414.0" stroke="black" stroke-width="1" fill="none" />
<polyline points="235.5,436.5,247.5,423.0,237.0,433.5,237.0,445.5,258.0,454.5" stroke="black" stroke-width="1" fill="none" />
<polyline points="274.5,450.0,297.0,438.0,294.0,426.0,288.0,423.0,276.0,427.5" stroke="black" stroke-width="1" fill="none" />
<polyline points="285.0,442.5,273.0,451.5,261.0,454.5,249.0,447.0,237.0,445.5" stroke="black" stroke-width="1" fill="none" />
<polyline points="316.5,465.0,294.0,477.0,304.5,472.5,316.5,465.0" stroke="black" stroke-width="1" fill="none" />
<polyline points="373.5,441.0,375.0,429.0,373.5,417.0,372.0,405.0,370.5,393.0,370.5,381.0,367.5,369.0,364.5,357.0" stroke="black" stroke-width="1" fill="none" />
<polyline points="366.0,346.5,385.5,360.0" stroke="black" stroke-width="1" fill="none" />
<polyline points="385.5,297.0,373.5,283.5,361.5,273.0,349.5,265.5,337.5,258.0,325.5,252.0" stroke="black" stroke-width="1" fill="none" />
<polyline points="325.5,246.0,352.5,258.0,369.0,270.0,381.0,282.0" stroke="black" stroke-width="1" fill="none" />
<polyline points="342.0,336.0,330.0,336.0,316.5,330.0,304.5,331.5,292.5,330.0" stroke="black" stroke-width="1" fill="none" />
<polyline points="288.0,301.5,276.0,295.5" stroke="black" stroke-width="1" fill="none" />
<polyline points="274.5,292.5,292.5,304.5,307.5,304.5,310.5,307.5,322.5,310.5,336.0,319.5,348.0,324.0,360.0,328.5" stroke="black" stroke-width="1" fill="none" />
<polyline points="358.5,319.5,346.5,313.5,334.5,307.5,322.5,301.5,310.5,300.0,298.5,295.5,286.5,297.0,274.5,292.5" stroke="black" stroke-width="1" fill="none" />
<polyline points="270.0,306.0,282.0,309.0,294.0,312.0" stroke="black" stroke-width="1" fill="none" />
<polyline points="247.5,294.0,235.5,297.0,223.5,304.5,211.5,304.5,199.5,304.5,187.5,303.0,175.5,306.0,163.5,309.0" stroke="black" stroke-width="1" fill="none" />
<polyline points="150.0,315.0,135.0,327.0,136.5,339.0,139.5,351.0,145.5,366.0" stroke="black" stroke-width="1" fill="none" />
<polyline points="139.5,325.5,151.5,319.5,163.5,319.5,175.5,319.5,187.5,318.0,199.5,318.0,211.5,318.0" stroke="black" stroke-width="1" fill="none" />
<polyline points="252.0,300.0,250.5,304.5,238.5,304.5,231.0,313.5,219.0,313.5,207.0,313.5,195.0,313.5,183.0,313.5,171.0,313.5,159.0,315.0,147.0,316.5,135.0,324.0" stroke="black" stroke-width="1" fill="none" />
<polyline points="142.5,324.0,142.5,336.0,142.5,348.0" stroke="black" stroke-width="1" fill="none" />
<polyline points="127.5,306.0,139.5,300.0" stroke="black" stroke-width="1" fill="none" />
<polyline points="139.5,292.5,127.5,273.0" stroke="black" stroke-width="1" fill="none" />
<polyline points="172.5,249.0,160.5,256.5,148.5,268.5,147.0,270.0,159.0,258.0,180.0,246.0" stroke="black" stroke-width="1" fill="none" />
<polyline points="207.0,244.5,175.5,256.5,157.5,268.5,145.5,280.5,142.5,292.5,136.5,304.5,127.5,313.5,126.0,325.5,132.0,337.5,135.0,349.5,136.5,361.5,139.5,373.5,142.5,385.5,144.0,397.5,148.5,409.5,151.5,421.5,156.0,433.5,160.5,445.5,165.0,457.5,169.5,469.5,175.5,481.5,174.0,495.0,181.5,493.5,187.5,502.5,196.5,514.5,186.0,526.5,181.5,538.5,177.0,550.5,174.0,562.5,172.5,574.5,171.0,586.5,172.5,598.5,174.0,610.5,177.0,622.5,180.0,634.5,186.0,646.5,193.5,658.5,217.5,670.5" stroke="black" stroke-width="1" fill="none" />
<polyline points="238.5,678.0,226.5,675.0,214.5,667.5,202.5,663.0,190.5,652.5,178.5,628.5" stroke="black" stroke-width="1" fill="none" />
<polyline points="172.5,655.5,180.0,667.5,192.0,679.5" stroke="black" stroke-width="1" fill="none" />
<polyline points="184.5,672.0,172.5,655.5" stroke="black" stroke-width="1" fill="none" />
<polyline points="118.5,535.5,93.0,547.5,76.5,559.5,67.5,571.5,58.5,583.5,51.0,595.5,45.0,607.5,39.0,619.5,33.0,631.5,28.5,643.5,25.5,655.5,22.5,667.5,19.5,679.5" stroke="black" stroke-width="1" fill="none" />
<polyline points="4.5,648.0,13.5,657.0,7.5,667.5,16.5,648.0,36.0,624.0,48.0,601.5,60.0,580.5,72.0,565.5,84.0,552.0,96.0,546.0,108.0,540.0,120.0,535.5,132.0,532.5,144.0,531.0,156.0,528.0,168.0,525.0,180.0,522.0,192.0,517.5" stroke="black" stroke-width="1" fill="none" />
<polyline points="81.0,531.0,69.0,534.0" stroke="black" stroke-width="1" fill="none" />
<polyline points="24.0,556.5,12.0,553.5" stroke="black" stroke-width="1" fill="none" />
<polyline points="6.0,552.0,18.0,550.5,30.0,552.0" stroke="black" stroke-width="1" fill="none" />
<polyline points="30.0,604.5,18.0,606.0" stroke="black" stroke-width="1" fill="none" />
<polyline points="235.5,211.5,247.5,217.5" stroke="black" stroke-width="1" fill="none" />
<polyline points="238.5,202.5,228.0,213.0,240.0,228.0,252.0,231.0,264.0,231.0,276.0,232.5,288.0,232.5,300.0,229.5,312.0,216.0" stroke="black" stroke-width="1" fill="none" />
<polyline points="289.5,220.5,306.0,208.5,307.5,198.0,310.5,178.5,298.5,160.5" stroke="black" stroke-width="1" fill="none" />
<polyline points="273.0,163.5,286.5,156.0,271.5,157.5,267.0,162.0,256.5,177.0,250.5,189.0,243.0,190.5,246.0,196.5,246.0,208.5,253.5,208.5,258.0,198.0,265.5,195.0,277.5,190.5,277.5,187.5,294.0,175.5,301.5,187.5,297.0,190.5,301.5,202.5,298.5,207.0,286.5,216.0,291.0,220.5" stroke="black" stroke-width="1" fill="none" />
<polyline points="309.0,207.0,306.0,208.5,301.5,207.0,288.0,207.0,276.0,213.0,264.0,213.0,246.0,222.0,235.5,211.5,234.0,199.5,234.0,187.5,246.0,175.5,256.5,163.5,262.5,151.5,261.0,159.0" stroke="black" stroke-width="1" fill="none" />
<polyline points="256.5,159.0,268.5,151.5,280.5,151.5,291.0,148.5,298.5,160.5,303.0,172.5,313.5,184.5,316.5,196.5,315.0,208.5,309.0,220.5" stroke="black" stroke-width="1" fill="none" />
<polyline points="303.0,244.5,333.0,256.5,352.5,268.5,369.0,280.5,381.0,292.5,388.5,304.5,388.5,316.5,390.0,328.5,400.5,318.0" stroke="black" stroke-width="1" fill="none" />
<polyline points="298.5,178.5,286.5,172.5,283.5,169.5,271.5,175.5,268.5,172.5,256.5,177.0,252.0,172.5,240.0,178.5,237.0,192.0" stroke="black" stroke-width="1" fill="none" />
<polyline points="244.5,193.5,259.5,187.5,261.0,190.5" stroke="black" stroke-width="1" fill="none" />
<polyline points="268.5,189.0,271.5,201.0,268.5,210.0" stroke="black" stroke-width="1" fill="none" />
<polyline points="273.0,220.5,282.0,207.0,280.5,202.5,291.0,198.0,289.5,186.0,277.5,174.0,286.5,168.0,297.0,154.5,285.0,145.5,273.0,144.0,261.0,145.5,249.0,154.5,237.0,171.0,225.0,190.5" stroke="black" stroke-width="1" fill="none" />
<polyline points="267.0,154.5,261.0,166.5,264.0,184.5,265.5,196.5,258.0,199.5,258.0,211.5,274.5,223.5,286.5,223.5,286.5,214.5,298.5,201.0" stroke="black" stroke-width="1" fill="none" />
<polyline points="300.0,193.5,283.5,199.5,276.0,216.0,264.0,223.5,258.0,223.5,253.5,217.5,238.5,228.0,228.0,216.0,225.0,204.0,225.0,192.0,229.5,180.0,240.0,168.0,249.0,156.0,264.0,144.0" stroke="black" stroke-width="1" fill="none" />
<polyline points="0.0,406.25,325.0,406.25" stroke="black" stroke-width="1" fill="none" />
</svg>