<svg xmlns="http://www.w3.org/2000/svg" height="639px" width="483px" version="1.1"><polyline points="254.0,83.0,246.0,91.0,241.0,99.0,231.0,107.0,224.0,115.0,220.0,123.0,219.0,131.0,219.0,139.0,221.0,147.0,224.0,155.0,232.0,163.0" stroke="black" stroke-width="1" fill="none" />
<polyline points="242.0,154.0,234.0,151.0,236.0,147.0,228.0,141.0" stroke="black" stroke-width="1" fill="none" />
<polyline points="227.0,137.0,235.0,136.0,236.0,129.0,239.0,123.0,246.0,126.0,254.0,113.0,258.0,111.0,266.0,112.0,274.0,113.0,282.0,113.0,290.0,116.0" stroke="black" stroke-width="1" fill="none" />
<polyline points="283.0,114.0,284.0,124.0,292.0,123.0,294.0,120.0,295.0,128.0,301.0,133.0,302.0,141.0,300.0,151.0" stroke="black" stroke-width="1" fill="none" />
<polyline points="286.0,132.0,289.0,139.0,288.0,143.0,287.0,151.0,275.0,159.0,267.0,160.0" stroke="black" stroke-width="1" fill="none" />
<polyline points="264.0,136.0,256.0,128.0" stroke="black" stroke-width="1" fill="none" />
<polyline points="255.0,126.0,261.0,134.0,263.0,142.0,257.0,153.0,261.0,161.0,265.0,163.0,279.0,159.0,280.0,162.0" stroke="black" stroke-width="1" fill="none" />
<polyline points="277.0,147.0,280.0,139.0,272.0,147.0,270.0,141.0,273.0,141.0,270.0,145.0,261.0,149.0,266.0,143.0,268.0,135.0,268.0,127.0,265.0,119.0,270.0,118.0,263.0,122.0,255.0,126.0" stroke="black" stroke-width="1" fill="none" />
<polyline points="250.0,135.0,251.0,143.0,252.0,151.0,256.0,156.0" stroke="black" stroke-width="1" fill="none" />
<polyline points="258.0,147.0,250.0,135.0" stroke="black" stroke-width="1" fill="none" />
<polyline points="252.0,136.0,255.0,144.0" stroke="black" stroke-width="1" fill="none" />
<polyline points="275.0,143.0,268.0,137.0,266.0,136.0,261.0,130.0,263.0,124.0,262.0,120.0,263.0,108.0,255.0,106.0" stroke="black" stroke-width="1" fill="none" />
<polyline points="258.0,103.0,266.0,102.0,270.0,106.0,264.0,106.0,268.0,98.0,277.0,97.0,278.0,95.0" stroke="black" stroke-width="1" fill="none" />
<polyline points="277.0,83.0,291.0,91.0,294.0,99.0,296.0,107.0,300.0,115.0,306.0,123.0,310.0,131.0,310.0,139.0,310.0,147.0,308.0,155.0,304.0,163.0" stroke="black" stroke-width="1" fill="none" />
<polyline points="299.0,152.0,291.0,152.0,287.0,160.0,279.0,165.0,271.0,164.0,268.0,162.0,257.0,153.0,247.0,149.0,247.0,153.0,241.0,150.0,241.0,142.0,233.0,137.0,232.0,133.0,242.0,128.0,246.0,126.0,246.0,118.0,255.0,112.0,258.0,105.0,259.0,97.0,258.0,98.0" stroke="black" stroke-width="1" fill="none" />
<polyline points="257.0,98.0,265.0,93.0,255.0,94.0,253.0,102.0,246.0,110.0,237.0,115.0,230.0,123.0,229.0,131.0,227.0,139.0,230.0,147.0,242.0,155.0,247.0,161.0,248.0,158.0,250.0,161.0,255.0,157.0,265.0,162.0,273.0,153.0,281.0,148.0,290.0,154.0,293.0,149.0,299.0,145.0" stroke="black" stroke-width="1" fill="none" />
<polyline points="304.0,119.0,296.0,105.0" stroke="black" stroke-width="1" fill="none" />
<polyline points="279.0,114.0,286.0,123.0,291.0,124.0,291.0,134.0,294.0,142.0,298.0,142.0,292.0,149.0,290.0,152.0,282.0,155.0,294.0,142.0,295.0,141.0,300.0,127.0" stroke="black" stroke-width="1" fill="none" />
<polyline points="276.0,128.0,272.0,121.0,270.0,114.0,262.0,118.0" stroke="black" stroke-width="1" fill="none" />
<polyline points="251.0,112.0,243.0,117.0" stroke="black" stroke-width="1" fill="none" />
<polyline points="230.0,117.0,238.0,112.0,246.0,110.0,250.0,111.0,243.0,119.0,239.0,123.0,237.0,131.0,239.0,136.0,237.0,136.0,244.0,140.0,247.0,144.0" stroke="black" stroke-width="1" fill="none" />
<polyline points="235.0,139.0,230.0,146.0,238.0,150.0,240.0,141.0,248.0,145.0,254.0,146.0,262.0,154.0,270.0,152.0,278.0,146.0" stroke="black" stroke-width="1" fill="none" />
<polyline points="286.0,156.0,285.0,161.0,281.0,161.0,283.0,150.0,285.0,146.0,287.0,138.0,285.0,130.0,282.0,122.0,286.0,114.0,284.0,106.0,285.0,98.0,279.0,110.0,280.0,105.0,272.0,107.0,272.0,103.0,281.0,102.0,284.0,96.0,276.0,91.0,268.0,89.0,260.0,89.0,252.0,98.0" stroke="black" stroke-width="1" fill="none" />
<polyline points="220.0,123.0,228.0,110.0,236.0,104.0,244.0,95.0,252.0,85.0,260.0,82.0,268.0,82.0,276.0,82.0,284.0,85.0,292.0,91.0" stroke="black" stroke-width="1" fill="none" />
<polyline points="301.0,166.0,293.0,171.0,285.0,172.0,277.0,172.0,269.0,171.0,261.0,170.0,253.0,169.0,245.0,168.0,237.0,165.0,229.0,159.0,221.0,146.0" stroke="black" stroke-width="1" fill="none" />
<polyline points="188.0,182.0,165.0,190.0,150.0,198.0,138.0,206.0,130.0,214.0,124.0,222.0,121.0,230.0,120.0,238.0,112.0,246.0,112.0,246.0,120.0,238.0" stroke="black" stroke-width="1" fill="none" />
<polyline points="121.0,230.0,129.0,215.0,137.0,207.0,145.0,201.0,153.0,196.0,161.0,192.0,169.0,189.0,177.0,186.0,185.0,183.0,193.0,181.0,201.0,179.0,209.0,178.0,217.0,177.0,225.0,176.0,233.0,176.0,241.0,176.0,249.0,176.0,257.0,177.0,265.0,177.0,273.0,179.0,281.0,181.0,289.0,183.0,297.0,186.0,305.0,189.0,313.0,193.0,321.0,198.0,329.0,205.0,337.0,212.0,345.0,220.0,353.0,230.0,361.0,247.0,366.0,254.0,367.0,262.0" stroke="black" stroke-width="1" fill="none" />
<polyline points="364.0,284.0,368.0,287.0,366.0,296.0,374.0,291.0" stroke="black" stroke-width="1" fill="none" />
<polyline points="359.0,298.0,359.0,301.0,360.0,309.0,360.0,317.0,361.0,325.0,359.0,333.0,358.0,341.0,358.0,349.0,358.0,357.0,356.0,365.0,355.0,373.0,354.0,378.0,352.0,386.0,350.0,394.0,348.0,402.0,346.0,410.0,341.0,418.0,338.0,426.0,334.0,434.0,330.0,442.0,325.0,450.0,320.0,458.0,314.0,466.0,307.0,474.0,298.0,482.0,284.0,490.0,271.0,490.0" stroke="black" stroke-width="1" fill="none" />
<polyline points="261.0,493.0,269.0,492.0,277.0,487.0,285.0,484.0,293.0,478.0,301.0,471.0,309.0,464.0,317.0,454.0,325.0,443.0,322.0,446.0,317.0,454.0,310.0,462.0,303.0,470.0,293.0,478.0,281.0,486.0" stroke="black" stroke-width="1" fill="none" />
<polyline points="265.0,435.0,257.0,436.0" stroke="black" stroke-width="1" fill="none" />
<polyline points="226.0,415.0,218.0,415.0,210.0,414.0,202.0,413.0" stroke="black" stroke-width="1" fill="none" />
<polyline points="218.0,379.0,226.0,383.0,234.0,381.0,242.0,387.0,250.0,387.0,258.0,382.0,266.0,377.0,274.0,377.0" stroke="black" stroke-width="1" fill="none" />
<polyline points="279.0,371.0,278.0,363.0,275.0,360.0" stroke="black" stroke-width="1" fill="none" />
<polyline points="264.0,377.0,256.0,385.0" stroke="black" stroke-width="1" fill="none" />
<polyline points="280.0,412.0,272.0,415.0,264.0,418.0,265.0,417.0,286.0,409.0" stroke="black" stroke-width="1" fill="none" />
<polyline points="301.0,397.0,288.0,405.0,269.0,412.0,277.0,410.0,285.0,406.0,293.0,402.0,301.0,397.0" stroke="black" stroke-width="1" fill="none" />
<polyline points="317.0,390.0,309.0,380.0" stroke="black" stroke-width="1" fill="none" />
<polyline points="309.0,380.0,316.0,388.0,317.0,396.0,314.0,404.0,315.0,412.0,313.0,420.0" stroke="black" stroke-width="1" fill="none" />
<polyline points="328.0,451.0,336.0,458.0" stroke="black" stroke-width="1" fill="none" />
<polyline points="339.0,462.0,331.0,454.0" stroke="black" stroke-width="1" fill="none" />
<polyline points="382.0,454.0,390.0,452.0,398.0,453.0" stroke="black" stroke-width="1" fill="none" />
<polyline points="397.0,445.0,405.0,445.0,413.0,444.0" stroke="black" stroke-width="1" fill="none" />
<polyline points="413.0,441.0,405.0,442.0,397.0,443.0" stroke="black" stroke-width="1" fill="none" />
<polyline points="402.0,457.0,394.0,455.0,386.0,454.0" stroke="black" stroke-width="1" fill="none" />
<polyline points="385.0,477.0,393.0,478.0,393.0,488.0,393.0,496.0,390.0,504.0,385.0,512.0,379.0,520.0,372.0,528.0,367.0,536.0,361.0,544.0,354.0,552.0,347.0,560.0,341.0,568.0,332.0,576.0,322.0,584.0,313.0,592.0,299.0,600.0,285.0,608.0,267.0,616.0,247.0,624.0" stroke="black" stroke-width="1" fill="none" />
<polyline points="276.0,629.0,298.0,621.0,316.0,613.0,310.0,616.0,302.0,620.0,294.0,623.0,286.0,626.0,278.0,629.0,270.0,631.0,262.0,633.0,254.0,634.0,246.0,636.0,238.0,638.0,230.0,639.0,222.0,639.0,214.0,639.0,206.0,637.0,198.0,636.0,190.0,634.0,182.0,631.0,174.0,627.0,166.0,622.0,158.0,615.0" stroke="black" stroke-width="1" fill="none" />
<polyline points="161.0,615.0,171.0,623.0" stroke="black" stroke-width="1" fill="none" />
<polyline points="181.0,631.0,167.0,623.0,158.0,615.0,154.0,607.0" stroke="black" stroke-width="1" fill="none" />
<polyline points="154.0,607.0,162.0,615.0,170.0,621.0,178.0,626.0,186.0,629.0,194.0,632.0,202.0,634.0,210.0,635.0,218.0,636.0,226.0,636.0,234.0,636.0,242.0,634.0,250.0,632.0,258.0,631.0" stroke="black" stroke-width="1" fill="none" />
<polyline points="157.0,575.0,165.0,591.0,173.0,603.0,181.0,607.0,189.0,609.0,197.0,615.0,205.0,619.0,213.0,621.0,221.0,624.0,229.0,626.0,237.0,626.0,245.0,625.0,253.0,622.0,261.0,618.0,269.0,615.0,277.0,613.0,285.0,608.0,293.0,603.0,301.0,599.0,309.0,595.0,317.0,588.0,325.0,581.0,333.0,575.0,341.0,568.0,349.0,558.0,357.0,549.0,365.0,539.0,373.0,527.0,381.0,517.0,389.0,506.0" stroke="black" stroke-width="1" fill="none" />
<polyline points="475.0,487.0,483.0,488.0" stroke="black" stroke-width="1" fill="none" />
<polyline points="329.0,352.0,335.0,344.0,338.0,336.0,340.0,328.0,342.0,320.0,343.0,312.0,343.0,312.0" stroke="black" stroke-width="1" fill="none" />
<polyline points="346.0,310.0,348.0,318.0,348.0,326.0,348.0,334.0,348.0,342.0,349.0,350.0,351.0,358.0,353.0,366.0,352.0,374.0" stroke="black" stroke-width="1" fill="none" />
<polyline points="339.0,269.0,331.0,266.0" stroke="black" stroke-width="1" fill="none" />
<polyline points="332.0,267.0,353.0,275.0,368.0,283.0,374.0,291.0,365.0,299.0,368.0,302.0,371.0,310.0,372.0,318.0,371.0,326.0,368.0,334.0,365.0,342.0,363.0,350.0,360.0,358.0" stroke="black" stroke-width="1" fill="none" />
<polyline points="372.0,278.0,364.0,275.0,356.0,270.0,348.0,261.0,340.0,255.0,332.0,248.0,324.0,244.0,316.0,240.0,308.0,237.0,300.0,233.0,292.0,233.0,284.0,230.0,276.0,228.0" stroke="black" stroke-width="1" fill="none" />
<polyline points="276.0,228.0,285.0,236.0,300.0,240.0,306.0,239.0,315.0,242.0,322.0,247.0" stroke="black" stroke-width="1" fill="none" />
<polyline points="322.0,243.0,333.0,251.0,345.0,259.0,352.0,267.0,363.0,275.0,372.0,283.0" stroke="black" stroke-width="1" fill="none" />
<polyline points="341.0,260.0,333.0,255.0,325.0,252.0,317.0,249.0,309.0,247.0,307.0,243.0,299.0,245.0,291.0,243.0,283.0,240.0,275.0,238.0" stroke="black" stroke-width="1" fill="none" />
<polyline points="274.0,236.0,282.0,237.0,290.0,239.0,298.0,233.0,301.0,241.0,309.0,242.0,322.0,252.0" stroke="black" stroke-width="1" fill="none" />
<polyline points="331.0,260.0,348.0,270.0" stroke="black" stroke-width="1" fill="none" />
<polyline points="352.0,271.0,344.0,270.0,335.0,265.0,327.0,265.0,319.0,263.0,311.0,261.0,303.0,260.0,295.0,258.0,287.0,257.0,278.0,254.0,270.0,253.0,262.0,254.0,254.0,254.0,246.0,253.0,238.0,252.0,230.0,252.0,222.0,251.0,214.0,251.0,206.0,251.0,198.0,252.0,190.0,252.0,182.0,252.0,174.0,253.0,166.0,253.0,158.0,254.0,150.0,254.0,142.0,255.0,134.0,257.0,126.0,261.0" stroke="black" stroke-width="1" fill="none" />
<polyline points="116.0,265.0,116.0,267.0,115.0,275.0,115.0,283.0,117.0,291.0,118.0,299.0,119.0,307.0,121.0,315.0,119.0,326.0,117.0,334.0,122.0,340.0,124.0,348.0,126.0,356.0,128.0,364.0,131.0,372.0,133.0,380.0,136.0,388.0,139.0,396.0,141.0,404.0,144.0,412.0,148.0,420.0,152.0,428.0,156.0,436.0,161.0,444.0,167.0,452.0,170.0,456.0,177.0,464.0,186.0,472.0,197.0,480.0,211.0,488.0" stroke="black" stroke-width="1" fill="none" />
<polyline points="210.0,479.0,202.0,474.0,193.0,465.0,185.0,459.0,177.0,456.0,169.0,447.0" stroke="black" stroke-width="1" fill="none" />
<polyline points="169.0,443.0,175.0,451.0,183.0,459.0,193.0,467.0,201.0,474.0" stroke="black" stroke-width="1" fill="none" />
<polyline points="171.0,487.0,163.0,496.0,155.0,517.0" stroke="black" stroke-width="1" fill="none" />
<polyline points="152.0,517.0,160.0,496.0,168.0,486.0,176.0,483.0,184.0,480.0" stroke="black" stroke-width="1" fill="none" />
<polyline points="166.0,476.0,158.0,478.0,150.0,475.0" stroke="black" stroke-width="1" fill="none" />
<polyline points="154.0,475.0,166.0,476.0,166.0,488.0,160.0,496.0,157.0,504.0,154.0,512.0,152.0,520.0,151.0,528.0,151.0,536.0,151.0,544.0,152.0,552.0,154.0,560.0,155.0,568.0,157.0,576.0,160.0,584.0,165.0,592.0,170.0,600.0,184.0,608.0,197.0,616.0,219.0,624.0" stroke="black" stroke-width="1" fill="none" />
<polyline points="177.0,475.0,169.0,474.0,161.0,471.0,153.0,469.0,145.0,467.0" stroke="black" stroke-width="1" fill="none" />
<polyline points="143.0,462.0,151.0,462.0,159.0,460.0" stroke="black" stroke-width="1" fill="none" />
<polyline points="147.0,437.0,139.0,438.0" stroke="black" stroke-width="1" fill="none" />
<polyline points="130.0,440.0,122.0,440.0" stroke="black" stroke-width="1" fill="none" />
<polyline points="109.0,441.0,117.0,438.0,120.0,445.0,128.0,443.0,129.0,445.0,140.0,443.0,144.0,436.0" stroke="black" stroke-width="1" fill="none" />
<polyline points="158.0,429.0,150.0,413.0,148.0,400.0" stroke="black" stroke-width="1" fill="none" />
<polyline points="142.0,389.0,134.0,367.0,132.0,352.0" stroke="black" stroke-width="1" fill="none" />
<polyline points="130.0,369.0,138.0,392.0,146.0,415.0,154.0,431.0,162.0,444.0,170.0,455.0,178.0,464.0,186.0,471.0,194.0,477.0,202.0,483.0,210.0,487.0,218.0,491.0,226.0,494.0,234.0,497.0,242.0,498.0,250.0,499.0,258.0,498.0,266.0,496.0,274.0,494.0,282.0,491.0,290.0,487.0,298.0,482.0,306.0,475.0,314.0,466.0,322.0,455.0,330.0,441.0,338.0,425.0" stroke="black" stroke-width="1" fill="none" />
<polyline points="329.0,352.0,321.0,357.0,313.0,359.0,305.0,360.0,297.0,360.0,289.0,359.0,281.0,356.0,273.0,351.0,265.0,342.0,257.0,327.0" stroke="black" stroke-width="1" fill="none" />
<polyline points="257.0,327.0,260.0,335.0,265.0,343.0,272.0,351.0,288.0,359.0" stroke="black" stroke-width="1" fill="none" />
<polyline points="227.0,382.0,218.0,380.0,217.0,372.0,219.0,364.0" stroke="black" stroke-width="1" fill="none" />
<polyline points="208.0,356.0,218.0,348.0,225.0,340.0,228.0,332.0,232.0,324.0,227.0,335.0,219.0,347.0,211.0,354.0,203.0,358.0,195.0,360.0,187.0,361.0,179.0,360.0,171.0,359.0,163.0,357.0,155.0,351.0,147.0,334.0" stroke="black" stroke-width="1" fill="none" />
<polyline points="130.0,342.0,116.0,341.0,116.0,328.0,114.0,327.0,112.0,331.0,118.0,323.0,117.0,315.0,115.0,307.0,114.0,299.0,113.0,291.0,111.0,283.0,109.0,275.0,103.0,267.0,106.0,259.0,106.0,251.0,114.0,241.0,108.0,233.0,104.0,225.0,103.0,217.0,102.0,209.0,103.0,201.0,104.0,193.0,106.0,185.0,109.0,177.0,112.0,169.0,117.0,161.0,123.0,153.0,130.0,145.0,137.0,137.0,137.0,137.0,129.0,146.0,121.0,155.0,113.0,167.0,105.0,187.0" stroke="black" stroke-width="1" fill="none" />
<polyline points="105.0,227.0,113.0,239.0" stroke="black" stroke-width="1" fill="none" />
<polyline points="136.0,256.0,128.0,256.0,136.0,250.0,144.0,248.0,152.0,247.0,160.0,246.0,168.0,245.0,176.0,245.0,184.0,245.0,192.0,244.0,200.0,244.0,208.0,244.0,216.0,244.0,224.0,244.0,232.0,245.0,240.0,245.0,248.0,245.0,256.0,246.0,264.0,247.0,272.0,248.0,280.0,249.0,288.0,250.0,296.0,251.0,304.0,253.0,312.0,255.0,320.0,257.0,328.0,259.0,336.0,261.0,344.0,264.0,347.0,272.0,354.0,275.0,362.0,279.0,370.0,284.0" stroke="black" stroke-width="1" fill="none" />
<polyline points="347.0,264.0,334.0,256.0" stroke="black" stroke-width="1" fill="none" />
<polyline points="293.0,238.0,285.0,235.0,277.0,231.0" stroke="black" stroke-width="1" fill="none" />
<polyline points="290.0,255.0,282.0,255.0,274.0,256.0,263.0,252.0,255.0,251.0,247.0,251.0,239.0,250.0" stroke="black" stroke-width="1" fill="none" />
<polyline points="232.0,231.0,240.0,231.0,248.0,229.0" stroke="black" stroke-width="1" fill="none" />
<polyline points="252.0,228.0,251.0,228.0,252.0,224.0,244.0,225.0,236.0,226.0,228.0,231.0" stroke="black" stroke-width="1" fill="none" />
<polyline points="216.0,232.0,208.0,232.0" stroke="black" stroke-width="1" fill="none" />
<polyline points="185.0,231.0,193.0,230.0,197.0,232.0,205.0,233.0,207.0,230.0,215.0,230.0,218.0,230.0,224.0,226.0,226.0,233.0,234.0,233.0,242.0,233.0,250.0,233.0,258.0,234.0" stroke="black" stroke-width="1" fill="none" />
<polyline points="301.0,257.0,293.0,256.0,292.0,254.0,284.0,252.0,276.0,251.0,268.0,251.0,260.0,249.0,252.0,249.0,244.0,248.0,236.0,250.0,228.0,249.0,220.0,249.0,212.0,249.0,204.0,249.0,196.0,249.0,188.0,249.0,180.0,250.0,172.0,250.0,164.0,250.0,156.0,251.0" stroke="black" stroke-width="1" fill="none" />
<polyline points="151.0,243.0,159.0,241.0,167.0,238.0,175.0,237.0,183.0,237.0,191.0,235.0,199.0,236.0,207.0,236.0,215.0,236.0,223.0,234.0,231.0,237.0,239.0,237.0,247.0,237.0,255.0,236.0" stroke="black" stroke-width="1" fill="none" />
<polyline points="224.0,223.0,216.0,225.0,208.0,223.0,200.0,225.0,192.0,227.0,184.0,228.0,176.0,231.0,168.0,234.0,160.0,236.0,152.0,238.0,164.0,235.0,185.0,227.0" stroke="black" stroke-width="1" fill="none" />
<polyline points="185.0,247.0,172.0,248.0,164.0,248.0,156.0,249.0,148.0,250.0,140.0,251.0" stroke="black" stroke-width="1" fill="none" />
<polyline points="138.0,253.0,135.0,253.0,126.0,261.0,121.0,272.0,122.0,280.0,122.0,288.0,122.0,295.0,122.0,303.0,123.0,311.0,125.0,319.0" stroke="black" stroke-width="1" fill="none" />
<polyline points="125.0,331.0,126.0,335.0,128.0,343.0,129.0,351.0,132.0,359.0,134.0,367.0,137.0,375.0,140.0,383.0,142.0,391.0,145.0,399.0,147.0,407.0,151.0,415.0,154.0,423.0,158.0,431.0,162.0,439.0,168.0,447.0,175.0,455.0,183.0,463.0,192.0,471.0,203.0,479.0" stroke="black" stroke-width="1" fill="none" />
<polyline points="161.0,477.0,151.0,473.0,143.0,472.0,135.0,472.0,131.0,467.0,123.0,468.0" stroke="black" stroke-width="1" fill="none" />
<polyline points="114.0,479.0,106.0,479.0,102.0,483.0,88.0,484.0,84.0,492.0,77.0,502.0,75.0,503.0,83.0,498.0,91.0,497.0,100.0,497.0,108.0,497.0,116.0,496.0,124.0,496.0,132.0,494.0,140.0,492.0,148.0,489.0,156.0,487.0,164.0,484.0,172.0,483.0,166.0,492.0,161.0,500.0,159.0,508.0,156.0,516.0,154.0,524.0,162.0,523.0,160.0,526.0" stroke="black" stroke-width="1" fill="none" />
<polyline points="115.0,490.0,107.0,493.0" stroke="black" stroke-width="1" fill="none" />
<polyline points="107.0,488.0,108.0,490.0,101.0,490.0,93.0,492.0,88.0,499.0,69.0,509.0,56.0,513.0,51.0,522.0,39.0,534.0,32.0,542.0,27.0,550.0,21.0,558.0,17.0,566.0,10.0,574.0,5.0,582.0,2.0,590.0,1.0,592.0,9.0,576.0,17.0,565.0,11.0,562.0,11.0,562.0,19.0,557.0,27.0,549.0" stroke="black" stroke-width="1" fill="none" />
<polyline points="35.0,527.0,27.0,529.0,19.0,527.0,11.0,525.0,3.0,524.0" stroke="black" stroke-width="1" fill="none" />
<polyline points="0.0,521.0,8.0,523.0,16.0,521.0,24.0,521.0,32.0,518.0,40.0,516.0,47.0,519.0,55.0,517.0,63.0,508.0,68.0,510.0" stroke="black" stroke-width="1" fill="none" />
<polyline points="65.0,504.0,73.0,507.0,81.0,504.0,89.0,502.0,97.0,499.0" stroke="black" stroke-width="1" fill="none" />
<polyline points="76.0,476.0,84.0,477.0,92.0,475.0,100.0,475.0,108.0,468.0,116.0,465.0,116.0,470.0,116.0,467.0,122.0,463.0,130.0,464.0,138.0,464.0,144.0,467.0,152.0,467.0,160.0,466.0,168.0,466.0" stroke="black" stroke-width="1" fill="none" />
<polyline points="141.0,454.0,133.0,454.0,122.0,456.0,114.0,456.0" stroke="black" stroke-width="1" fill="none" />
<polyline points="94.0,439.0,102.0,441.0,102.0,436.0,110.0,436.0,118.0,436.0,126.0,434.0,128.0,438.0,134.0,436.0,140.0,440.0,148.0,440.0,156.0,440.0,168.0,445.0,176.0,451.0" stroke="black" stroke-width="1" fill="none" />
<polyline points="121.0,409.0,119.0,411.0" stroke="black" stroke-width="1" fill="none" />
<polyline points="91.0,402.0,83.0,404.0" stroke="black" stroke-width="1" fill="none" />
<polyline points="74.0,421.0,66.0,421.0" stroke="black" stroke-width="1" fill="none" />
<polyline points="65.0,419.0,73.0,416.0,81.0,416.0" stroke="black" stroke-width="1" fill="none" />
<polyline points="88.0,435.0,90.0,433.0,98.0,430.0,106.0,431.0,114.0,426.0,122.0,426.0,127.0,424.0,135.0,431.0,143.0,433.0,151.0,433.0" stroke="black" stroke-width="1" fill="none" />
<polyline points="144.0,369.0,144.0,361.0,143.0,353.0,142.0,345.0,142.0,337.0,141.0,329.0,140.0,321.0,139.0,313.0,139.0,310.0" stroke="black" stroke-width="1" fill="none" />
<polyline points="146.0,305.0,154.0,294.0,152.0,296.0,147.0,304.0,152.0,291.0" stroke="black" stroke-width="1" fill="none" />
<polyline points="150.0,291.0,146.0,299.0,141.0,311.0,144.0,319.0,145.0,327.0,147.0,335.0,149.0,343.0,154.0,351.0,169.0,359.0" stroke="black" stroke-width="1" fill="none" />
<polyline points="127.0,331.0,129.0,339.0,130.0,348.0,133.0,356.0,137.0,364.0,141.0,372.0,143.0,380.0,144.0,388.0,148.0,400.0,151.0,408.0" stroke="black" stroke-width="1" fill="none" />
<polyline points="136.0,477.0,128.0,478.0,120.0,475.0,112.0,472.0,104.0,472.0,96.0,469.0,88.0,468.0,80.0,467.0,72.0,466.0" stroke="black" stroke-width="1" fill="none" />
<polyline points="73.0,469.0,72.0,477.0,71.0,478.0,77.0,480.0,85.0,481.0,97.0,483.0,103.0,478.0,111.0,476.0,113.0,482.0,121.0,480.0,132.0,474.0,142.0,474.0,146.0,478.0,151.0,480.0,158.0,482.0,163.0,480.0,171.0,480.0,179.0,478.0,187.0,477.0" stroke="black" stroke-width="1" fill="none" />
<polyline points="83.0,472.0,75.0,471.0" stroke="black" stroke-width="1" fill="none" />
<polyline points="68.0,481.0,60.0,481.0" stroke="black" stroke-width="1" fill="none" />
<polyline points="62.0,472.0,59.0,480.0,50.0,491.0,43.0,496.0,51.0,491.0,59.0,489.0,67.0,487.0,71.0,489.0,73.0,487.0,81.0,487.0,89.0,484.0,100.0,480.0,107.0,479.0,109.0,478.0,116.0,483.0" stroke="black" stroke-width="1" fill="none" />
<polyline points="101.0,450.0,98.0,456.0,97.0,458.0,84.0,455.0,76.0,455.0,68.0,454.0" stroke="black" stroke-width="1" fill="none" />
<polyline points="82.0,441.0,74.0,446.0,66.0,447.0,62.0,452.0,54.0,452.0,46.0,452.0,38.0,452.0,29.0,454.0,21.0,451.0,13.0,450.0,7.0,444.0,6.0,450.0" stroke="black" stroke-width="1" fill="none" />
<polyline points="5.0,449.0,13.0,448.0,21.0,448.0,29.0,446.0,37.0,441.0,45.0,440.0,54.0,441.0,62.0,441.0,69.0,445.0,76.0,442.0" stroke="black" stroke-width="1" fill="none" />
<polyline points="84.0,441.0,80.0,444.0,79.0,448.0,87.0,450.0,95.0,450.0,103.0,448.0,111.0,448.0,119.0,448.0,127.0,447.0,135.0,447.0,143.0,446.0,151.0,446.0,151.0,444.0,154.0,446.0,156.0,450.0,158.0,455.0,164.0,456.0,166.0,461.0,171.0,464.0,185.0,464.0,193.0,471.0,201.0,477.0,209.0,482.0,217.0,483.0,222.0,477.0" stroke="black" stroke-width="1" fill="none" />
<polyline points="76.0,411.0,68.0,412.0,60.0,412.0" stroke="black" stroke-width="1" fill="none" />
<polyline points="59.0,411.0,67.0,410.0,75.0,408.0,83.0,402.0,91.0,399.0,104.0,395.0" stroke="black" stroke-width="1" fill="none" />
<polyline points="49.0,401.0,41.0,400.0" stroke="black" stroke-width="1" fill="none" />
<polyline points="38.0,412.0,46.0,414.0" stroke="black" stroke-width="1" fill="none" />
<polyline points="20.0,438.0,12.0,439.0,4.0,438.0" stroke="black" stroke-width="1" fill="none" />
<polyline points="0.0,436.0,3.0,430.0,11.0,428.0,16.0,422.0,24.0,421.0,32.0,418.0,36.0,425.0" stroke="black" stroke-width="1" fill="none" />
<polyline points="22.0,427.0,16.0,431.0,8.0,432.0,0.0,434.0" stroke="black" stroke-width="1" fill="none" />
<polyline points="0.0,426.0,8.0,425.0,15.0,424.0,23.0,425.0,31.0,424.0,39.0,423.0" stroke="black" stroke-width="1" fill="none" />
<polyline points="40.0,428.0,32.0,429.0,28.0,420.0,27.0,422.0,16.0,413.0,8.0,418.0,0.0,419.0" stroke="black" stroke-width="1" fill="none" />
<polyline points="1.0,410.0,9.0,412.0,12.0,411.0,13.0,419.0,15.0,424.0,24.0,437.0,21.0,435.0,29.0,435.0,39.0,434.0,43.0,438.0,48.0,434.0,56.0,433.0,64.0,433.0,68.0,425.0,76.0,424.0,85.0,423.0,93.0,423.0,101.0,420.0,109.0,420.0,120.0,421.0,128.0,420.0,135.0,427.0,141.0,428.0,149.0,428.0" stroke="black" stroke-width="1" fill="none" />
<polyline points="84.0,483.0,76.0,483.0,68.0,484.0,60.0,485.0,52.0,488.0,43.0,487.0,35.0,488.0,35.0,485.0" stroke="black" stroke-width="1" fill="none" />
<polyline points="42.0,479.0,34.0,479.0,22.0,480.0,14.0,479.0" stroke="black" stroke-width="1" fill="none" />
<polyline points="0.0,475.0,8.0,476.0,16.0,477.0,24.0,474.0,32.0,474.0,40.0,475.0,48.0,475.0,56.0,475.0,64.0,472.0,72.0,470.0,80.0,469.0" stroke="black" stroke-width="1" fill="none" />
<polyline points="30.0,469.0,22.0,471.0,17.0,464.0,9.0,463.0" stroke="black" stroke-width="1" fill="none" />
<polyline points="9.0,461.0,17.0,461.0,25.0,462.0,35.0,461.0,48.0,466.0,56.0,466.0,64.0,466.0,75.0,460.0,76.0,465.0,84.0,465.0,92.0,464.0,100.0,463.0,103.0,465.0,111.0,463.0,119.0,460.0,127.0,461.0,135.0,461.0,143.0,460.0,151.0,460.0,159.0,458.0" stroke="black" stroke-width="1" fill="none" />
<polyline points="53.0,515.0,45.0,517.0,37.0,518.0,35.0,525.0,27.0,525.0,21.0,525.0,16.0,516.0,8.0,516.0,0.0,516.0" stroke="black" stroke-width="1" fill="none" />
<polyline points="0.0,514.0,8.0,514.0,16.0,514.0,26.0,514.0,36.0,520.0,44.0,521.0,52.0,521.0" stroke="black" stroke-width="1" fill="none" />
<polyline points="46.0,527.0,38.0,530.0,30.0,532.0,20.0,533.0,12.0,534.0,4.0,534.0" stroke="black" stroke-width="1" fill="none" />
<polyline points="0.0,534.0,8.0,531.0" stroke="black" stroke-width="1" fill="none" />
<polyline points="8.0,528.0,0.0,531.0" stroke="black" stroke-width="1" fill="none" />
<polyline points="0.0,538.0,8.0,536.0,16.0,535.0,24.0,536.0,32.0,534.0,40.0,534.0" stroke="black" stroke-width="1" fill="none" />
<polyline points="21.0,551.0,13.0,555.0,5.0,555.0,3.0,552.0,0.0,559.0" stroke="black" stroke-width="1" fill="none" />
<polyline points="0.0,564.0,8.0,568.0" stroke="black" stroke-width="1" fill="none" />
<polyline points="0.0,548.0,8.0,546.0,16.0,545.0,9.0,549.0,14.0,550.0,17.0,550.0,17.0,548.0,25.0,545.0" stroke="black" stroke-width="1" fill="none" />
<polyline points="32.0,542.0,24.0,543.0,16.0,542.0,8.0,542.0,0.0,543.0" stroke="black" stroke-width="1" fill="none" />
<polyline points="0.0,509.0,8.0,510.0,16.0,507.0,24.0,508.0,32.0,510.0,46.0,509.0,54.0,509.0,65.0,502.0,73.0,500.0" stroke="black" stroke-width="1" fill="none" />
<polyline points="8.0,507.0,0.0,506.0" stroke="black" stroke-width="1" fill="none" />
<polyline points="0.0,504.0,8.0,504.0,13.0,505.0,17.0,512.0,25.0,511.0,33.0,514.0,41.0,512.0,49.0,512.0" stroke="black" stroke-width="1" fill="none" />
<polyline points="74.0,494.0,65.0,494.0,62.0,501.0,62.0,499.0,54.0,500.0,50.0,506.0,47.0,502.0,44.0,498.0,36.0,499.0,32.0,499.0,24.0,499.0,16.0,501.0,8.0,501.0,0.0,502.0" stroke="black" stroke-width="1" fill="none" />
<polyline points="0.0,499.0,8.0,499.0,16.0,498.0,18.0,502.0,26.0,502.0,27.0,504.0,32.0,507.0,40.0,506.0,42.0,500.0,50.0,500.0,58.0,497.0,66.0,498.0,74.0,497.0,82.0,495.0,85.0,491.0,93.0,488.0" stroke="black" stroke-width="1" fill="none" />
<polyline points="24.0,495.0,16.0,496.0,8.0,495.0,8.0,493.0,0.0,497.0" stroke="black" stroke-width="1" fill="none" />
<polyline points="0.0,491.0,3.0,486.0,6.0,480.0,7.0,483.0,8.0,485.0,16.0,485.0,16.0,487.0,26.0,489.0,34.0,491.0,42.0,492.0,53.0,494.0,61.0,493.0,70.0,491.0,78.0,491.0,86.0,488.0,89.0,494.0,97.0,493.0,105.0,490.0,107.0,485.0,115.0,487.0,123.0,485.0" stroke="black" stroke-width="1" fill="none" />
<polyline points="159.0,463.0,149.0,455.0,143.0,452.0,129.0,449.0,122.0,454.0,114.0,454.0,101.0,460.0,99.0,473.0,91.0,473.0,83.0,474.0,75.0,474.0,67.0,476.0,59.0,479.0,51.0,485.0,46.0,482.0,37.0,483.0,29.0,484.0,29.0,481.0,21.0,489.0,13.0,489.0,8.0,487.0,0.0,488.0" stroke="black" stroke-width="1" fill="none" />
<polyline points="0.0,473.0,2.0,468.0,7.0,468.0,10.0,469.0,18.0,467.0,26.0,464.0,34.0,464.0,42.0,463.0,50.0,457.0,58.0,456.0,66.0,458.0,74.0,457.0" stroke="black" stroke-width="1" fill="none" />
<polyline points="62.0,469.0,54.0,468.0,46.0,469.0,38.0,467.0,30.0,466.0,22.0,468.0,14.0,472.0,6.0,473.0,4.0,465.0,0.0,470.0" stroke="black" stroke-width="1" fill="none" />
<polyline points="0.0,461.0,8.0,459.0,16.0,459.0,24.0,459.0,32.0,459.0,40.0,459.0,44.0,461.0,43.0,467.0,51.0,462.0,59.0,461.0,67.0,462.0,71.0,450.0,79.0,453.0,90.0,452.0,92.0,455.0,100.0,453.0,105.0,456.0,109.0,452.0,117.0,451.0,125.0,453.0,133.0,452.0,140.0,449.0,148.0,448.0,157.0,453.0,167.0,456.0" stroke="black" stroke-width="1" fill="none" />
<polyline points="112.0,433.0,104.0,433.0,96.0,437.0,90.0,444.0,89.0,442.0,88.0,439.0,80.0,437.0,72.0,440.0,64.0,442.0,60.0,444.0,52.0,443.0,44.0,443.0,41.0,449.0,35.0,446.0,24.0,455.0,16.0,453.0,8.0,452.0,0.0,450.0" stroke="black" stroke-width="1" fill="none" />
<polyline points="0.0,447.0,4.0,440.0,12.0,441.0,19.0,444.0,27.0,441.0,31.0,438.0,39.0,436.0,51.0,437.0,59.0,435.0,64.0,428.0,72.0,430.0,75.0,427.0,83.0,427.0,91.0,425.0,99.0,424.0,107.0,423.0,115.0,421.0,121.0,428.0,129.0,426.0,139.0,431.0,147.0,431.0" stroke="black" stroke-width="1" fill="none" />
<polyline points="117.0,342.0,120.0,334.0" stroke="black" stroke-width="1" fill="none" />
<polyline points="116.0,320.0,108.0,321.0,106.0,323.0" stroke="black" stroke-width="1" fill="none" />
<polyline points="129.0,294.0,129.0,286.0,129.0,278.0,126.0,273.0" stroke="black" stroke-width="1" fill="none" />
<polyline points="285.0,182.0,305.0,190.0,319.0,198.0,330.0,206.0,338.0,214.0,346.0,222.0,352.0,230.0,357.0,238.0,360.0,246.0,362.0,254.0,364.0,262.0,365.0,270.0,371.0,278.0,372.0,282.0" stroke="black" stroke-width="1" fill="none" />
<polyline points="384.0,251.0,376.0,266.0,370.0,273.0,377.0,265.0,382.0,257.0,385.0,249.0,387.0,241.0" stroke="black" stroke-width="1" fill="none" />
<polyline points="16.0,455.0,8.0,456.0,0.0,454.0" stroke="black" stroke-width="1" fill="none" />
<polyline points="150.0,187.5,300.0,187.5" stroke="black" stroke-width="1" fill="none" />
<polyline points="300.0,150.0,150.0,300.0" stroke="black" stroke-width="1" fill="none" />
<polyline points="150.0,337.5,300.0,337.5" stroke="black" stroke-width="1" fill="none" />
</svg>