<svg xmlns="http://www.w3.org/2000/svg" height="636px" width="414px" version="1.1"><polyline points="255.0,82.5,243.0,94.5,231.0,106.5,222.0,118.5,219.0,130.5,219.0,142.5,223.5,154.5,238.5,166.5,250.5,156.0,250.5,162.0,264.0,160.5,270.0,163.5,282.0,163.5,294.0,154.5" stroke="black" stroke-width="1" fill="none" />
<polyline points="294.0,136.5,279.0,150.0,273.0,150.0,271.5,147.0,270.0,144.0,285.0,144.0,285.0,132.0,280.5,120.0,277.5,106.5,282.0,94.5,277.5,91.5,265.5,88.5,253.5,93.0" stroke="black" stroke-width="1" fill="none" />
<polyline points="259.5,93.0,258.0,105.0,262.5,106.5,250.5,117.0,240.0,120.0,243.0,136.5,249.0,148.5,259.5,162.0" stroke="black" stroke-width="1" fill="none" />
<polyline points="265.5,141.0,267.0,132.0,256.5,129.0" stroke="black" stroke-width="1" fill="none" />
<polyline points="255.0,126.0,267.0,114.0,274.5,103.5,280.5,109.5,285.0,114.0,297.0,121.5" stroke="black" stroke-width="1" fill="none" />
<polyline points="307.5,124.5,295.5,105.0" stroke="black" stroke-width="1" fill="none" />
<polyline points="274.5,94.5,261.0,97.5,258.0,94.5,256.5,111.0,253.5,108.0,241.5,112.5,229.5,117.0" stroke="black" stroke-width="1" fill="none" />
<polyline points="229.5,117.0,228.0,129.0,226.5,141.0,235.5,153.0" stroke="black" stroke-width="1" fill="none" />
<polyline points="235.5,151.5,232.5,138.0" stroke="black" stroke-width="1" fill="none" />
<polyline points="235.5,133.5,249.0,135.0,253.5,147.0" stroke="black" stroke-width="1" fill="none" />
<polyline points="261.0,144.0,249.0,135.0" stroke="black" stroke-width="1" fill="none" />
<polyline points="220.5,145.5,232.5,162.0,244.5,168.0,256.5,169.5,268.5,171.0,280.5,172.5,292.5,171.0,304.5,160.5" stroke="black" stroke-width="1" fill="none" />
<polyline points="283.5,162.0,301.5,150.0,289.5,150.0,295.5,144.0,295.5,139.5,300.0,127.5,295.5,121.5,285.0,103.5,291.0,90.0,279.0,84.0,267.0,81.0,255.0,82.5,243.0,94.5,231.0,106.5,219.0,124.5" stroke="black" stroke-width="1" fill="none" />
<polyline points="259.5,88.5,253.5,100.5,237.0,111.0,237.0,121.5,235.5,133.5,243.0,150.0,255.0,148.5,267.0,150.0,271.5,127.5,271.5,130.5,292.5,126.0" stroke="black" stroke-width="1" fill="none" />
<polyline points="279.0,141.0,273.0,153.0,271.5,165.0,286.5,153.0" stroke="black" stroke-width="1" fill="none" />
<polyline points="283.5,181.5,312.0,193.5,328.5,205.5,342.0,217.5,351.0,229.5,358.5,241.5,361.5,253.5,363.0,265.5,370.5,277.5,373.5,292.5,367.5,304.5,370.5,316.5,369.0,328.5,364.5,340.5,361.5,352.5,357.0,364.5,354.0,376.5,351.0,388.5,348.0,400.5,345.0,412.5,337.5,424.5,331.5,436.5,327.0,448.5,318.0,460.5,307.5,472.5,294.0,484.5,262.5,492.0,274.5,487.5,286.5,483.0,298.5,472.5,310.5,460.5,322.5,444.0" stroke="black" stroke-width="1" fill="none" />
<polyline points="325.5,439.5,318.0,451.5,309.0,463.5,294.0,475.5" stroke="black" stroke-width="1" fill="none" />
<polyline points="328.5,453.0,342.0,465.0" stroke="black" stroke-width="1" fill="none" />
<polyline points="340.5,463.5,328.5,453.0" stroke="black" stroke-width="1" fill="none" />
<polyline points="382.5,454.5,394.5,453.0,402.0,441.0,414.0,441.0" stroke="black" stroke-width="1" fill="none" />
<polyline points="397.5,456.0,385.5,454.5" stroke="black" stroke-width="1" fill="none" />
<polyline points="337.5,424.5,325.5,450.0,313.5,466.5,301.5,480.0,289.5,487.5,277.5,493.5,265.5,496.5,253.5,499.5,241.5,498.0,229.5,496.5,217.5,490.5,205.5,484.5,193.5,477.0,181.5,468.0,169.5,454.5,157.5,438.0,145.5,415.5,133.5,381.0,132.0,351.0" stroke="black" stroke-width="1" fill="none" />
<polyline points="132.0,352.5,136.5,364.5,141.0,376.5,144.0,388.5" stroke="black" stroke-width="1" fill="none" />
<polyline points="150.0,414.0,162.0,436.5,174.0,448.5,175.5,450.0,186.0,462.0,201.0,474.0" stroke="black" stroke-width="1" fill="none" />
<polyline points="202.5,474.0,190.5,463.5,178.5,453.0" stroke="black" stroke-width="1" fill="none" />
<polyline points="171.0,474.0,159.0,471.0" stroke="black" stroke-width="1" fill="none" />
<polyline points="160.5,466.5,148.5,466.5" stroke="black" stroke-width="1" fill="none" />
<polyline points="151.5,475.5,153.0,487.5" stroke="black" stroke-width="1" fill="none" />
<polyline points="162.0,490.5,154.5,526.5,157.5,514.5,160.5,502.5,154.5,519.0" stroke="black" stroke-width="1" fill="none" />
<polyline points="151.5,489.0,139.5,492.0,127.5,495.0,115.5,496.5,103.5,498.0,91.5,501.0,79.5,505.5,67.5,505.5,55.5,516.0,52.5,511.5,52.5,514.5,40.5,516.0,37.5,507.0,25.5,505.5,13.5,505.5,1.5,507.0,0.0,514.5" stroke="black" stroke-width="1" fill="none" />
<polyline points="0.0,510.0,12.0,511.5,24.0,513.0,36.0,513.0,48.0,508.5" stroke="black" stroke-width="1" fill="none" />
<polyline points="42.0,505.5,54.0,504.0,67.5,502.5,79.5,499.5" stroke="black" stroke-width="1" fill="none" />
<polyline points="73.5,493.5,85.5,492.0" stroke="black" stroke-width="1" fill="none" />
<polyline points="88.5,477.0,100.5,477.0,112.5,477.0,103.5,487.5,97.5,487.5,94.5,498.0,63.0,508.5,51.0,520.5,40.5,522.0,34.5,540.0,25.5,552.0,18.0,564.0,9.0,576.0,3.0,588.0,6.0,580.5,18.0,562.5" stroke="black" stroke-width="1" fill="none" />
<polyline points="19.5,547.5,7.5,550.5,1.5,549.0,7.5,550.5,16.5,553.5,4.5,555.0" stroke="black" stroke-width="1" fill="none" />
<polyline points="0.0,556.5,12.0,561.0,24.0,553.5" stroke="black" stroke-width="1" fill="none" />
<polyline points="36.0,537.0,24.0,544.5,12.0,543.0,0.0,543.0" stroke="black" stroke-width="1" fill="none" />
<polyline points="0.0,538.5,12.0,537.0,16.5,535.5,28.5,535.5,30.0,528.0" stroke="black" stroke-width="1" fill="none" />
<polyline points="40.5,529.5,36.0,523.5,24.0,525.0,12.0,525.0,0.0,526.5,0.0,531.0" stroke="black" stroke-width="1" fill="none" />
<polyline points="0.0,522.0,12.0,519.0,21.0,520.5,33.0,520.5,43.5,522.0" stroke="black" stroke-width="1" fill="none" />
<polyline points="0.0,499.5,12.0,501.0,24.0,498.0,36.0,499.5,48.0,499.5,51.0,493.5,63.0,495.0,72.0,498.0,84.0,495.0,96.0,493.5,108.0,486.0" stroke="black" stroke-width="1" fill="none" />
<polyline points="99.0,471.0,111.0,472.5,123.0,475.5" stroke="black" stroke-width="1" fill="none" />
<polyline points="118.5,463.5,103.5,465.0,81.0,469.5,73.5,474.0,85.5,468.0,90.0,460.5,102.0,453.0" stroke="black" stroke-width="1" fill="none" />
<polyline points="103.5,465.0,115.5,460.5,127.5,460.5,139.5,460.5,151.5,459.0,163.5,459.0" stroke="black" stroke-width="1" fill="none" />
<polyline points="153.0,456.0,151.5,454.5,150.0,453.0,144.0,445.5,133.5,447.0" stroke="black" stroke-width="1" fill="none" />
<polyline points="106.5,444.0,94.5,441.0" stroke="black" stroke-width="1" fill="none" />
<polyline points="69.0,412.5,57.0,409.5" stroke="black" stroke-width="1" fill="none" />
<polyline points="24.0,421.5,12.0,421.5" stroke="black" stroke-width="1" fill="none" />
<polyline points="13.5,409.5,1.5,412.5" stroke="black" stroke-width="1" fill="none" />
<polyline points="0.0,430.5,12.0,427.5,24.0,427.5,27.0,429.0,39.0,429.0,51.0,430.5,63.0,432.0,70.5,423.0,82.5,423.0,94.5,421.5,106.5,420.0,117.0,426.0,123.0,429.0,135.0,429.0,138.0,430.5" stroke="black" stroke-width="1" fill="none" />
<polyline points="141.0,387.0,129.0,352.5" stroke="black" stroke-width="1" fill="none" />
<polyline points="130.5,345.0,130.5,357.0,133.5,369.0,138.0,381.0,142.5,393.0,145.5,405.0,151.5,417.0,157.5,429.0,165.0,441.0,172.5,453.0,184.5,465.0,199.5,477.0" stroke="black" stroke-width="1" fill="none" />
<polyline points="178.5,483.0,166.5,483.0,154.5,475.5,142.5,477.0,142.5,471.0,130.5,471.0,126.0,478.5,120.0,480.0,114.0,486.0,94.5,481.5,82.5,486.0,75.0,483.0,69.0,487.5,57.0,489.0,45.0,495.0,28.5,489.0,16.5,489.0,12.0,495.0,0.0,496.5" stroke="black" stroke-width="1" fill="none" />
<polyline points="1.5,489.0,3.0,483.0,15.0,486.0,27.0,484.5,28.5,480.0,31.5,487.5,43.5,487.5,52.5,480.0,64.5,484.5,76.5,480.0,78.0,477.0,90.0,472.5,96.0,462.0,108.0,456.0,120.0,456.0,129.0,454.5,141.0,450.0" stroke="black" stroke-width="1" fill="none" />
<polyline points="105.0,424.5,93.0,426.0,81.0,427.5,69.0,429.0,60.0,435.0,48.0,436.5,37.5,432.0,25.5,433.5,15.0,432.0,3.0,433.5" stroke="black" stroke-width="1" fill="none" />
<polyline points="4.5,439.5,16.5,444.0,24.0,436.5,28.5,442.5,40.5,448.5,52.5,441.0,64.5,438.0" stroke="black" stroke-width="1" fill="none" />
<polyline points="81.0,460.5,69.0,460.5,57.0,460.5,45.0,462.0" stroke="black" stroke-width="1" fill="none" />
<polyline points="24.0,468.0,24.0,465.0,12.0,466.5" stroke="black" stroke-width="1" fill="none" />
<polyline points="4.5,459.0,16.5,459.0,28.5,459.0,28.5,466.5,40.5,469.5,52.5,469.5" stroke="black" stroke-width="1" fill="none" />
<polyline points="0.0,474.0,12.0,477.0,24.0,474.0,36.0,475.5,48.0,475.5,60.0,477.0,72.0,466.5,90.0,463.5,102.0,468.0,114.0,469.5,126.0,463.5,138.0,465.0,147.0,469.5,148.5,463.5,160.5,462.0,174.0,454.5,186.0,465.0,198.0,475.5,210.0,483.0" stroke="black" stroke-width="1" fill="none" />
<polyline points="232.5,498.0,205.5,486.0,187.5,474.0,175.5,462.0,166.5,451.5,157.5,439.5,151.5,427.5,145.5,415.5,141.0,403.5,136.5,391.5,132.0,379.5,129.0,367.5,126.0,355.5,123.0,343.5,114.0,339.0,118.5,327.0,115.5,310.5,114.0,298.5,111.0,286.5,109.5,274.5,105.0,262.5,106.5,250.5,109.5,235.5,103.5,223.5,102.0,211.5,102.0,199.5,105.0,187.5,108.0,175.5,115.5,163.5,123.0,151.5,133.5,139.5,147.0,127.5,166.5,115.5,190.5,103.5,190.5,103.5,178.5,109.5,166.5,115.5,154.5,123.0,142.5,132.0,130.5,142.5,118.5,157.5,106.5,180.0" stroke="black" stroke-width="1" fill="none" />
<polyline points="177.0,184.5,150.0,196.5,133.5,208.5,124.5,220.5,121.5,232.5,112.5,244.5,114.0,244.5,124.5,220.5,136.5,207.0,148.5,198.0,160.5,192.0,172.5,187.5,184.5,183.0,196.5,180.0,208.5,177.0,220.5,177.0,232.5,175.5,244.5,175.5,256.5,175.5,268.5,177.0,280.5,180.0,292.5,184.5,304.5,189.0,316.5,195.0,328.5,204.0,340.5,214.5,352.5,229.5" stroke="black" stroke-width="1" fill="none" />
<polyline points="355.5,223.5,343.5,207.0,331.5,198.0,319.5,190.5" stroke="black" stroke-width="1" fill="none" />
<polyline points="319.5,190.5,336.0,202.5,348.0,214.5,357.0,226.5" stroke="black" stroke-width="1" fill="none" />
<polyline points="373.5,268.5,381.0,256.5,385.5,244.5,385.5,243.0,373.5,267.0,357.0,271.5,345.0,259.5,327.0,247.5,303.0,237.0,285.0,231.0,277.5,231.0" stroke="black" stroke-width="1" fill="none" />
<polyline points="276.0,228.0,288.0,232.5,300.0,232.5,312.0,238.5,324.0,244.5,336.0,252.0,348.0,261.0,360.0,273.0" stroke="black" stroke-width="1" fill="none" />
<polyline points="342.0,303.0,345.0,309.0,346.5,321.0,348.0,333.0,348.0,345.0,349.5,357.0,351.0,369.0,358.5,357.0" stroke="black" stroke-width="1" fill="none" />
<polyline points="358.5,339.0,360.0,327.0,360.0,315.0,358.5,303.0,372.0,286.5,351.0,274.5,331.5,259.5,319.5,256.5,307.5,253.5,295.5,250.5,283.5,249.0,271.5,247.5,259.5,246.0,247.5,244.5,235.5,244.5,223.5,244.5,211.5,243.0,199.5,243.0,187.5,244.5,175.5,244.5,163.5,244.5,151.5,246.0" stroke="black" stroke-width="1" fill="none" />
<polyline points="151.5,253.5,163.5,253.5,175.5,253.5,187.5,252.0,199.5,252.0,211.5,252.0,223.5,252.0,235.5,252.0,247.5,253.5,259.5,255.0,271.5,256.5,283.5,258.0,295.5,259.5,307.5,261.0,319.5,264.0,331.5,267.0,343.5,270.0,355.5,276.0,367.5,283.5,369.0,295.5" stroke="black" stroke-width="1" fill="none" />
<polyline points="336.0,256.5,324.0,252.0,312.0,247.5,301.5,246.0,289.5,243.0,283.5,241.5,282.0,237.0,261.0,234.0,249.0,232.5,244.5,225.0,232.5,226.5,220.5,223.5,208.5,223.5,196.5,225.0,184.5,228.0,172.5,231.0,160.5,235.5,148.5,246.0,136.5,249.0,124.5,258.0" stroke="black" stroke-width="1" fill="none" />
<polyline points="127.5,261.0,139.5,255.0,151.5,250.5,157.5,241.5,169.5,238.5,181.5,237.0,193.5,235.5,201.0,235.5,213.0,237.0,225.0,232.5,234.0,231.0,246.0,229.5" stroke="black" stroke-width="1" fill="none" />
<polyline points="252.0,237.0,240.0,237.0,228.0,237.0" stroke="black" stroke-width="1" fill="none" />
<polyline points="204.0,249.0,192.0,249.0,180.0,249.0,168.0,249.0" stroke="black" stroke-width="1" fill="none" />
<polyline points="186.0,226.5,150.0,238.5,135.0,250.5,117.0,264.0,114.0,276.0,115.5,288.0,118.5,300.0,120.0,312.0" stroke="black" stroke-width="1" fill="none" />
<polyline points="124.5,319.5,123.0,307.5,121.5,295.5,123.0,283.5,120.0,271.5,115.5,265.5" stroke="black" stroke-width="1" fill="none" />
<polyline points="129.0,277.5,129.0,289.5" stroke="black" stroke-width="1" fill="none" />
<polyline points="139.5,301.5,151.5,289.5,148.5,294.0,139.5,306.0,139.5,318.0,141.0,330.0,142.5,342.0,142.5,354.0,144.0,366.0" stroke="black" stroke-width="1" fill="none" />
<polyline points="151.5,331.5,163.5,336.0" stroke="black" stroke-width="1" fill="none" />
<polyline points="157.5,322.5,150.0,333.0,159.0,321.0" stroke="black" stroke-width="1" fill="none" />
<polyline points="160.5,298.5,148.5,312.0,145.5,316.5,153.0,304.5,165.0,292.5" stroke="black" stroke-width="1" fill="none" />
<polyline points="118.5,322.5,106.5,327.0" stroke="black" stroke-width="1" fill="none" />
<polyline points="216.0,370.5,228.0,358.5,232.5,364.5,217.5,367.5,217.5,379.5,223.5,384.0,235.5,381.0,247.5,387.0,259.5,379.5,271.5,376.5" stroke="black" stroke-width="1" fill="none" />
<polyline points="258.0,382.5,279.0,370.5,279.0,366.0,267.0,358.5,255.0,361.5" stroke="black" stroke-width="1" fill="none" />
<polyline points="306.0,375.0,315.0,387.0,316.5,399.0,313.5,411.0,310.5,423.0" stroke="black" stroke-width="1" fill="none" />
<polyline points="298.5,408.0,303.0,420.0,298.5,432.0,294.0,444.0" stroke="black" stroke-width="1" fill="none" />
<polyline points="303.0,412.5,291.0,408.0,279.0,423.0,267.0,429.0,283.5,418.5,292.5,406.5" stroke="black" stroke-width="1" fill="none" />
<polyline points="294.0,400.5,282.0,406.5,279.0,408.0,301.5,396.0" stroke="black" stroke-width="1" fill="none" />
<polyline points="340.5,261.0,315.0,249.0" stroke="black" stroke-width="1" fill="none" />
<polyline points="294.0,145.5,274.5,142.5,261.0,148.5,253.5,139.5,262.5,136.5,259.5,124.5,270.0,106.5,271.5,94.5" stroke="black" stroke-width="1" fill="none" />
<polyline points="279.0,84.0,292.5,96.0,295.5,108.0,303.0,120.0,309.0,132.0,310.5,144.0,307.5,156.0,297.0,168.0" stroke="black" stroke-width="1" fill="none" />
<polyline points="147.0,441.0,135.0,442.5,121.5,447.0,109.5,448.5,97.5,448.5,85.5,450.0,75.0,451.5,70.5,451.5,69.0,457.5,57.0,456.0,45.0,457.5,40.5,465.0,28.5,463.5,16.5,462.0,12.0,456.0,0.0,454.5" stroke="black" stroke-width="1" fill="none" />
<polyline points="0.0,451.5,12.0,447.0,16.5,451.5,28.5,454.5,40.5,453.0,52.5,453.0,55.5,444.0,58.5,448.5,67.5,442.5,79.5,438.0,93.0,438.0,105.0,436.5,117.0,435.0,121.5,441.0,127.5,433.5" stroke="black" stroke-width="1" fill="none" />
<polyline points="171.0,484.5,159.0,496.5,154.5,508.5,151.5,520.5,150.0,532.5,150.0,544.5,153.0,556.5,154.5,568.5,157.5,580.5,163.5,592.5,172.5,604.5,196.5,616.5" stroke="black" stroke-width="1" fill="none" />
<polyline points="192.0,631.5,166.5,619.5,154.5,607.5" stroke="black" stroke-width="1" fill="none" />
<polyline points="154.5,607.5,166.5,618.0,178.5,627.0,190.5,630.0,202.5,633.0,214.5,636.0,226.5,636.0,238.5,634.5,250.5,631.5,262.5,628.5,274.5,625.5,286.5,622.5,298.5,616.5,310.5,612.0,322.5,606.0,334.5,598.5,333.0,598.5,313.5,610.5" stroke="black" stroke-width="1" fill="none" />
<polyline points="249.0,622.5,280.5,610.5,301.5,598.5,318.0,586.5,333.0,574.5,345.0,562.5,355.5,550.5,364.5,538.5,373.5,526.5,382.5,514.5,390.0,502.5,393.0,490.5,384.0,511.5,372.0,528.0,360.0,544.5,348.0,558.0,336.0,571.5,324.0,582.0,312.0,592.5,300.0,600.0,288.0,606.0,276.0,613.5,264.0,618.0,252.0,622.5,240.0,625.5,228.0,627.0,216.0,622.5,204.0,619.5,192.0,610.5,180.0,606.0,168.0,597.0,156.0,573.0" stroke="black" stroke-width="1" fill="none" />
<polyline points="96.0,232.0,352.0,232.0" stroke="black" stroke-width="1" fill="none" />
<polyline points="352.0,224.0,160.0,416.0" stroke="black" stroke-width="1" fill="none" />
<polyline points="160.0,424.0,320.0,424.0" stroke="black" stroke-width="1" fill="none" />
<polyline points="320.0,416.0,224.0,512.0" stroke="black" stroke-width="1" fill="none" />
<polyline points="224.0,544.0,320.0,448.0" stroke="black" stroke-width="1" fill="none" />
<polyline points="320.0,384.0,224.0,480.0" stroke="black" stroke-width="1" fill="none" />
<polyline points="192.0,480.0,320.0,352.0" stroke="black" stroke-width="1" fill="none" />
<polyline points="352.0,288.0,192.0,448.0" stroke="black" stroke-width="1" fill="none" />
<polyline points="192.0,456.0,320.0,456.0" stroke="black" stroke-width="1" fill="none" />
<polyline points="288.0,512.0,224.0,576.0" stroke="black" stroke-width="1" fill="none" />
<polyline points="256.0,576.0,288.0,544.0" stroke="black" stroke-width="1" fill="none" />
<polyline points="288.0,584.0,192.0,584.0" stroke="black" stroke-width="1" fill="none" />
<polyline points="160.0,552.0,320.0,552.0" stroke="black" stroke-width="1" fill="none" />
<polyline points="352.0,488.0,192.0,488.0" stroke="black" stroke-width="1" fill="none" />
<polyline points="160.0,520.0,352.0,520.0" stroke="black" stroke-width="1" fill="none" />
<polyline points="256.0,408.0,224.0,408.0" stroke="black" stroke-width="1" fill="none" />
<polyline points="192.0,352.0,320.0,224.0" stroke="black" stroke-width="1" fill="none" />
<polyline points="320.0,192.0,160.0,352.0" stroke="black" stroke-width="1" fill="none" />
<polyline points="128.0,352.0,288.0,192.0" stroke="black" stroke-width="1" fill="none" />
<polyline points="256.0,192.0,128.0,320.0" stroke="black" stroke-width="1" fill="none" />
<polyline points="128.0,328.0,352.0,328.0" stroke="black" stroke-width="1" fill="none" />
<polyline points="352.0,256.0,160.0,448.0" stroke="black" stroke-width="1" fill="none" />
<polyline points="160.0,392.0,352.0,392.0" stroke="black" stroke-width="1" fill="none" />
<polyline points="224.0,344.0,192.0,344.0" stroke="black" stroke-width="1" fill="none" />
<polyline points="160.0,312.0,352.0,312.0" stroke="black" stroke-width="1" fill="none" />
<polyline points="224.0,192.0,128.0,288.0" stroke="black" stroke-width="1" fill="none" />
<polyline points="128.0,280.0,320.0,280.0" stroke="black" stroke-width="1" fill="none" />
<polyline points="192.0,192.0,128.0,256.0" stroke="black" stroke-width="1" fill="none" />
<polyline points="128.0,224.0,160.0,192.0" stroke="black" stroke-width="1" fill="none" />
<polyline points="160.0,216.0,320.0,216.0" stroke="black" stroke-width="1" fill="none" />
<polyline points="256.0,128.0,288.0,96.0" stroke="black" stroke-width="1" fill="none" />
<polyline points="320.0,136.0,224.0,136.0" stroke="black" stroke-width="1" fill="none" />
<polyline points="224.0,104.0,288.0,104.0" stroke="black" stroke-width="1" fill="none" />
<polyline points="288.0,168.0,192.0,168.0" stroke="black" stroke-width="1" fill="none" />
<polyline points="128.0,200.0,352.0,200.0" stroke="black" stroke-width="1" fill="none" />
<polyline points="352.0,360.0,128.0,360.0" stroke="black" stroke-width="1" fill="none" />
<polyline points="128.0,296.0,384.0,296.0" stroke="black" stroke-width="1" fill="none" />
<polyline points="384.0,264.0,96.0,264.0" stroke="black" stroke-width="1" fill="none" />
</svg>