<svg xmlns="http://www.w3.org/2000/svg" height="356px" width="510px" version="1.1"><polyline points="180.0,0.0,180.0,8.0,177.0,16.0,178.0,21.0,184.0,12.0,192.0,6.0" stroke="black" stroke-width="1" fill="none" />
<polyline points="194.0,9.0,186.0,17.0,180.0,16.0,189.0,8.0,198.0,0.0" stroke="black" stroke-width="1" fill="none" />
<polyline points="201.0,0.0,195.0,8.0,187.0,16.0" stroke="black" stroke-width="1" fill="none" />
<polyline points="208.0,6.0,216.0,23.0,224.0,42.0,232.0,61.0,240.0,79.0" stroke="black" stroke-width="1" fill="none" />
<polyline points="241.0,75.0,233.0,56.0,225.0,37.0,217.0,19.0,209.0,1.0" stroke="black" stroke-width="1" fill="none" />
<polyline points="209.0,0.0,212.0,8.0,215.0,16.0,219.0,24.0,222.0,32.0,226.0,40.0,229.0,48.0,232.0,56.0,236.0,64.0,240.0,72.0,243.0,80.0,246.0,88.0,230.0,98.0,221.0,106.0,217.0,114.0,215.0,122.0,217.0,130.0,220.0,138.0,220.0,146.0,221.0,154.0,220.0,162.0,223.0,170.0,228.0,178.0" stroke="black" stroke-width="1" fill="none" />
<polyline points="229.0,179.0,221.0,167.0" stroke="black" stroke-width="1" fill="none" />
<polyline points="224.0,186.0,216.0,186.0,208.0,186.0,200.0,186.0,192.0,186.0,184.0,186.0,176.0,186.0,168.0,185.0,160.0,185.0,152.0,185.0,144.0,185.0,136.0,185.0,128.0,185.0,120.0,185.0,112.0,185.0,104.0,185.0,96.0,184.0,88.0,184.0,80.0,184.0,72.0,184.0,64.0,184.0,56.0,184.0,48.0,184.0,40.0,184.0,32.0,183.0,24.0,183.0,16.0,183.0,8.0,183.0,0.0,183.0" stroke="black" stroke-width="1" fill="none" />
<polyline points="0.0,310.0,8.0,318.0,16.0,327.0,24.0,336.0,32.0,345.0,40.0,354.0" stroke="black" stroke-width="1" fill="none" />
<polyline points="37.0,356.0,29.0,352.0,24.0,344.0,16.0,333.0,8.0,323.0,0.0,316.0" stroke="black" stroke-width="1" fill="none" />
<polyline points="5.0,316.0,13.0,324.0,20.0,332.0,27.0,340.0,30.0,346.0,36.0,351.0" stroke="black" stroke-width="1" fill="none" />
<polyline points="32.0,356.0,27.0,348.0,19.0,340.0,16.0,334.0,9.0,326.0,2.0,318.0,1.0,310.0" stroke="black" stroke-width="1" fill="none" />
<polyline points="136.0,325.0,139.0,333.0,140.0,341.0,146.0,345.0" stroke="black" stroke-width="1" fill="none" />
<polyline points="148.0,343.0,140.0,338.0" stroke="black" stroke-width="1" fill="none" />
<polyline points="143.0,331.0,151.0,330.0,159.0,328.0" stroke="black" stroke-width="1" fill="none" />
<polyline points="160.0,321.0,152.0,323.0,144.0,326.0,136.0,325.0" stroke="black" stroke-width="1" fill="none" />
<polyline points="149.0,327.0,143.0,335.0,147.0,343.0" stroke="black" stroke-width="1" fill="none" />
<polyline points="160.0,350.0,168.0,350.0" stroke="black" stroke-width="1" fill="none" />
<polyline points="194.0,326.0,202.0,323.0,210.0,321.0,218.0,319.0,226.0,318.0,234.0,317.0,242.0,316.0,250.0,316.0,258.0,315.0,263.0,321.0,253.0,323.0,253.0,321.0,261.0,319.0,269.0,316.0,277.0,316.0,285.0,317.0,293.0,318.0,301.0,320.0,310.0,320.0,318.0,322.0,326.0,324.0,334.0,327.0,341.0,331.0,349.0,333.0,357.0,336.0,365.0,340.0,373.0,344.0,381.0,349.0,389.0,354.0" stroke="black" stroke-width="1" fill="none" />
<polyline points="398.0,327.0,408.0,336.0,414.0,343.0,423.0,352.0" stroke="black" stroke-width="1" fill="none" />
<polyline points="415.0,328.0,407.0,324.0,399.0,317.0,391.0,311.0" stroke="black" stroke-width="1" fill="none" />
<polyline points="388.0,308.0,396.0,309.0" stroke="black" stroke-width="1" fill="none" />
<polyline points="389.0,273.0,378.0,268.0,370.0,268.0" stroke="black" stroke-width="1" fill="none" />
<polyline points="371.0,271.0,379.0,270.0" stroke="black" stroke-width="1" fill="none" />
<polyline points="376.0,253.0,384.0,252.0" stroke="black" stroke-width="1" fill="none" />
<polyline points="385.0,260.0,377.0,260.0,381.0,253.0,370.0,257.0,362.0,260.0" stroke="black" stroke-width="1" fill="none" />
<polyline points="359.0,289.0,368.0,297.0,375.0,305.0,384.0,313.0,395.0,320.0,398.0,328.0,403.0,328.0,413.0,330.0,421.0,340.0,429.0,350.0" stroke="black" stroke-width="1" fill="none" />
<polyline points="380.0,351.0,372.0,351.0,367.0,350.0,363.0,349.0,362.0,356.0,358.0,348.0,367.0,347.0,373.0,350.0,370.0,348.0,362.0,345.0,359.0,350.0" stroke="black" stroke-width="1" fill="none" />
<polyline points="348.0,339.0,340.0,333.0" stroke="black" stroke-width="1" fill="none" />
<polyline points="346.0,332.0,363.0,340.0,378.0,348.0,390.0,355.0" stroke="black" stroke-width="1" fill="none" />
<polyline points="408.0,353.0,400.0,348.0,392.0,343.0,384.0,338.0,376.0,334.0,368.0,330.0,360.0,326.0,352.0,323.0,344.0,319.0,336.0,316.0,328.0,313.0" stroke="black" stroke-width="1" fill="none" />
<polyline points="326.0,316.0,334.0,319.0,342.0,322.0,350.0,325.0,358.0,329.0,366.0,332.0,374.0,337.0,382.0,341.0,390.0,346.0,398.0,351.0" stroke="black" stroke-width="1" fill="none" />
<polyline points="358.0,292.0,347.0,282.0,339.0,267.0,330.0,258.0" stroke="black" stroke-width="1" fill="none" />
<polyline points="327.0,252.0,330.0,260.0,338.0,266.0,339.0,274.0,345.0,279.0,349.0,287.0,351.0,292.0" stroke="black" stroke-width="1" fill="none" />
<polyline points="357.0,291.0,362.0,299.0" stroke="black" stroke-width="1" fill="none" />
<polyline points="330.0,300.0,328.0,308.0,334.0,316.0,354.0,324.0,371.0,332.0,386.0,340.0,399.0,348.0,411.0,356.0" stroke="black" stroke-width="1" fill="none" />
<polyline points="424.0,321.0,423.0,318.0,404.0,311.0,398.0,305.0,390.0,305.0,382.0,301.0,374.0,291.0,366.0,277.0,358.0,261.0,350.0,241.0,342.0,228.0,334.0,215.0,326.0,211.0,318.0,209.0,310.0,206.0,302.0,203.0,294.0,202.0,286.0,199.0,278.0,194.0" stroke="black" stroke-width="1" fill="none" />
<polyline points="280.0,197.0,279.0,189.0" stroke="black" stroke-width="1" fill="none" />
<polyline points="279.0,187.0,275.0,189.0,267.0,201.0" stroke="black" stroke-width="1" fill="none" />
<polyline points="268.0,207.0,277.0,219.0,279.0,227.0" stroke="black" stroke-width="1" fill="none" />
<polyline points="282.0,223.0,274.0,216.0" stroke="black" stroke-width="1" fill="none" />
<polyline points="296.0,209.0,313.0,208.0" stroke="black" stroke-width="1" fill="none" />
<polyline points="324.0,211.0,337.0,219.0,341.0,227.0,346.0,235.0,350.0,243.0,354.0,251.0,357.0,259.0,360.0,267.0,364.0,275.0,368.0,283.0,373.0,291.0,380.0,299.0,386.0,307.0,395.0,315.0,405.0,323.0,413.0,331.0,419.0,339.0,426.0,347.0,433.0,355.0" stroke="black" stroke-width="1" fill="none" />
<polyline points="397.0,356.0,389.0,351.0,381.0,346.0,373.0,341.0,365.0,337.0,357.0,334.0,349.0,330.0,341.0,327.0,333.0,324.0,325.0,321.0,317.0,319.0,309.0,317.0,301.0,315.0,293.0,314.0,285.0,313.0,277.0,312.0" stroke="black" stroke-width="1" fill="none" />
<polyline points="263.0,320.0,259.0,322.0" stroke="black" stroke-width="1" fill="none" />
<polyline points="250.0,324.0,258.0,326.0,260.0,330.0,270.0,332.0" stroke="black" stroke-width="1" fill="none" />
<polyline points="280.0,341.0,288.0,342.0,296.0,344.0,304.0,345.0,312.0,347.0" stroke="black" stroke-width="1" fill="none" />
<polyline points="319.0,355.0,317.0,343.0,317.0,335.0,316.0,327.0,316.0,326.0" stroke="black" stroke-width="1" fill="none" />
<polyline points="320.0,325.0,320.0,333.0,320.0,341.0" stroke="black" stroke-width="1" fill="none" />
<polyline points="319.0,355.0,311.0,352.0,303.0,350.0,295.0,348.0,287.0,346.0" stroke="black" stroke-width="1" fill="none" />
<polyline points="293.0,354.0,279.0,356.0,280.0,350.0,272.0,350.0,264.0,348.0,256.0,348.0" stroke="black" stroke-width="1" fill="none" />
<polyline points="231.0,350.0,239.0,349.0,247.0,349.0,256.0,348.0,256.0,356.0,257.0,352.0,263.0,351.0,274.0,353.0,287.0,350.0,295.0,352.0,305.0,353.0,313.0,355.0" stroke="black" stroke-width="1" fill="none" />
<polyline points="298.0,340.0,290.0,338.0,282.0,337.0,274.0,338.0,266.0,336.0,258.0,339.0,250.0,339.0,242.0,340.0,234.0,340.0,226.0,342.0,218.0,343.0" stroke="black" stroke-width="1" fill="none" />
<polyline points="201.0,323.0,194.0,331.0" stroke="black" stroke-width="1" fill="none" />
<polyline points="193.0,318.0,188.0,320.0,196.0,318.0,204.0,316.0,212.0,315.0,220.0,313.0,228.0,312.0" stroke="black" stroke-width="1" fill="none" />
<polyline points="236.0,309.0,228.0,310.0,220.0,311.0,212.0,312.0,204.0,314.0,196.0,315.0" stroke="black" stroke-width="1" fill="none" />
<polyline points="193.0,315.0,179.0,320.0,187.0,317.0,195.0,315.0,203.0,311.0,211.0,309.0,219.0,307.0,227.0,306.0,235.0,305.0,243.0,304.0" stroke="black" stroke-width="1" fill="none" />
<polyline points="246.0,293.0,244.0,301.0,250.0,304.0,258.0,304.0,266.0,304.0,274.0,305.0,282.0,306.0,290.0,307.0,298.0,308.0,306.0,310.0,314.0,311.0,326.0,312.0,331.0,300.0,339.0,298.0,347.0,295.0,355.0,290.0,363.0,291.0,371.0,300.0,379.0,307.0,387.0,316.0,395.0,320.0,403.0,327.0,406.0,334.0,414.0,342.0,421.0,350.0" stroke="black" stroke-width="1" fill="none" />
<polyline points="347.0,335.0,346.0,334.0,339.0,333.0,327.0,325.0" stroke="black" stroke-width="1" fill="none" />
<polyline points="332.0,324.0,342.0,332.0,361.0,336.0,376.0,344.0,390.0,352.0" stroke="black" stroke-width="1" fill="none" />
<polyline points="394.0,349.0,381.0,341.0,366.0,333.0,348.0,325.0,327.0,317.0,325.0,307.0,327.0,299.0" stroke="black" stroke-width="1" fill="none" />
<polyline points="307.0,303.0,307.0,295.0,310.0,287.0,310.0,280.0,314.0,275.0,318.0,267.0,318.0,259.0,319.0,251.0,319.0,249.0" stroke="black" stroke-width="1" fill="none" />
<polyline points="273.0,231.0,265.0,234.0,257.0,237.0,249.0,237.0,241.0,237.0,233.0,237.0,225.0,230.0,217.0,218.0" stroke="black" stroke-width="1" fill="none" />
<polyline points="219.0,198.0,215.0,206.0,216.0,214.0,218.0,222.0,224.0,230.0,234.0,240.0,242.0,241.0,250.0,241.0,258.0,240.0,266.0,238.0" stroke="black" stroke-width="1" fill="none" />
<polyline points="267.0,240.0,259.0,242.0,251.0,243.0,243.0,244.0,235.0,244.0,227.0,244.0,219.0,254.0,211.0,263.0" stroke="black" stroke-width="1" fill="none" />
<polyline points="212.0,266.0,220.0,276.0,228.0,283.0,236.0,289.0,246.0,284.0,248.0,281.0,255.0,278.0,257.0,274.0,265.0,281.0,273.0,286.0,281.0,291.0,289.0,294.0,297.0,300.0,305.0,305.0" stroke="black" stroke-width="1" fill="none" />
<polyline points="300.0,303.0,293.0,295.0" stroke="black" stroke-width="1" fill="none" />
<polyline points="297.0,319.0,300.0,327.0,299.0,335.0" stroke="black" stroke-width="1" fill="none" />
<polyline points="271.0,285.0,260.0,277.0" stroke="black" stroke-width="1" fill="none" />
<polyline points="221.0,282.0,213.0,274.0" stroke="black" stroke-width="1" fill="none" />
<polyline points="213.0,274.0,220.0,282.0,225.0,291.0" stroke="black" stroke-width="1" fill="none" />
<polyline points="237.0,292.0,228.0,284.0,219.0,276.0,212.0,268.0,214.0,260.0,221.0,252.0,227.0,244.0" stroke="black" stroke-width="1" fill="none" />
<polyline points="213.0,198.0,205.0,200.0,197.0,200.0,189.0,203.0,181.0,212.0,173.0,235.0" stroke="black" stroke-width="1" fill="none" />
<polyline points="166.0,255.0,166.0,256.0,170.0,248.0,172.0,240.0,174.0,232.0,178.0,224.0,180.0,216.0,183.0,208.0,195.0,200.0" stroke="black" stroke-width="1" fill="none" />
<polyline points="259.0,160.0,273.0,165.0,279.0,173.0,291.0,187.0,299.0,187.0,307.0,187.0,315.0,187.0,323.0,187.0,331.0,188.0,339.0,188.0,347.0,188.0,355.0,188.0,363.0,188.0,371.0,188.0,379.0,188.0,387.0,188.0,395.0,189.0,403.0,189.0,411.0,189.0,419.0,189.0,427.0,189.0,435.0,189.0,443.0,189.0,451.0,189.0,459.0,189.0,467.0,189.0,475.0,190.0,483.0,190.0,491.0,190.0,499.0,190.0,507.0,190.0" stroke="black" stroke-width="1" fill="none" />
<polyline points="510.0,167.0,510.0,159.0,510.0,151.0,510.0,143.0,510.0,135.0,510.0,127.0,510.0,119.0,510.0,111.0,510.0,103.0,510.0,95.0,510.0,87.0,510.0,79.0,510.0,71.0,510.0,63.0,509.0,55.0,509.0,47.0,509.0,39.0,509.0,31.0,509.0,23.0,509.0,15.0,509.0,7.0,509.0,1.0" stroke="black" stroke-width="1" fill="none" />
<polyline points="300.0,136.0,302.0,128.0,297.0,127.0,297.0,119.0,291.0,114.0,281.0,106.0,269.0,98.0,254.0,95.0" stroke="black" stroke-width="1" fill="none" />
<polyline points="238.0,98.0,236.0,106.0,241.0,114.0,228.0,123.0,222.0,131.0,222.0,135.0,229.0,122.0,237.0,118.0,245.0,115.0,253.0,114.0,261.0,114.0,269.0,116.0,277.0,118.0,285.0,121.0,293.0,127.0" stroke="black" stroke-width="1" fill="none" />
<polyline points="286.0,119.0,278.0,113.0,270.0,110.0,262.0,108.0,253.0,111.0,245.0,113.0,237.0,108.0" stroke="black" stroke-width="1" fill="none" />
<polyline points="215.0,119.0,223.0,104.0,231.0,97.0,239.0,94.0,247.0,90.0,255.0,93.0,263.0,94.0,271.0,98.0,279.0,104.0,287.0,110.0,297.0,119.0" stroke="black" stroke-width="1" fill="none" />
<polyline points="278.0,119.0,292.0,127.0,295.0,135.0,294.0,143.0,295.0,151.0,299.0,159.0,289.0,166.0,285.0,174.0,281.0,182.0,275.0,190.0,271.0,198.0,267.0,206.0,273.0,214.0,263.0,223.0,263.0,223.0,271.0,220.0,274.0,225.0" stroke="black" stroke-width="1" fill="none" />
<polyline points="280.0,168.0,272.0,164.0,264.0,159.0" stroke="black" stroke-width="1" fill="none" />
<polyline points="262.0,155.0,258.0,157.0,263.0,165.0,263.0,173.0,261.0,177.0,260.0,185.0,265.0,184.0" stroke="black" stroke-width="1" fill="none" />
<polyline points="258.0,157.0,266.0,157.0,274.0,157.0" stroke="black" stroke-width="1" fill="none" />
<polyline points="274.0,143.0,282.0,140.0" stroke="black" stroke-width="1" fill="none" />
<polyline points="282.0,141.0,285.0,149.0,286.0,157.0,284.0,165.0,282.0,173.0,292.0,167.0" stroke="black" stroke-width="1" fill="none" />
<polyline points="281.0,148.0,279.0,140.0" stroke="black" stroke-width="1" fill="none" />
<polyline points="274.0,132.0,266.0,131.0,258.0,130.0,250.0,130.0" stroke="black" stroke-width="1" fill="none" />
<polyline points="230.0,132.0,238.0,130.0,238.0,133.0,252.0,128.0,260.0,127.0,268.0,129.0,276.0,129.0" stroke="black" stroke-width="1" fill="none" />
<polyline points="284.0,118.0,270.0,110.0" stroke="black" stroke-width="1" fill="none" />
<polyline points="258.0,105.0,255.0,97.0,243.0,88.0,240.0,80.0,236.0,72.0,233.0,64.0,230.0,56.0,226.0,48.0,223.0,40.0,220.0,32.0,216.0,24.0,212.0,16.0,208.0,8.0,206.0,0.0" stroke="black" stroke-width="1" fill="none" />
<polyline points="0.0,182.0,280.0,182.0" stroke="black" stroke-width="1" fill="none" />
<polyline points="336.0,182.0,504.0,182.0" stroke="black" stroke-width="1" fill="none" />
<polyline points="504.0,168.0,336.0,336.0" stroke="black" stroke-width="1" fill="none" />
<polyline points="392.0,336.0,504.0,224.0" stroke="black" stroke-width="1" fill="none" />
<polyline points="504.0,280.0,448.0,336.0" stroke="black" stroke-width="1" fill="none" />
<polyline points="448.0,322.0,504.0,322.0" stroke="black" stroke-width="1" fill="none" />
<polyline points="504.0,266.0,392.0,266.0" stroke="black" stroke-width="1" fill="none" />
<polyline points="392.0,224.0,448.0,168.0" stroke="black" stroke-width="1" fill="none" />
<polyline points="392.0,168.0,336.0,224.0" stroke="black" stroke-width="1" fill="none" />
<polyline points="336.0,238.0,504.0,238.0" stroke="black" stroke-width="1" fill="none" />
<polyline points="280.0,112.0,56.0,336.0" stroke="black" stroke-width="1" fill="none" />
<polyline points="56.0,322.0,112.0,322.0" stroke="black" stroke-width="1" fill="none" />
<polyline points="168.0,336.0,224.0,280.0" stroke="black" stroke-width="1" fill="none" />
<polyline points="168.0,280.0,112.0,336.0" stroke="black" stroke-width="1" fill="none" />
<polyline points="0.0,336.0,168.0,168.0" stroke="black" stroke-width="1" fill="none" />
<polyline points="112.0,168.0,0.0,280.0" stroke="black" stroke-width="1" fill="none" />
<polyline points="0.0,266.0,168.0,266.0" stroke="black" stroke-width="1" fill="none" />
<polyline points="56.0,168.0,0.0,224.0" stroke="black" stroke-width="1" fill="none" />
<polyline points="0.0,238.0,224.0,238.0" stroke="black" stroke-width="1" fill="none" />
<polyline points="224.0,126.0,280.0,126.0" stroke="black" stroke-width="1" fill="none" />
<polyline points="504.0,294.0,0.0,294.0" stroke="black" stroke-width="1" fill="none" />
</svg>