<svg xmlns="http://www.w3.org/2000/svg" height="382px" width="512px" version="1.1"><polyline points="360.0,27.0,355.0,35.0,356.0,39.0,347.0,44.0,344.0,52.0,337.0,54.0,333.0,61.0,341.0,56.0" stroke="black" stroke-width="1" fill="none" />
<polyline points="363.0,56.0,371.0,52.0,373.0,55.0,375.0,63.0,372.0,72.0,372.0,80.0" stroke="black" stroke-width="1" fill="none" />
<polyline points="386.0,74.0,391.0,81.0,394.0,84.0,402.0,85.0,410.0,88.0" stroke="black" stroke-width="1" fill="none" />
<polyline points="400.0,108.0,408.0,110.0,416.0,111.0,424.0,113.0" stroke="black" stroke-width="1" fill="none" />
<polyline points="422.0,108.0,430.0,111.0,438.0,111.0,446.0,109.0,453.0,108.0,458.0,112.0,462.0,115.0,467.0,116.0,475.0,116.0,483.0,117.0,491.0,119.0,499.0,120.0" stroke="black" stroke-width="1" fill="none" />
<polyline points="495.0,144.0,503.0,147.0,499.0,158.0,500.0,166.0,500.0,174.0,500.0,182.0" stroke="black" stroke-width="1" fill="none" />
<polyline points="505.0,180.0,505.0,172.0,505.0,161.0,507.0,153.0,499.0,153.0" stroke="black" stroke-width="1" fill="none" />
<polyline points="508.0,147.0,505.0,144.0,497.0,142.0,488.0,140.0,480.0,138.0,472.0,137.0,464.0,136.0,456.0,134.0,448.0,133.0,440.0,131.0,432.0,130.0" stroke="black" stroke-width="1" fill="none" />
<polyline points="431.0,139.0,431.0,147.0,431.0,158.0,431.0,166.0,437.0,179.0,438.0,187.0,439.0,195.0,438.0,203.0" stroke="black" stroke-width="1" fill="none" />
<polyline points="448.0,199.0,449.0,195.0,457.0,193.0" stroke="black" stroke-width="1" fill="none" />
<polyline points="469.0,189.0,466.0,189.0,469.0,181.0,475.0,173.0,475.0,165.0,474.0,157.0,474.0,149.0,468.0,146.0,460.0,146.0" stroke="black" stroke-width="1" fill="none" />
<polyline points="461.0,145.0,461.0,153.0,460.0,162.0,461.0,170.0,467.0,180.0,475.0,184.0,474.0,195.0,479.0,192.0" stroke="black" stroke-width="1" fill="none" />
<polyline points="474.0,207.0,476.0,211.0,476.0,217.0,477.0,225.0,477.0,233.0,477.0,241.0,477.0,249.0,478.0,257.0,477.0,269.0,480.0,273.0" stroke="black" stroke-width="1" fill="none" />
<polyline points="485.0,261.0,478.0,262.0,470.0,261.0" stroke="black" stroke-width="1" fill="none" />
<polyline points="466.0,252.0,461.0,248.0,451.0,263.0,443.0,262.0,439.0,255.0,442.0,247.0,442.0,239.0,442.0,231.0,442.0,219.0,442.0,214.0,434.0,214.0" stroke="black" stroke-width="1" fill="none" />
<polyline points="428.0,214.0,434.0,218.0,433.0,226.0,434.0,234.0,435.0,242.0,435.0,250.0,435.0,258.0,435.0,268.0,440.0,279.0,439.0,287.0,437.0,291.0,438.0,305.0,442.0,313.0,448.0,321.0,445.0,327.0,449.0,320.0,451.0,324.0,459.0,324.0" stroke="black" stroke-width="1" fill="none" />
<polyline points="459.0,327.0,451.0,326.0,443.0,325.0" stroke="black" stroke-width="1" fill="none" />
<polyline points="443.0,319.0,447.0,316.0,455.0,317.0" stroke="black" stroke-width="1" fill="none" />
<polyline points="453.0,315.0,453.0,307.0,453.0,299.0,452.0,291.0,446.0,283.0,446.0,279.0,438.0,281.0" stroke="black" stroke-width="1" fill="none" />
<polyline points="445.0,289.0,453.0,293.0,456.0,289.0,464.0,289.0" stroke="black" stroke-width="1" fill="none" />
<polyline points="461.0,294.0,462.0,302.0,462.0,310.0,470.0,317.0" stroke="black" stroke-width="1" fill="none" />
<polyline points="471.0,321.0,482.0,329.0" stroke="black" stroke-width="1" fill="none" />
<polyline points="480.0,340.0,488.0,340.0,496.0,344.0" stroke="black" stroke-width="1" fill="none" />
<polyline points="498.0,327.0,502.0,319.0,502.0,311.0,498.0,311.0,498.0,303.0,498.0,295.0,501.0,287.0,502.0,279.0,498.0,271.0" stroke="black" stroke-width="1" fill="none" />
<polyline points="496.0,272.0,499.0,278.0,498.0,286.0,494.0,294.0,494.0,302.0,494.0,310.0,494.0,318.0,494.0,326.0,489.0,338.0" stroke="black" stroke-width="1" fill="none" />
<polyline points="479.0,325.0,479.0,317.0,478.0,309.0,478.0,301.0,478.0,293.0,475.0,289.0,471.0,298.0,467.0,285.0,466.0,281.0,458.0,280.0,455.0,268.0,454.0,256.0,461.0,248.0,461.0,240.0,461.0,232.0,462.0,223.0" stroke="black" stroke-width="1" fill="none" />
<polyline points="458.0,229.0,457.0,237.0,459.0,245.0" stroke="black" stroke-width="1" fill="none" />
<polyline points="458.0,247.0,453.0,245.0,452.0,237.0,452.0,229.0" stroke="black" stroke-width="1" fill="none" />
<polyline points="451.0,227.0,459.0,223.0,467.0,220.0,469.0,217.0" stroke="black" stroke-width="1" fill="none" />
<polyline points="466.0,209.0,474.0,204.0,482.0,205.0,490.0,205.0,498.0,206.0,506.0,207.0,505.0,211.0,509.0,219.0,508.0,227.0,507.0,233.0,508.0,241.0,508.0,249.0,504.0,256.0" stroke="black" stroke-width="1" fill="none" />
<polyline points="502.0,250.0,502.0,242.0,502.0,234.0,501.0,225.0,502.0,217.0,499.0,214.0" stroke="black" stroke-width="1" fill="none" />
<polyline points="498.0,214.0,499.0,222.0,499.0,230.0,499.0,238.0,500.0,246.0,500.0,254.0,507.0,253.0" stroke="black" stroke-width="1" fill="none" />
<polyline points="491.0,260.0,492.0,268.0,490.0,276.0" stroke="black" stroke-width="1" fill="none" />
<polyline points="488.0,282.0,480.0,281.0,472.0,284.0,464.0,277.0,451.0,257.0,443.0,259.0,435.0,262.0" stroke="black" stroke-width="1" fill="none" />
<polyline points="431.0,272.0,430.0,264.0,430.0,256.0,430.0,248.0,430.0,240.0,429.0,232.0,429.0,224.0,428.0,216.0,433.0,210.0,425.0,211.0,417.0,212.0" stroke="black" stroke-width="1" fill="none" />
<polyline points="407.0,224.0,399.0,227.0" stroke="black" stroke-width="1" fill="none" />
<polyline points="401.0,230.0,402.0,238.0,403.0,246.0" stroke="black" stroke-width="1" fill="none" />
<polyline points="409.0,251.0,408.0,243.0,407.0,235.0,407.0,222.0,409.0,222.0,410.0,214.0,406.0,212.0,398.0,207.0" stroke="black" stroke-width="1" fill="none" />
<polyline points="398.0,207.0,399.0,215.0,399.0,223.0,399.0,231.0,399.0,239.0,399.0,247.0,404.0,248.0,406.0,249.0" stroke="black" stroke-width="1" fill="none" />
<polyline points="425.0,257.0,417.0,259.0,409.0,259.0,401.0,259.0,393.0,260.0,381.0,255.0,378.0,264.0,379.0,263.0,378.0,258.0,377.0,244.0,377.0,236.0,374.0,234.0,377.0,226.0,377.0,214.0,376.0,211.0,369.0,212.0" stroke="black" stroke-width="1" fill="none" />
<polyline points="366.0,208.0,374.0,210.0,382.0,208.0,380.0,211.0,385.0,215.0,385.0,223.0,386.0,231.0,386.0,239.0,386.0,247.0,383.0,256.0,376.0,259.0" stroke="black" stroke-width="1" fill="none" />
<polyline points="373.0,256.0,372.0,248.0,372.0,240.0,371.0,232.0,374.0,222.0,366.0,220.0" stroke="black" stroke-width="1" fill="none" />
<polyline points="367.0,225.0,375.0,225.0" stroke="black" stroke-width="1" fill="none" />
<polyline points="368.0,226.0,368.0,234.0,368.0,242.0,369.0,250.0" stroke="black" stroke-width="1" fill="none" />
<polyline points="367.0,259.0,359.0,259.0,351.0,261.0,343.0,261.0,335.0,261.0,327.0,262.0" stroke="black" stroke-width="1" fill="none" />
<polyline points="336.0,248.0,336.0,240.0,336.0,232.0,336.0,224.0,335.0,223.0" stroke="black" stroke-width="1" fill="none" />
<polyline points="330.0,223.0,338.0,220.0,333.0,226.0,333.0,234.0,333.0,242.0,334.0,250.0" stroke="black" stroke-width="1" fill="none" />
<polyline points="342.0,245.0,342.0,237.0,342.0,229.0,343.0,218.0,343.0,210.0,343.0,210.0" stroke="black" stroke-width="1" fill="none" />
<polyline points="346.0,196.0,354.0,196.0,362.0,198.0,364.0,196.0,362.0,204.0,362.0,212.0,363.0,220.0,363.0,228.0,363.0,236.0,363.0,244.0,363.0,252.0,363.0,264.0,363.0,272.0,363.0,282.0" stroke="black" stroke-width="1" fill="none" />
<polyline points="372.0,282.0,380.0,280.0,389.0,277.0,397.0,276.0" stroke="black" stroke-width="1" fill="none" />
<polyline points="401.0,287.0,413.0,284.0,408.0,285.0,409.0,292.0,413.0,294.0,414.0,291.0,424.0,294.0" stroke="black" stroke-width="1" fill="none" />
<polyline points="424.0,294.0,421.0,297.0,421.0,305.0,421.0,313.0,420.0,324.0,419.0,336.0,420.0,344.0,421.0,352.0" stroke="black" stroke-width="1" fill="none" />
<polyline points="423.0,354.0,423.0,346.0,426.0,338.0,429.0,326.0,438.0,314.0,445.0,303.0,447.0,295.0,446.0,293.0,438.0,293.0,437.0,298.0" stroke="black" stroke-width="1" fill="none" />
<polyline points="455.0,293.0,466.0,296.0,467.0,304.0,468.0,312.0,468.0,322.0,468.0,330.0,468.0,338.0,467.0,346.0,467.0,354.0,468.0,362.0,468.0,370.0,469.0,378.0" stroke="black" stroke-width="1" fill="none" />
<polyline points="496.0,371.0,498.0,372.0,502.0,371.0" stroke="black" stroke-width="1" fill="none" />
<polyline points="510.0,335.0,507.0,332.0,500.0,326.0,492.0,329.0,484.0,329.0,475.0,323.0,472.0,315.0,467.0,313.0,464.0,309.0,471.0,303.0,473.0,295.0,471.0,287.0,471.0,279.0,469.0,268.0,467.0,254.0,466.0,245.0,466.0,237.0,466.0,229.0,458.0,219.0,458.0,211.0,467.0,207.0,457.0,206.0" stroke="black" stroke-width="1" fill="none" />
<polyline points="461.0,212.0,461.0,220.0,470.0,223.0,470.0,234.0,470.0,242.0,470.0,250.0,470.0,258.0,475.0,259.0,483.0,258.0,494.0,265.0,502.0,265.0,510.0,265.0" stroke="black" stroke-width="1" fill="none" />
<polyline points="498.0,214.0,506.0,211.0" stroke="black" stroke-width="1" fill="none" />
<polyline points="498.0,190.0,498.0,182.0,497.0,174.0,497.0,166.0,497.0,158.0,497.0,150.0,490.0,147.0,482.0,149.0" stroke="black" stroke-width="1" fill="none" />
<polyline points="484.0,151.0,485.0,159.0,485.0,167.0,485.0,175.0,485.0,183.0,486.0,191.0,488.0,198.0,496.0,200.0,504.0,201.0,509.0,205.0" stroke="black" stroke-width="1" fill="none" />
<polyline points="467.0,171.0,467.0,163.0,464.0,158.0" stroke="black" stroke-width="1" fill="none" />
<polyline points="460.0,156.0,468.0,150.0,479.0,151.0,480.0,159.0,480.0,167.0,480.0,175.0,478.0,183.0,480.0,184.0,479.0,192.0" stroke="black" stroke-width="1" fill="none" />
<polyline points="494.0,195.0,486.0,195.0,479.0,198.0,475.0,189.0,467.0,194.0,463.0,193.0,459.0,189.0,461.0,181.0,459.0,176.0,458.0,168.0,458.0,160.0,458.0,152.0,458.0,144.0,454.0,140.0,446.0,141.0" stroke="black" stroke-width="1" fill="none" />
<polyline points="431.0,139.0,439.0,142.0,446.0,142.0,433.0,154.0,433.0,162.0,440.0,164.0" stroke="black" stroke-width="1" fill="none" />
<polyline points="436.0,154.0,439.0,159.0,445.0,168.0,445.0,176.0,446.0,184.0,447.0,192.0,447.0,200.0,446.0,208.0" stroke="black" stroke-width="1" fill="none" />
<polyline points="441.0,229.0,441.0,226.0,433.0,226.0" stroke="black" stroke-width="1" fill="none" />
<polyline points="437.0,233.0,437.0,241.0,437.0,249.0,441.0,254.0" stroke="black" stroke-width="1" fill="none" />
<polyline points="425.0,283.0,417.0,283.0,409.0,290.0,401.0,295.0,399.0,292.0,391.0,295.0,383.0,292.0,385.0,284.0,397.0,273.0,397.0,265.0,397.0,253.0,397.0,245.0,397.0,237.0,397.0,229.0,396.0,221.0,396.0,213.0,396.0,205.0,400.0,201.0,392.0,200.0" stroke="black" stroke-width="1" fill="none" />
<polyline points="381.0,203.0,380.0,199.0,372.0,200.0" stroke="black" stroke-width="1" fill="none" />
<polyline points="363.0,201.0,373.0,197.0,369.0,205.0,365.0,211.0,365.0,219.0,366.0,227.0,366.0,235.0,366.0,243.0,366.0,251.0,378.0,252.0,388.0,256.0,396.0,257.0,404.0,262.0,412.0,262.0,419.0,260.0" stroke="black" stroke-width="1" fill="none" />
<polyline points="419.0,292.0,410.0,300.0,404.0,311.0,407.0,314.0,400.0,321.0,400.0,324.0,398.0,331.0,398.0,339.0,401.0,341.0,401.0,353.0,402.0,351.0" stroke="black" stroke-width="1" fill="none" />
<polyline points="381.0,349.0,380.0,343.0,380.0,335.0,380.0,327.0,379.0,319.0,379.0,311.0,379.0,303.0,380.0,295.0,377.0,284.0,369.0,293.0" stroke="black" stroke-width="1" fill="none" />
<polyline points="376.0,286.0,384.0,287.0" stroke="black" stroke-width="1" fill="none" />
<polyline points="380.0,295.0,372.0,295.0,361.0,299.0,353.0,293.0,345.0,293.0,337.0,296.0,329.0,297.0" stroke="black" stroke-width="1" fill="none" />
<polyline points="329.0,297.0,322.0,305.0,322.0,313.0,315.0,325.0" stroke="black" stroke-width="1" fill="none" />
<polyline points="317.0,332.0,319.0,336.0" stroke="black" stroke-width="1" fill="none" />
<polyline points="332.0,342.0,340.0,343.0,348.0,342.0" stroke="black" stroke-width="1" fill="none" />
<polyline points="354.0,324.0,362.0,322.0" stroke="black" stroke-width="1" fill="none" />
<polyline points="362.0,314.0,354.0,316.0" stroke="black" stroke-width="1" fill="none" />
<polyline points="355.0,329.0,347.0,339.0,338.0,338.0,330.0,339.0,322.0,340.0,309.0,341.0,305.0,337.0,305.0,329.0,305.0,321.0,305.0,313.0,305.0,305.0,311.0,297.0,309.0,294.0,301.0,294.0" stroke="black" stroke-width="1" fill="none" />
<polyline points="302.0,297.0,310.0,298.0,314.0,303.0,315.0,311.0,315.0,319.0,315.0,327.0,315.0,335.0" stroke="black" stroke-width="1" fill="none" />
<polyline points="311.0,336.0,311.0,328.0,310.0,320.0,311.0,312.0,310.0,304.0,305.0,303.0" stroke="black" stroke-width="1" fill="none" />
<polyline points="314.0,299.0,322.0,297.0,330.0,294.0" stroke="black" stroke-width="1" fill="none" />
<polyline points="329.0,299.0,329.0,307.0" stroke="black" stroke-width="1" fill="none" />
<polyline points="326.0,307.0,315.0,308.0" stroke="black" stroke-width="1" fill="none" />
<polyline points="307.0,289.0,315.0,287.0,323.0,287.0,331.0,284.0,339.0,284.0,347.0,284.0,355.0,284.0" stroke="black" stroke-width="1" fill="none" />
<polyline points="356.0,300.0,356.0,308.0,357.0,309.0,358.0,312.0" stroke="black" stroke-width="1" fill="none" />
<polyline points="343.0,304.0,354.0,298.0,353.0,306.0,358.0,314.0,354.0,322.0,354.0,330.0,354.0,333.0,362.0,331.0" stroke="black" stroke-width="1" fill="none" />
<polyline points="390.0,327.0,398.0,323.0" stroke="black" stroke-width="1" fill="none" />
<polyline points="405.0,317.0,413.0,318.0,420.0,322.0,425.0,326.0,433.0,324.0" stroke="black" stroke-width="1" fill="none" />
<polyline points="431.0,320.0,423.0,323.0" stroke="black" stroke-width="1" fill="none" />
<polyline points="421.0,332.0,407.0,327.0,399.0,335.0,399.0,339.0,391.0,338.0,382.0,343.0,373.0,345.0,368.0,342.0,366.0,334.0,364.0,334.0,366.0,327.0,363.0,324.0,362.0,315.0,366.0,315.0,366.0,307.0,366.0,298.0,363.0,293.0,374.0,289.0,373.0,281.0,366.0,275.0,373.0,265.0,376.0,265.0,369.0,262.0,361.0,257.0,353.0,256.0,345.0,258.0,337.0,258.0,329.0,258.0,323.0,259.0,321.0,254.0,313.0,255.0,305.0,258.0,297.0,257.0,289.0,257.0,277.0,255.0,276.0,258.0,268.0,257.0,263.0,253.0,255.0,254.0,247.0,256.0,236.0,253.0,235.0,250.0,232.0,253.0,239.0,256.0,242.0,248.0,242.0,240.0,242.0,232.0,242.0,224.0,242.0,216.0,242.0,208.0,242.0,200.0,242.0,192.0,249.0,191.0,248.0,187.0,240.0,186.0,232.0,185.0,224.0,184.0,216.0,185.0" stroke="black" stroke-width="1" fill="none" />
<polyline points="193.0,190.0,193.0,194.0,204.0,200.0,202.0,204.0,202.0,212.0,205.0,213.0,202.0,221.0,202.0,229.0,202.0,237.0,202.0,245.0,209.0,253.0,208.0,261.0,213.0,264.0,213.0,272.0,211.0,283.0,211.0,295.0,209.0,303.0,205.0,308.0,205.0,316.0,212.0,308.0,214.0,302.0,222.0,300.0,224.0,304.0,232.0,301.0,240.0,299.0,250.0,295.0,255.0,300.0,264.0,295.0,272.0,297.0" stroke="black" stroke-width="1" fill="none" />
<polyline points="264.0,297.0,266.0,300.0,263.0,303.0,263.0,311.0,265.0,316.0,263.0,324.0,263.0,320.0,265.0,327.0,266.0,338.0,265.0,346.0" stroke="black" stroke-width="1" fill="none" />
<polyline points="274.0,353.0,267.0,351.0,271.0,342.0,271.0,334.0,274.0,326.0,275.0,318.0,274.0,310.0,275.0,302.0,274.0,288.0,272.0,280.0,272.0,273.0,272.0,265.0,269.0,260.0" stroke="black" stroke-width="1" fill="none" />
<polyline points="289.0,260.0,297.0,260.0,305.0,261.0" stroke="black" stroke-width="1" fill="none" />
<polyline points="295.0,250.0,295.0,242.0,294.0,234.0,294.0,226.0,293.0,223.0" stroke="black" stroke-width="1" fill="none" />
<polyline points="288.0,222.0,296.0,220.0,303.0,226.0,301.0,234.0,301.0,242.0,302.0,250.0" stroke="black" stroke-width="1" fill="none" />
<polyline points="307.0,280.0,299.0,280.0,291.0,283.0" stroke="black" stroke-width="1" fill="none" />
<polyline points="295.0,282.0,295.0,290.0,298.0,292.0,297.0,294.0,304.0,286.0,312.0,285.0" stroke="black" stroke-width="1" fill="none" />
<polyline points="305.0,284.0,298.0,285.0,295.0,286.0" stroke="black" stroke-width="1" fill="none" />
<polyline points="332.0,279.0,340.0,279.0,338.0,288.0,343.0,289.0,340.0,297.0,347.0,296.0,350.0,297.0,343.0,305.0,343.0,313.0,343.0,321.0,343.0,329.0,344.0,337.0,338.0,343.0,341.0,347.0" stroke="black" stroke-width="1" fill="none" />
<polyline points="313.0,343.0,305.0,344.0,303.0,340.0,295.0,338.0" stroke="black" stroke-width="1" fill="none" />
<polyline points="280.0,344.0,280.0,345.0" stroke="black" stroke-width="1" fill="none" />
<polyline points="268.0,345.0,263.0,350.0,255.0,347.0,258.0,339.0,261.0,331.0,261.0,323.0,259.0,315.0,260.0,307.0,263.0,297.0,263.0,289.0,263.0,285.0,262.0,277.0,268.0,269.0,269.0,261.0,272.0,249.0,272.0,241.0,272.0,233.0,271.0,225.0,271.0,217.0,271.0,209.0,271.0,201.0,262.0,205.0" stroke="black" stroke-width="1" fill="none" />
<polyline points="261.0,221.0,253.0,220.0" stroke="black" stroke-width="1" fill="none" />
<polyline points="246.0,218.0,250.0,222.0,251.0,230.0,251.0,238.0,251.0,246.0,258.0,247.0" stroke="black" stroke-width="1" fill="none" />
<polyline points="267.0,243.0,267.0,235.0,259.0,233.0" stroke="black" stroke-width="1" fill="none" />
<polyline points="259.0,233.0,257.0,241.0,262.0,249.0" stroke="black" stroke-width="1" fill="none" />
<polyline points="270.0,249.0,270.0,241.0,269.0,233.0,263.0,231.0,255.0,234.0" stroke="black" stroke-width="1" fill="none" />
<polyline points="261.0,234.0,261.0,242.0" stroke="black" stroke-width="1" fill="none" />
<polyline points="254.0,228.0,267.0,228.0,265.0,236.0,267.0,249.0,265.0,261.0" stroke="black" stroke-width="1" fill="none" />
<polyline points="257.0,265.0,249.0,264.0" stroke="black" stroke-width="1" fill="none" />
<polyline points="242.0,259.0,250.0,260.0,255.0,257.0" stroke="black" stroke-width="1" fill="none" />
<polyline points="262.0,277.0,254.0,277.0,246.0,277.0,239.0,279.0,233.0,278.0,225.0,277.0,221.0,280.0,217.0,278.0,212.0,285.0,212.0,278.0,204.0,283.0,202.0,280.0,194.0,275.0,193.0,267.0,198.0,256.0,198.0,245.0,198.0,237.0,198.0,229.0,198.0,221.0,197.0,211.0,192.0,211.0,191.0,203.0,190.0,201.0" stroke="black" stroke-width="1" fill="none" />
<polyline points="182.0,207.0,182.0,215.0,182.0,223.0,182.0,233.0,182.0,241.0,182.0,249.0,185.0,262.0,193.0,261.0,201.0,260.0,206.0,262.0,207.0,264.0" stroke="black" stroke-width="1" fill="none" />
<polyline points="205.0,269.0,204.0,277.0,206.0,277.0,214.0,275.0,222.0,275.0,230.0,275.0" stroke="black" stroke-width="1" fill="none" />
<polyline points="237.0,276.0,239.0,284.0,232.0,296.0,226.0,304.0,225.0,307.0,228.0,312.0,225.0,320.0,220.0,331.0,217.0,331.0,225.0,337.0" stroke="black" stroke-width="1" fill="none" />
<polyline points="214.0,340.0,212.0,341.0,214.0,350.0" stroke="black" stroke-width="1" fill="none" />
<polyline points="225.0,323.0,233.0,321.0" stroke="black" stroke-width="1" fill="none" />
<polyline points="235.0,303.0,239.0,303.0,240.0,311.0,241.0,322.0,241.0,334.0,243.0,342.0,247.0,346.0" stroke="black" stroke-width="1" fill="none" />
<polyline points="259.0,352.0,260.0,344.0,260.0,336.0,257.0,334.0" stroke="black" stroke-width="1" fill="none" />
<polyline points="283.0,332.0,283.0,324.0,285.0,324.0" stroke="black" stroke-width="1" fill="none" />
<polyline points="258.0,367.0,266.0,365.0,274.0,365.0,282.0,365.0,290.0,364.0,298.0,364.0,306.0,363.0,314.0,362.0,322.0,362.0,330.0,361.0,338.0,360.0,346.0,359.0,354.0,358.0,362.0,357.0,370.0,357.0,378.0,356.0" stroke="black" stroke-width="1" fill="none" />
<polyline points="391.0,378.0,399.0,379.0" stroke="black" stroke-width="1" fill="none" />
<polyline points="419.0,380.0,427.0,380.0,429.0,379.0" stroke="black" stroke-width="1" fill="none" />
<polyline points="435.0,382.0,427.0,376.0,419.0,376.0,403.0,377.0,395.0,375.0,387.0,378.0,379.0,377.0,371.0,375.0,363.0,375.0,355.0,373.0,347.0,372.0,339.0,371.0,331.0,370.0,323.0,369.0,315.0,369.0,307.0,368.0,299.0,367.0,291.0,368.0,283.0,369.0,275.0,369.0,267.0,369.0,259.0,369.0" stroke="black" stroke-width="1" fill="none" />
<polyline points="233.0,315.0,225.0,313.0,221.0,312.0,219.0,305.0" stroke="black" stroke-width="1" fill="none" />
<polyline points="211.0,310.0,214.0,302.0,218.0,294.0,229.0,287.0,234.0,282.0,235.0,276.0,242.0,268.0,243.0,260.0,246.0,247.0,246.0,239.0,246.0,231.0,246.0,223.0,246.0,214.0,245.0,206.0,251.0,193.0,243.0,191.0" stroke="black" stroke-width="1" fill="none" />
<polyline points="246.0,199.0,254.0,199.0,261.0,202.0" stroke="black" stroke-width="1" fill="none" />
<polyline points="261.0,215.0,253.0,215.0,245.0,211.0" stroke="black" stroke-width="1" fill="none" />
<polyline points="270.0,187.0,271.0,195.0,262.0,203.0,262.0,211.0,253.0,220.0,253.0,228.0,255.0,238.0,256.0,247.0,264.0,254.0,262.0,260.0,262.0,268.0,258.0,270.0,259.0,271.0,268.0,277.0,276.0,274.0,279.0,278.0,287.0,272.0,295.0,277.0,303.0,277.0,311.0,277.0,319.0,275.0,329.0,277.0,337.0,276.0,345.0,277.0,353.0,274.0,361.0,274.0,361.0,276.0,369.0,274.0,377.0,274.0,385.0,276.0,393.0,274.0,395.0,279.0,405.0,276.0,413.0,276.0,421.0,278.0,431.0,276.0,442.0,275.0,450.0,276.0,457.0,275.0,460.0,277.0,468.0,270.0,474.0,275.0,482.0,277.0,491.0,272.0,499.0,268.0,507.0,268.0" stroke="black" stroke-width="1" fill="none" />
<polyline points="464.0,296.0,464.0,304.0" stroke="black" stroke-width="1" fill="none" />
<polyline points="465.0,340.0,457.0,340.0,449.0,340.0" stroke="black" stroke-width="1" fill="none" />
<polyline points="448.0,337.0,456.0,337.0,464.0,337.0,475.0,338.0,478.0,338.0,486.0,337.0,494.0,340.0" stroke="black" stroke-width="1" fill="none" />
<polyline points="508.0,377.0,500.0,378.0,499.0,377.0,491.0,373.0,483.0,374.0,475.0,374.0,469.0,378.0,471.0,372.0,471.0,364.0,470.0,356.0,469.0,348.0,466.0,336.0,462.0,328.0,465.0,320.0,460.0,315.0,459.0,307.0,459.0,299.0,464.0,291.0,462.0,283.0,451.0,273.0,450.0,265.0,450.0,253.0,449.0,245.0,449.0,237.0,449.0,229.0,449.0,223.0,449.0,215.0,449.0,211.0,443.0,205.0,443.0,197.0,442.0,189.0,442.0,181.0,442.0,173.0,436.0,166.0,436.0,158.0,430.0,155.0" stroke="black" stroke-width="1" fill="none" />
<polyline points="432.0,149.0,440.0,145.0,447.0,148.0,447.0,156.0,447.0,164.0,448.0,172.0,448.0,180.0,454.0,190.0" stroke="black" stroke-width="1" fill="none" />
<polyline points="436.0,198.0,428.0,194.0,421.0,201.0,420.0,199.0,424.0,191.0,425.0,183.0" stroke="black" stroke-width="1" fill="none" />
<polyline points="426.0,181.0,428.0,189.0,433.0,196.0" stroke="black" stroke-width="1" fill="none" />
<polyline points="435.0,194.0,431.0,186.0,427.0,178.0" stroke="black" stroke-width="1" fill="none" />
<polyline points="425.0,177.0,422.0,185.0,420.0,193.0,419.0,206.0,427.0,205.0,435.0,204.0" stroke="black" stroke-width="1" fill="none" />
<polyline points="407.0,169.0,407.0,161.0,406.0,153.0,402.0,151.0" stroke="black" stroke-width="1" fill="none" />
<polyline points="397.0,148.0,402.0,153.0,403.0,161.0,403.0,169.0" stroke="black" stroke-width="1" fill="none" />
<polyline points="411.0,175.0,415.0,164.0,415.0,156.0,415.0,148.0,415.0,140.0,406.0,142.0,398.0,143.0" stroke="black" stroke-width="1" fill="none" />
<polyline points="397.0,135.0,405.0,135.0,414.0,136.0,406.0,144.0,400.0,155.0,400.0,163.0" stroke="black" stroke-width="1" fill="none" />
<polyline points="381.0,183.0,379.0,172.0,374.0,163.0,374.0,155.0,374.0,147.0,369.0,144.0" stroke="black" stroke-width="1" fill="none" />
<polyline points="364.0,142.0,372.0,140.0,369.0,150.0,369.0,158.0,370.0,166.0" stroke="black" stroke-width="1" fill="none" />
<polyline points="369.0,186.0,361.0,185.0,353.0,185.0" stroke="black" stroke-width="1" fill="none" />
<polyline points="350.0,196.0,349.0,204.0,351.0,207.0,351.0,215.0,351.0,223.0,352.0,231.0,352.0,239.0,352.0,247.0,352.0,255.0,350.0,267.0,350.0,276.0,360.0,279.0" stroke="black" stroke-width="1" fill="none" />
<polyline points="385.0,300.0,386.0,308.0,386.0,316.0,386.0,324.0,386.0,332.0,384.0,340.0,391.0,344.0,399.0,344.0" stroke="black" stroke-width="1" fill="none" />
<polyline points="409.0,354.0,410.0,346.0,411.0,338.0,410.0,330.0" stroke="black" stroke-width="1" fill="none" />
<polyline points="408.0,328.0,405.0,336.0,404.0,344.0" stroke="black" stroke-width="1" fill="none" />
<polyline points="389.0,314.0,390.0,305.0,401.0,307.0,404.0,310.0,410.0,299.0" stroke="black" stroke-width="1" fill="none" />
<polyline points="402.0,294.0,400.0,296.0,400.0,303.0,400.0,306.0,397.0,314.0,404.0,318.0,409.0,322.0,403.0,331.0,408.0,336.0,406.0,344.0" stroke="black" stroke-width="1" fill="none" />
<polyline points="437.0,356.0,437.0,364.0,437.0,372.0,436.0,380.0,448.0,378.0,456.0,377.0,464.0,376.0" stroke="black" stroke-width="1" fill="none" />
<polyline points="448.0,349.0,446.0,357.0,447.0,349.0" stroke="black" stroke-width="1" fill="none" />
<polyline points="446.0,307.0,443.0,306.0,432.0,306.0,432.0,298.0,433.0,290.0,432.0,282.0,429.0,280.0,424.0,276.0,418.0,269.0,418.0,256.0,418.0,248.0,417.0,240.0,417.0,232.0,417.0,224.0,417.0,216.0,417.0,204.0,416.0,196.0,416.0,188.0,415.0,180.0,418.0,167.0,418.0,159.0,418.0,151.0,418.0,143.0,415.0,135.0,413.0,135.0" stroke="black" stroke-width="1" fill="none" />
<polyline points="398.0,134.0,397.0,142.0,397.0,152.0,398.0,160.0,398.0,168.0,398.0,176.0,405.0,171.0" stroke="black" stroke-width="1" fill="none" />
<polyline points="371.0,174.0,367.0,166.0,367.0,158.0,367.0,150.0,370.0,140.0,378.0,132.0" stroke="black" stroke-width="1" fill="none" />
<polyline points="383.0,129.0,382.0,137.0,382.0,145.0,383.0,153.0,383.0,161.0,381.0,169.0,373.0,174.0,382.0,180.0,390.0,183.0,401.0,179.0,409.0,179.0,410.0,174.0,421.0,175.0,429.0,174.0,437.0,174.0" stroke="black" stroke-width="1" fill="none" />
<polyline points="463.0,181.0,464.0,173.0,464.0,165.0,464.0,155.0,469.0,147.0" stroke="black" stroke-width="1" fill="none" />
<polyline points="493.0,141.0,485.0,142.0,478.0,146.0,472.0,140.0,464.0,139.0,453.0,136.0,445.0,135.0,437.0,133.0,424.0,132.0,416.0,129.0,406.0,128.0,398.0,126.0,394.0,131.0,386.0,129.0,374.0,135.0,371.0,130.0,361.0,127.0,353.0,124.0,349.0,117.0,341.0,116.0,333.0,115.0,325.0,113.0,317.0,112.0,312.0,114.0,305.0,110.0,297.0,108.0,289.0,108.0,281.0,105.0,268.0,105.0,260.0,104.0,256.0,98.0,248.0,97.0,240.0,95.0,232.0,94.0,224.0,93.0,216.0,91.0,208.0,94.0" stroke="black" stroke-width="1" fill="none" />
<polyline points="211.0,97.0,219.0,97.0,227.0,101.0,229.0,109.0,229.0,117.0,229.0,125.0,229.0,133.0,229.0,141.0,229.0,149.0,229.0,157.0,234.0,168.0,240.0,173.0,241.0,173.0,242.0,179.0,250.0,180.0,258.0,180.0,266.0,181.0,274.0,182.0,276.0,189.0,285.0,186.0,293.0,186.0" stroke="black" stroke-width="1" fill="none" />
<polyline points="284.0,190.0,285.0,198.0,285.0,206.0,285.0,214.0,285.0,222.0,285.0,230.0,286.0,238.0,286.0,246.0,286.0,254.0,286.0,263.0,286.0,271.0,282.0,279.0,283.0,287.0,286.0,295.0,286.0,308.0" stroke="black" stroke-width="1" fill="none" />
<polyline points="250.0,300.0,254.0,294.0,252.0,289.0,246.0,281.0" stroke="black" stroke-width="1" fill="none" />
<polyline points="246.0,277.0,243.0,285.0,240.0,288.0,251.0,279.0,259.0,279.0,275.0,285.0" stroke="black" stroke-width="1" fill="none" />
<polyline points="303.0,240.0,300.0,231.0,301.0,223.0,301.0,213.0,299.0,207.0,291.0,207.0" stroke="black" stroke-width="1" fill="none" />
<polyline points="292.0,199.0,300.0,199.0" stroke="black" stroke-width="1" fill="none" />
<polyline points="290.0,197.0,288.0,202.0,288.0,210.0,288.0,218.0,289.0,227.0,289.0,235.0,289.0,243.0,289.0,251.0" stroke="black" stroke-width="1" fill="none" />
<polyline points="293.0,247.0,292.0,239.0,292.0,231.0,291.0,223.0,289.0,217.0" stroke="black" stroke-width="1" fill="none" />
<polyline points="284.0,190.0,292.0,191.0,292.0,195.0,294.0,204.0,302.0,205.0,305.0,196.0,312.0,192.0,320.0,193.0,327.0,198.0,332.0,206.0,340.0,207.0,348.0,205.0" stroke="black" stroke-width="1" fill="none" />
<polyline points="329.0,201.0,330.0,209.0,330.0,217.0,330.0,226.0,330.0,234.0,330.0,242.0,330.0,250.0,337.0,252.0" stroke="black" stroke-width="1" fill="none" />
<polyline points="385.0,256.0,385.0,264.0,387.0,272.0,388.0,283.0,396.0,283.0,404.0,283.0,406.0,279.0,414.0,279.0" stroke="black" stroke-width="1" fill="none" />
<polyline points="389.0,297.0,389.0,305.0,390.0,313.0,389.0,321.0,391.0,329.0,390.0,330.0,398.0,328.0" stroke="black" stroke-width="1" fill="none" />
<polyline points="312.0,270.0,312.0,262.0,312.0,249.0,312.0,241.0,311.0,233.0,311.0,225.0,311.0,217.0,311.0,209.0,311.0,201.0,311.0,198.0" stroke="black" stroke-width="1" fill="none" />
<polyline points="325.0,194.0,326.0,202.0,326.0,210.0,327.0,218.0,327.0,226.0,327.0,234.0,327.0,242.0,327.0,250.0,325.0,257.0,327.0,267.0,325.0,275.0,316.0,280.0" stroke="black" stroke-width="1" fill="none" />
<polyline points="227.0,282.0,227.0,285.0,219.0,283.0" stroke="black" stroke-width="1" fill="none" />
<polyline points="221.0,293.0,218.0,301.0,217.0,309.0,218.0,320.0,219.0,321.0,223.0,328.0,231.0,327.0,239.0,327.0" stroke="black" stroke-width="1" fill="none" />
<polyline points="197.0,304.0,193.0,298.0,190.0,295.0,182.0,301.0" stroke="black" stroke-width="1" fill="none" />
<polyline points="175.0,309.0,183.0,307.0,191.0,300.0,198.0,308.0,199.0,316.0,199.0,324.0,199.0,332.0,198.0,340.0,199.0,348.0" stroke="black" stroke-width="1" fill="none" />
<polyline points="209.0,357.0,201.0,358.0,194.0,354.0,188.0,346.0,187.0,338.0,174.0,344.0" stroke="black" stroke-width="1" fill="none" />
<polyline points="177.0,341.0,175.0,349.0" stroke="black" stroke-width="1" fill="none" />
<polyline points="171.0,354.0,163.0,355.0,155.0,352.0,157.0,344.0,160.0,336.0,161.0,328.0,161.0,320.0,161.0,312.0,161.0,304.0,166.0,298.0,163.0,286.0,157.0,285.0,161.0,273.0,158.0,272.0,161.0,264.0,153.0,266.0,151.0,275.0,138.0,280.0,133.0,271.0,132.0,263.0,132.0,269.0,121.0,275.0,123.0,271.0,125.0,263.0,130.0,256.0,129.0,248.0,129.0,240.0,129.0,232.0,129.0,224.0,129.0,216.0,135.0,206.0,141.0,194.0,151.0,185.0,152.0,177.0,152.0,168.0,153.0,160.0,153.0,152.0,153.0,144.0,153.0,136.0,153.0,128.0,165.0,120.0,170.0,115.0,189.0,109.0,196.0,107.0,207.0,99.0,205.0,109.0" stroke="black" stroke-width="1" fill="none" />
<polyline points="205.0,113.0,210.0,106.0,202.0,112.0,202.0,120.0,198.0,132.0,198.0,140.0,198.0,148.0,192.0,158.0,192.0,163.0,200.0,163.0,200.0,158.0" stroke="black" stroke-width="1" fill="none" />
<polyline points="200.0,156.0,192.0,158.0,201.0,152.0,201.0,144.0,201.0,136.0,200.0,129.0,192.0,124.0,192.0,116.0,198.0,112.0,204.0,104.0,195.0,113.0" stroke="black" stroke-width="1" fill="none" />
<polyline points="183.0,116.0,189.0,116.0,189.0,124.0,189.0,132.0,189.0,140.0,189.0,148.0,189.0,156.0,189.0,164.0,189.0,172.0,190.0,179.0,198.0,178.0,205.0,176.0,206.0,179.0,210.0,173.0,213.0,175.0,221.0,175.0,229.0,172.0,230.0,175.0" stroke="black" stroke-width="1" fill="none" />
<polyline points="248.0,158.0,256.0,159.0,264.0,160.0" stroke="black" stroke-width="1" fill="none" />
<polyline points="261.0,177.0,269.0,179.0,271.0,185.0" stroke="black" stroke-width="1" fill="none" />
<polyline points="279.0,190.0,279.0,198.0,280.0,206.0,280.0,214.0,280.0,222.0,280.0,230.0,280.0,238.0,280.0,246.0,280.0,254.0,280.0,263.0,278.0,271.0,280.0,273.0,279.0,282.0,281.0,286.0,282.0,294.0,289.0,296.0,284.0,308.0" stroke="black" stroke-width="1" fill="none" />
<polyline points="205.0,252.0,205.0,244.0,205.0,236.0,205.0,228.0,201.0,216.0,198.0,220.0" stroke="black" stroke-width="1" fill="none" />
<polyline points="172.0,209.0,171.0,209.0,176.0,217.0,177.0,225.0,176.0,233.0,177.0,241.0,177.0,249.0" stroke="black" stroke-width="1" fill="none" />
<polyline points="180.0,246.0,180.0,238.0,180.0,230.0,179.0,218.0,179.0,210.0,178.0,206.0,170.0,206.0" stroke="black" stroke-width="1" fill="none" />
<polyline points="173.0,195.0,165.0,195.0" stroke="black" stroke-width="1" fill="none" />
<polyline points="158.0,199.0,167.0,207.0,168.0,215.0,168.0,223.0,167.0,231.0,167.0,239.0,167.0,247.0,167.0,255.0,173.0,259.0,181.0,256.0,188.0,258.0,196.0,258.0,204.0,253.0,207.0,256.0,212.0,251.0" stroke="black" stroke-width="1" fill="none" />
<polyline points="192.0,285.0,184.0,281.0,190.0,284.0,184.0,281.0,182.0,268.0,179.0,267.0,188.0,255.0,188.0,247.0,188.0,239.0,188.0,231.0,188.0,223.0,188.0,215.0,188.0,207.0,188.0,199.0,202.0,200.0,193.0,188.0,185.0,190.0" stroke="black" stroke-width="1" fill="none" />
<polyline points="180.0,180.0,183.0,175.0,183.0,167.0,183.0,159.0,183.0,151.0,183.0,143.0,183.0,135.0,183.0,127.0,174.0,119.0,166.0,120.0" stroke="black" stroke-width="1" fill="none" />
<polyline points="170.0,115.0,178.0,114.0,186.0,110.0,186.0,114.0,174.0,119.0,172.0,127.0,172.0,135.0,180.0,138.0,180.0,146.0,180.0,154.0,181.0,162.0,175.0,166.0" stroke="black" stroke-width="1" fill="none" />
<polyline points="175.0,163.0,172.0,168.0,177.0,160.0,177.0,152.0,177.0,144.0,180.0,136.0,177.0,128.0,173.0,125.0" stroke="black" stroke-width="1" fill="none" />
<polyline points="170.0,108.0,154.0,116.0,148.0,124.0,149.0,132.0,149.0,140.0,149.0,148.0,149.0,156.0,149.0,164.0,149.0,172.0,149.0,180.0,148.0,188.0,147.0,196.0,150.0,205.0,150.0,213.0,150.0,221.0,149.0,229.0,149.0,237.0,149.0,245.0,149.0,253.0,147.0,261.0,147.0,269.0,144.0,277.0,156.0,278.0,164.0,278.0,172.0,278.0,180.0,278.0,185.0,278.0,193.0,277.0,197.0,266.0,205.0,268.0" stroke="black" stroke-width="1" fill="none" />
<polyline points="182.0,262.0,174.0,262.0,166.0,263.0,158.0,262.0,150.0,264.0" stroke="black" stroke-width="1" fill="none" />
<polyline points="153.0,266.0,154.0,274.0" stroke="black" stroke-width="1" fill="none" />
<polyline points="161.0,283.0,161.0,281.0,169.0,281.0,170.0,285.0" stroke="black" stroke-width="1" fill="none" />
<polyline points="161.0,299.0,171.0,307.0,162.0,313.0" stroke="black" stroke-width="1" fill="none" />
<polyline points="152.0,300.0,163.0,304.0,164.0,312.0,163.0,322.0,163.0,330.0,163.0,338.0,163.0,346.0" stroke="black" stroke-width="1" fill="none" />
<polyline points="187.0,328.0,183.0,328.0,181.0,326.0,182.0,318.0,179.0,310.0,179.0,319.0" stroke="black" stroke-width="1" fill="none" />
<polyline points="158.0,335.0,158.0,327.0,158.0,319.0,158.0,311.0,154.0,303.0,157.0,295.0,149.0,296.0" stroke="black" stroke-width="1" fill="none" />
<polyline points="149.0,296.0,149.0,304.0,149.0,312.0,149.0,320.0,145.0,322.0,147.0,325.0,154.0,332.0,156.0,342.0,166.0,340.0,178.0,334.0,186.0,335.0,188.0,339.0,192.0,344.0,199.0,347.0,207.0,348.0,215.0,337.0,224.0,330.0,232.0,330.0,240.0,330.0" stroke="black" stroke-width="1" fill="none" />
<polyline points="178.0,265.0,172.0,273.0,172.0,265.0" stroke="black" stroke-width="1" fill="none" />
<polyline points="164.0,261.0,159.0,253.0,159.0,245.0,159.0,237.0,159.0,229.0,159.0,217.0,156.0,211.0,153.0,213.0" stroke="black" stroke-width="1" fill="none" />
<polyline points="141.0,224.0,138.0,224.0,139.0,216.0,132.0,216.0" stroke="black" stroke-width="1" fill="none" />
<polyline points="133.0,217.0,128.0,204.0,140.0,202.0,141.0,210.0,133.0,214.0,136.0,222.0,140.0,229.0,141.0,238.0,144.0,242.0" stroke="black" stroke-width="1" fill="none" />
<polyline points="143.0,263.0,140.0,271.0,139.0,279.0,137.0,292.0,132.0,294.0,129.0,306.0,129.0,314.0,128.0,322.0,125.0,330.0,128.0,338.0,126.0,346.0,133.0,356.0,133.0,356.0,141.0,356.0,149.0,356.0,157.0,352.0" stroke="black" stroke-width="1" fill="none" />
<polyline points="131.0,349.0,130.0,341.0,133.0,333.0,135.0,325.0,136.0,317.0,136.0,309.0,131.0,301.0,124.0,292.0,132.0,292.0,124.0,296.0" stroke="black" stroke-width="1" fill="none" />
<polyline points="124.0,291.0,132.0,288.0" stroke="black" stroke-width="1" fill="none" />
<polyline points="119.0,306.0,120.0,314.0,121.0,322.0,125.0,332.0,136.0,322.0" stroke="black" stroke-width="1" fill="none" />
<polyline points="131.0,319.0,131.0,327.0" stroke="black" stroke-width="1" fill="none" />
<polyline points="115.0,324.0,115.0,316.0,115.0,308.0,121.0,295.0,113.0,301.0" stroke="black" stroke-width="1" fill="none" />
<polyline points="103.0,300.0,106.0,303.0,107.0,311.0,107.0,319.0,102.0,324.0,110.0,328.0" stroke="black" stroke-width="1" fill="none" />
<polyline points="113.0,313.0,113.0,305.0,115.0,297.0,118.0,296.0,109.0,298.0,101.0,299.0" stroke="black" stroke-width="1" fill="none" />
<polyline points="92.0,302.0,91.0,310.0,91.0,318.0,91.0,326.0" stroke="black" stroke-width="1" fill="none" />
<polyline points="89.0,321.0,89.0,313.0,89.0,305.0,89.0,301.0" stroke="black" stroke-width="1" fill="none" />
<polyline points="81.0,295.0,76.0,303.0,80.0,305.0,80.0,313.0,79.0,321.0" stroke="black" stroke-width="1" fill="none" />
<polyline points="72.0,327.0,64.0,326.0" stroke="black" stroke-width="1" fill="none" />
<polyline points="40.0,335.0,36.0,332.0,32.0,329.0,26.0,331.0,33.0,328.0,35.0,320.0,35.0,312.0" stroke="black" stroke-width="1" fill="none" />
<polyline points="26.0,327.0,20.0,324.0,12.0,323.0" stroke="black" stroke-width="1" fill="none" />
<polyline points="8.0,342.0,0.0,344.0" stroke="black" stroke-width="1" fill="none" />
<polyline points="0.0,355.0,8.0,355.0,16.0,356.0,24.0,357.0,32.0,357.0,40.0,355.0,48.0,350.0,56.0,350.0,64.0,351.0,72.0,352.0,80.0,352.0,88.0,352.0,96.0,354.0,104.0,355.0,112.0,355.0,120.0,356.0,128.0,357.0" stroke="black" stroke-width="1" fill="none" />
<polyline points="128.0,369.0,120.0,369.0,112.0,369.0,104.0,368.0,96.0,367.0,88.0,367.0,80.0,366.0,72.0,365.0,64.0,364.0,56.0,364.0,48.0,363.0,40.0,362.0,32.0,361.0,24.0,361.0,16.0,360.0,8.0,359.0,0.0,358.0" stroke="black" stroke-width="1" fill="none" />
<polyline points="0.0,306.0,8.0,306.0,16.0,304.0,18.0,292.0" stroke="black" stroke-width="1" fill="none" />
<polyline points="20.0,292.0,20.0,300.0,12.0,310.0,11.0,318.0,10.0,326.0,9.0,334.0,8.0,342.0" stroke="black" stroke-width="1" fill="none" />
<polyline points="51.0,289.0,50.0,297.0,53.0,296.0,67.0,299.0,71.0,300.0" stroke="black" stroke-width="1" fill="none" />
<polyline points="76.0,315.0,71.0,314.0,64.0,323.0,56.0,327.0,48.0,326.0,47.0,323.0,47.0,315.0,47.0,307.0,47.0,299.0,48.0,291.0,50.0,283.0" stroke="black" stroke-width="1" fill="none" />
<polyline points="56.0,271.0,56.0,279.0,56.0,292.0,56.0,300.0" stroke="black" stroke-width="1" fill="none" />
<polyline points="64.0,287.0,71.0,277.0" stroke="black" stroke-width="1" fill="none" />
<polyline points="80.0,266.0,88.0,266.0,100.0,268.0,108.0,266.0,116.0,266.0,124.0,266.0,129.0,260.0" stroke="black" stroke-width="1" fill="none" />
<polyline points="137.0,265.0,133.0,273.0,135.0,277.0" stroke="black" stroke-width="1" fill="none" />
<polyline points="110.0,282.0,112.0,290.0,108.0,295.0,109.0,303.0,109.0,311.0,112.0,318.0,112.0,326.0" stroke="black" stroke-width="1" fill="none" />
<polyline points="95.0,284.0,99.0,279.0,99.0,270.0,96.0,270.0,101.0,262.0,101.0,254.0,102.0,246.0,98.0,238.0,102.0,230.0,94.0,231.0,98.0,230.0,102.0,222.0,96.0,218.0,93.0,216.0,103.0,205.0,114.0,194.0,119.0,184.0,128.0,178.0,128.0,170.0,127.0,158.0,132.0,150.0,132.0,142.0,135.0,142.0,131.0,135.0,123.0,139.0" stroke="black" stroke-width="1" fill="none" />
<polyline points="119.0,142.0,111.0,150.0,110.0,157.0,110.0,165.0" stroke="black" stroke-width="1" fill="none" />
<polyline points="102.0,171.0,102.0,179.0,102.0,187.0,102.0,195.0" stroke="black" stroke-width="1" fill="none" />
<polyline points="96.0,205.0,97.0,197.0,100.0,196.0,104.0,192.0,112.0,182.0,112.0,174.0,112.0,166.0,107.0,157.0,104.0,154.0,114.0,143.0,126.0,137.0,141.0,130.0,138.0,126.0,145.0,125.0,148.0,117.0,162.0,107.0,170.0,108.0,162.0,113.0,154.0,116.0" stroke="black" stroke-width="1" fill="none" />
<polyline points="153.0,128.0,161.0,122.0,169.0,126.0,169.0,134.0,169.0,142.0,169.0,150.0,169.0,158.0,169.0,166.0,169.0,174.0,160.0,185.0,156.0,189.0,163.0,182.0,167.0,184.0,175.0,183.0,183.0,177.0" stroke="black" stroke-width="1" fill="none" />
<polyline points="167.0,187.0,158.0,201.0,152.0,213.0,156.0,221.0,157.0,231.0,157.0,239.0,157.0,247.0,155.0,255.0,150.0,264.0,150.0,272.0" stroke="black" stroke-width="1" fill="none" />
<polyline points="107.0,266.0,108.0,274.0,111.0,277.0,107.0,285.0,101.0,288.0,100.0,296.0,99.0,304.0,100.0,312.0,100.0,320.0,109.0,328.0" stroke="black" stroke-width="1" fill="none" />
<polyline points="93.0,265.0,95.0,257.0,97.0,249.0,102.0,246.0,99.0,238.0" stroke="black" stroke-width="1" fill="none" />
<polyline points="86.0,227.0,84.0,230.0,80.0,233.0,79.0,241.0,79.0,249.0,79.0,257.0,79.0,265.0,73.0,279.0,70.0,287.0,59.0,290.0,70.0,291.0,73.0,293.0,68.0,300.0,67.0,309.0,70.0,313.0,75.0,319.0,76.0,327.0" stroke="black" stroke-width="1" fill="none" />
<polyline points="30.0,265.0,30.0,257.0" stroke="black" stroke-width="1" fill="none" />
<polyline points="30.0,248.0,30.0,256.0,27.0,264.0,24.0,272.0,32.0,267.0,40.0,266.0,53.0,267.0,61.0,266.0,62.0,268.0,70.0,269.0" stroke="black" stroke-width="1" fill="none" />
<polyline points="61.0,244.0,61.0,234.0,60.0,232.0" stroke="black" stroke-width="1" fill="none" />
<polyline points="70.0,226.0,70.0,234.0,69.0,242.0,69.0,250.0,69.0,258.0,69.0,266.0,74.0,269.0,79.0,270.0,87.0,269.0,95.0,266.0,104.0,264.0,112.0,264.0,120.0,259.0,128.0,258.0,136.0,258.0,136.0,261.0,144.0,256.0,157.0,257.0" stroke="black" stroke-width="1" fill="none" />
<polyline points="121.0,227.0,124.0,226.0,123.0,218.0,117.0,219.0" stroke="black" stroke-width="1" fill="none" />
<polyline points="118.0,218.0,118.0,226.0" stroke="black" stroke-width="1" fill="none" />
<polyline points="109.0,222.0,108.0,230.0,108.0,235.0,110.0,236.0,110.0,235.0" stroke="black" stroke-width="1" fill="none" />
<polyline points="108.0,221.0,100.0,220.0,92.0,217.0,89.0,223.0,75.0,228.0,72.0,236.0,73.0,228.0" stroke="black" stroke-width="1" fill="none" />
<polyline points="64.0,214.0,56.0,214.0,50.0,225.0,57.0,213.0,58.0,204.0,59.0,196.0,54.0,187.0,50.0,179.0,44.0,173.0,54.0,167.0,67.0,159.0,74.0,152.0,91.0,144.0,92.0,138.0" stroke="black" stroke-width="1" fill="none" />
<polyline points="89.0,134.0,80.0,142.0,63.0,150.0,45.0,152.0,53.0,150.0,61.0,146.0,69.0,143.0,77.0,138.0,85.0,134.0,87.0,128.0" stroke="black" stroke-width="1" fill="none" />
<polyline points="87.0,131.0,75.0,139.0,64.0,142.0,49.0,150.0,46.0,158.0,43.0,168.0,32.0,176.0,19.0,184.0,19.0,196.0,16.0,191.0,24.0,183.0,32.0,179.0,40.0,176.0,41.0,174.0,51.0,169.0,59.0,164.0,67.0,161.0,75.0,158.0,83.0,154.0,91.0,151.0,99.0,147.0,105.0,147.0,113.0,144.0,121.0,139.0,121.0,148.0,129.0,149.0" stroke="black" stroke-width="1" fill="none" />
<polyline points="121.0,145.0,121.0,153.0,121.0,161.0,124.0,169.0,124.0,177.0,127.0,187.0,120.0,197.0,130.0,197.0,138.0,196.0,146.0,191.0,156.0,195.0,164.0,193.0,172.0,191.0,180.0,189.0,188.0,187.0,196.0,185.0,204.0,183.0,212.0,182.0,220.0,180.0,228.0,181.0,236.0,181.0,244.0,182.0" stroke="black" stroke-width="1" fill="none" />
<polyline points="290.0,166.0,298.0,167.0" stroke="black" stroke-width="1" fill="none" />
<polyline points="301.0,151.0,301.0,143.0,301.0,135.0,295.0,135.0" stroke="black" stroke-width="1" fill="none" />
<polyline points="289.0,131.0,292.0,137.0,292.0,145.0,292.0,153.0,290.0,159.0,298.0,160.0,299.0,158.0" stroke="black" stroke-width="1" fill="none" />
<polyline points="295.0,152.0,295.0,144.0,295.0,136.0,296.0,128.0,288.0,129.0" stroke="black" stroke-width="1" fill="none" />
<polyline points="288.0,117.0,296.0,117.0,306.0,111.0,310.0,121.0,310.0,129.0,310.0,137.0,311.0,145.0,311.0,153.0,311.0,161.0,311.0,169.0,314.0,174.0" stroke="black" stroke-width="1" fill="none" />
<polyline points="345.0,159.0,337.0,160.0,340.0,153.0,340.0,145.0,337.0,134.0,329.0,133.0" stroke="black" stroke-width="1" fill="none" />
<polyline points="328.0,137.0,332.0,141.0,332.0,149.0,332.0,157.0,333.0,165.0,333.0,173.0" stroke="black" stroke-width="1" fill="none" />
<polyline points="365.0,179.0,365.0,171.0,364.0,163.0,364.0,155.0,364.0,147.0,364.0,137.0,364.0,129.0" stroke="black" stroke-width="1" fill="none" />
<polyline points="360.0,126.0,361.0,134.0,361.0,142.0,361.0,150.0,361.0,158.0,361.0,166.0,362.0,174.0,368.0,178.0,376.0,187.0,384.0,188.0,392.0,186.0,399.0,190.0,407.0,191.0" stroke="black" stroke-width="1" fill="none" />
<polyline points="396.0,179.0,395.0,171.0,395.0,163.0,395.0,155.0,395.0,147.0,394.0,139.0,392.0,131.0" stroke="black" stroke-width="1" fill="none" />
<polyline points="397.0,110.0,405.0,112.0,414.0,118.0,416.0,114.0,424.0,115.0" stroke="black" stroke-width="1" fill="none" />
<polyline points="437.0,124.0,431.0,128.0,427.0,127.0,438.0,123.0" stroke="black" stroke-width="1" fill="none" />
<polyline points="440.0,112.0,434.0,120.0,427.0,120.0,428.0,134.0,427.0,143.0,428.0,151.0,428.0,159.0,428.0,167.0" stroke="black" stroke-width="1" fill="none" />
<polyline points="449.0,101.0,457.0,104.0,465.0,106.0,473.0,109.0,481.0,111.0,489.0,112.0,497.0,114.0,505.0,116.0" stroke="black" stroke-width="1" fill="none" />
<polyline points="465.0,103.0,457.0,101.0,449.0,98.0,441.0,96.0,433.0,95.0" stroke="black" stroke-width="1" fill="none" />
<polyline points="445.0,97.0,459.0,105.0" stroke="black" stroke-width="1" fill="none" />
<polyline points="470.0,108.0,448.0,107.0,436.0,105.0,435.0,106.0,427.0,104.0,419.0,102.0,411.0,101.0,399.0,101.0,396.0,96.0,388.0,99.0,380.0,97.0,377.0,92.0,368.0,92.0,361.0,90.0,356.0,89.0,343.0,87.0,341.0,84.0,336.0,83.0,326.0,84.0,318.0,84.0,313.0,89.0,305.0,86.0,304.0,80.0,296.0,79.0,288.0,77.0,280.0,76.0,272.0,74.0,264.0,73.0,256.0,71.0,244.0,70.0,239.0,63.0,241.0,55.0,240.0,47.0,236.0,46.0,227.0,38.0,219.0,38.0,211.0,39.0,203.0,45.0" stroke="black" stroke-width="1" fill="none" />
<polyline points="210.0,44.0,218.0,43.0,226.0,43.0,234.0,44.0,238.0,40.0" stroke="black" stroke-width="1" fill="none" />
<polyline points="239.0,37.0,231.0,36.0,223.0,35.0,215.0,35.0,207.0,38.0,199.0,42.0,212.0,35.0" stroke="black" stroke-width="1" fill="none" />
<polyline points="211.0,39.0,203.0,47.0,203.0,55.0" stroke="black" stroke-width="1" fill="none" />
<polyline points="200.0,67.0,197.0,75.0,192.0,76.0,180.0,85.0,167.0,88.0,154.0,95.0,151.0,97.0,160.0,91.0,168.0,87.0" stroke="black" stroke-width="1" fill="none" />
<polyline points="170.0,94.0,178.0,89.0,186.0,85.0,194.0,81.0,202.0,77.0,206.0,75.0,190.0,83.0,175.0,91.0,159.0,99.0" stroke="black" stroke-width="1" fill="none" />
<polyline points="157.0,81.0,149.0,77.0,141.0,77.0,139.0,79.0" stroke="black" stroke-width="1" fill="none" />
<polyline points="133.0,85.0,139.0,76.0,135.0,84.0,128.0,87.0,128.0,95.0,136.0,102.0,139.0,109.0,123.0,117.0,109.0,125.0,100.0,130.0,108.0,126.0,116.0,121.0,124.0,117.0,132.0,113.0,133.0,106.0,143.0,107.0" stroke="black" stroke-width="1" fill="none" />
<polyline points="140.0,110.0,129.0,117.0,137.0,114.0" stroke="black" stroke-width="1" fill="none" />
<polyline points="140.0,118.0,132.0,122.0,123.0,126.0,115.0,132.0,107.0,134.0,99.0,138.0,115.0,132.0,125.0,124.0" stroke="black" stroke-width="1" fill="none" />
<polyline points="132.0,132.0,140.0,140.0,140.0,148.0,139.0,156.0,139.0,164.0,139.0,172.0,141.0,179.0,135.0,176.0,139.0,177.0" stroke="black" stroke-width="1" fill="none" />
<polyline points="153.0,174.0,161.0,171.0" stroke="black" stroke-width="1" fill="none" />
<polyline points="160.0,166.0,161.0,158.0,161.0,150.0,158.0,146.0" stroke="black" stroke-width="1" fill="none" />
<polyline points="156.0,134.0,162.0,133.0,156.0,135.0,158.0,146.0,158.0,154.0,158.0,162.0,156.0,170.0,155.0,171.0" stroke="black" stroke-width="1" fill="none" />
<polyline points="155.0,178.0,163.0,179.0" stroke="black" stroke-width="1" fill="none" />
<polyline points="149.0,194.0,150.0,202.0,147.0,210.0,147.0,218.0,147.0,226.0,147.0,234.0,141.0,243.0,141.0,251.0,134.0,259.0,134.0,267.0,126.0,267.0,128.0,274.0" stroke="black" stroke-width="1" fill="none" />
<polyline points="60.0,270.0,50.0,270.0,36.0,271.0,38.0,267.0,37.0,259.0,37.0,251.0" stroke="black" stroke-width="1" fill="none" />
<polyline points="37.0,246.0,34.0,254.0,34.0,262.0,29.0,274.0,29.0,286.0,27.0,294.0,29.0,296.0,35.0,299.0" stroke="black" stroke-width="1" fill="none" />
<polyline points="32.0,280.0,24.0,278.0,20.0,282.0,18.0,277.0,17.0,270.0,19.0,262.0,19.0,254.0" stroke="black" stroke-width="1" fill="none" />
<polyline points="22.0,231.0,10.0,235.0,8.0,238.0,0.0,236.0" stroke="black" stroke-width="1" fill="none" />
<polyline points="0.0,229.0,8.0,225.0" stroke="black" stroke-width="1" fill="none" />
<polyline points="14.0,228.0,22.0,223.0" stroke="black" stroke-width="1" fill="none" />
<polyline points="10.0,215.0,2.0,216.0" stroke="black" stroke-width="1" fill="none" />
<polyline points="0.0,207.0,1.0,215.0,1.0,223.0,3.0,228.0,10.0,236.0,10.0,242.0" stroke="black" stroke-width="1" fill="none" />
<polyline points="8.0,206.0,0.0,205.0" stroke="black" stroke-width="1" fill="none" />
<polyline points="0.0,199.0,8.0,198.0,11.0,208.0" stroke="black" stroke-width="1" fill="none" />
<polyline points="25.0,212.0,28.0,204.0" stroke="black" stroke-width="1" fill="none" />
<polyline points="36.0,221.0,28.0,219.0,29.0,216.0,32.0,208.0,31.0,200.0,31.0,192.0,33.0,184.0" stroke="black" stroke-width="1" fill="none" />
<polyline points="30.0,179.0,20.0,187.0,22.0,197.0,19.0,205.0,19.0,213.0,19.0,221.0,23.0,233.0,23.0,241.0,23.0,249.0,22.0,257.0,22.0,265.0,21.0,274.0,25.0,283.0,24.0,291.0,26.0,299.0,28.0,297.0,30.0,297.0,40.0,294.0" stroke="black" stroke-width="1" fill="none" />
<polyline points="51.0,220.0,59.0,218.0,67.0,216.0,75.0,215.0,83.0,212.0,91.0,209.0,99.0,204.0,107.0,201.0,115.0,198.0,123.0,196.0" stroke="black" stroke-width="1" fill="none" />
<polyline points="142.0,172.0,142.0,164.0,142.0,156.0,139.0,151.0" stroke="black" stroke-width="1" fill="none" />
<polyline points="128.0,140.0,128.0,142.0,129.0,146.0,124.0,156.0,127.0,163.0,129.0,155.0,132.0,159.0,132.0,166.0,132.0,174.0,132.0,182.0" stroke="black" stroke-width="1" fill="none" />
<polyline points="135.0,193.0,145.0,185.0,145.0,177.0,146.0,169.0,145.0,161.0,145.0,153.0,146.0,145.0,145.0,137.0,134.0,131.0" stroke="black" stroke-width="1" fill="none" />
<polyline points="139.0,125.0,131.0,130.0,123.0,133.0,115.0,137.0,107.0,141.0,99.0,145.0,117.0,136.0,128.0,128.0,131.0,124.0,145.0,120.0,142.0,112.0" stroke="black" stroke-width="1" fill="none" />
<polyline points="134.0,108.0,120.0,116.0,106.0,124.0,113.0,120.0,121.0,116.0,129.0,111.0,139.0,108.0,147.0,115.0,158.0,110.0,166.0,104.0,174.0,101.0" stroke="black" stroke-width="1" fill="none" />
<polyline points="188.0,96.0,196.0,91.0,204.0,85.0,206.0,87.0,200.0,88.0,188.0,96.0,184.0,102.0,174.0,110.0,158.0,118.0,158.0,118.0,166.0,114.0,174.0,110.0,182.0,106.0,193.0,101.0,201.0,97.0,208.0,84.0,216.0,84.0,224.0,83.0,232.0,82.0,239.0,86.0,231.0,90.0,239.0,86.0,247.0,86.0,255.0,88.0" stroke="black" stroke-width="1" fill="none" />
<polyline points="268.0,92.0,276.0,92.0,280.0,87.0,289.0,89.0,297.0,90.0" stroke="black" stroke-width="1" fill="none" />
<polyline points="303.0,99.0,311.0,100.0,319.0,98.0" stroke="black" stroke-width="1" fill="none" />
<polyline points="336.0,107.0,344.0,110.0" stroke="black" stroke-width="1" fill="none" />
<polyline points="353.0,118.0,361.0,119.0,369.0,121.0,380.0,123.0,388.0,124.0" stroke="black" stroke-width="1" fill="none" />
<polyline points="387.0,119.0,379.0,120.0,371.0,119.0,363.0,117.0,355.0,115.0,347.0,114.0,339.0,113.0,331.0,112.0,323.0,110.0,320.0,106.0,312.0,108.0,304.0,107.0,296.0,105.0,288.0,104.0,280.0,102.0" stroke="black" stroke-width="1" fill="none" />
<polyline points="281.0,106.0,282.0,114.0,282.0,122.0,282.0,130.0,282.0,138.0,282.0,146.0,282.0,154.0,282.0,162.0,282.0,170.0" stroke="black" stroke-width="1" fill="none" />
<polyline points="284.0,172.0,285.0,164.0,285.0,156.0,285.0,148.0,285.0,140.0,285.0,132.0,285.0,124.0,285.0,116.0,281.0,109.0" stroke="black" stroke-width="1" fill="none" />
<polyline points="272.0,112.0,276.0,120.0,276.0,128.0,276.0,136.0,276.0,144.0,276.0,152.0,276.0,160.0,276.0,168.0" stroke="black" stroke-width="1" fill="none" />
<polyline points="256.0,146.0,256.0,138.0,251.0,136.0,251.0,128.0,246.0,124.0" stroke="black" stroke-width="1" fill="none" />
<polyline points="245.0,123.0,253.0,122.0,260.0,129.0,260.0,137.0,260.0,145.0,264.0,157.0" stroke="black" stroke-width="1" fill="none" />
<polyline points="254.0,151.0,254.0,143.0,254.0,135.0,254.0,127.0,260.0,116.0,261.0,111.0,253.0,110.0,245.0,109.0" stroke="black" stroke-width="1" fill="none" />
<polyline points="245.0,109.0,245.0,117.0,245.0,126.0,245.0,134.0,245.0,142.0,245.0,150.0,246.0,161.0,252.0,156.0,260.0,156.0" stroke="black" stroke-width="1" fill="none" />
<polyline points="254.0,162.0,241.0,165.0,242.0,157.0,242.0,149.0,242.0,141.0,242.0,133.0,242.0,125.0,242.0,117.0,241.0,109.0,236.0,104.0,228.0,103.0" stroke="black" stroke-width="1" fill="none" />
<polyline points="227.0,101.0,239.0,106.0,238.0,114.0,238.0,122.0,238.0,130.0,238.0,138.0,238.0,146.0,238.0,154.0,238.0,162.0" stroke="black" stroke-width="1" fill="none" />
<polyline points="270.0,169.0,269.0,161.0,269.0,153.0,269.0,145.0,269.0,137.0,269.0,129.0,269.0,121.0,269.0,113.0,275.0,108.0,275.0,96.0,268.0,85.0,260.0,83.0,252.0,82.0,244.0,80.0,236.0,78.0,228.0,77.0,220.0,76.0" stroke="black" stroke-width="1" fill="none" />
<polyline points="209.0,74.0,217.0,73.0,225.0,74.0,233.0,75.0,241.0,77.0,249.0,78.0,257.0,80.0,265.0,81.0,273.0,83.0,281.0,84.0,289.0,86.0,297.0,87.0,305.0,89.0" stroke="black" stroke-width="1" fill="none" />
<polyline points="298.0,74.0,306.0,75.0,314.0,75.0,322.0,79.0,330.0,80.0,338.0,81.0,346.0,83.0,354.0,84.0,362.0,86.0,370.0,88.0,378.0,90.0,386.0,91.0,394.0,93.0,402.0,95.0,410.0,97.0,418.0,97.0,426.0,101.0,434.0,102.0,442.0,104.0,450.0,107.0,458.0,107.0,466.0,111.0,474.0,112.0,482.0,114.0,490.0,116.0,498.0,117.0,506.0,120.0" stroke="black" stroke-width="1" fill="none" />
<polyline points="508.0,124.0,500.0,122.0,492.0,121.0,483.0,128.0,479.0,125.0,471.0,123.0,463.0,122.0,455.0,120.0,447.0,118.0,439.0,116.0,431.0,121.0,423.0,125.0,416.0,127.0,408.0,125.0,400.0,124.0,392.0,123.0,386.0,115.0,378.0,111.0,370.0,109.0,362.0,108.0,351.0,102.0,349.0,105.0,341.0,104.0,333.0,103.0,319.0,100.0,323.0,99.0,313.0,92.0,314.0,86.0,316.0,78.0,308.0,78.0,300.0,77.0,292.0,75.0,284.0,74.0,276.0,72.0,268.0,70.0,260.0,69.0,252.0,67.0,244.0,67.0,236.0,68.0,228.0,65.0,220.0,63.0,212.0,64.0" stroke="black" stroke-width="1" fill="none" />
<polyline points="227.0,71.0,219.0,71.0,211.0,71.0,203.0,73.0,199.0,70.0,192.0,76.0,186.0,82.0,178.0,86.0,170.0,91.0,162.0,98.0,154.0,102.0,149.0,104.0,141.0,99.0,142.0,93.0,157.0,85.0,172.0,77.0,186.0,69.0,186.0,69.0,178.0,73.0,170.0,79.0,162.0,82.0,154.0,87.0,146.0,91.0,138.0,95.0" stroke="black" stroke-width="1" fill="none" />
<polyline points="147.0,78.0,139.0,85.0,132.0,99.0,125.0,97.0,125.0,89.0,125.0,81.0,127.0,73.0,132.0,61.0,134.0,57.0,131.0,65.0" stroke="black" stroke-width="1" fill="none" />
<polyline points="133.0,67.0,141.0,68.0,149.0,61.0,158.0,62.0,166.0,63.0,174.0,64.0,182.0,65.0" stroke="black" stroke-width="1" fill="none" />
<polyline points="191.0,69.0,177.0,77.0,163.0,85.0,149.0,93.0" stroke="black" stroke-width="1" fill="none" />
<polyline points="152.0,71.0,144.0,66.0,136.0,63.0" stroke="black" stroke-width="1" fill="none" />
<polyline points="135.0,61.0,136.0,59.0,137.0,55.0,147.0,65.0,150.0,73.0,142.0,83.0,136.0,96.0,130.0,104.0,121.0,112.0,106.0,120.0,97.0,125.0,105.0,121.0,113.0,116.0,121.0,112.0,127.0,109.0,134.0,103.0,142.0,102.0,143.0,97.0,151.0,92.0,159.0,88.0,167.0,83.0,175.0,79.0,183.0,74.0,192.0,69.0,197.0,66.0,205.0,67.0,213.0,67.0,221.0,66.0,229.0,68.0,237.0,71.0,245.0,72.0,253.0,73.0,261.0,75.0,269.0,76.0,277.0,78.0,285.0,79.0,293.0,81.0,301.0,82.0" stroke="black" stroke-width="1" fill="none" />
<polyline points="292.0,68.0,300.0,65.0" stroke="black" stroke-width="1" fill="none" />
<polyline points="299.0,63.0,291.0,66.0" stroke="black" stroke-width="1" fill="none" />
<polyline points="308.0,57.0,316.0,57.0,324.0,59.0,332.0,59.0" stroke="black" stroke-width="1" fill="none" />
<polyline points="320.0,48.0,299.0,56.0,307.0,61.0,312.0,65.0,319.0,70.0,320.0,81.0,320.0,80.0,329.0,86.0,337.0,88.0,345.0,90.0,353.0,91.0,361.0,93.0,369.0,95.0,377.0,94.0,380.0,95.0" stroke="black" stroke-width="1" fill="none" />
<polyline points="381.0,112.0,388.0,114.0,388.0,122.0" stroke="black" stroke-width="1" fill="none" />
<polyline points="362.0,103.0,354.0,101.0" stroke="black" stroke-width="1" fill="none" />
<polyline points="367.0,83.0,367.0,75.0,367.0,67.0,370.0,57.0,367.0,54.0" stroke="black" stroke-width="1" fill="none" />
<polyline points="367.0,51.0,363.0,59.0,363.0,67.0,363.0,75.0,363.0,83.0" stroke="black" stroke-width="1" fill="none" />
<polyline points="390.0,58.0,398.0,74.0,406.0,81.0,414.0,84.0,422.0,85.0" stroke="black" stroke-width="1" fill="none" />
<polyline points="396.0,78.0,388.0,82.0,386.0,82.0,386.0,74.0,384.0,60.0,386.0,52.0,380.0,43.0,375.0,42.0,374.0,40.0" stroke="black" stroke-width="1" fill="none" />
<polyline points="374.0,28.0,384.0,36.0,389.0,44.0,393.0,49.0,391.0,57.0,392.0,65.0,393.0,73.0,400.0,77.0,413.0,79.0,425.0,87.0,424.0,95.0,422.0,108.0,424.0,121.0,428.0,130.0,424.0,138.0,424.0,146.0,424.0,154.0,424.0,162.0" stroke="black" stroke-width="1" fill="none" />
<polyline points="398.0,98.0,392.0,103.0,384.0,102.0,376.0,100.0,368.0,98.0,360.0,97.0,353.0,80.0,351.0,79.0,353.0,71.0,347.0,67.0,339.0,65.0,335.0,63.0,327.0,64.0,319.0,60.0,311.0,60.0,303.0,59.0,294.0,59.0,286.0,62.0,278.0,64.0,270.0,65.0,264.0,61.0,256.0,61.0,248.0,63.0,240.0,63.0,216.0,61.0,208.0,64.0,200.0,64.0,192.0,64.0,184.0,63.0,176.0,62.0,168.0,61.0,160.0,60.0,152.0,59.0,144.0,56.0,136.0,52.0,128.0,50.0,120.0,51.0,112.0,62.0" stroke="black" stroke-width="1" fill="none" />
<polyline points="122.0,52.0,130.0,56.0,128.0,57.0,122.0,59.0,124.0,71.0,122.0,79.0,122.0,87.0,122.0,95.0,123.0,103.0,111.0,111.0,99.0,114.0,105.0,100.0,114.0,98.0" stroke="black" stroke-width="1" fill="none" />
<polyline points="120.0,107.0,112.0,110.0,104.0,117.0,93.0,123.0,85.0,122.0,77.0,122.0,69.0,122.0,61.0,121.0,53.0,120.0,44.0,122.0,36.0,114.0,28.0,120.0" stroke="black" stroke-width="1" fill="none" />
<polyline points="38.0,117.0,35.0,121.0,28.0,121.0,27.0,129.0,30.0,137.0,27.0,145.0,23.0,153.0,16.0,161.0,12.0,169.0,10.0,177.0,14.0,185.0,14.0,193.0,12.0,201.0,9.0,207.0,14.0,212.0,13.0,220.0,11.0,228.0,13.0,236.0,13.0,244.0,13.0,252.0,13.0,260.0,12.0,268.0,12.0,276.0,10.0,284.0,15.0,288.0,17.0,293.0,13.0,297.0,11.0,305.0,9.0,313.0,5.0,321.0,1.0,322.0,1.0,312.0" stroke="black" stroke-width="1" fill="none" />
<polyline points="72.0,291.0,70.0,281.0,69.0,278.0,61.0,285.0,59.0,287.0,56.0,287.0,50.0,283.0,43.0,286.0,34.0,283.0,44.0,273.0,44.0,265.0,44.0,257.0,44.0,249.0,44.0,241.0,40.0,238.0,45.0,232.0,45.0,224.0,45.0,216.0" stroke="black" stroke-width="1" fill="none" />
<polyline points="59.0,201.0,52.0,204.0,56.0,196.0,50.0,195.0" stroke="black" stroke-width="1" fill="none" />
<polyline points="44.0,206.0,43.0,204.0,35.0,206.0,32.0,203.0,38.0,197.0,38.0,189.0,38.0,181.0,40.0,181.0" stroke="black" stroke-width="1" fill="none" />
<polyline points="14.0,183.0,22.0,181.0,30.0,177.0,38.0,173.0,46.0,170.0,54.0,176.0,56.0,169.0,64.0,167.0,67.0,165.0,75.0,162.0,83.0,157.0,91.0,154.0,99.0,153.0,109.0,152.0" stroke="black" stroke-width="1" fill="none" />
<polyline points="117.0,146.0,117.0,154.0,117.0,162.0,117.0,170.0,117.0,178.0,117.0,186.0,113.0,191.0" stroke="black" stroke-width="1" fill="none" />
<polyline points="95.0,182.0,95.0,174.0" stroke="black" stroke-width="1" fill="none" />
<polyline points="85.0,163.0,93.0,157.0,89.0,160.0,87.0,168.0,84.0,176.0,88.0,184.0,87.0,192.0,89.0,198.0,86.0,197.0" stroke="black" stroke-width="1" fill="none" />
<polyline points="88.0,216.0,88.0,224.0,91.0,231.0,91.0,239.0,91.0,247.0,91.0,255.0,91.0,263.0,87.0,276.0,81.0,282.0,90.0,280.0,94.0,282.0,102.0,280.0,108.0,281.0,116.0,278.0,124.0,278.0,132.0,274.0" stroke="black" stroke-width="1" fill="none" />
<polyline points="36.0,221.0,39.0,221.0,45.0,213.0,42.0,208.0,46.0,199.0,46.0,191.0,46.0,183.0,47.0,175.0,64.0,165.0" stroke="black" stroke-width="1" fill="none" />
<polyline points="70.0,164.0,70.0,172.0,70.0,180.0" stroke="black" stroke-width="1" fill="none" />
<polyline points="65.0,173.0,62.0,175.0,59.0,176.0,59.0,184.0,52.0,194.0,50.0,202.0,49.0,210.0,48.0,218.0,50.0,226.0,49.0,234.0,49.0,242.0,48.0,250.0,48.0,258.0,48.0,266.0,47.0,274.0,43.0,280.0,43.0,286.0,43.0,294.0,42.0,302.0,42.0,310.0,41.0,318.0,41.0,326.0,41.0,334.0,35.0,342.0,37.0,344.0,40.0,348.0,40.0,358.0,48.0,359.0,56.0,359.0,64.0,360.0,72.0,361.0,80.0,361.0,88.0,362.0,96.0,363.0,104.0,363.0,112.0,364.0,120.0,364.0,128.0,364.0,136.0,365.0,144.0,365.0,152.0,364.0,159.0,368.0,167.0,368.0,172.0,371.0,180.0,372.0,188.0,373.0,196.0,374.0,204.0,375.0,212.0,376.0,220.0,376.0,228.0,378.0,236.0,378.0,244.0,380.0,252.0,381.0" stroke="black" stroke-width="1" fill="none" />
<polyline points="142.0,189.0,134.0,194.0,126.0,192.0,126.0,196.0,118.0,201.0,110.0,203.0,102.0,206.0,95.0,199.0,100.0,191.0,100.0,183.0,100.0,175.0,100.0,167.0,100.0,159.0,97.0,156.0,99.0,148.0" stroke="black" stroke-width="1" fill="none" />
<polyline points="98.0,133.0,90.0,135.0,88.0,131.0,80.0,134.0,76.0,133.0,68.0,137.0,60.0,141.0,52.0,145.0,44.0,149.0,36.0,155.0,28.0,159.0,20.0,164.0,17.0,161.0,32.0,157.0,28.0,152.0,34.0,146.0,34.0,138.0,35.0,130.0,37.0,128.0,34.0,131.0" stroke="black" stroke-width="1" fill="none" />
<polyline points="36.0,131.0,36.0,139.0,36.0,152.0,28.0,163.0,18.0,171.0,20.0,167.0,28.0,163.0,36.0,159.0,42.0,156.0,50.0,157.0,58.0,153.0,66.0,149.0,74.0,145.0,82.0,141.0,92.0,131.0" stroke="black" stroke-width="1" fill="none" />
<polyline points="80.0,126.0,82.0,128.0,69.0,136.0,55.0,144.0,39.0,152.0,40.0,160.0,26.0,168.0,15.0,173.0,11.0,172.0,15.0,158.0,23.0,156.0,25.0,151.0" stroke="black" stroke-width="1" fill="none" />
<polyline points="40.0,128.0,48.0,129.0,57.0,123.0" stroke="black" stroke-width="1" fill="none" />
<polyline points="59.0,145.0,50.0,149.0,55.0,149.0" stroke="black" stroke-width="1" fill="none" />
<polyline points="58.0,156.0,49.0,164.0,57.0,173.0,56.0,181.0,55.0,184.0" stroke="black" stroke-width="1" fill="none" />
<polyline points="77.0,175.0,74.0,167.0,80.0,163.0" stroke="black" stroke-width="1" fill="none" />
<polyline points="82.0,164.0,82.0,172.0,88.0,180.0,93.0,173.0" stroke="black" stroke-width="1" fill="none" />
<polyline points="96.0,142.0,88.0,146.0,80.0,148.0,72.0,153.0,60.0,157.0,51.0,161.0,42.0,162.0,33.0,164.0,25.0,169.0,17.0,176.0,9.0,176.0" stroke="black" stroke-width="1" fill="none" />
<polyline points="114.0,101.0,106.0,105.0,106.0,105.0,112.0,95.0,114.0,87.0" stroke="black" stroke-width="1" fill="none" />
<polyline points="124.0,49.0,114.0,57.0,112.0,65.0,110.0,73.0,113.0,81.0,111.0,89.0,109.0,97.0,100.0,105.0,99.0,114.0,95.0,122.0,95.0,130.0,100.0,142.0,93.0,150.0,81.0,158.0,69.0,166.0,68.0,174.0,67.0,182.0,67.0,190.0,67.0,198.0,65.0,206.0,68.0,211.0,73.0,212.0,81.0,210.0,89.0,205.0,95.0,206.0,101.0,209.0,109.0,207.0,117.0,205.0,125.0,203.0,133.0,201.0,141.0,198.0,152.0,193.0,160.0,191.0,168.0,187.0,176.0,185.0,184.0,183.0,192.0,182.0,200.0,182.0,206.0,187.0,210.0,180.0,218.0,178.0,226.0,177.0,234.0,178.0,242.0,176.0,250.0,176.0,258.0,177.0,266.0,175.0,275.0,169.0,285.0,177.0,293.0,178.0,301.0,179.0,309.0,180.0,317.0,179.0,325.0,176.0,329.0,176.0,337.0,180.0,341.0,184.0,345.0,189.0,353.0,190.0,361.0,191.0,369.0,191.0,377.0,192.0,385.0,193.0,393.0,194.0,401.0,195.0,409.0,196.0,423.0,181.0,426.0,180.0,434.0,190.0" stroke="black" stroke-width="1" fill="none" />
<polyline points="337.0,169.0,336.0,164.0,335.0,154.0,335.0,146.0,335.0,138.0,344.0,126.0" stroke="black" stroke-width="1" fill="none" />
<polyline points="342.0,125.0,333.0,123.0,329.0,117.0,323.0,119.0,315.0,120.0,306.0,124.0,305.0,119.0,297.0,120.0" stroke="black" stroke-width="1" fill="none" />
<polyline points="297.0,120.0,306.0,120.0,306.0,128.0" stroke="black" stroke-width="1" fill="none" />
<polyline points="314.0,118.0,315.0,126.0,315.0,134.0,315.0,142.0,315.0,150.0,315.0,158.0,316.0,166.0" stroke="black" stroke-width="1" fill="none" />
<polyline points="328.0,174.0,328.0,166.0,328.0,158.0,328.0,150.0,328.0,142.0,328.0,131.0,328.0,123.0" stroke="black" stroke-width="1" fill="none" />
<polyline points="324.0,121.0,325.0,129.0,325.0,137.0,325.0,145.0,325.0,153.0,325.0,161.0,325.0,169.0,335.0,173.0,343.0,174.0,347.0,176.0,355.0,179.0,367.0,181.0,374.0,182.0,375.0,177.0,377.0,168.0" stroke="black" stroke-width="1" fill="none" />
<polyline points="361.0,183.0,353.0,182.0,345.0,185.0,345.0,177.0,349.0,167.0,344.0,164.0,348.0,156.0,348.0,148.0,348.0,140.0,348.0,132.0,348.0,124.0" stroke="black" stroke-width="1" fill="none" />
<polyline points="339.0,98.0,331.0,96.0,323.0,95.0,315.0,94.0,307.0,96.0,299.0,96.0,291.0,96.0,283.0,96.0" stroke="black" stroke-width="1" fill="none" />
<polyline points="281.0,85.0,276.0,93.0,278.0,97.0,279.0,107.0,279.0,115.0,279.0,123.0,279.0,131.0,279.0,139.0,279.0,147.0,279.0,155.0,279.0,163.0,272.0,171.0,276.0,178.0,279.0,178.0,279.0,188.0,276.0,196.0,277.0,204.0,277.0,212.0,277.0,220.0,277.0,228.0" stroke="black" stroke-width="1" fill="none" />
<polyline points="249.0,144.0,248.0,136.0,248.0,128.0" stroke="black" stroke-width="1" fill="none" />
<polyline points="246.0,112.0,254.0,114.0,262.0,115.0" stroke="black" stroke-width="1" fill="none" />
<polyline points="250.0,103.0,242.0,101.0" stroke="black" stroke-width="1" fill="none" />
<polyline points="213.0,94.0,202.0,96.0,186.0,98.0,194.0,104.0,201.0,104.0,205.0,100.0,211.0,102.0,216.0,94.0,224.0,95.0,232.0,97.0,241.0,98.0,249.0,99.0,257.0,101.0,265.0,102.0,273.0,101.0,273.0,103.0,277.0,101.0,279.0,93.0,284.0,93.0,292.0,93.0,300.0,93.0,308.0,93.0,316.0,91.0,324.0,90.0,332.0,93.0,340.0,96.0,348.0,97.0,356.0,96.0,356.0,99.0,364.0,101.0,372.0,102.0,380.0,104.0,388.0,105.0,396.0,107.0,404.0,105.0,412.0,103.0,420.0,105.0,428.0,107.0" stroke="black" stroke-width="1" fill="none" />
<polyline points="468.0,93.0,467.0,101.0,473.0,106.0,481.0,107.0,489.0,109.0,497.0,111.0,505.0,112.0" stroke="black" stroke-width="1" fill="none" />
<polyline points="401.0,74.0,396.0,66.0,392.0,58.0" stroke="black" stroke-width="1" fill="none" />
<polyline points="350.0,74.0,340.0,72.0,332.0,70.0,324.0,68.0,316.0,63.0" stroke="black" stroke-width="1" fill="none" />
<polyline points="311.0,54.0,319.0,51.0,327.0,49.0,335.0,47.0,337.0,41.0,345.0,40.0,353.0,41.0,358.0,32.0,367.0,29.0" stroke="black" stroke-width="1" fill="none" />
<polyline points="346.0,34.0,337.0,42.0,341.0,51.0,352.0,43.0,363.0,37.0,372.0,40.0,380.0,42.0,388.0,52.0,396.0,65.0,404.0,75.0,412.0,78.0,420.0,81.0,428.0,83.0" stroke="black" stroke-width="1" fill="none" />
<polyline points="390.0,44.0,382.0,33.0,374.0,28.0,366.0,26.0,358.0,28.0,350.0,34.0,342.0,37.0,335.0,44.0,327.0,46.0,319.0,49.0,311.0,51.0,303.0,54.0,295.0,57.0,287.0,59.0,279.0,61.0,271.0,63.0" stroke="black" stroke-width="1" fill="none" />
<polyline points="251.0,64.0,259.0,66.0,267.0,67.0,275.0,68.0,283.0,70.0,291.0,73.0,299.0,70.0,307.0,72.0" stroke="black" stroke-width="1" fill="none" />
<polyline points="289.0,116.0,288.0,124.0,289.0,132.0,288.0,140.0,289.0,148.0,289.0,156.0,289.0,165.0,296.0,163.0,304.0,164.0,307.0,161.0" stroke="black" stroke-width="1" fill="none" />
<polyline points="320.0,181.0,323.0,174.0,323.0,166.0,323.0,158.0,323.0,150.0,322.0,142.0,322.0,134.0,322.0,126.0,321.0,118.0" stroke="black" stroke-width="1" fill="none" />
<polyline points="226.0,164.0,218.0,161.0,210.0,166.0,200.0,177.0,204.0,169.0,210.0,160.0,210.0,152.0,210.0,144.0,209.0,136.0,209.0,128.0,209.0,120.0,209.0,112.0" stroke="black" stroke-width="1" fill="none" />
<polyline points="0.0,64.0,512.0,64.0" stroke="black" stroke-width="1" fill="none" />
</svg>