<svg xmlns="http://www.w3.org/2000/svg" height="680px" width="510px" version="1.1"><polyline points="271.0,56.0,271.0,64.0,274.0,65.0,274.0,73.0,272.0,81.0,274.0,85.0,278.0,95.0,271.0,100.0,278.0,109.0,283.0,105.0" stroke="black" stroke-width="1" fill="none" />
<polyline points="285.0,109.0,277.0,119.0" stroke="black" stroke-width="1" fill="none" />
<polyline points="281.0,108.0,280.0,100.0,286.0,88.0,285.0,80.0,284.0,72.0,284.0,64.0,282.0,56.0,276.0,57.0" stroke="black" stroke-width="1" fill="none" />
<polyline points="267.0,57.0,268.0,65.0,267.0,73.0,267.0,81.0,267.0,89.0,267.0,97.0,267.0,105.0,267.0,113.0,268.0,121.0,268.0,129.0,268.0,137.0,268.0,145.0,270.0,153.0,270.0,161.0,271.0,169.0,271.0,177.0,271.0,185.0,271.0,193.0,272.0,201.0,272.0,209.0,273.0,217.0,273.0,225.0,274.0,233.0,274.0,241.0,275.0,249.0,275.0,257.0,275.0,265.0,276.0,273.0,277.0,281.0,278.0,289.0,276.0,297.0,275.0,305.0,273.0,313.0,271.0,321.0,270.0,329.0,270.0,337.0" stroke="black" stroke-width="1" fill="none" />
<polyline points="290.0,343.0,298.0,335.0,306.0,329.0,312.0,332.0,320.0,331.0,328.0,330.0,336.0,330.0,344.0,332.0,352.0,345.0,360.0,352.0,368.0,356.0,376.0,358.0,384.0,360.0,392.0,362.0,400.0,364.0,408.0,365.0,416.0,364.0,424.0,364.0,432.0,363.0,440.0,364.0,448.0,366.0,456.0,370.0,464.0,379.0,472.0,391.0" stroke="black" stroke-width="1" fill="none" />
<polyline points="469.0,389.0,464.0,381.0,459.0,373.0,445.0,365.0" stroke="black" stroke-width="1" fill="none" />
<polyline points="482.0,328.0,482.0,319.0" stroke="black" stroke-width="1" fill="none" />
<polyline points="487.0,294.0,478.0,301.0,487.0,294.0,494.0,286.0,495.0,278.0,497.0,270.0,498.0,262.0,499.0,254.0,501.0,246.0,502.0,238.0,503.0,230.0,504.0,222.0,505.0,214.0,507.0,206.0,508.0,198.0,510.0,190.0,510.0,184.0" stroke="black" stroke-width="1" fill="none" />
<polyline points="510.0,133.0,510.0,138.0,509.0,146.0,507.0,154.0,506.0,162.0,507.0,170.0,503.0,178.0,502.0,186.0,500.0,194.0,499.0,202.0,498.0,210.0,496.0,218.0,495.0,226.0,493.0,234.0,492.0,242.0,491.0,250.0,489.0,258.0,488.0,266.0,487.0,274.0,485.0,282.0,484.0,290.0,481.0,298.0,487.0,311.0,490.0,309.0" stroke="black" stroke-width="1" fill="none" />
<polyline points="470.0,257.0,470.0,250.0,462.0,251.0" stroke="black" stroke-width="1" fill="none" />
<polyline points="457.0,231.0,449.0,225.0" stroke="black" stroke-width="1" fill="none" />
<polyline points="449.0,225.0,455.0,233.0,463.0,238.0,468.0,246.0,462.0,252.0,473.0,260.0,476.0,268.0,478.0,276.0,477.0,284.0,477.0,292.0,477.0,300.0,481.0,308.0,477.0,317.0,480.0,325.0,483.0,333.0,483.0,341.0,484.0,349.0,484.0,357.0,486.0,365.0,481.0,373.0,481.0,381.0,480.0,389.0" stroke="black" stroke-width="1" fill="none" />
<polyline points="415.0,455.0,407.0,473.0" stroke="black" stroke-width="1" fill="none" />
<polyline points="403.0,486.0,395.0,500.0,387.0,515.0" stroke="black" stroke-width="1" fill="none" />
<polyline points="362.0,535.0,362.0,543.0,361.0,551.0,360.0,559.0,360.0,567.0,359.0,575.0,359.0,583.0,358.0,591.0,358.0,599.0,356.0,607.0,354.0,615.0,353.0,623.0,354.0,631.0,356.0,639.0,357.0,647.0,356.0,655.0,362.0,667.0" stroke="black" stroke-width="1" fill="none" />
<polyline points="371.0,667.0,371.0,659.0,370.0,651.0,367.0,643.0,366.0,635.0,365.0,627.0,366.0,619.0,365.0,611.0,365.0,603.0,369.0,595.0,374.0,587.0,377.0,579.0,373.0,588.0,365.0,600.0" stroke="black" stroke-width="1" fill="none" />
<polyline points="384.0,595.0,382.0,593.0,381.0,586.0,380.0,578.0,377.0,577.0" stroke="black" stroke-width="1" fill="none" />
<polyline points="393.0,584.0,401.0,588.0,400.0,596.0,407.0,604.0" stroke="black" stroke-width="1" fill="none" />
<polyline points="400.0,596.0,411.0,599.0,411.0,607.0,416.0,597.0" stroke="black" stroke-width="1" fill="none" />
<polyline points="412.0,584.0,404.0,576.0,396.0,568.0,388.0,562.0,380.0,552.0" stroke="black" stroke-width="1" fill="none" />
<polyline points="359.0,534.0,359.0,538.0,358.0,546.0,357.0,554.0,356.0,562.0,356.0,570.0,355.0,578.0,355.0,586.0,355.0,594.0,354.0,602.0,352.0,610.0,351.0,618.0,351.0,626.0,351.0,634.0,353.0,642.0,354.0,650.0,350.0,659.0,355.0,667.0,364.0,675.0" stroke="black" stroke-width="1" fill="none" />
<polyline points="370.0,673.0,362.0,666.0,354.0,661.0,353.0,653.0" stroke="black" stroke-width="1" fill="none" />
<polyline points="351.0,663.0,359.0,670.0,367.0,677.0" stroke="black" stroke-width="1" fill="none" />
<polyline points="348.0,673.0,343.0,665.0,345.0,657.0,346.0,649.0,345.0,641.0,345.0,633.0,345.0,625.0,345.0,617.0,346.0,609.0,346.0,601.0,347.0,593.0,347.0,585.0,347.0,577.0,347.0,569.0,348.0,561.0,348.0,553.0,349.0,545.0,350.0,537.0,350.0,536.0" stroke="black" stroke-width="1" fill="none" />
<polyline points="354.0,535.0,354.0,543.0,353.0,551.0,352.0,559.0,352.0,567.0,351.0,575.0,351.0,583.0,351.0,591.0,350.0,599.0,349.0,607.0,348.0,615.0,348.0,623.0,348.0,631.0,349.0,639.0,350.0,647.0,349.0,655.0,346.0,663.0,352.0,671.0,362.0,679.0" stroke="black" stroke-width="1" fill="none" />
<polyline points="363.0,679.0,355.0,672.0,347.0,664.0" stroke="black" stroke-width="1" fill="none" />
<polyline points="344.0,666.0,352.0,676.0" stroke="black" stroke-width="1" fill="none" />
<polyline points="342.0,679.0,338.0,671.0,337.0,663.0,337.0,655.0,337.0,647.0,337.0,639.0,336.0,631.0,336.0,623.0,337.0,615.0,337.0,607.0,337.0,599.0,337.0,591.0,338.0,583.0,338.0,575.0,337.0,567.0,338.0,559.0,340.0,551.0,341.0,543.0,341.0,535.0,341.0,533.0" stroke="black" stroke-width="1" fill="none" />
<polyline points="344.0,533.0,345.0,541.0,344.0,549.0,343.0,557.0,342.0,565.0,342.0,573.0,342.0,581.0,342.0,589.0,342.0,597.0,341.0,605.0,341.0,613.0,341.0,621.0,340.0,629.0,340.0,637.0,341.0,645.0,340.0,653.0,340.0,661.0,340.0,669.0,346.0,677.0" stroke="black" stroke-width="1" fill="none" />
<polyline points="348.0,678.0,340.0,667.0" stroke="black" stroke-width="1" fill="none" />
<polyline points="319.0,577.0,311.0,574.0" stroke="black" stroke-width="1" fill="none" />
<polyline points="317.0,566.0,310.0,574.0,315.0,568.0,323.0,572.0" stroke="black" stroke-width="1" fill="none" />
<polyline points="325.0,576.0,319.0,568.0" stroke="black" stroke-width="1" fill="none" />
<polyline points="279.0,585.0,271.0,576.0,263.0,565.0,264.0,557.0,266.0,549.0,266.0,541.0,266.0,533.0,265.0,525.0,266.0,517.0,265.0,509.0,265.0,501.0,264.0,493.0,264.0,485.0,260.0,477.0,258.0,469.0,260.0,461.0,261.0,453.0,260.0,445.0,260.0,437.0,260.0,429.0,260.0,421.0,261.0,413.0,260.0,405.0,260.0,397.0,260.0,389.0,260.0,381.0,263.0,373.0,263.0,365.0,258.0,365.0,250.0,366.0,242.0,368.0,234.0,370.0" stroke="black" stroke-width="1" fill="none" />
<polyline points="233.0,368.0,235.0,360.0,236.0,351.0,237.0,343.0,232.0,335.0,231.0,336.0,223.0,338.0" stroke="black" stroke-width="1" fill="none" />
<polyline points="227.0,336.0,229.0,344.0,231.0,351.0,240.0,347.0,248.0,342.0,256.0,345.0,264.0,342.0" stroke="black" stroke-width="1" fill="none" />
<polyline points="297.0,335.0,290.0,343.0,287.0,351.0,289.0,359.0,294.0,367.0,290.0,375.0,293.0,384.0,297.0,384.0,305.0,384.0" stroke="black" stroke-width="1" fill="none" />
<polyline points="302.0,387.0,294.0,386.0" stroke="black" stroke-width="1" fill="none" />
<polyline points="299.0,372.0,307.0,372.0,315.0,372.0,323.0,372.0,331.0,373.0,339.0,379.0,347.0,381.0,355.0,383.0,363.0,386.0,371.0,389.0,379.0,392.0,387.0,395.0,395.0,398.0,403.0,401.0,411.0,403.0,419.0,405.0,427.0,405.0,431.0,408.0,428.0,416.0,425.0,424.0,423.0,432.0,420.0,440.0,418.0,448.0,415.0,456.0,412.0,464.0,408.0,472.0,405.0,480.0,403.0,488.0,399.0,496.0,392.0,504.0,388.0,512.0,386.0,520.0,384.0,528.0,382.0,536.0,379.0,544.0,380.0,552.0,385.0,560.0,394.0,568.0,403.0,576.0,411.0,584.0,417.0,592.0,422.0,600.0,415.0,607.0,415.0,607.0" stroke="black" stroke-width="1" fill="none" />
<polyline points="259.0,560.0,256.0,552.0,250.0,547.0,242.0,543.0,234.0,536.0,226.0,537.0,218.0,539.0,210.0,540.0,202.0,542.0,194.0,544.0,186.0,546.0,178.0,548.0,170.0,550.0,162.0,552.0,154.0,553.0,146.0,555.0,138.0,557.0,130.0,559.0,122.0,559.0" stroke="black" stroke-width="1" fill="none" />
<polyline points="121.0,556.0,129.0,554.0,137.0,552.0,145.0,550.0,153.0,548.0,161.0,546.0,169.0,544.0,177.0,542.0,185.0,540.0,193.0,538.0,201.0,536.0,209.0,533.0,217.0,531.0,225.0,529.0,233.0,527.0,241.0,524.0,249.0,521.0,252.0,527.0,253.0,535.0,251.0,543.0,255.0,551.0,260.0,559.0" stroke="black" stroke-width="1" fill="none" />
<polyline points="246.0,544.0,253.0,552.0,259.0,560.0,265.0,568.0,270.0,576.0,277.0,584.0,283.0,592.0,284.0,600.0,285.0,608.0,286.0,616.0,288.0,624.0,289.0,632.0,290.0,640.0,292.0,648.0,294.0,656.0,298.0,664.0,303.0,672.0,305.0,680.0" stroke="black" stroke-width="1" fill="none" />
<polyline points="247.0,679.0,239.0,680.0" stroke="black" stroke-width="1" fill="none" />
<polyline points="212.0,665.0,204.0,668.0,208.0,666.0,211.0,668.0,203.0,671.0" stroke="black" stroke-width="1" fill="none" />
<polyline points="107.0,531.0,107.0,523.0,103.0,521.0,101.0,518.0" stroke="black" stroke-width="1" fill="none" />
<polyline points="105.0,529.0,103.0,521.0,99.0,518.0,104.0,508.0,104.0,500.0,103.0,492.0,102.0,489.0" stroke="black" stroke-width="1" fill="none" />
<polyline points="105.0,490.0,106.0,498.0,107.0,506.0" stroke="black" stroke-width="1" fill="none" />
<polyline points="80.0,562.0,72.0,562.0" stroke="black" stroke-width="1" fill="none" />
<polyline points="71.0,560.0,79.0,560.0" stroke="black" stroke-width="1" fill="none" />
<polyline points="47.0,539.0,38.0,534.0,34.0,542.0,26.0,543.0" stroke="black" stroke-width="1" fill="none" />
<polyline points="5.0,545.0,13.0,543.0,19.0,545.0,27.0,541.0,35.0,539.0,36.0,530.0,44.0,529.0,47.0,531.0" stroke="black" stroke-width="1" fill="none" />
<polyline points="49.0,524.0,52.0,521.0,50.0,507.0,50.0,510.0,48.0,497.0,44.0,499.0,39.0,498.0,42.0,498.0,41.0,490.0,35.0,480.0,30.0,485.0,22.0,484.0,32.0,484.0,36.0,482.0,36.0,474.0,39.0,466.0,34.0,458.0,32.0,459.0,24.0,460.0,16.0,461.0,8.0,462.0,0.0,464.0" stroke="black" stroke-width="1" fill="none" />
<polyline points="0.0,471.0,8.0,468.0,16.0,467.0,11.0,469.0,11.0,477.0,5.0,480.0,2.0,477.0,9.0,474.0,14.0,474.0,20.0,470.0,17.0,470.0,16.0,478.0,17.0,480.0" stroke="black" stroke-width="1" fill="none" />
<polyline points="21.0,478.0,9.0,479.0" stroke="black" stroke-width="1" fill="none" />
<polyline points="38.0,487.0,35.0,495.0" stroke="black" stroke-width="1" fill="none" />
<polyline points="52.0,464.0,60.0,468.0,68.0,466.0,76.0,465.0,84.0,464.0,92.0,462.0,100.0,461.0,108.0,460.0,116.0,459.0,124.0,457.0,132.0,456.0,140.0,454.0,148.0,453.0,156.0,451.0,164.0,450.0,172.0,449.0,180.0,447.0,188.0,446.0,196.0,444.0" stroke="black" stroke-width="1" fill="none" />
<polyline points="226.0,330.0,224.0,327.0,220.0,327.0,221.0,319.0,220.0,311.0,219.0,303.0,217.0,295.0,215.0,287.0,213.0,279.0,211.0,271.0,210.0,263.0,208.0,255.0,206.0,247.0,210.0,240.0,210.0,232.0,216.0,224.0,224.0,216.0,218.0,223.0,210.0,228.0" stroke="black" stroke-width="1" fill="none" />
<polyline points="197.0,231.0,200.0,239.0,203.0,248.0,204.0,256.0,206.0,264.0" stroke="black" stroke-width="1" fill="none" />
<polyline points="216.0,262.0,218.0,270.0,219.0,278.0" stroke="black" stroke-width="1" fill="none" />
<polyline points="206.0,247.0,209.0,250.0,211.0,258.0,213.0,266.0,215.0,274.0,217.0,282.0,218.0,290.0,220.0,298.0,222.0,306.0,224.0,314.0,225.0,322.0" stroke="black" stroke-width="1" fill="none" />
<polyline points="284.0,307.0,285.0,299.0,288.0,291.0,291.0,283.0,294.0,275.0,297.0,267.0,295.0,279.0,287.0,300.0" stroke="black" stroke-width="1" fill="none" />
<polyline points="285.0,297.0,293.0,277.0,301.0,264.0,309.0,264.0,305.0,276.0,302.0,284.0" stroke="black" stroke-width="1" fill="none" />
<polyline points="299.0,269.0,296.0,277.0,293.0,285.0,290.0,293.0,287.0,301.0,286.0,309.0" stroke="black" stroke-width="1" fill="none" />
<polyline points="280.0,274.0,278.0,266.0,278.0,258.0,278.0,249.0,277.0,240.0,277.0,232.0,277.0,224.0,276.0,216.0,276.0,208.0,276.0,200.0,276.0,192.0,275.0,184.0,275.0,176.0,274.0,168.0,274.0,160.0,275.0,152.0,275.0,144.0,275.0,136.0,275.0,128.0,275.0,120.0,275.0,112.0,275.0,104.0,275.0,96.0,274.0,88.0,277.0,80.0,277.0,72.0,276.0,64.0,277.0,56.0,267.0,57.0" stroke="black" stroke-width="1" fill="none" />
<polyline points="287.0,59.0,295.0,58.0,287.0,63.0,287.0,71.0,288.0,79.0,289.0,87.0,295.0,84.0,303.0,79.0,311.0,77.0,319.0,77.0,327.0,73.0,333.0,65.0,341.0,65.0,349.0,70.0,357.0,69.0,360.0,74.0,360.0,74.0,361.0,82.0,379.0,90.0" stroke="black" stroke-width="1" fill="none" />
<polyline points="361.0,81.0,369.0,84.0,377.0,88.0,385.0,94.0,393.0,92.0,397.0,99.0,400.0,107.0,407.0,115.0,412.0,123.0,412.0,131.0,414.0,139.0,413.0,147.0,409.0,148.0,404.0,154.0,405.0,156.0" stroke="black" stroke-width="1" fill="none" />
<polyline points="396.0,157.0,392.0,165.0" stroke="black" stroke-width="1" fill="none" />
<polyline points="383.0,150.0,375.0,155.0" stroke="black" stroke-width="1" fill="none" />
<polyline points="376.0,153.0,377.0,161.0,383.0,167.0,387.0,168.0,384.0,170.0,392.0,164.0,400.0,157.0" stroke="black" stroke-width="1" fill="none" />
<polyline points="376.0,159.0,369.0,164.0,361.0,165.0" stroke="black" stroke-width="1" fill="none" />
<polyline points="363.0,164.0,361.0,172.0" stroke="black" stroke-width="1" fill="none" />
<polyline points="347.0,200.0,355.0,196.0,363.0,187.0,371.0,176.0,376.0,168.0,371.0,176.0,365.0,184.0,359.0,192.0,349.0,199.0,344.0,207.0,350.0,207.0,349.0,208.0,357.0,211.0,365.0,211.0,373.0,209.0,381.0,206.0,389.0,202.0,397.0,197.0,405.0,198.0,413.0,201.0,416.0,207.0,413.0,215.0,421.0,215.0,429.0,215.0,437.0,217.0" stroke="black" stroke-width="1" fill="none" />
<polyline points="435.0,219.0,427.0,218.0,419.0,219.0,411.0,221.0" stroke="black" stroke-width="1" fill="none" />
<polyline points="411.0,223.0,419.0,222.0,420.0,226.0,428.0,227.0,436.0,230.0,444.0,235.0,452.0,234.0,460.0,236.0,468.0,245.0" stroke="black" stroke-width="1" fill="none" />
<polyline points="418.0,209.0,413.0,201.0" stroke="black" stroke-width="1" fill="none" />
<polyline points="396.0,197.0,382.0,205.0" stroke="black" stroke-width="1" fill="none" />
<polyline points="339.0,207.0,338.0,199.0,330.0,190.0,322.0,187.0" stroke="black" stroke-width="1" fill="none" />
<polyline points="322.0,187.0,323.0,195.0,318.0,203.0,321.0,201.0,325.0,200.0,333.0,197.0" stroke="black" stroke-width="1" fill="none" />
<polyline points="329.0,195.0,323.0,203.0" stroke="black" stroke-width="1" fill="none" />
<polyline points="334.0,208.0,333.0,200.0,337.0,198.0,329.0,190.0" stroke="black" stroke-width="1" fill="none" />
<polyline points="318.0,171.0,326.0,178.0,334.0,177.0,342.0,179.0,350.0,179.0,358.0,176.0" stroke="black" stroke-width="1" fill="none" />
<polyline points="339.0,160.0,331.0,160.0,323.0,161.0" stroke="black" stroke-width="1" fill="none" />
<polyline points="321.0,159.0,329.0,156.0,337.0,157.0" stroke="black" stroke-width="1" fill="none" />
<polyline points="333.0,163.0,325.0,163.0,317.0,168.0,311.0,155.0" stroke="black" stroke-width="1" fill="none" />
<polyline points="303.0,167.0,295.0,168.0" stroke="black" stroke-width="1" fill="none" />
<polyline points="292.0,148.0,300.0,151.0,300.0,155.0,308.0,162.0,308.0,170.0,308.0,178.0,310.0,186.0,310.0,194.0,312.0,202.0,313.0,210.0,307.0,218.0,304.0,227.0,308.0,230.0" stroke="black" stroke-width="1" fill="none" />
<polyline points="306.0,219.0,298.0,226.0,298.0,217.0,294.0,210.0" stroke="black" stroke-width="1" fill="none" />
<polyline points="286.0,237.0,284.0,240.0,283.0,248.0,284.0,256.0,286.0,245.0,286.0,253.0" stroke="black" stroke-width="1" fill="none" />
<polyline points="301.0,267.0,301.0,275.0,298.0,283.0,296.0,295.0,298.0,296.0,300.0,286.0,308.0,269.0" stroke="black" stroke-width="1" fill="none" />
<polyline points="342.0,331.0,348.0,339.0,353.0,347.0,363.0,355.0" stroke="black" stroke-width="1" fill="none" />
<polyline points="353.0,383.0,373.0,391.0" stroke="black" stroke-width="1" fill="none" />
<polyline points="220.0,213.0,212.0,212.0,207.0,205.0,199.0,207.0,191.0,208.0" stroke="black" stroke-width="1" fill="none" />
<polyline points="178.0,209.0,175.0,217.0,180.0,225.0" stroke="black" stroke-width="1" fill="none" />
<polyline points="175.0,217.0,183.0,227.0,191.0,230.0,199.0,235.0,207.0,244.0" stroke="black" stroke-width="1" fill="none" />
<polyline points="177.0,215.0,185.0,214.0,193.0,212.0,195.0,205.0,205.0,203.0,215.0,202.0,223.0,200.0" stroke="black" stroke-width="1" fill="none" />
<polyline points="218.0,206.0,210.0,210.0,204.0,213.0,211.0,211.0,222.0,203.0,214.0,199.0,206.0,200.0,198.0,202.0,190.0,206.0,182.0,209.0,174.0,211.0" stroke="black" stroke-width="1" fill="none" />
<polyline points="286.0,168.0,286.0,160.0,286.0,152.0,286.0,144.0,286.0,136.0" stroke="black" stroke-width="1" fill="none" />
<polyline points="284.0,134.0,284.0,142.0,284.0,150.0,283.0,158.0,283.0,166.0,283.0,174.0,285.0,177.0" stroke="black" stroke-width="1" fill="none" />
<polyline points="293.0,147.0,291.0,155.0,291.0,163.0,290.0,171.0,291.0,179.0,292.0,187.0,292.0,195.0,292.0,203.0,291.0,211.0,295.0,211.0,292.0,219.0,295.0,223.0,293.0,231.0,295.0,231.0,304.0,227.0,311.0,227.0,313.0,229.0" stroke="black" stroke-width="1" fill="none" />
<polyline points="328.0,156.0,320.0,156.0,316.0,164.0,323.0,154.0,331.0,153.0,339.0,155.0,346.0,157.0,346.0,162.0,346.0,159.0,346.0,159.0" stroke="black" stroke-width="1" fill="none" />
<polyline points="318.0,137.0,310.0,137.0" stroke="black" stroke-width="1" fill="none" />
<polyline points="311.0,136.0,309.0,144.0,310.0,152.0,312.0,160.0,320.0,164.0,318.0,172.0" stroke="black" stroke-width="1" fill="none" />
<polyline points="324.0,123.0,316.0,120.0" stroke="black" stroke-width="1" fill="none" />
<polyline points="316.0,118.0,324.0,113.0,332.0,110.0,340.0,110.0,348.0,113.0,353.0,123.0" stroke="black" stroke-width="1" fill="none" />
<polyline points="358.0,125.0,349.0,133.0" stroke="black" stroke-width="1" fill="none" />
<polyline points="337.0,122.0,345.0,120.0,353.0,121.0,361.0,119.0,369.0,121.0,377.0,131.0" stroke="black" stroke-width="1" fill="none" />
<polyline points="385.0,142.0,377.0,145.0,377.0,136.0,374.0,128.0,365.0,120.0" stroke="black" stroke-width="1" fill="none" />
<polyline points="355.0,130.0,347.0,134.0,339.0,128.0,337.0,127.0,348.0,119.0,343.0,111.0" stroke="black" stroke-width="1" fill="none" />
<polyline points="328.0,110.0,316.0,118.0,326.0,126.0,324.0,134.0" stroke="black" stroke-width="1" fill="none" />
<polyline points="284.0,103.0,276.0,101.0" stroke="black" stroke-width="1" fill="none" />
<polyline points="277.0,96.0,285.0,89.0" stroke="black" stroke-width="1" fill="none" />
<polyline points="299.0,78.0,294.0,86.0,291.0,94.0,287.0,102.0,284.0,110.0,278.0,118.0,278.0,127.0,278.0,135.0,278.0,143.0,278.0,151.0,277.0,159.0,277.0,167.0,278.0,175.0,278.0,183.0,278.0,191.0,278.0,200.0,278.0,208.0,279.0,216.0,279.0,228.0,284.0,231.0,280.0,233.0,280.0,241.0,280.0,249.0,281.0,258.0,281.0,266.0" stroke="black" stroke-width="1" fill="none" />
<polyline points="189.0,450.0,181.0,451.0,173.0,453.0,165.0,454.0,157.0,456.0,149.0,457.0,141.0,459.0,133.0,460.0,125.0,461.0,117.0,463.0,109.0,464.0,101.0,466.0,93.0,467.0,85.0,469.0,77.0,470.0,69.0,471.0,61.0,473.0,53.0,476.0,50.0,484.0,53.0,476.0,52.0,465.0,51.0,457.0,50.0,449.0,46.0,446.0" stroke="black" stroke-width="1" fill="none" />
<polyline points="35.0,442.0,27.0,441.0" stroke="black" stroke-width="1" fill="none" />
<polyline points="25.0,442.0,33.0,438.0,34.0,442.0,35.0,450.0" stroke="black" stroke-width="1" fill="none" />
<polyline points="11.0,438.0,3.0,439.0" stroke="black" stroke-width="1" fill="none" />
<polyline points="2.0,436.0,10.0,435.0" stroke="black" stroke-width="1" fill="none" />
<polyline points="13.0,424.0,24.0,422.0,25.0,414.0,25.0,406.0,21.0,402.0,13.0,403.0" stroke="black" stroke-width="1" fill="none" />
<polyline points="15.0,405.0,15.0,409.0,11.0,417.0,11.0,409.0" stroke="black" stroke-width="1" fill="none" />
<polyline points="10.0,413.0,18.0,417.0" stroke="black" stroke-width="1" fill="none" />
<polyline points="29.0,420.0,16.0,423.0,8.0,425.0,0.0,424.0" stroke="black" stroke-width="1" fill="none" />
<polyline points="34.0,423.0,33.0,418.0,35.0,410.0,35.0,402.0,34.0,394.0,34.0,386.0,32.0,379.0,24.0,380.0,16.0,380.0,8.0,381.0,0.0,381.0" stroke="black" stroke-width="1" fill="none" />
<polyline points="24.0,327.0,16.0,324.0" stroke="black" stroke-width="1" fill="none" />
<polyline points="22.0,318.0,14.0,323.0,18.0,320.0,23.0,312.0,23.0,304.0,22.0,296.0,16.0,294.0,8.0,295.0,0.0,295.0" stroke="black" stroke-width="1" fill="none" />
<polyline points="0.0,291.0,8.0,291.0,16.0,291.0,24.0,291.0,28.0,295.0,28.0,303.0,29.0,311.0,29.0,319.0" stroke="black" stroke-width="1" fill="none" />
<polyline points="20.0,274.0,12.0,272.0" stroke="black" stroke-width="1" fill="none" />
<polyline points="25.0,269.0,25.0,261.0,26.0,253.0,18.0,245.0,13.0,237.0,9.0,230.0,8.0,224.0" stroke="black" stroke-width="1" fill="none" />
<polyline points="2.0,220.0,10.0,219.0,10.0,219.0,4.0,225.0,2.0,230.0,6.0,233.0,14.0,237.0,22.0,246.0" stroke="black" stroke-width="1" fill="none" />
<polyline points="18.0,215.0,10.0,214.0" stroke="black" stroke-width="1" fill="none" />
<polyline points="22.0,213.0,23.0,205.0,19.0,203.0,22.0,195.0,16.0,193.0,8.0,193.0,0.0,192.0" stroke="black" stroke-width="1" fill="none" />
<polyline points="34.0,173.0,34.0,181.0,35.0,189.0,35.0,197.0,35.0,205.0,36.0,213.0,36.0,221.0,36.0,229.0,37.0,237.0,37.0,245.0,38.0,253.0,38.0,261.0,38.0,269.0,39.0,277.0,39.0,285.0,39.0,293.0,39.0,301.0,40.0,309.0,40.0,317.0,40.0,325.0,41.0,333.0,41.0,341.0,42.0,349.0,42.0,357.0,43.0,365.0,43.0,373.0,43.0,381.0,44.0,389.0,44.0,397.0,44.0,405.0,44.0,413.0,44.0,421.0,45.0,429.0,45.0,437.0,46.0,450.0,47.0,458.0,47.0,466.0,47.0,474.0,48.0,482.0,52.0,490.0,48.0,499.0,47.0,507.0,49.0,515.0,47.0,526.0,49.0,532.0" stroke="black" stroke-width="1" fill="none" />
<polyline points="0.0,666.0,8.0,663.0,16.0,663.0,20.0,666.0,20.0,674.0" stroke="black" stroke-width="1" fill="none" />
<polyline points="0.0,281.0,8.0,280.0,12.0,275.0" stroke="black" stroke-width="1" fill="none" />
<polyline points="36.0,173.0,37.0,181.0,37.0,190.0,38.0,198.0,38.0,206.0,39.0,214.0,39.0,222.0,39.0,230.0,40.0,238.0,40.0,246.0,41.0,254.0,41.0,262.0,41.0,270.0,41.0,278.0,42.0,286.0,42.0,294.0,42.0,302.0,42.0,310.0,42.0,318.0,43.0,326.0,43.0,334.0,44.0,342.0,44.0,350.0,45.0,358.0,45.0,366.0,46.0,374.0,47.0,382.0,46.0,390.0,47.0,398.0,47.0,406.0,47.0,414.0,48.0,422.0,48.0,430.0,49.0,438.0" stroke="black" stroke-width="1" fill="none" />
<polyline points="9.0,149.0,15.0,145.0,14.0,137.0,14.0,129.0,13.0,121.0,13.0,113.0,10.0,105.0,8.0,102.0" stroke="black" stroke-width="1" fill="none" />
<polyline points="0.0,84.0,8.0,84.0,16.0,86.0,17.0,92.0,13.0,100.0,3.0,102.0,3.0,109.0,3.0,117.0,4.0,124.0,5.0,132.0,7.0,140.0,8.0,148.0" stroke="black" stroke-width="1" fill="none" />
<polyline points="293.0,81.0,295.0,73.0,295.0,65.0,292.0,57.0" stroke="black" stroke-width="1" fill="none" />
<polyline points="327.0,73.0,333.0,65.0" stroke="black" stroke-width="1" fill="none" />
<polyline points="0.0,200.0,32.0,200.0" stroke="black" stroke-width="1" fill="none" />
<polyline points="32.0,232.0,0.0,232.0" stroke="black" stroke-width="1" fill="none" />
<polyline points="0.0,264.0,32.0,264.0" stroke="black" stroke-width="1" fill="none" />
<polyline points="32.0,384.0,0.0,416.0" stroke="black" stroke-width="1" fill="none" />
<polyline points="0.0,392.0,32.0,392.0" stroke="black" stroke-width="1" fill="none" />
<polyline points="256.0,392.0,416.0,392.0" stroke="black" stroke-width="1" fill="none" />
<polyline points="416.0,416.0,288.0,544.0" stroke="black" stroke-width="1" fill="none" />
<polyline points="288.0,536.0,320.0,536.0" stroke="black" stroke-width="1" fill="none" />
<polyline points="352.0,544.0,384.0,512.0" stroke="black" stroke-width="1" fill="none" />
<polyline points="384.0,544.0,288.0,640.0" stroke="black" stroke-width="1" fill="none" />
<polyline points="288.0,648.0,352.0,648.0" stroke="black" stroke-width="1" fill="none" />
<polyline points="352.0,640.0,320.0,672.0" stroke="black" stroke-width="1" fill="none" />
<polyline points="320.0,640.0,352.0,608.0" stroke="black" stroke-width="1" fill="none" />
<polyline points="320.0,576.0,288.0,608.0" stroke="black" stroke-width="1" fill="none" />
<polyline points="288.0,600.0,320.0,600.0" stroke="black" stroke-width="1" fill="none" />
<polyline points="288.0,584.0,352.0,584.0" stroke="black" stroke-width="1" fill="none" />
<polyline points="288.0,576.0,416.0,448.0" stroke="black" stroke-width="1" fill="none" />
<polyline points="384.0,416.0,288.0,512.0" stroke="black" stroke-width="1" fill="none" />
<polyline points="288.0,504.0,384.0,504.0" stroke="black" stroke-width="1" fill="none" />
<polyline points="288.0,480.0,384.0,384.0" stroke="black" stroke-width="1" fill="none" />
<polyline points="352.0,384.0,256.0,480.0" stroke="black" stroke-width="1" fill="none" />
<polyline points="256.0,488.0,384.0,488.0" stroke="black" stroke-width="1" fill="none" />
<polyline points="384.0,472.0,288.0,472.0" stroke="black" stroke-width="1" fill="none" />
<polyline points="288.0,440.0,416.0,440.0" stroke="black" stroke-width="1" fill="none" />
<polyline points="448.0,360.0,480.0,360.0" stroke="black" stroke-width="1" fill="none" />
<polyline points="448.0,352.0,480.0,320.0" stroke="black" stroke-width="1" fill="none" />
<polyline points="480.0,288.0,416.0,352.0" stroke="black" stroke-width="1" fill="none" />
<polyline points="384.0,352.0,480.0,256.0" stroke="black" stroke-width="1" fill="none" />
<polyline points="448.0,256.0,352.0,352.0" stroke="black" stroke-width="1" fill="none" />
<polyline points="352.0,328.0,480.0,328.0" stroke="black" stroke-width="1" fill="none" />
<polyline points="480.0,344.0,384.0,344.0" stroke="black" stroke-width="1" fill="none" />
<polyline points="352.0,320.0,448.0,224.0" stroke="black" stroke-width="1" fill="none" />
<polyline points="416.0,224.0,320.0,320.0" stroke="black" stroke-width="1" fill="none" />
<polyline points="288.0,320.0,384.0,224.0" stroke="black" stroke-width="1" fill="none" />
<polyline points="352.0,224.0,288.0,288.0" stroke="black" stroke-width="1" fill="none" />
<polyline points="288.0,296.0,480.0,296.0" stroke="black" stroke-width="1" fill="none" />
<polyline points="448.0,280.0,320.0,280.0" stroke="black" stroke-width="1" fill="none" />
<polyline points="288.0,264.0,480.0,264.0" stroke="black" stroke-width="1" fill="none" />
<polyline points="352.0,192.0,288.0,256.0" stroke="black" stroke-width="1" fill="none" />
<polyline points="288.0,248.0,416.0,248.0" stroke="black" stroke-width="1" fill="none" />
<polyline points="416.0,136.0,384.0,136.0" stroke="black" stroke-width="1" fill="none" />
<polyline points="352.0,128.0,384.0,96.0" stroke="black" stroke-width="1" fill="none" />
<polyline points="352.0,64.0,288.0,128.0" stroke="black" stroke-width="1" fill="none" />
<polyline points="288.0,120.0,320.0,120.0" stroke="black" stroke-width="1" fill="none" />
<polyline points="288.0,168.0,352.0,168.0" stroke="black" stroke-width="1" fill="none" />
<polyline points="288.0,200.0,416.0,200.0" stroke="black" stroke-width="1" fill="none" />
<polyline points="448.0,312.0,288.0,312.0" stroke="black" stroke-width="1" fill="none" />
<polyline points="288.0,328.0,256.0,328.0" stroke="black" stroke-width="1" fill="none" />
<polyline points="256.0,360.0,320.0,360.0" stroke="black" stroke-width="1" fill="none" />
<polyline points="320.0,384.0,256.0,448.0" stroke="black" stroke-width="1" fill="none" />
<polyline points="256.0,456.0,416.0,456.0" stroke="black" stroke-width="1" fill="none" />
<polyline points="352.0,408.0,288.0,408.0" stroke="black" stroke-width="1" fill="none" />
<polyline points="288.0,384.0,256.0,416.0" stroke="black" stroke-width="1" fill="none" />
<polyline points="256.0,424.0,416.0,424.0" stroke="black" stroke-width="1" fill="none" />
<polyline points="288.0,352.0,256.0,384.0" stroke="black" stroke-width="1" fill="none" />
<polyline points="256.0,520.0,384.0,520.0" stroke="black" stroke-width="1" fill="none" />
<polyline points="352.0,616.0,288.0,616.0" stroke="black" stroke-width="1" fill="none" />
<polyline points="288.0,568.0,320.0,568.0" stroke="black" stroke-width="1" fill="none" />
<polyline points="256.0,552.0,384.0,552.0" stroke="black" stroke-width="1" fill="none" />
<polyline points="288.0,232.0,480.0,232.0" stroke="black" stroke-width="1" fill="none" />
<polyline points="320.0,136.0,256.0,136.0" stroke="black" stroke-width="1" fill="none" />
<polyline points="256.0,104.0,416.0,104.0" stroke="black" stroke-width="1" fill="none" />
<polyline points="384.0,72.0,256.0,72.0" stroke="black" stroke-width="1" fill="none" />
<polyline points="224.0,200.0,192.0,200.0" stroke="black" stroke-width="1" fill="none" />
</svg>