<svg xmlns="http://www.w3.org/2000/svg" height="339px" width="512px" version="1.1"><polyline points="271.0,75.0,288.0,83.0,303.0,91.0,303.0,99.0,308.0,107.0,324.0,108.0,322.0,107.0,329.0,116.0,337.0,116.0,345.0,117.0,353.0,118.0,361.0,114.0,369.0,119.0,377.0,120.0,385.0,117.0,393.0,118.0,401.0,112.0,409.0,112.0,417.0,118.0,423.0,123.0,431.0,132.0" stroke="black" stroke-width="1" fill="none" />
<polyline points="421.0,126.0,419.0,129.0,411.0,130.0,404.0,121.0,401.0,127.0,393.0,127.0,385.0,128.0,377.0,127.0,369.0,126.0,361.0,126.0,353.0,125.0,345.0,124.0,337.0,123.0,329.0,122.0,321.0,121.0,313.0,121.0,305.0,119.0,297.0,118.0,289.0,119.0,281.0,117.0" stroke="black" stroke-width="1" fill="none" />
<polyline points="270.0,120.0,273.0,124.0,270.0,133.0,273.0,140.0,267.0,148.0,271.0,156.0,271.0,164.0,271.0,172.0,271.0,180.0,268.0,188.0,271.0,189.0,275.0,198.0,272.0,208.0,272.0,216.0,272.0,224.0" stroke="black" stroke-width="1" fill="none" />
<polyline points="278.0,216.0,288.0,217.0" stroke="black" stroke-width="1" fill="none" />
<polyline points="290.0,215.0,291.0,212.0,293.0,221.0" stroke="black" stroke-width="1" fill="none" />
<polyline points="296.0,221.0,296.0,213.0,289.0,205.0,288.0,207.0" stroke="black" stroke-width="1" fill="none" />
<polyline points="284.0,204.0,292.0,202.0,306.0,206.0,302.0,207.0,303.0,215.0,304.0,223.0,304.0,231.0,314.0,241.0,315.0,249.0,321.0,243.0,320.0,242.0,326.0,243.0" stroke="black" stroke-width="1" fill="none" />
<polyline points="328.0,239.0,320.0,241.0" stroke="black" stroke-width="1" fill="none" />
<polyline points="339.0,250.0,347.0,250.0,355.0,250.0" stroke="black" stroke-width="1" fill="none" />
<polyline points="357.0,246.0,349.0,243.0" stroke="black" stroke-width="1" fill="none" />
<polyline points="353.0,239.0,347.0,235.0,342.0,243.0,339.0,244.0,349.0,236.0" stroke="black" stroke-width="1" fill="none" />
<polyline points="352.0,218.0,352.0,210.0,341.0,207.0,341.0,209.0" stroke="black" stroke-width="1" fill="none" />
<polyline points="340.0,213.0,346.0,220.0" stroke="black" stroke-width="1" fill="none" />
<polyline points="350.0,226.0,349.0,218.0,348.0,210.0,345.0,204.0,337.0,206.0" stroke="black" stroke-width="1" fill="none" />
<polyline points="338.0,204.0,338.0,212.0,339.0,220.0,341.0,226.0,344.0,215.0" stroke="black" stroke-width="1" fill="none" />
<polyline points="360.0,219.0,363.0,227.0,369.0,241.0,372.0,242.0,377.0,248.0,387.0,250.0,395.0,250.0,403.0,246.0" stroke="black" stroke-width="1" fill="none" />
<polyline points="395.0,239.0,392.0,241.0" stroke="black" stroke-width="1" fill="none" />
<polyline points="385.0,243.0,387.0,235.0" stroke="black" stroke-width="1" fill="none" />
<polyline points="394.0,229.0,393.0,220.0,392.0,212.0,382.0,210.0" stroke="black" stroke-width="1" fill="none" />
<polyline points="381.0,209.0,389.0,208.0,389.0,210.0,387.0,218.0,380.0,225.0,394.0,224.0" stroke="black" stroke-width="1" fill="none" />
<polyline points="405.0,215.0,415.0,218.0" stroke="black" stroke-width="1" fill="none" />
<polyline points="417.0,216.0,418.0,213.0,420.0,208.0,423.0,220.0,425.0,228.0" stroke="black" stroke-width="1" fill="none" />
<polyline points="432.0,217.0,436.0,217.0,434.0,209.0,431.0,204.0,429.0,208.0" stroke="black" stroke-width="1" fill="none" />
<polyline points="442.0,201.0,450.0,197.0,458.0,197.0,466.0,197.0,467.0,204.0" stroke="black" stroke-width="1" fill="none" />
<polyline points="481.0,200.0,489.0,211.0,498.0,213.0" stroke="black" stroke-width="1" fill="none" />
<polyline points="492.0,215.0,502.0,219.0,504.0,227.0,507.0,230.0" stroke="black" stroke-width="1" fill="none" />
<polyline points="510.0,242.0,503.0,243.0,495.0,251.0,494.0,244.0,486.0,240.0,494.0,229.0,493.0,221.0,491.0,213.0,489.0,205.0,488.0,197.0,486.0,189.0,486.0,185.0" stroke="black" stroke-width="1" fill="none" />
<polyline points="485.0,184.0,493.0,182.0,496.0,181.0,493.0,189.0,495.0,197.0,499.0,204.0,499.0,212.0,500.0,220.0,498.0,228.0,505.0,232.0,507.0,240.0,504.0,248.0,506.0,248.0" stroke="black" stroke-width="1" fill="none" />
<polyline points="499.0,249.0,496.0,241.0" stroke="black" stroke-width="1" fill="none" />
<polyline points="500.0,233.0,488.0,233.0,489.0,226.0,488.0,218.0,481.0,216.0,481.0,212.0,477.0,204.0,484.0,199.0,482.0,191.0,485.0,185.0,487.0,177.0,476.0,177.0" stroke="black" stroke-width="1" fill="none" />
<polyline points="473.0,178.0,473.0,186.0,474.0,194.0,476.0,202.0,478.0,214.0" stroke="black" stroke-width="1" fill="none" />
<polyline points="485.0,220.0,486.0,228.0" stroke="black" stroke-width="1" fill="none" />
<polyline points="504.0,209.0,504.0,206.0,501.0,201.0,500.0,193.0,501.0,182.0,493.0,185.0" stroke="black" stroke-width="1" fill="none" />
<polyline points="509.0,187.0,506.0,183.0,507.0,194.0" stroke="black" stroke-width="1" fill="none" />
<polyline points="479.0,182.0,471.0,178.0" stroke="black" stroke-width="1" fill="none" />
<polyline points="472.0,169.0,469.0,172.0,477.0,178.0,478.0,186.0,479.0,193.0,481.0,201.0,485.0,209.0,485.0,217.0,479.0,220.0,481.0,228.0,472.0,234.0,477.0,236.0,474.0,241.0,474.0,249.0,479.0,245.0" stroke="black" stroke-width="1" fill="none" />
<polyline points="474.0,236.0,466.0,233.0,461.0,235.0,453.0,236.0" stroke="black" stroke-width="1" fill="none" />
<polyline points="445.0,229.0,442.0,237.0,455.0,232.0,463.0,227.0,467.0,230.0,475.0,230.0,483.0,233.0" stroke="black" stroke-width="1" fill="none" />
<polyline points="461.0,212.0,458.0,205.0,450.0,208.0" stroke="black" stroke-width="1" fill="none" />
<polyline points="452.0,210.0,451.0,218.0,452.0,226.0,449.0,234.0,447.0,240.0,447.0,244.0,444.0,250.0" stroke="black" stroke-width="1" fill="none" />
<polyline points="439.0,259.0,447.0,259.0,455.0,259.0" stroke="black" stroke-width="1" fill="none" />
<polyline points="460.0,249.0,457.0,247.0,456.0,239.0,457.0,235.0,460.0,223.0,458.0,215.0,451.0,205.0,443.0,203.0" stroke="black" stroke-width="1" fill="none" />
<polyline points="445.0,200.0,453.0,201.0,461.0,201.0" stroke="black" stroke-width="1" fill="none" />
<polyline points="448.0,165.0,456.0,164.0,465.0,167.0,473.0,168.0,481.0,166.0,489.0,168.0,497.0,169.0,505.0,169.0" stroke="black" stroke-width="1" fill="none" />
<polyline points="507.0,162.0,493.0,154.0" stroke="black" stroke-width="1" fill="none" />
<polyline points="489.0,153.0,471.0,161.0,456.0,164.0,458.0,175.0,460.0,166.0,468.0,163.0,476.0,159.0,484.0,155.0,492.0,153.0,500.0,157.0,508.0,162.0" stroke="black" stroke-width="1" fill="none" />
<polyline points="508.0,156.0,493.0,148.0" stroke="black" stroke-width="1" fill="none" />
<polyline points="489.0,147.0,469.0,155.0,454.0,161.0,448.0,156.0,456.0,159.0,464.0,157.0,472.0,154.0,480.0,151.0,488.0,148.0,496.0,149.0,504.0,153.0" stroke="black" stroke-width="1" fill="none" />
<polyline points="510.0,213.0,507.0,208.0,504.0,196.0,503.0,188.0,499.0,180.0,506.0,176.0,498.0,175.0,490.0,175.0,482.0,175.0,474.0,174.0,466.0,175.0,458.0,174.0,456.0,168.0,448.0,169.0,448.0,162.0,447.0,163.0,439.0,166.0,431.0,161.0" stroke="black" stroke-width="1" fill="none" />
<polyline points="414.0,162.0,406.0,162.0" stroke="black" stroke-width="1" fill="none" />
<polyline points="407.0,164.0,407.0,168.0,407.0,179.0" stroke="black" stroke-width="1" fill="none" />
<polyline points="406.0,170.0,414.0,169.0" stroke="black" stroke-width="1" fill="none" />
<polyline points="419.0,160.0,416.0,152.0" stroke="black" stroke-width="1" fill="none" />
<polyline points="421.0,140.0,413.0,140.0,405.0,140.0,397.0,138.0,388.0,138.0,380.0,138.0,372.0,137.0,364.0,137.0,356.0,136.0,348.0,136.0,340.0,135.0,332.0,134.0,328.0,134.0,320.0,133.0,312.0,133.0,304.0,131.0,294.0,134.0,286.0,133.0,276.0,135.0,266.0,131.0,258.0,131.0,248.0,128.0,244.0,130.0,236.0,126.0,228.0,126.0,220.0,124.0,208.0,127.0,200.0,126.0,192.0,125.0,184.0,124.0" stroke="black" stroke-width="1" fill="none" />
<polyline points="184.0,127.0,184.0,127.0,185.0,135.0,185.0,143.0,185.0,151.0,184.0,159.0,185.0,167.0,184.0,175.0,190.0,185.0" stroke="black" stroke-width="1" fill="none" />
<polyline points="194.0,179.0,195.0,171.0,196.0,163.0,196.0,154.0,196.0,146.0" stroke="black" stroke-width="1" fill="none" />
<polyline points="196.0,153.0,204.0,147.0,212.0,149.0,212.0,157.0,212.0,165.0,209.0,173.0,214.0,184.0" stroke="black" stroke-width="1" fill="none" />
<polyline points="208.0,195.0,216.0,193.0,221.0,198.0,229.0,201.0,237.0,201.0,247.0,204.0,256.0,198.0,264.0,199.0,272.0,199.0" stroke="black" stroke-width="1" fill="none" />
<polyline points="283.0,197.0,291.0,199.0,299.0,200.0,299.0,213.0,300.0,221.0" stroke="black" stroke-width="1" fill="none" />
<polyline points="305.0,212.0,307.0,216.0,313.0,216.0,309.0,224.0,310.0,232.0" stroke="black" stroke-width="1" fill="none" />
<polyline points="324.0,224.0,324.0,216.0,315.0,212.0" stroke="black" stroke-width="1" fill="none" />
<polyline points="315.0,216.0,316.0,224.0" stroke="black" stroke-width="1" fill="none" />
<polyline points="327.0,219.0,327.0,211.0,326.0,203.0,325.0,193.0,325.0,185.0,324.0,177.0,324.0,169.0,324.0,161.0,325.0,153.0,324.0,146.0,326.0,136.0,318.0,136.0" stroke="black" stroke-width="1" fill="none" />
<polyline points="328.0,142.0,329.0,150.0,330.0,158.0,330.0,166.0,331.0,174.0,332.0,182.0,334.0,191.0,333.0,188.0" stroke="black" stroke-width="1" fill="none" />
<polyline points="344.0,185.0,343.0,177.0,337.0,173.0" stroke="black" stroke-width="1" fill="none" />
<polyline points="336.0,171.0,346.0,176.0,347.0,184.0" stroke="black" stroke-width="1" fill="none" />
<polyline points="364.0,183.0,363.0,175.0,357.0,167.0" stroke="black" stroke-width="1" fill="none" />
<polyline points="356.0,165.0,364.0,166.0,365.0,168.0,366.0,176.0,367.0,184.0,364.0,186.0" stroke="black" stroke-width="1" fill="none" />
<polyline points="378.0,182.0,376.0,174.0,378.0,168.0" stroke="black" stroke-width="1" fill="none" />
<polyline points="376.0,166.0,384.0,167.0,385.0,174.0,383.0,182.0" stroke="black" stroke-width="1" fill="none" />
<polyline points="386.0,185.0,385.0,177.0,377.0,175.0" stroke="black" stroke-width="1" fill="none" />
<polyline points="376.0,171.0,381.0,170.0,372.0,167.0,374.0,175.0,375.0,183.0,368.0,189.0,380.0,189.0,390.0,187.0,403.0,186.0" stroke="black" stroke-width="1" fill="none" />
<polyline points="400.0,195.0,408.0,195.0,406.0,208.0,409.0,200.0,417.0,198.0,425.0,199.0,434.0,196.0,444.0,189.0,452.0,190.0,460.0,191.0" stroke="black" stroke-width="1" fill="none" />
<polyline points="411.0,200.0,419.0,203.0,429.0,209.0,431.0,217.0,436.0,229.0,437.0,237.0" stroke="black" stroke-width="1" fill="none" />
<polyline points="440.0,265.0,448.0,264.0" stroke="black" stroke-width="1" fill="none" />
<polyline points="455.0,300.0,463.0,302.0,475.0,296.0,483.0,296.0,487.0,298.0,495.0,297.0,501.0,295.0,509.0,295.0" stroke="black" stroke-width="1" fill="none" />
<polyline points="507.0,325.0,499.0,325.0" stroke="black" stroke-width="1" fill="none" />
<polyline points="497.0,336.0,489.0,335.0,481.0,334.0" stroke="black" stroke-width="1" fill="none" />
<polyline points="478.0,326.0,486.0,328.0,494.0,329.0,502.0,327.0,510.0,328.0" stroke="black" stroke-width="1" fill="none" />
<polyline points="504.0,308.0,496.0,308.0,490.0,306.0,482.0,307.0,480.0,305.0,472.0,305.0" stroke="black" stroke-width="1" fill="none" />
<polyline points="469.0,299.0,482.0,299.0,489.0,300.0,477.0,298.0,470.0,300.0,471.0,303.0,479.0,302.0,487.0,302.0,495.0,303.0,503.0,301.0,507.0,304.0" stroke="black" stroke-width="1" fill="none" />
<polyline points="462.0,313.0,462.0,311.0,454.0,308.0" stroke="black" stroke-width="1" fill="none" />
<polyline points="452.0,318.0,460.0,317.0,468.0,318.0,476.0,315.0,484.0,318.0,488.0,318.0,490.0,319.0,499.0,316.0,507.0,315.0" stroke="black" stroke-width="1" fill="none" />
<polyline points="510.0,322.0,502.0,322.0,501.0,320.0,493.0,321.0,485.0,321.0,477.0,321.0,469.0,323.0,461.0,324.0,453.0,320.0" stroke="black" stroke-width="1" fill="none" />
<polyline points="440.0,316.0,437.0,314.0,429.0,315.0,421.0,315.0" stroke="black" stroke-width="1" fill="none" />
<polyline points="423.0,319.0,431.0,317.0" stroke="black" stroke-width="1" fill="none" />
<polyline points="441.0,331.0,449.0,333.0,457.0,333.0,465.0,336.0,466.0,337.0" stroke="black" stroke-width="1" fill="none" />
<polyline points="460.0,334.0,469.0,333.0,477.0,330.0,479.0,333.0,487.0,333.0,495.0,333.0,503.0,334.0,508.0,334.0" stroke="black" stroke-width="1" fill="none" />
<polyline points="453.0,339.0,445.0,339.0" stroke="black" stroke-width="1" fill="none" />
<polyline points="453.0,334.0,445.0,336.0,440.0,337.0,427.0,339.0,419.0,339.0,418.0,335.0,410.0,334.0" stroke="black" stroke-width="1" fill="none" />
<polyline points="410.0,332.0,418.0,332.0,426.0,333.0,439.0,329.0,447.0,329.0,455.0,329.0" stroke="black" stroke-width="1" fill="none" />
<polyline points="482.0,248.0,478.0,244.0,470.0,250.0,462.0,250.0,459.0,253.0,451.0,253.0,440.0,248.0,432.0,250.0,424.0,251.0,418.0,245.0,413.0,248.0,415.0,240.0,407.0,229.0,406.0,221.0,404.0,213.0,399.0,211.0,397.0,203.0,402.0,198.0,393.0,194.0,390.0,187.0,389.0,179.0,388.0,171.0,389.0,163.0,388.0,155.0,387.0,147.0,384.0,143.0" stroke="black" stroke-width="1" fill="none" />
<polyline points="390.0,147.0,391.0,155.0,393.0,163.0,394.0,171.0,395.0,179.0,400.0,191.0,408.0,190.0" stroke="black" stroke-width="1" fill="none" />
<polyline points="407.0,207.0,411.0,215.0,410.0,223.0,412.0,231.0,415.0,238.0,420.0,241.0,428.0,241.0,434.0,251.0,437.0,253.0,445.0,252.0,453.0,251.0,459.0,244.0,463.0,240.0,471.0,238.0,478.0,236.0,487.0,236.0,495.0,239.0,503.0,236.0,508.0,233.0" stroke="black" stroke-width="1" fill="none" />
<polyline points="469.0,238.0,463.0,228.0,461.0,216.0,466.0,208.0,465.0,212.0,467.0,204.0,455.0,219.0,455.0,216.0,447.0,217.0,449.0,213.0,446.0,211.0,443.0,203.0,440.0,195.0,442.0,191.0,435.0,185.0,428.0,180.0,427.0,172.0,426.0,164.0,425.0,156.0,419.0,154.0,410.0,149.0,408.0,148.0,403.0,157.0,406.0,149.0,412.0,143.0,404.0,142.0,396.0,140.0" stroke="black" stroke-width="1" fill="none" />
<polyline points="399.0,145.0,400.0,153.0,402.0,161.0,411.0,164.0,416.0,164.0,414.0,172.0,418.0,178.0,419.0,186.0,414.0,188.0" stroke="black" stroke-width="1" fill="none" />
<polyline points="392.0,187.0,391.0,179.0,390.0,171.0" stroke="black" stroke-width="1" fill="none" />
<polyline points="356.0,169.0,357.0,171.0,358.0,179.0,359.0,187.0" stroke="black" stroke-width="1" fill="none" />
<polyline points="341.0,180.0,345.0,172.0,343.0,172.0,343.0,164.0,335.0,164.0" stroke="black" stroke-width="1" fill="none" />
<polyline points="336.0,166.0,336.0,171.0,338.0,179.0" stroke="black" stroke-width="1" fill="none" />
<polyline points="336.0,188.0,334.0,180.0,333.0,172.0,333.0,164.0,333.0,161.0" stroke="black" stroke-width="1" fill="none" />
<polyline points="318.0,149.0,326.0,157.0,326.0,165.0,327.0,173.0,327.0,181.0" stroke="black" stroke-width="1" fill="none" />
<polyline points="329.0,194.0,325.0,193.0,322.0,182.0,321.0,174.0,312.0,172.0" stroke="black" stroke-width="1" fill="none" />
<polyline points="319.0,183.0,319.0,175.0,321.0,168.0,320.0,163.0,318.0,158.0,310.0,159.0" stroke="black" stroke-width="1" fill="none" />
<polyline points="313.0,157.0,310.0,165.0,311.0,169.0,312.0,165.0" stroke="black" stroke-width="1" fill="none" />
<polyline points="307.0,153.0,307.0,161.0,308.0,169.0,309.0,177.0,301.0,186.0" stroke="black" stroke-width="1" fill="none" />
<polyline points="306.0,181.0,306.0,173.0,305.0,165.0,304.0,157.0,304.0,149.0,303.0,141.0,299.0,135.0" stroke="black" stroke-width="1" fill="none" />
<polyline points="299.0,132.0,296.0,140.0,299.0,141.0,299.0,147.0,300.0,155.0,300.0,163.0,301.0,171.0,301.0,179.0,302.0,185.0,304.0,185.0,304.0,192.0,309.0,189.0,316.0,186.0" stroke="black" stroke-width="1" fill="none" />
<polyline points="315.0,208.0,317.0,212.0,320.0,214.0,321.0,222.0" stroke="black" stroke-width="1" fill="none" />
<polyline points="320.0,206.0,310.0,201.0,302.0,202.0,302.0,206.0" stroke="black" stroke-width="1" fill="none" />
<polyline points="308.0,197.0,295.0,194.0,288.0,194.0,283.0,201.0,280.0,205.0,270.0,202.0,262.0,202.0,254.0,200.0,240.0,198.0,232.0,198.0,223.0,189.0,215.0,189.0,212.0,179.0,212.0,171.0,203.0,163.0,195.0,164.0" stroke="black" stroke-width="1" fill="none" />
<polyline points="198.0,166.0,200.0,174.0,199.0,182.0" stroke="black" stroke-width="1" fill="none" />
<polyline points="203.0,176.0,203.0,168.0,209.0,159.0,208.0,154.0,204.0,150.0" stroke="black" stroke-width="1" fill="none" />
<polyline points="205.0,158.0,197.0,158.0" stroke="black" stroke-width="1" fill="none" />
<polyline points="198.0,166.0,206.0,166.0" stroke="black" stroke-width="1" fill="none" />
<polyline points="227.0,169.0,234.0,170.0,234.0,178.0" stroke="black" stroke-width="1" fill="none" />
<polyline points="234.0,168.0,240.0,173.0,240.0,181.0,240.0,189.0" stroke="black" stroke-width="1" fill="none" />
<polyline points="250.0,183.0,249.0,190.0,242.0,188.0,245.0,187.0,243.0,180.0,243.0,172.0,243.0,164.0,243.0,156.0,242.0,148.0,243.0,144.0" stroke="black" stroke-width="1" fill="none" />
<polyline points="246.0,145.0,246.0,153.0,246.0,161.0,246.0,169.0,246.0,177.0,249.0,180.0" stroke="black" stroke-width="1" fill="none" />
<polyline points="257.0,169.0,265.0,170.0,268.0,176.0" stroke="black" stroke-width="1" fill="none" />
<polyline points="279.0,184.0,280.0,181.0,281.0,173.0,283.0,165.0,283.0,157.0,282.0,148.0,280.0,145.0,280.0,144.0" stroke="black" stroke-width="1" fill="none" />
<polyline points="284.0,146.0,292.0,146.0,296.0,149.0,297.0,157.0,297.0,165.0,298.0,173.0,298.0,181.0,298.0,189.0,302.0,196.0,296.0,203.0,296.0,211.0,291.0,219.0,285.0,222.0,289.0,227.0,294.0,227.0,305.0,230.0,314.0,225.0" stroke="black" stroke-width="1" fill="none" />
<polyline points="297.0,240.0,289.0,240.0" stroke="black" stroke-width="1" fill="none" />
<polyline points="291.0,246.0,282.0,244.0,274.0,245.0" stroke="black" stroke-width="1" fill="none" />
<polyline points="258.0,248.0,257.0,240.0,257.0,239.0" stroke="black" stroke-width="1" fill="none" />
<polyline points="267.0,220.0,263.0,214.0" stroke="black" stroke-width="1" fill="none" />
<polyline points="259.0,211.0,266.0,215.0,264.0,223.0" stroke="black" stroke-width="1" fill="none" />
<polyline points="268.0,227.0,260.0,225.0,250.0,233.0,253.0,227.0,253.0,219.0,254.0,214.0,256.0,206.0,260.0,204.0,259.0,207.0" stroke="black" stroke-width="1" fill="none" />
<polyline points="258.0,206.0,266.0,205.0,269.0,209.0,269.0,217.0,269.0,225.0" stroke="black" stroke-width="1" fill="none" />
<polyline points="256.0,220.0,261.0,218.0,250.0,211.0,249.0,216.0" stroke="black" stroke-width="1" fill="none" />
<polyline points="238.0,222.0,237.0,214.0,230.0,206.0" stroke="black" stroke-width="1" fill="none" />
<polyline points="228.0,206.0,236.0,204.0,243.0,205.0,243.0,213.0,243.0,221.0" stroke="black" stroke-width="1" fill="none" />
<polyline points="240.0,220.0,240.0,212.0,229.0,211.0" stroke="black" stroke-width="1" fill="none" />
<polyline points="227.0,201.0,226.0,209.0,223.0,217.0,222.0,225.0,217.0,233.0,215.0,241.0,223.0,246.0,230.0,247.0,238.0,247.0" stroke="black" stroke-width="1" fill="none" />
<polyline points="238.0,240.0,230.0,240.0" stroke="black" stroke-width="1" fill="none" />
<polyline points="254.0,247.0,246.0,247.0,243.0,242.0,247.0,230.0,247.0,222.0,246.0,214.0,246.0,206.0,254.0,194.0,260.0,180.0,260.0,172.0,256.0,164.0,256.0,156.0,255.0,147.0" stroke="black" stroke-width="1" fill="none" />
<polyline points="255.0,159.0,263.0,151.0,270.0,150.0,273.0,150.0,274.0,158.0,274.0,166.0,274.0,174.0,275.0,182.0,275.0,190.0" stroke="black" stroke-width="1" fill="none" />
<polyline points="289.0,182.0,289.0,174.0,289.0,170.0" stroke="black" stroke-width="1" fill="none" />
<polyline points="294.0,172.0,295.0,180.0,295.0,188.0" stroke="black" stroke-width="1" fill="none" />
<polyline points="287.0,186.0,287.0,178.0,283.0,170.0,284.0,167.0" stroke="black" stroke-width="1" fill="none" />
<polyline points="286.0,158.0,286.0,155.0,294.0,161.0" stroke="black" stroke-width="1" fill="none" />
<polyline points="283.0,152.0,290.0,156.0,294.0,164.0,292.0,172.0,292.0,180.0" stroke="black" stroke-width="1" fill="none" />
<polyline points="266.0,178.0,265.0,170.0,267.0,163.0,264.0,155.0,256.0,160.0" stroke="black" stroke-width="1" fill="none" />
<polyline points="258.0,163.0,258.0,166.0,261.0,169.0,262.0,177.0,263.0,185.0" stroke="black" stroke-width="1" fill="none" />
<polyline points="256.0,185.0,254.0,175.0,253.0,167.0,253.0,159.0,253.0,151.0,252.0,143.0,243.0,141.0,246.0,133.0,237.0,143.0,229.0,142.0" stroke="black" stroke-width="1" fill="none" />
<polyline points="228.0,140.0,236.0,140.0,230.0,143.0,224.0,145.0,224.0,153.0,224.0,161.0,224.0,169.0,225.0,177.0,228.0,185.0,226.0,193.0,234.0,193.0,240.0,193.0,247.0,195.0,251.0,199.0,259.0,193.0,267.0,193.0,276.0,196.0,280.0,191.0,281.0,185.0" stroke="black" stroke-width="1" fill="none" />
<polyline points="282.0,206.0,275.0,206.0,276.0,214.0,276.0,222.0,277.0,230.0,273.0,242.0,270.0,243.0,279.0,252.0,281.0,249.0,283.0,252.0,291.0,252.0" stroke="black" stroke-width="1" fill="none" />
<polyline points="298.0,243.0,293.0,234.0" stroke="black" stroke-width="1" fill="none" />
<polyline points="277.0,293.0,285.0,293.0,293.0,293.0,301.0,292.0,309.0,292.0,317.0,292.0,325.0,291.0" stroke="black" stroke-width="1" fill="none" />
<polyline points="327.0,327.0,335.0,325.0,338.0,330.0,346.0,328.0,354.0,326.0" stroke="black" stroke-width="1" fill="none" />
<polyline points="352.0,329.0,344.0,330.0" stroke="black" stroke-width="1" fill="none" />
<polyline points="384.0,245.0,376.0,250.0,374.0,247.0,374.0,239.0" stroke="black" stroke-width="1" fill="none" />
<polyline points="390.0,226.0,389.0,218.0,379.0,211.0" stroke="black" stroke-width="1" fill="none" />
<polyline points="370.0,224.0,370.0,210.0,362.0,215.0" stroke="black" stroke-width="1" fill="none" />
<polyline points="361.0,207.0,362.0,215.0,366.0,219.0,361.0,226.0,371.0,236.0,379.0,237.0" stroke="black" stroke-width="1" fill="none" />
<polyline points="369.0,207.0,361.0,207.0" stroke="black" stroke-width="1" fill="none" />
<polyline points="349.0,188.0,355.0,183.0,354.0,175.0,353.0,167.0,353.0,159.0" stroke="black" stroke-width="1" fill="none" />
<polyline points="340.0,137.0,332.0,137.0" stroke="black" stroke-width="1" fill="none" />
<polyline points="320.0,113.0,312.0,108.0,304.0,104.0" stroke="black" stroke-width="1" fill="none" />
<polyline points="267.0,145.0,277.0,142.0,277.0,150.0,278.0,158.0,278.0,166.0,279.0,174.0,283.0,183.0,283.0,193.0,286.0,200.0,285.0,203.0,284.0,211.0,285.0,219.0,282.0,227.0,280.0,233.0,292.0,237.0,300.0,236.0" stroke="black" stroke-width="1" fill="none" />
<polyline points="232.0,222.0,231.0,214.0,218.0,210.0,218.0,215.0" stroke="black" stroke-width="1" fill="none" />
<polyline points="202.0,221.0,205.0,213.0,197.0,213.0" stroke="black" stroke-width="1" fill="none" />
<polyline points="196.0,210.0,204.0,210.0,207.0,214.0,207.0,222.0" stroke="black" stroke-width="1" fill="none" />
<polyline points="199.0,234.0,189.0,244.0,197.0,245.0,199.0,240.0,200.0,242.0" stroke="black" stroke-width="1" fill="none" />
<polyline points="175.0,241.0,167.0,240.0" stroke="black" stroke-width="1" fill="none" />
<polyline points="164.0,240.0,172.0,237.0,182.0,246.0,190.0,247.0" stroke="black" stroke-width="1" fill="none" />
<polyline points="173.0,246.0,165.0,245.0" stroke="black" stroke-width="1" fill="none" />
<polyline points="153.0,245.0,161.0,245.0,169.0,243.0,176.0,239.0,181.0,243.0,189.0,242.0,197.0,238.0" stroke="black" stroke-width="1" fill="none" />
<polyline points="195.0,207.0,203.0,200.0,212.0,197.0,216.0,205.0,215.0,213.0,216.0,221.0,217.0,229.0,218.0,231.0,230.0,232.0,238.0,232.0,227.0,240.0,240.0,244.0" stroke="black" stroke-width="1" fill="none" />
<polyline points="238.0,222.0,227.0,227.0,227.0,222.0,227.0,214.0,223.0,205.0,224.0,196.0,224.0,185.0,214.0,175.0,215.0,167.0,215.0,159.0,215.0,150.0,208.0,147.0,212.0,139.0,217.0,131.0,221.0,123.0,217.0,115.0,209.0,116.0" stroke="black" stroke-width="1" fill="none" />
<polyline points="220.0,117.0,228.0,117.0" stroke="black" stroke-width="1" fill="none" />
<polyline points="228.0,108.0,228.0,104.0,237.0,106.0" stroke="black" stroke-width="1" fill="none" />
<polyline points="236.0,110.0,235.0,103.0,227.0,106.0" stroke="black" stroke-width="1" fill="none" />
<polyline points="222.0,93.0,230.0,94.0,241.0,95.0,249.0,92.0" stroke="black" stroke-width="1" fill="none" />
<polyline points="248.0,92.0,245.0,92.0,244.0,100.0,255.0,97.0,269.0,98.0,276.0,99.0,284.0,100.0,282.0,112.0,287.0,112.0,288.0,114.0" stroke="black" stroke-width="1" fill="none" />
<polyline points="286.0,93.0,278.0,91.0,270.0,90.0,262.0,90.0,254.0,89.0,246.0,87.0,238.0,88.0,230.0,87.0,222.0,85.0" stroke="black" stroke-width="1" fill="none" />
<polyline points="217.0,88.0,221.0,91.0" stroke="black" stroke-width="1" fill="none" />
<polyline points="215.0,84.0,223.0,81.0,213.0,83.0,210.0,92.0" stroke="black" stroke-width="1" fill="none" />
<polyline points="221.0,134.0,221.0,142.0,221.0,150.0,221.0,158.0,222.0,166.0,222.0,174.0,216.0,182.0,210.0,183.0,218.0,179.0,224.0,184.0" stroke="black" stroke-width="1" fill="none" />
<polyline points="228.0,164.0,236.0,161.0" stroke="black" stroke-width="1" fill="none" />
<polyline points="238.0,154.0,230.0,152.0,226.0,148.0,218.0,130.0,215.0,124.0,207.0,124.0,199.0,123.0,191.0,122.0,183.0,122.0,175.0,121.0,167.0,121.0,159.0,120.0,151.0,119.0,143.0,119.0,135.0,118.0,127.0,117.0,119.0,117.0,111.0,116.0,103.0,115.0,95.0,116.0,87.0,116.0" stroke="black" stroke-width="1" fill="none" />
<polyline points="79.0,118.0,70.0,126.0,74.0,132.0,69.0,139.0,67.0,147.0,75.0,144.0,83.0,147.0" stroke="black" stroke-width="1" fill="none" />
<polyline points="82.0,146.0,83.0,154.0,81.0,166.0,78.0,173.0,86.0,174.0" stroke="black" stroke-width="1" fill="none" />
<polyline points="77.0,168.0,79.0,159.0,71.0,164.0" stroke="black" stroke-width="1" fill="none" />
<polyline points="72.0,155.0,80.0,144.0,73.0,152.0,76.0,152.0,78.0,160.0,71.0,167.0,71.0,175.0,74.0,181.0,76.0,188.0,63.0,197.0,62.0,205.0,61.0,213.0" stroke="black" stroke-width="1" fill="none" />
<polyline points="65.0,206.0,73.0,203.0,73.0,210.0,81.0,212.0,95.0,209.0,96.0,195.0" stroke="black" stroke-width="1" fill="none" />
<polyline points="93.0,202.0,90.0,210.0,88.0,220.0,85.0,228.0,84.0,232.0" stroke="black" stroke-width="1" fill="none" />
<polyline points="89.0,226.0,97.0,225.0" stroke="black" stroke-width="1" fill="none" />
<polyline points="102.0,238.0,110.0,235.0,114.0,238.0,126.0,236.0,134.0,236.0,142.0,236.0" stroke="black" stroke-width="1" fill="none" />
<polyline points="137.0,244.0,129.0,243.0" stroke="black" stroke-width="1" fill="none" />
<polyline points="137.0,241.0,129.0,240.0,121.0,239.0" stroke="black" stroke-width="1" fill="none" />
<polyline points="130.0,225.0,121.0,219.0,121.0,211.0,122.0,203.0,114.0,201.0,106.0,202.0" stroke="black" stroke-width="1" fill="none" />
<polyline points="108.0,201.0,105.0,209.0,105.0,217.0,101.0,225.0" stroke="black" stroke-width="1" fill="none" />
<polyline points="118.0,218.0,119.0,210.0,116.0,202.0" stroke="black" stroke-width="1" fill="none" />
<polyline points="103.0,201.0,102.0,209.0,102.0,217.0" stroke="black" stroke-width="1" fill="none" />
<polyline points="125.0,214.0,129.0,214.0" stroke="black" stroke-width="1" fill="none" />
<polyline points="136.0,209.0,144.0,209.0,150.0,217.0" stroke="black" stroke-width="1" fill="none" />
<polyline points="165.0,212.0,167.0,210.0,179.0,204.0,178.0,212.0,178.0,220.0,176.0,229.0" stroke="black" stroke-width="1" fill="none" />
<polyline points="174.0,206.0,166.0,206.0" stroke="black" stroke-width="1" fill="none" />
<polyline points="164.0,203.0,164.0,211.0,163.0,219.0" stroke="black" stroke-width="1" fill="none" />
<polyline points="176.0,225.0,176.0,217.0,176.0,209.0,172.0,203.0,164.0,203.0" stroke="black" stroke-width="1" fill="none" />
<polyline points="161.0,201.0,162.0,200.0,161.0,208.0,161.0,216.0,160.0,224.0,155.0,226.0" stroke="black" stroke-width="1" fill="none" />
<polyline points="145.0,205.0,137.0,205.0" stroke="black" stroke-width="1" fill="none" />
<polyline points="135.0,204.0,143.0,202.0,150.0,212.0,148.0,220.0" stroke="black" stroke-width="1" fill="none" />
<polyline points="134.0,218.0,135.0,210.0,136.0,202.0" stroke="black" stroke-width="1" fill="none" />
<polyline points="139.0,163.0,147.0,163.0" stroke="black" stroke-width="1" fill="none" />
<polyline points="147.0,160.0,139.0,160.0" stroke="black" stroke-width="1" fill="none" />
<polyline points="137.0,153.0,145.0,152.0,154.0,152.0,154.0,160.0,154.0,168.0,153.0,176.0,153.0,180.0" stroke="black" stroke-width="1" fill="none" />
<polyline points="165.0,164.0,173.0,165.0" stroke="black" stroke-width="1" fill="none" />
<polyline points="165.0,161.0,173.0,162.0,181.0,169.0,180.0,177.0,183.0,185.0,183.0,189.0" stroke="black" stroke-width="1" fill="none" />
<polyline points="192.0,179.0,192.0,171.0,192.0,163.0,192.0,155.0,193.0,147.0,195.0,140.0,187.0,132.0" stroke="black" stroke-width="1" fill="none" />
<polyline points="187.0,132.0,190.0,140.0,190.0,148.0,189.0,156.0,189.0,164.0,189.0,172.0,186.0,180.0" stroke="black" stroke-width="1" fill="none" />
<polyline points="184.0,195.0,176.0,197.0,168.0,197.0,160.0,197.0,152.0,197.0,144.0,196.0,136.0,196.0,128.0,196.0,120.0,195.0,112.0,195.0,104.0,195.0,100.0,193.0,86.0,192.0,81.0,197.0,71.0,196.0,63.0,197.0" stroke="black" stroke-width="1" fill="none" />
<polyline points="64.0,201.0,72.0,199.0" stroke="black" stroke-width="1" fill="none" />
<polyline points="65.0,191.0,57.0,193.0" stroke="black" stroke-width="1" fill="none" />
<polyline points="52.0,180.0,53.0,181.0,52.0,189.0,51.0,197.0,50.0,205.0,50.0,213.0,44.0,226.0" stroke="black" stroke-width="1" fill="none" />
<polyline points="43.0,223.0,39.0,224.0,36.0,223.0,39.0,219.0" stroke="black" stroke-width="1" fill="none" />
<polyline points="52.0,216.0,44.0,215.0,36.0,215.0,28.0,213.0,20.0,212.0" stroke="black" stroke-width="1" fill="none" />
<polyline points="11.0,227.0,19.0,228.0,27.0,233.0" stroke="black" stroke-width="1" fill="none" />
<polyline points="23.0,228.0,17.0,220.0,19.0,211.0,20.0,203.0,16.0,195.0,11.0,187.0,10.0,179.0,12.0,170.0,13.0,162.0,2.0,154.0,3.0,145.0,5.0,138.0,8.0,130.0,9.0,122.0,9.0,121.0" stroke="black" stroke-width="1" fill="none" />
<polyline points="11.0,122.0,15.0,130.0,14.0,138.0,17.0,146.0,17.0,154.0,17.0,162.0" stroke="black" stroke-width="1" fill="none" />
<polyline points="6.0,168.0,6.0,176.0" stroke="black" stroke-width="1" fill="none" />
<polyline points="3.0,167.0,3.0,170.0,3.0,178.0,4.0,179.0,9.0,177.0,17.0,195.0" stroke="black" stroke-width="1" fill="none" />
<polyline points="24.0,228.0,16.0,221.0,8.0,227.0,0.0,227.0" stroke="black" stroke-width="1" fill="none" />
<polyline points="4.0,290.0,2.0,298.0" stroke="black" stroke-width="1" fill="none" />
<polyline points="98.0,256.0,106.0,257.0,114.0,257.0,122.0,256.0,130.0,257.0,138.0,257.0,146.0,257.0" stroke="black" stroke-width="1" fill="none" />
<polyline points="197.0,206.0,205.0,207.0,210.0,208.0,210.0,216.0,210.0,224.0,206.0,229.0,212.0,235.0,214.0,243.0,217.0,242.0,220.0,244.0,227.0,239.0,235.0,235.0,243.0,239.0" stroke="black" stroke-width="1" fill="none" />
<polyline points="195.0,219.0,196.0,211.0,198.0,203.0" stroke="black" stroke-width="1" fill="none" />
<polyline points="194.0,200.0,193.0,208.0,193.0,216.0,193.0,224.0,196.0,229.0,204.0,227.0,205.0,230.0" stroke="black" stroke-width="1" fill="none" />
<polyline points="173.0,157.0,165.0,157.0" stroke="black" stroke-width="1" fill="none" />
<polyline points="164.0,156.0,172.0,154.0,181.0,153.0,181.0,161.0,181.0,163.0,178.0,171.0,178.0,179.0,181.0,189.0,183.0,200.0,183.0,208.0,183.0,216.0" stroke="black" stroke-width="1" fill="none" />
<polyline points="151.0,176.0,151.0,168.0,151.0,159.0,146.0,147.0,138.0,149.0" stroke="black" stroke-width="1" fill="none" />
<polyline points="140.0,152.0,137.0,160.0,136.0,168.0,136.0,176.0,134.0,180.0" stroke="black" stroke-width="1" fill="none" />
<polyline points="117.0,162.0,109.0,161.0" stroke="black" stroke-width="1" fill="none" />
<polyline points="108.0,155.0,116.0,159.0,123.0,154.0,123.0,163.0,123.0,171.0" stroke="black" stroke-width="1" fill="none" />
<polyline points="117.0,151.0,109.0,151.0" stroke="black" stroke-width="1" fill="none" />
<polyline points="109.0,151.0,108.0,159.0,107.0,167.0,107.0,175.0" stroke="black" stroke-width="1" fill="none" />
<polyline points="94.0,186.0,83.0,185.0,82.0,190.0,77.0,191.0,69.0,190.0,67.0,186.0,68.0,178.0,68.0,170.0,69.0,162.0,70.0,154.0,73.0,146.0,84.0,138.0,86.0,130.0,79.0,128.0,71.0,128.0" stroke="black" stroke-width="1" fill="none" />
<polyline points="71.0,131.0,79.0,131.0" stroke="black" stroke-width="1" fill="none" />
<polyline points="70.0,121.0,78.0,119.0,86.0,115.0,94.0,114.0,105.0,118.0,113.0,119.0,121.0,120.0,129.0,120.0,137.0,121.0" stroke="black" stroke-width="1" fill="none" />
<polyline points="112.0,107.0,104.0,106.0,99.0,103.0,91.0,104.0,83.0,103.0,75.0,108.0,72.0,106.0,77.0,107.0,79.0,102.0,80.0,94.0,79.0,96.0" stroke="black" stroke-width="1" fill="none" />
<polyline points="70.0,103.0,78.0,92.0,73.0,99.0,66.0,97.0,74.0,88.0,82.0,83.0,90.0,89.0,98.0,92.0" stroke="black" stroke-width="1" fill="none" />
<polyline points="104.0,93.0,102.0,85.0,102.0,85.0" stroke="black" stroke-width="1" fill="none" />
<polyline points="82.0,84.0,96.0,92.0,110.0,94.0,118.0,95.0,126.0,96.0,134.0,97.0,142.0,97.0,150.0,98.0,158.0,99.0,166.0,100.0,174.0,100.0,182.0,101.0,189.0,93.0,193.0,101.0,201.0,97.0,209.0,93.0,214.0,82.0,222.0,77.0,230.0,75.0,238.0,73.0,246.0,72.0,254.0,72.0,262.0,72.0,270.0,74.0,278.0,77.0,286.0,81.0,294.0,85.0,302.0,90.0,302.0,94.0" stroke="black" stroke-width="1" fill="none" />
<polyline points="296.0,121.0,292.0,131.0,284.0,130.0,276.0,128.0,268.0,129.0,260.0,128.0,252.0,128.0,242.0,129.0,234.0,129.0,226.0,128.0,215.0,135.0,207.0,138.0,205.0,136.0,197.0,137.0" stroke="black" stroke-width="1" fill="none" />
<polyline points="165.0,154.0,164.0,162.0,172.0,166.0,172.0,174.0" stroke="black" stroke-width="1" fill="none" />
<polyline points="231.0,181.0,231.0,173.0,228.0,168.0,227.0,160.0,230.0,152.0" stroke="black" stroke-width="1" fill="none" />
<polyline points="236.0,153.0,239.0,161.0,237.0,169.0,237.0,177.0" stroke="black" stroke-width="1" fill="none" />
<polyline points="234.0,220.0,237.0,212.0,242.0,204.0,254.0,189.0,251.0,181.0,251.0,173.0,250.0,165.0,250.0,157.0,250.0,149.0,250.0,141.0,249.0,133.0" stroke="black" stroke-width="1" fill="none" />
<polyline points="106.0,123.0,98.0,126.0,88.0,125.0,86.0,121.0,75.0,123.0,73.0,133.0,65.0,139.0" stroke="black" stroke-width="1" fill="none" />
<polyline points="60.0,112.0,68.0,111.0,77.0,109.0,85.0,105.0,88.0,100.0,96.0,100.0,104.0,102.0,112.0,103.0,120.0,104.0,128.0,104.0,136.0,105.0,144.0,106.0,152.0,107.0,160.0,107.0,168.0,108.0,176.0,109.0,184.0,106.0,191.0,110.0,199.0,111.0,207.0,112.0,215.0,110.0,223.0,111.0,231.0,113.0,239.0,114.0,247.0,113.0,255.0,115.0,263.0,116.0,271.0,115.0,279.0,117.0,284.0,107.0" stroke="black" stroke-width="1" fill="none" />
<polyline points="394.0,129.0,396.0,137.0,396.0,145.0,397.0,153.0,398.0,161.0,400.0,171.0,401.0,179.0,402.0,187.0,396.0,188.0,409.0,192.0,409.0,200.0,419.0,212.0,417.0,216.0,419.0,224.0,421.0,224.0,416.0,227.0,421.0,230.0" stroke="black" stroke-width="1" fill="none" />
<polyline points="407.0,257.0,406.0,265.0,409.0,259.0" stroke="black" stroke-width="1" fill="none" />
<polyline points="461.0,193.0,460.0,189.0,452.0,187.0,444.0,186.0,437.0,189.0,431.0,189.0,417.0,192.0,425.0,184.0,424.0,176.0,423.0,168.0,422.0,160.0,421.0,152.0,418.0,140.0,418.0,132.0" stroke="black" stroke-width="1" fill="none" />
<polyline points="407.0,111.0,417.0,119.0,420.0,125.0,428.0,131.0,427.0,139.0,429.0,147.0,427.0,155.0,428.0,158.0,431.0,161.0,429.0,169.0,431.0,177.0,432.0,185.0,427.0,193.0,429.0,203.0,425.0,210.0,427.0,218.0,431.0,220.0,432.0,228.0,433.0,237.0" stroke="black" stroke-width="1" fill="none" />
<polyline points="403.0,110.0,392.0,118.0,382.0,113.0" stroke="black" stroke-width="1" fill="none" />
<polyline points="106.0,147.0,104.0,155.0,105.0,163.0,104.0,171.0" stroke="black" stroke-width="1" fill="none" />
<polyline points="102.0,176.0,91.0,176.0,83.0,177.0,75.0,180.0,63.0,179.0,57.0,182.0,62.0,172.0,62.0,164.0,63.0,156.0,64.0,147.0,65.0,139.0,65.0,131.0,65.0,120.0,65.0,106.0,57.0,109.0" stroke="black" stroke-width="1" fill="none" />
<polyline points="79.0,82.0,72.0,90.0,65.0,98.0,64.0,106.0,57.0,114.0,61.0,122.0,60.0,130.0,61.0,138.0,60.0,146.0,60.0,154.0,59.0,162.0,58.0,170.0,59.0,178.0,64.0,186.0,58.0,188.0,57.0,193.0,51.0,200.0,59.0,209.0,61.0,213.0,73.0,214.0,81.0,215.0,89.0,221.0,97.0,222.0,103.0,223.0,111.0,226.0,119.0,224.0,124.0,218.0,127.0,213.0,140.0,212.0" stroke="black" stroke-width="1" fill="none" />
<polyline points="100.0,178.0,90.0,174.0,91.0,166.0,92.0,158.0,93.0,150.0,93.0,142.0,94.0,134.0,94.0,126.0" stroke="black" stroke-width="1" fill="none" />
<polyline points="99.0,123.0,98.0,131.0,97.0,139.0,96.0,147.0,96.0,155.0,95.0,163.0,94.0,171.0,99.0,179.0,103.0,187.0,109.0,193.0,117.0,193.0,125.0,193.0,133.0,194.0,141.0,194.0,149.0,194.0,157.0,194.0,165.0,195.0,173.0,195.0,181.0,195.0" stroke="black" stroke-width="1" fill="none" />
<polyline points="103.0,125.0,103.0,133.0,103.0,141.0,102.0,149.0,101.0,157.0,101.0,165.0,100.0,173.0,94.0,183.0,89.0,184.0,90.0,192.0,90.0,200.0,85.0,203.0,84.0,211.0,79.0,217.0,72.0,218.0" stroke="black" stroke-width="1" fill="none" />
<polyline points="3.0,145.0,5.0,138.0" stroke="black" stroke-width="1" fill="none" />
<polyline points="0.0,64.0,512.0,64.0" stroke="black" stroke-width="1" fill="none" />
</svg>