<svg xmlns="http://www.w3.org/2000/svg" height="340px" width="512px" version="1.1"><polyline points="2.25,0.0,0.75,6.0" stroke="black" stroke-width="1" fill="none" />
<polyline points="8.25,11.25,6.75,17.25,5.25,23.25,3.0,29.25,2.25,35.25,1.5,41.25,3.0,43.5,8.25,49.5,13.5,55.5,18.75,61.5,24.0,67.5,28.5,73.5,33.0,79.5,32.25,85.5,30.75,91.5,29.25,97.5,27.75,103.5,26.25,109.5,24.75,115.5,23.25,121.5" stroke="black" stroke-width="1" fill="none" />
<polyline points="32.25,131.25,24.75,125.25,19.5,119.25,21.0,113.25,22.5,107.25,24.0,101.25,25.5,95.25,27.0,89.25,28.5,83.25,27.75,84.75" stroke="black" stroke-width="1" fill="none" />
<polyline points="25.5,75.75,24.75,81.75,23.25,87.75,21.75,93.75,20.25,99.75,18.75,105.75,17.25,111.75" stroke="black" stroke-width="1" fill="none" />
<polyline points="7.5,104.25,7.5,98.25,10.5,92.25,12.0,86.25,6.0,81.75" stroke="black" stroke-width="1" fill="none" />
<polyline points="0.75,84.0,2.25,78.0,3.75,72.0,5.25,66.0,6.75,60.0,7.5,57.0" stroke="black" stroke-width="1" fill="none" />
<polyline points="9.75,58.5,8.25,64.5,6.75,70.5,9.0,78.75,7.5,84.75,6.0,90.75,4.5,96.75,2.25,102.75,0.75,110.25,6.75,116.25,13.5,122.25,20.25,128.25,27.0,134.25,33.75,140.25,41.25,146.25,48.0,152.25,54.75,158.25,62.25,164.25,69.0,170.25,75.75,176.25,82.5,182.25,90.0,188.25,96.75,194.25,103.5,200.25,108.0,208.5,115.5,214.5,121.5,219.0,127.5,224.25,133.5,228.75,139.5,234.0,145.5,239.25,152.25,244.5,158.25,249.0,164.25,254.25,168.0,251.25,171.0,252.75" stroke="black" stroke-width="1" fill="none" />
<polyline points="173.25,260.25,179.25,260.25" stroke="black" stroke-width="1" fill="none" />
<polyline points="179.25,261.75,173.25,261.75" stroke="black" stroke-width="1" fill="none" />
<polyline points="165.0,270.75,159.0,267.75" stroke="black" stroke-width="1" fill="none" />
<polyline points="154.5,273.75,155.25,279.0,153.75,279.0,153.75,285.0,153.75,291.0,156.75,290.25,162.75,291.75" stroke="black" stroke-width="1" fill="none" />
<polyline points="166.5,291.75,166.5,285.75,158.25,284.25" stroke="black" stroke-width="1" fill="none" />
<polyline points="171.75,285.0,177.75,285.0,183.75,285.0,189.75,284.25,195.75,284.25" stroke="black" stroke-width="1" fill="none" />
<polyline points="198.75,285.75,192.75,288.75,186.0,289.5,181.5,295.5,182.25,301.5,181.5,295.5,183.75,289.5" stroke="black" stroke-width="1" fill="none" />
<polyline points="186.0,290.25,186.75,296.25,184.5,302.25,186.0,306.0" stroke="black" stroke-width="1" fill="none" />
<polyline points="198.75,309.0,197.25,301.5,197.25,295.5,197.25,289.5" stroke="black" stroke-width="1" fill="none" />
<polyline points="192.75,288.75,190.5,294.75,190.5,300.75,189.0,306.75,190.5,306.0,196.5,302.25,201.0,310.5,207.0,312.0,213.0,309.75" stroke="black" stroke-width="1" fill="none" />
<polyline points="217.5,303.75,223.5,294.0,229.5,289.5,235.5,286.5,241.5,284.25,247.5,283.5,253.5,283.5,259.5,283.5,265.5,285.0,271.5,287.25,277.5,290.25,283.5,297.0" stroke="black" stroke-width="1" fill="none" />
<polyline points="285.0,313.5,279.0,315.0" stroke="black" stroke-width="1" fill="none" />
<polyline points="275.25,333.0,266.25,329.25,260.25,330.0,254.25,330.0,248.25,330.0,242.25,330.0,236.25,330.0" stroke="black" stroke-width="1" fill="none" />
<polyline points="235.5,327.75,241.5,322.5,247.5,320.25,253.5,319.5,259.5,320.25,265.5,322.5" stroke="black" stroke-width="1" fill="none" />
<polyline points="261.0,321.0,270.0,327.0,269.25,333.0,273.0,336.75,275.25,336.75,276.75,334.5,282.75,334.5" stroke="black" stroke-width="1" fill="none" />
<polyline points="299.25,310.5,305.25,309.75,311.25,308.25,317.25,306.75,323.25,305.25" stroke="black" stroke-width="1" fill="none" />
<polyline points="326.25,301.5,326.25,302.25,329.25,303.0,331.5,297.0,328.5,292.5,327.75,286.5,329.25,280.5,327.0,274.5,326.25,270.75,326.25,264.75,326.25,258.75,332.25,253.5,334.5,247.5,334.5,241.5,333.75,235.5,333.0,229.5,331.5,223.5,333.0,218.25,338.25,212.25,339.0,206.25,345.75,200.25,350.25,194.25,354.0,188.25,359.25,181.5,365.25,175.5,370.5,169.5,375.0,164.25,369.0,171.0,363.0,178.5,357.0,183.0" stroke="black" stroke-width="1" fill="none" />
<polyline points="350.25,174.75,349.5,168.75,348.0,163.5,347.25,157.5,342.75,159.0" stroke="black" stroke-width="1" fill="none" />
<polyline points="331.5,166.5,337.5,155.25,337.5,155.25,334.5,161.25,331.5,167.25,333.0,173.25,330.75,179.25,329.25,185.25,330.0,191.25,330.0,197.25,330.75,203.25,327.0,209.25,319.5,213.0,318.75,219.0,314.25,225.0,311.25,231.0,307.5,237.0,303.75,243.0,304.5,240.75,310.5,231.75,316.5,221.25,320.25,219.75,324.75,214.5,327.75,219.0,333.75,217.5,340.5,204.75,346.5,198.75,354.0,192.75,354.75,198.75,355.5,204.75,356.25,210.75,357.0,216.75,357.75,222.75,358.5,228.75" stroke="black" stroke-width="1" fill="none" />
<polyline points="372.0,218.25,368.25,224.25,362.25,230.25,367.5,228.0,373.5,222.75,379.5,218.25,385.5,214.5,391.5,209.25,397.5,204.75,403.5,199.5,409.5,194.25,415.5,189.75,421.5,185.25,427.5,181.5" stroke="black" stroke-width="1" fill="none" />
<polyline points="430.5,174.75,436.5,170.25,444.0,164.25,450.75,158.25,456.75,152.25,464.25,146.25,464.25,146.25,458.25,150.75,452.25,157.5,446.25,162.0,440.25,167.25,431.25,174.0,425.25,178.5,417.75,183.75,412.5,188.25,419.25,182.25,423.75,176.25,422.25,170.25,421.5,164.25,420.0,158.25,419.25,152.25,417.75,146.25,416.25,140.25,415.5,134.25,412.5,129.0,406.5,136.5,400.5,143.25,394.5,149.25" stroke="black" stroke-width="1" fill="none" />
<polyline points="410.25,138.0,411.75,144.0,408.75,150.0,411.75,152.25,411.0,158.25,414.0,164.25,413.25,170.25,414.75,176.25" stroke="black" stroke-width="1" fill="none" />
<polyline points="417.75,178.5,417.0,172.5,415.5,166.5,414.0,159.0,411.0,153.0,414.75,159.75,413.25,165.0" stroke="black" stroke-width="1" fill="none" />
<polyline points="438.0,173.25,444.0,168.75,450.0,163.5,456.0,159.0,462.0,153.0,468.0,148.5,474.0,144.0,480.0,138.75,486.0,134.25,492.0,129.75,498.0,127.5,489.0,132.0,481.5,138.0,474.0,144.0,465.75,150.0,459.0,156.0,452.25,162.0,444.75,168.0,432.75,175.5,427.5,181.5,418.5,187.5,411.0,193.5,403.5,199.5,396.75,205.5,388.5,211.5,380.25,217.5,372.0,223.5,366.0,229.5,354.75,237.0,348.75,243.0,340.5,249.0,333.75,255.0,336.0,249.75,339.75,249.75,345.75,245.25,351.75,240.0,357.75,235.5,362.25,229.5,368.25,224.25,374.25,219.0,382.5,211.5,389.25,207.75,395.25,203.25,401.25,197.25,405.0,193.5,399.0,199.5,392.25,205.5,384.75,211.5" stroke="black" stroke-width="1" fill="none" />
<polyline points="380.25,214.5,383.25,205.5,382.5,199.5,381.0,193.5,380.25,187.5,379.5,181.5,378.75,175.5,374.25,173.25,368.25,180.75,365.25,186.0,364.5,180.0,371.25,177.75,375.75,171.75,377.25,165.75,377.25,159.75,381.0,153.75,385.5,147.75,395.25,143.25,399.75,137.25,405.0,131.25,409.5,125.25,406.5,129.0,400.5,136.5,394.5,144.0,388.5,144.0,382.5,151.5,376.5,159.0" stroke="black" stroke-width="1" fill="none" />
<polyline points="375.0,177.75,375.75,183.75,376.5,190.5,377.25,196.5" stroke="black" stroke-width="1" fill="none" />
<polyline points="351.75,195.0,347.25,201.0,345.75,207.0,347.25,213.0,348.0,219.0,348.75,225.0,349.5,231.0,351.0,237.0,345.0,243.0,339.75,246.75,345.75,242.25,351.75,237.0" stroke="black" stroke-width="1" fill="none" />
<polyline points="358.5,257.25,359.25,263.25,360.75,269.25,361.5,275.25,362.25,281.25" stroke="black" stroke-width="1" fill="none" />
<polyline points="373.5,294.0,379.5,291.75,385.5,287.25" stroke="black" stroke-width="1" fill="none" />
<polyline points="422.25,281.25,428.25,279.0" stroke="black" stroke-width="1" fill="none" />
<polyline points="375.75,253.5,375.0,247.5,378.0,243.75,387.0,237.75,388.5,237.0,382.5,241.5,376.5,244.5,370.5,248.25" stroke="black" stroke-width="1" fill="none" />
<polyline points="350.25,260.25,356.25,257.25,354.0,258.0,353.25,263.25,353.25,269.25,354.0,275.25,354.0,281.25" stroke="black" stroke-width="1" fill="none" />
<polyline points="338.25,285.0,337.5,279.0,337.5,273.0,339.0,267.0,336.0,269.25" stroke="black" stroke-width="1" fill="none" />
<polyline points="340.5,267.75,342.0,273.75,342.0,279.75,343.5,285.75" stroke="black" stroke-width="1" fill="none" />
<polyline points="324.75,279.75,318.75,285.75,309.0,291.75,313.5,288.75,319.5,285.75" stroke="black" stroke-width="1" fill="none" />
<polyline points="322.5,279.0,312.75,285.0,312.0,285.75,318.0,282.0,324.0,279.0" stroke="black" stroke-width="1" fill="none" />
<polyline points="319.5,263.25,323.25,260.25,318.75,254.25,320.25,248.25,323.25,243.0,323.25,237.0,323.25,231.0,318.75,234.0" stroke="black" stroke-width="1" fill="none" />
<polyline points="320.25,232.5,319.5,238.5,317.25,238.5,318.0,244.5,316.5,253.5,313.5,254.25" stroke="black" stroke-width="1" fill="none" />
<polyline points="316.5,249.0,322.5,252.75" stroke="black" stroke-width="1" fill="none" />
<polyline points="318.0,260.25,325.5,254.25,326.25,247.5,321.75,239.25,321.0,233.25" stroke="black" stroke-width="1" fill="none" />
<polyline points="320.25,222.75,320.25,228.75,315.75,234.75,311.25,240.75,307.5,246.75,306.0,252.75,309.0,260.25,311.25,263.25,310.5,264.0,312.75,261.0,315.0,258.0,321.75,249.0" stroke="black" stroke-width="1" fill="none" />
<polyline points="303.0,237.75,300.75,243.75,299.25,249.75,299.25,255.75" stroke="black" stroke-width="1" fill="none" />
<polyline points="292.5,257.25,291.75,251.25" stroke="black" stroke-width="1" fill="none" />
<polyline points="286.5,258.75,280.5,261.0,280.5,254.25,278.25,254.25,278.25,248.25,278.25,242.25,276.0,236.25,268.5,240.75" stroke="black" stroke-width="1" fill="none" />
<polyline points="268.5,243.0,269.25,249.0,267.75,255.0" stroke="black" stroke-width="1" fill="none" />
<polyline points="254.25,251.25,248.25,251.25" stroke="black" stroke-width="1" fill="none" />
<polyline points="247.5,243.75,247.5,249.75,249.0,253.5,249.75,255.0,252.0,258.75" stroke="black" stroke-width="1" fill="none" />
<polyline points="247.5,241.5,253.5,241.5,257.25,244.5,257.25,250.5,252.0,253.5,258.0,253.5,258.0,258.75,264.0,261.0,270.0,258.75,272.25,251.25,273.75,255.75" stroke="black" stroke-width="1" fill="none" />
<polyline points="270.75,279.75,282.0,285.75,288.75,291.75,292.5,297.75,294.0,303.75,288.0,310.5" stroke="black" stroke-width="1" fill="none" />
<polyline points="282.0,332.25,276.0,330.75,270.0,332.25,264.0,331.5,258.0,331.5,252.0,331.5,246.0,332.25,240.0,332.25,234.0,332.25" stroke="black" stroke-width="1" fill="none" />
<polyline points="247.5,336.0,253.5,333.75,259.5,333.75,265.5,334.5" stroke="black" stroke-width="1" fill="none" />
<polyline points="246.75,320.25,237.0,326.25,234.0,333.75,239.25,339.75" stroke="black" stroke-width="1" fill="none" />
<polyline points="213.75,297.75,219.75,289.5,225.75,285.0,231.75,281.25,237.75,279.75,243.75,278.25,249.75,277.5,255.75,277.5,261.75,277.5,267.75,278.25,273.75,280.5,279.75,283.5,285.75,288.0,291.75,295.5" stroke="black" stroke-width="1" fill="none" />
<polyline points="288.75,309.75,287.25,303.75,283.5,297.75,278.25,291.75,267.75,285.75" stroke="black" stroke-width="1" fill="none" />
<polyline points="241.5,284.25,228.0,290.25,222.0,296.25,219.0,302.25,216.75,308.25" stroke="black" stroke-width="1" fill="none" />
<polyline points="235.5,279.75,224.25,285.75,218.25,291.75,213.75,297.75,213.0,303.75,213.0,309.75,220.5,313.5,224.25,315.75,230.25,315.0,236.25,312.75,242.25,312.0,248.25,311.25,254.25,311.25,260.25,311.25,266.25,312.75,272.25,314.25,278.25,315.0,284.25,311.25" stroke="black" stroke-width="1" fill="none" />
<polyline points="236.25,259.5,235.5,257.25,236.25,251.25,236.25,245.25,236.25,239.25,232.5,241.5,226.5,241.5" stroke="black" stroke-width="1" fill="none" />
<polyline points="226.5,240.0,226.5,246.0,226.5,252.0,224.25,258.0" stroke="black" stroke-width="1" fill="none" />
<polyline points="219.0,261.75,215.25,259.5,215.25,253.5" stroke="black" stroke-width="1" fill="none" />
<polyline points="205.5,258.75,203.25,257.25,205.5,251.25,205.5,245.25,204.0,242.25" stroke="black" stroke-width="1" fill="none" />
<polyline points="213.0,236.25,215.25,242.25,215.25,248.25,213.75,254.25,210.75,255.75,213.0,261.75,219.0,260.25,225.0,258.75,227.25,261.0,233.25,258.75,234.0,261.0,237.75,255.0,243.75,259.5,249.75,256.5,252.0,261.0,258.0,258.75,263.25,259.5,270.0,261.0,276.0,260.25,282.75,261.0,288.75,261.0" stroke="black" stroke-width="1" fill="none" />
<polyline points="302.25,260.25,296.25,260.25,290.25,260.25,289.5,252.75,290.25,246.75,289.5,240.75,291.75,234.75" stroke="black" stroke-width="1" fill="none" />
<polyline points="291.0,216.0,293.25,219.75,299.25,216.0" stroke="black" stroke-width="1" fill="none" />
<polyline points="306.75,220.5,312.75,220.5" stroke="black" stroke-width="1" fill="none" />
<polyline points="312.75,203.25,306.75,206.25,299.25,213.75,293.25,214.5,287.25,214.5,281.25,214.5,275.25,214.5,269.25,214.5,263.25,214.5,257.25,214.5,251.25,214.5,245.25,214.5,239.25,215.25,233.25,214.5,227.25,214.5,221.25,215.25,215.25,215.25,209.25,215.25,203.25,215.25,197.25,214.5,191.25,204.75,185.25,200.25,180.75,197.25,180.0,181.5,177.0,183.0" stroke="black" stroke-width="1" fill="none" />
<polyline points="172.5,183.0,174.75,183.75,177.75,184.5,177.75,190.5,180.0,196.5,183.75,202.5,190.5,210.0,189.0,216.0,196.5,214.5" stroke="black" stroke-width="1" fill="none" />
<polyline points="187.5,198.75,181.5,193.5" stroke="black" stroke-width="1" fill="none" />
<polyline points="180.0,190.5,185.25,196.5,189.0,202.5,193.5,208.5" stroke="black" stroke-width="1" fill="none" />
<polyline points="186.0,216.0,183.75,210.0,188.25,206.25,184.5,200.25,181.5,194.25,182.25,188.25,183.0,183.0,177.0,179.25,171.0,181.5" stroke="black" stroke-width="1" fill="none" />
<polyline points="174.75,192.75,177.75,198.75,180.75,204.75" stroke="black" stroke-width="1" fill="none" />
<polyline points="177.75,207.0,171.75,201.75,165.75,195.0,159.75,186.0,163.5,177.75,164.25,171.75,159.0,177.0,159.75,171.0,159.0,171.75" stroke="black" stroke-width="1" fill="none" />
<polyline points="152.25,184.5,146.25,178.5,140.25,168.75,134.25,159.75,128.25,151.5,122.25,144.0" stroke="black" stroke-width="1" fill="none" />
<polyline points="126.0,138.75,130.5,144.75,134.25,150.75" stroke="black" stroke-width="1" fill="none" />
<polyline points="121.5,152.25,125.25,158.25,126.0,164.25,135.0,171.0,139.5,177.0,136.5,183.0,136.5,189.0,141.75,192.0,141.0,198.0,142.5,204.0,142.5,210.0,141.75,216.0,142.5,222.0,141.75,228.0,144.0,231.0" stroke="black" stroke-width="1" fill="none" />
<polyline points="134.25,222.75,130.5,216.75,130.5,210.75,131.25,204.75,132.0,198.75,132.0,196.5" stroke="black" stroke-width="1" fill="none" />
<polyline points="139.5,200.25,146.25,198.0,151.5,201.75,153.75,208.5,156.75,209.25,156.0,215.25,155.25,221.25,155.25,227.25,154.5,233.25,150.0,243.0,157.5,249.0,165.0,255.0" stroke="black" stroke-width="1" fill="none" />
<polyline points="175.5,240.0,181.5,239.25,188.25,236.25,193.5,241.5,199.5,239.25,205.5,239.25,211.5,235.5,218.25,239.25,224.25,239.25,230.25,235.5,236.25,238.5,242.25,239.25,248.25,237.0,254.25,235.5,260.25,239.25,266.25,239.25,272.25,234.75,278.25,239.25,284.25,238.5,290.25,236.25,296.25,235.5,303.75,236.25,309.75,228.75" stroke="black" stroke-width="1" fill="none" />
<polyline points="312.0,225.0,306.0,226.5,300.0,226.5,294.0,227.25,288.0,227.25,282.0,227.25,276.0,227.25,270.0,227.25,264.0,227.25,258.0,227.25,252.0,227.25,246.0,227.25,240.0,227.25,234.0,227.25,228.0,227.25,222.0,227.25,216.0,227.25,210.0,227.25,204.0,228.0,198.0,228.0,192.0,228.0,186.0,228.0,180.0,228.0,174.0,228.0" stroke="black" stroke-width="1" fill="none" />
<polyline points="163.5,216.0,161.25,212.25" stroke="black" stroke-width="1" fill="none" />
<polyline points="162.75,209.25,165.75,215.25,165.0,221.25,165.0,226.5,164.25,229.5,165.0,235.5,164.25,241.5,164.25,247.5,168.75,253.5,168.75,259.5,168.0,265.5,169.5,272.25,168.75,278.25,168.75,284.25,168.0,290.25,168.0,296.25" stroke="black" stroke-width="1" fill="none" />
<polyline points="173.25,296.25,173.25,290.25,172.5,284.25" stroke="black" stroke-width="1" fill="none" />
<polyline points="147.0,285.0,147.75,279.0,145.5,275.25" stroke="black" stroke-width="1" fill="none" />
<polyline points="142.5,280.5,141.75,286.5,141.75,292.5" stroke="black" stroke-width="1" fill="none" />
<polyline points="137.25,291.0,138.0,285.0,138.0,279.0,138.75,273.0,135.75,270.75" stroke="black" stroke-width="1" fill="none" />
<polyline points="136.5,264.0,142.5,267.0" stroke="black" stroke-width="1" fill="none" />
<polyline points="137.25,261.75,146.25,270.75,150.75,273.75,150.0,279.75,149.25,285.75,149.25,291.75" stroke="black" stroke-width="1" fill="none" />
<polyline points="132.75,272.25,133.5,266.25,134.25,260.25,129.0,254.25,117.0,249.75,111.0,246.0" stroke="black" stroke-width="1" fill="none" />
<polyline points="109.5,245.25,115.5,244.5" stroke="black" stroke-width="1" fill="none" />
<polyline points="111.0,243.75,120.0,249.75,122.25,249.75,121.5,255.75,120.75,261.75,123.75,261.75,117.75,267.75,119.25,264.75,122.25,261.0,126.75,258.0,132.0,258.0,135.0,256.5,141.0,263.25,141.0,269.25,147.75,267.0,153.75,264.75,153.75,270.75,159.75,273.75" stroke="black" stroke-width="1" fill="none" />
<polyline points="162.0,255.0,156.0,249.75,150.0,245.25,150.75,235.5,151.5,229.5,151.5,223.5,152.25,217.5,150.75,213.75" stroke="black" stroke-width="1" fill="none" />
<polyline points="148.5,216.0,148.5,222.0,147.75,228.0,147.0,234.0" stroke="black" stroke-width="1" fill="none" />
<polyline points="157.5,243.0,158.25,237.0,158.25,231.0,159.0,225.0,159.0,219.0,161.25,213.0,159.0,211.5,162.0,207.75,157.5,201.75,153.75,192.0" stroke="black" stroke-width="1" fill="none" />
<polyline points="155.25,194.25,161.25,202.5" stroke="black" stroke-width="1" fill="none" />
<polyline points="171.75,201.75,177.75,207.75,177.75,212.25,177.0,222.0,183.0,222.0" stroke="black" stroke-width="1" fill="none" />
<polyline points="192.0,210.75,189.0,207.0,185.25,204.75,179.25,201.0,174.75,192.75,173.25,187.5,167.25,186.0,161.25,183.75,157.5,178.5,151.5,172.5,145.5,162.75,139.5,153.0,133.5,144.0,127.5,130.5,121.5,125.25,115.5,116.25,109.5,105.75,102.0,93.0,96.0,84.75,90.75,77.25,87.75,71.25,88.5,65.25,90.0,59.25,90.75,53.25,93.0,47.25,90.0,41.25,88.5,35.25,81.75,26.25" stroke="black" stroke-width="1" fill="none" />
<polyline points="88.5,33.75,94.5,42.0,100.5,52.5,106.5,56.25,108.75,62.25,114.75,73.5" stroke="black" stroke-width="1" fill="none" />
<polyline points="114.0,76.5,108.0,70.5" stroke="black" stroke-width="1" fill="none" />
<polyline points="108.0,70.5,109.5,76.5,110.25,81.75,114.0,87.75,113.25,91.5,112.5,97.5,111.75,103.5" stroke="black" stroke-width="1" fill="none" />
<polyline points="114.75,84.75,108.75,74.25" stroke="black" stroke-width="1" fill="none" />
<polyline points="110.25,71.25,114.0,77.25,117.0,83.25,114.75,84.75,114.0,87.75" stroke="black" stroke-width="1" fill="none" />
<polyline points="119.25,84.0,116.25,78.0,113.25,72.0,110.25,66.0,106.5,60.0,105.0,54.0,102.0,48.0,99.0,42.0,95.25,36.0,92.25,30.0,88.5,24.0,84.0,22.5,78.0,11.25,72.0,0.75" stroke="black" stroke-width="1" fill="none" />
<polyline points="72.0,0.0,74.25,6.0,72.75,11.25,75.75,17.25,79.5,23.25,81.75,29.25,81.0,35.25,80.25,41.25,78.75,47.25,78.0,53.25" stroke="black" stroke-width="1" fill="none" />
<polyline points="75.0,64.5,81.0,72.75,87.0,82.5,93.0,90.75,99.0,100.5,105.0,109.5,111.0,118.5,117.0,127.5" stroke="black" stroke-width="1" fill="none" />
<polyline points="117.75,126.0,114.0,120.0,110.25,114.0,106.5,108.0,102.0,102.0,98.25,96.0,94.5,90.0,90.0,84.0,86.25,78.0,82.5,72.0,78.75,66.0,78.75,58.5,75.0,52.5,72.75,46.5,73.5,40.5,75.0,34.5,75.75,28.5,83.25,21.75,80.25,15.75,78.0,15.75,77.25,14.25,71.25,7.5" stroke="black" stroke-width="1" fill="none" />
<polyline points="72.0,8.25,78.0,19.5,78.0,27.75,77.25,33.75,75.75,39.75,75.0,45.75" stroke="black" stroke-width="1" fill="none" />
<polyline points="90.0,41.25,96.0,52.5,92.25,56.25,91.5,62.25,90.0,68.25" stroke="black" stroke-width="1" fill="none" />
<polyline points="83.25,65.25,78.75,57.75,72.75,48.0,66.75,35.25,65.25,31.5,59.25,27.75,57.0,21.0,51.75,15.0,48.0,9.0,43.5,3.0,42.75,0.75" stroke="black" stroke-width="1" fill="none" />
<polyline points="44.25,3.75,50.25,12.0,56.25,18.75" stroke="black" stroke-width="1" fill="none" />
<polyline points="69.0,10.5,68.25,16.5,69.0,21.0,68.25,27.0,67.5,33.0" stroke="black" stroke-width="1" fill="none" />
<polyline points="89.25,37.5,87.75,42.75,87.0,48.75,85.5,54.75,84.75,60.75,84.0,67.5,92.25,78.75" stroke="black" stroke-width="1" fill="none" />
<polyline points="102.0,87.0,103.5,81.0,104.25,75.0,105.0,69.0,105.75,63.0,99.75,59.25" stroke="black" stroke-width="1" fill="none" />
<polyline points="101.25,63.0,101.25,69.0,100.5,75.0,99.75,81.0" stroke="black" stroke-width="1" fill="none" />
<polyline points="108.75,80.25,108.75,86.25,108.0,92.25,108.0,98.25" stroke="black" stroke-width="1" fill="none" />
<polyline points="91.5,115.5,85.5,107.25,79.5,99.75" stroke="black" stroke-width="1" fill="none" />
<polyline points="78.75,103.5,79.5,104.25,77.25,105.0,76.5,111.0,75.0,117.0,74.25,123.0,72.75,129.0,72.0,135.0,71.25,141.0,69.75,147.0,69.0,153.0,67.5,159.0" stroke="black" stroke-width="1" fill="none" />
<polyline points="75.0,164.25,75.75,158.25,77.25,152.25,76.5,147.0,77.25,141.0,78.0,135.0" stroke="black" stroke-width="1" fill="none" />
<polyline points="76.5,134.25,75.75,140.25,75.0,146.25,73.5,152.25,72.75,158.25,72.0,164.25" stroke="black" stroke-width="1" fill="none" />
<polyline points="91.5,182.25,92.25,176.25,93.75,170.25,94.5,164.25,95.25,158.25,96.0,152.25,96.75,146.25,97.5,140.25,98.25,134.25,99.75,128.25,90.75,126.75" stroke="black" stroke-width="1" fill="none" />
<polyline points="90.75,126.75,92.25,132.75" stroke="black" stroke-width="1" fill="none" />
<polyline points="100.5,132.75,102.0,138.75,99.75,144.75,98.25,153.75,99.75,159.75,99.0,165.75,98.25,171.75,97.5,177.75,96.0,183.75" stroke="black" stroke-width="1" fill="none" />
<polyline points="104.25,165.0,103.5,158.25,97.5,152.25" stroke="black" stroke-width="1" fill="none" />
<polyline points="98.25,158.25,97.5,164.25,96.0,170.25,95.25,176.25,94.5,182.25" stroke="black" stroke-width="1" fill="none" />
<polyline points="87.0,180.0,81.0,175.5,86.25,171.0,87.0,165.0,87.75,159.0,89.25,153.0,89.25,147.0,90.75,141.0,87.75,135.0,89.25,129.0,93.75,123.75,87.75,122.25" stroke="black" stroke-width="1" fill="none" />
<polyline points="82.5,131.25,80.25,125.25,81.0,119.25,81.75,113.25" stroke="black" stroke-width="1" fill="none" />
<polyline points="80.25,112.5,79.5,118.5,78.0,124.5,79.5,131.25,84.0,137.25,86.25,143.25,84.0,149.25,83.25,155.25,82.5,161.25,81.0,167.25,80.25,173.25,84.75,179.25" stroke="black" stroke-width="1" fill="none" />
<polyline points="88.5,178.5,90.0,172.5,90.75,166.5,91.5,160.5,93.0,154.5,93.75,148.5,93.75,142.5,95.25,136.5,96.0,130.5,96.75,124.5,96.0,118.5,91.5,112.5,87.0,106.5,83.25,100.5,81.0,96.0,72.75,93.75,69.75,87.75,64.5,86.25,60.75,80.25,55.5,75.75,49.5,73.5" stroke="black" stroke-width="1" fill="none" />
<polyline points="49.5,73.5,48.0,79.5,47.25,90.0,48.75,96.0,54.0,102.0,59.25,108.0,64.5,114.0,65.25,120.0,64.5,126.0,63.75,132.0,62.25,138.0,61.5,144.0,60.0,150.0,58.5,154.5" stroke="black" stroke-width="1" fill="none" />
<polyline points="87.0,139.5,81.0,132.75,75.0,126.0" stroke="black" stroke-width="1" fill="none" />
<polyline points="67.5,119.25,62.25,121.5,60.75,127.5,60.0,133.5,58.5,139.5,57.75,145.5,56.25,151.5,60.75,157.5" stroke="black" stroke-width="1" fill="none" />
<polyline points="31.5,186.0,33.0,192.0,40.5,198.0,48.0,196.5,48.75,202.5,60.0,204.0,60.75,207.75" stroke="black" stroke-width="1" fill="none" />
<polyline points="61.5,204.75,55.5,206.25,49.5,202.5" stroke="black" stroke-width="1" fill="none" />
<polyline points="50.25,212.25,44.25,209.25,38.25,205.5,32.25,201.75" stroke="black" stroke-width="1" fill="none" />
<polyline points="32.25,201.75,40.5,207.75,51.75,213.75" stroke="black" stroke-width="1" fill="none" />
<polyline points="63.0,216.75,65.25,217.5,75.75,223.5" stroke="black" stroke-width="1" fill="none" />
<polyline points="70.5,220.5,76.5,223.5,82.5,227.25" stroke="black" stroke-width="1" fill="none" />
<polyline points="77.25,222.0,71.25,219.0,65.25,216.75" stroke="black" stroke-width="1" fill="none" />
<polyline points="63.75,220.5,63.0,226.5,60.75,232.5,60.0,238.5,58.5,244.5,57.75,250.5,56.25,256.5,55.5,262.5,54.75,268.5" stroke="black" stroke-width="1" fill="none" />
<polyline points="44.25,279.0,42.75,285.0,41.25,291.0,39.75,297.0" stroke="black" stroke-width="1" fill="none" />
<polyline points="46.5,300.0,48.0,294.0" stroke="black" stroke-width="1" fill="none" />
<polyline points="48.75,297.75,54.75,291.75,56.25,285.75,56.25,284.25" stroke="black" stroke-width="1" fill="none" />
<polyline points="58.5,283.5,57.0,289.5,54.0,295.5" stroke="black" stroke-width="1" fill="none" />
<polyline points="56.25,294.75,54.75,300.75" stroke="black" stroke-width="1" fill="none" />
<polyline points="42.75,292.5,44.25,286.5,45.75,280.5" stroke="black" stroke-width="1" fill="none" />
<polyline points="42.0,279.75,41.25,285.75,39.75,291.75" stroke="black" stroke-width="1" fill="none" />
<polyline points="30.75,292.5,39.0,278.25" stroke="black" stroke-width="1" fill="none" />
<polyline points="39.0,279.0,37.5,285.0,36.0,291.0,34.5,297.75" stroke="black" stroke-width="1" fill="none" />
<polyline points="26.25,291.75,27.75,285.75,29.25,279.75,33.0,278.25" stroke="black" stroke-width="1" fill="none" />
<polyline points="33.75,277.5,32.25,283.5,30.0,289.5,28.5,295.5,27.75,301.5" stroke="black" stroke-width="1" fill="none" />
<polyline points="20.25,297.0,21.75,291.0,23.25,285.0,24.75,279.0,29.25,277.5" stroke="black" stroke-width="1" fill="none" />
<polyline points="27.75,276.0,26.25,282.0,24.75,288.0,23.25,294.0,21.75,300.0" stroke="black" stroke-width="1" fill="none" />
<polyline points="21.0,284.25,22.5,278.25,24.75,279.0" stroke="black" stroke-width="1" fill="none" />
<polyline points="21.75,275.25,20.25,281.25,18.75,287.25,17.25,293.25,15.75,299.25,19.5,288.75" stroke="black" stroke-width="1" fill="none" />
<polyline points="17.25,300.0,19.5,293.25,16.5,284.25,18.0,278.25,21.0,276.0" stroke="black" stroke-width="1" fill="none" />
<polyline points="17.25,274.5,15.75,280.5,14.25,286.5,12.75,292.5,11.25,298.5" stroke="black" stroke-width="1" fill="none" />
<polyline points="12.75,300.75,14.25,294.75,15.75,288.75,12.0,283.5,13.5,277.5,16.5,276.0" stroke="black" stroke-width="1" fill="none" />
<polyline points="12.0,275.25,12.0,276.75,9.75,282.75,9.0,288.75,7.5,294.75" stroke="black" stroke-width="1" fill="none" />
<polyline points="3.75,297.75,5.25,291.75,2.25,292.5" stroke="black" stroke-width="1" fill="none" />
<polyline points="1.5,276.75,3.75,270.75,10.5,264.75,15.0,255.0,15.75,249.0,17.25,243.0,18.75,237.0,19.5,231.0,21.0,225.0,23.25,217.5,17.25,217.5,11.25,218.25" stroke="black" stroke-width="1" fill="none" />
<polyline points="18.0,221.25,12.75,227.25,9.75,226.5,15.75,223.5,21.75,220.5,28.5,215.25,34.5,217.5,40.5,220.5" stroke="black" stroke-width="1" fill="none" />
<polyline points="43.5,218.25,37.5,215.25,31.5,212.25" stroke="black" stroke-width="1" fill="none" />
<polyline points="33.0,210.75,44.25,216.75,48.75,222.75,47.25,228.75,45.75,234.75,45.0,240.75,44.25,246.75,42.75,252.75,42.0,258.75,40.5,264.75,37.5,278.25,36.0,284.25,34.5,290.25,33.0,296.25,35.25,292.5" stroke="black" stroke-width="1" fill="none" />
<polyline points="40.5,302.25,36.75,297.0,38.25,291.0,39.75,285.0,40.5,279.0" stroke="black" stroke-width="1" fill="none" />
<polyline points="35.25,278.25,33.75,284.25,31.5,290.25,30.0,297.0" stroke="black" stroke-width="1" fill="none" />
<polyline points="26.25,296.25,28.5,289.5,30.0,283.5,31.5,277.5" stroke="black" stroke-width="1" fill="none" />
<polyline points="34.5,255.75,28.5,254.25,22.5,253.5" stroke="black" stroke-width="1" fill="none" />
<polyline points="27.0,237.0,33.0,237.0" stroke="black" stroke-width="1" fill="none" />
<polyline points="32.25,233.25,26.25,234.75" stroke="black" stroke-width="1" fill="none" />
<polyline points="28.5,235.5,35.25,241.5" stroke="black" stroke-width="1" fill="none" />
<polyline points="41.25,223.5,35.25,221.25,29.25,220.5" stroke="black" stroke-width="1" fill="none" />
<polyline points="32.25,219.75,42.0,225.75" stroke="black" stroke-width="1" fill="none" />
<polyline points="53.25,222.0,47.25,217.5,41.25,214.5,35.25,211.5,29.25,211.5" stroke="black" stroke-width="1" fill="none" />
<polyline points="31.5,210.0,38.25,216.0,49.5,221.25" stroke="black" stroke-width="1" fill="none" />
<polyline points="62.25,221.25,68.25,222.75,74.25,225.75,80.25,229.5,86.25,228.0,93.75,233.25,99.75,235.5,105.75,237.0,112.5,240.75,120.0,245.25,126.0,245.25" stroke="black" stroke-width="1" fill="none" />
<polyline points="114.0,252.0,108.0,251.25" stroke="black" stroke-width="1" fill="none" />
<polyline points="108.75,250.5,113.25,256.5,113.25,261.0,112.5,267.0,112.5,273.0,111.75,279.0,111.0,285.0" stroke="black" stroke-width="1" fill="none" />
<polyline points="105.75,281.25,106.5,275.25,107.25,269.25,108.0,263.25,108.75,257.25,108.75,257.25" stroke="black" stroke-width="1" fill="none" />
<polyline points="108.75,252.0,114.75,256.5" stroke="black" stroke-width="1" fill="none" />
<polyline points="111.0,251.25,117.75,257.25,116.25,263.25,115.5,269.25,115.5,275.25,114.75,281.25" stroke="black" stroke-width="1" fill="none" />
<polyline points="121.5,269.25,126.75,263.25,129.75,260.25,123.75,261.0" stroke="black" stroke-width="1" fill="none" />
<polyline points="123.75,266.25,123.0,272.25,122.25,278.25,122.25,284.25" stroke="black" stroke-width="1" fill="none" />
<polyline points="124.5,289.5,126.0,283.5,126.75,277.5,127.5,271.5,126.75,265.5" stroke="black" stroke-width="1" fill="none" />
<polyline points="129.75,261.0,130.5,267.0,129.75,273.0,129.75,279.0,129.0,285.0" stroke="black" stroke-width="1" fill="none" />
<polyline points="133.5,291.0,135.0,285.0,135.0,279.0,135.75,273.0,138.0,267.0,135.75,261.0" stroke="black" stroke-width="1" fill="none" />
<polyline points="138.0,252.75,142.5,258.75,147.0,266.25,144.75,272.25,145.5,278.25,145.5,284.25,144.75,290.25" stroke="black" stroke-width="1" fill="none" />
<polyline points="104.25,293.25,105.75,297.0,105.0,303.0,103.5,309.0" stroke="black" stroke-width="1" fill="none" />
<polyline points="102.75,305.25,102.0,299.25" stroke="black" stroke-width="1" fill="none" />
<polyline points="93.0,278.25,93.75,272.25,94.5,266.25,95.25,260.25,96.0,254.25,91.5,248.25" stroke="black" stroke-width="1" fill="none" />
<polyline points="90.0,247.5,88.5,253.5,88.5,259.5,87.75,265.5,86.25,271.5,85.5,277.5" stroke="black" stroke-width="1" fill="none" />
<polyline points="90.0,244.5,96.0,245.25" stroke="black" stroke-width="1" fill="none" />
<polyline points="99.75,244.5,93.75,241.5,87.75,240.75" stroke="black" stroke-width="1" fill="none" />
<polyline points="89.25,242.25,96.75,248.25" stroke="black" stroke-width="1" fill="none" />
<polyline points="95.25,247.5,91.5,248.25,84.75,246.0,85.5,240.0,86.25,234.0,86.25,228.0,80.25,222.0,78.75,216.0,74.25,217.5,68.25,213.75" stroke="black" stroke-width="1" fill="none" />
<polyline points="67.5,208.5,68.25,214.5,74.25,220.5,82.5,222.75,88.5,222.0,91.5,223.5,97.5,231.75" stroke="black" stroke-width="1" fill="none" />
<polyline points="97.5,235.5,103.5,239.25,109.5,237.75,108.75,243.75,116.25,249.75,120.0,249.0,123.0,255.75,126.75,252.75,128.25,249.75,134.25,252.0,138.75,256.5,142.5,258.0,150.75,261.0" stroke="black" stroke-width="1" fill="none" />
<polyline points="142.5,241.5,136.5,237.0,130.5,232.5,124.5,228.0,118.5,222.75,112.5,218.25" stroke="black" stroke-width="1" fill="none" />
<polyline points="126.75,215.25,128.25,209.25,128.25,203.25,129.0,197.25,129.0,191.25,125.25,186.0,126.0,180.0,126.75,174.0,127.5,168.0,126.0,158.25,120.0,152.25" stroke="black" stroke-width="1" fill="none" />
<polyline points="117.75,154.5,117.0,160.5,116.25,166.5,117.0,175.5,120.75,178.5,121.5,183.0" stroke="black" stroke-width="1" fill="none" />
<polyline points="129.0,170.25,135.0,173.25" stroke="black" stroke-width="1" fill="none" />
<polyline points="132.75,171.75,137.25,177.75,139.5,186.0,138.75,192.0,136.5,198.0,134.25,199.5,134.25,205.5,133.5,211.5,132.75,217.5" stroke="black" stroke-width="1" fill="none" />
<polyline points="131.25,219.75,136.5,217.5,137.25,211.5,138.0,205.5,138.75,199.5,138.75,193.5,134.25,191.25,132.0,188.25,130.5,182.25,131.25,176.25,124.5,170.25,127.5,164.25,125.25,162.0,120.75,156.0,116.25,150.0,114.0,141.75,108.0,133.5,102.0,126.0" stroke="black" stroke-width="1" fill="none" />
<polyline points="100.5,128.25,106.5,135.75,112.5,144.0" stroke="black" stroke-width="1" fill="none" />
<polyline points="108.0,148.5,107.25,154.5,107.25,160.5,108.0,168.75,107.25,174.75,106.5,180.75,105.75,186.75,105.0,192.75,105.75,197.25" stroke="black" stroke-width="1" fill="none" />
<polyline points="108.0,207.0,102.0,203.25,96.0,198.75,90.0,193.5,84.0,189.0,78.0,183.75,72.0,179.25,66.0,174.0,60.0,168.75,54.0,164.25,48.0,159.0,42.0,154.5,36.0,149.25,30.0,144.0,24.0,139.5,18.0,135.0,12.0,129.75,6.0,124.5,0.0,120.0" stroke="black" stroke-width="1" fill="none" />
<polyline points="0.75,120.0,6.75,126.0,14.25,132.0,21.0,138.0,28.5,144.0,36.0,150.0,43.5,156.0,51.0,162.0,57.75,168.0,65.25,174.0,72.75,180.0,79.5,186.0,87.0,192.0,94.5,198.0,102.0,204.0,109.5,210.0,113.25,216.0,120.75,222.0,128.25,228.0,135.75,234.0,143.25,240.0,154.5,243.75,162.0,249.75" stroke="black" stroke-width="1" fill="none" />
<polyline points="150.0,247.5,141.0,240.75,132.75,234.75,125.25,228.75,117.0,222.75,108.0,215.25,102.0,210.75,96.0,205.5,90.0,201.0,84.0,196.5,78.0,192.0,72.0,187.5,66.0,183.0,60.0,177.75,54.0,173.25,48.0,168.75,42.0,164.25,36.0,159.0,30.0,154.5,24.0,150.0,18.0,145.5,12.0,141.0,6.0,135.75,0.0,132.0" stroke="black" stroke-width="1" fill="none" />
<polyline points="0.75,132.0,7.5,138.0,15.0,144.0,23.25,150.0,30.75,156.0,39.0,162.0,46.5,168.0,54.0,174.0,62.25,180.0,69.0,186.0,77.25,192.0,85.5,198.0,93.0,204.0,100.5,210.0,108.75,216.0,120.0,219.0,127.5,225.0,135.0,231.0,142.5,237.0,147.0,243.0,147.0,249.0,146.25,255.0,146.25,258.75,150.0,261.0,155.25,265.5,156.0,272.25,162.0,280.5,158.25,286.5,156.75,294.0,157.5,294.75" stroke="black" stroke-width="1" fill="none" />
<polyline points="141.0,238.5,135.0,233.25,129.0,228.75,123.0,223.5,117.0,218.25,108.0,210.75,102.0,206.25,96.0,201.0,90.0,196.5,84.0,192.0,78.0,186.75,72.0,182.25,66.0,177.0,60.0,172.5,54.0,167.25,48.0,162.75,42.0,157.5,36.0,153.0,30.0,147.75,24.0,143.25,18.0,138.75,12.0,133.5,6.0,129.0,0.0,124.5" stroke="black" stroke-width="1" fill="none" />
<polyline points="0.75,124.5,7.5,130.5,15.0,136.5,22.5,142.5,30.0,148.5,37.5,154.5,45.0,160.5,51.75,166.5,59.25,172.5,66.75,178.5,74.25,184.5,81.75,190.5,89.25,196.5,96.75,202.5,104.25,208.5" stroke="black" stroke-width="1" fill="none" />
<polyline points="108.0,203.25,102.0,198.0,96.0,192.75,90.0,187.5,84.0,182.25,78.0,177.75,72.0,172.5,66.0,167.25,60.0,162.0,54.0,156.75,48.0,151.5,42.0,146.25,36.0,141.75,30.0,135.75,24.0,130.5,18.0,126.0,12.0,120.75,6.0,114.75,0.0,111.0" stroke="black" stroke-width="1" fill="none" />
<polyline points="30.75,129.75,25.5,125.25,29.25,122.25,30.75,116.25,32.25,110.25,33.75,104.25,35.25,98.25,36.75,92.25,37.5,86.25,38.25,80.25,39.75,74.25,42.0,68.25,43.5,62.25,44.25,56.25,45.0,50.25,42.0,44.25,37.5,38.25,33.0,32.25,28.5,26.25,24.0,20.25,20.25,14.25,15.75,8.25,9.75,3.75" stroke="black" stroke-width="1" fill="none" />
<polyline points="12.0,0.75,13.5,3.0,10.5,5.25,13.5,11.25,18.0,17.25,19.5,23.25,22.5,29.25,26.25,35.25,31.5,41.25,34.5,44.25,38.25,50.25,36.75,58.5" stroke="black" stroke-width="1" fill="none" />
<polyline points="41.25,54.0,35.25,45.0,26.25,33.75,20.25,25.5" stroke="black" stroke-width="1" fill="none" />
<polyline points="16.5,30.75,16.5,36.75,16.5,42.75,15.0,48.75" stroke="black" stroke-width="1" fill="none" />
<polyline points="15.75,52.5,17.25,46.5,17.25,38.25" stroke="black" stroke-width="1" fill="none" />
<polyline points="18.75,51.0,20.25,45.0,18.0,49.5,12.75,48.75,12.0,48.75,11.25,42.75,12.75,36.75,15.0,30.75,19.5,28.5,13.5,26.25,7.5,24.75" stroke="black" stroke-width="1" fill="none" />
<polyline points="3.75,26.25,9.75,11.25,15.75,20.25,21.75,21.75,27.75,30.0,33.75,37.5,39.75,45.75,48.75,54.75,58.5,66.0,64.5,74.25,70.5,82.5,76.5,90.0" stroke="black" stroke-width="1" fill="none" />
<polyline points="69.75,86.25,63.75,78.0,57.75,69.75,51.75,62.25" stroke="black" stroke-width="1" fill="none" />
<polyline points="48.75,63.0,52.5,64.5,55.5,70.5,60.75,75.0,65.25,81.0,67.5,87.0,70.5,93.0,64.5,97.5,63.0,103.5,63.75,109.5,66.0,111.75" stroke="black" stroke-width="1" fill="none" />
<polyline points="60.75,116.25,60.0,122.25,58.5,128.25,57.75,134.25,56.25,140.25,55.5,146.25" stroke="black" stroke-width="1" fill="none" />
<polyline points="53.25,150.75,54.0,144.75,54.75,138.75,56.25,132.75,57.0,126.75,58.5,120.75,59.25,114.75" stroke="black" stroke-width="1" fill="none" />
<polyline points="57.75,102.75,51.75,99.0,45.75,92.25,44.25,84.0" stroke="black" stroke-width="1" fill="none" />
<polyline points="52.5,78.75,54.75,81.0,54.75,87.0,52.5,93.0,55.5,93.75" stroke="black" stroke-width="1" fill="none" />
<polyline points="63.75,90.75,63.0,96.75,61.5,102.75" stroke="black" stroke-width="1" fill="none" />
<polyline points="49.5,103.5,51.0,109.5,51.75,113.25,51.0,115.5,49.5,121.5,48.0,127.5,47.25,133.5,46.5,139.5" stroke="black" stroke-width="1" fill="none" />
<polyline points="42.0,140.25,41.25,138.0,42.0,132.0,43.5,126.0,45.0,120.0,45.75,114.0,47.25,108.0,48.0,102.0" stroke="black" stroke-width="1" fill="none" />
<polyline points="75.75,98.25,82.5,104.25,87.0,110.25,91.5,116.25,94.5,122.25,101.25,126.0,105.75,132.0,110.25,138.0,116.25,144.0,114.0,146.25,113.25,152.25,112.5,158.25,111.75,164.25,111.0,170.25,113.25,172.5,112.5,178.5,111.75,184.5,111.0,190.5,110.25,196.5" stroke="black" stroke-width="1" fill="none" />
<polyline points="139.5,203.25,140.25,209.25,139.5,215.25,138.75,221.25" stroke="black" stroke-width="1" fill="none" />
<polyline points="167.25,214.5,161.25,206.25,155.25,198.0,149.25,189.0,143.25,181.5,137.25,173.25,131.25,164.25,123.0,162.0,117.0,153.75,111.75,145.5,105.75,138.75,100.5,137.25,98.25,123.75,97.5,119.25,91.5,111.0,85.5,102.75,79.5,97.5,76.5,93.75,67.5,85.5,61.5,80.25,56.25,72.0,50.25,65.25" stroke="black" stroke-width="1" fill="none" />
<polyline points="50.25,65.25,54.0,71.25,54.0,76.5,51.75,82.5,51.0,88.5,51.0,94.5,55.5,100.5,57.0,105.0,63.0,111.75" stroke="black" stroke-width="1" fill="none" />
<polyline points="82.5,107.25,85.5,113.25,89.25,119.25,87.75,122.25,87.0,128.25,88.5,137.25" stroke="black" stroke-width="1" fill="none" />
<polyline points="102.0,139.5,101.25,145.5,100.5,151.5,105.0,157.5" stroke="black" stroke-width="1" fill="none" />
<polyline points="116.25,152.25,115.5,158.25,114.0,164.25,113.25,170.25,114.75,177.75,114.0,183.75,113.25,189.75,112.5,195.75,111.75,201.75,116.25,210.75,122.25,215.25,128.25,220.5,134.25,225.75,140.25,231.0,146.25,236.25,152.25,238.5,154.5,243.0,160.5,245.25,163.5,250.5" stroke="black" stroke-width="1" fill="none" />
<polyline points="189.0,235.5,184.5,241.5,184.5,247.5,183.75,253.5,183.75,258.0,186.75,261.75,192.75,261.75,198.75,260.25,205.5,261.0,210.75,261.75,214.5,255.0" stroke="black" stroke-width="1" fill="none" />
<polyline points="229.5,252.0,229.5,258.0" stroke="black" stroke-width="1" fill="none" />
<polyline points="249.0,239.25,255.0,239.25" stroke="black" stroke-width="1" fill="none" />
<polyline points="244.5,219.75,250.5,219.75,256.5,219.75,262.5,219.75,268.5,219.75,274.5,219.75,280.5,219.75" stroke="black" stroke-width="1" fill="none" />
<polyline points="295.5,201.75,301.5,192.75,307.5,188.25,313.5,185.25,319.5,183.0,325.5,173.25,331.5,162.0,337.5,150.75,343.5,139.5,351.75,129.75,357.75,123.0,365.25,120.0" stroke="black" stroke-width="1" fill="none" />
<polyline points="369.75,125.25,370.5,131.25" stroke="black" stroke-width="1" fill="none" />
<polyline points="357.75,123.75,359.25,129.75,360.75,135.75,361.5,141.75,362.25,147.75,363.0,153.75" stroke="black" stroke-width="1" fill="none" />
<polyline points="339.75,135.75,333.75,148.5,332.25,152.25,335.25,146.25,338.25,140.25,339.0,134.25,338.25,128.25,337.5,122.25,337.5,116.25,340.5,110.25,339.0,112.5" stroke="black" stroke-width="1" fill="none" />
<polyline points="342.0,111.0,342.0,117.0,342.0,122.25" stroke="black" stroke-width="1" fill="none" />
<polyline points="348.0,124.5,345.75,130.5,342.75,136.5,339.75,142.5,336.0,148.5,333.0,154.5,330.0,160.5,327.0,166.5,324.0,171.0,330.0,159.75,336.0,148.5,342.0,137.25,349.5,128.25,355.5,117.0,361.5,105.75,367.5,94.5,373.5,83.25,379.5,72.0,385.5,60.75,391.5,49.5,397.5,38.25,407.25,27.0,413.25,16.5,419.25,6.0" stroke="black" stroke-width="1" fill="none" />
<polyline points="414.75,5.25,408.75,17.25,399.0,27.0,393.0,38.25,387.0,49.5,381.0,61.5,375.0,73.5,369.0,84.75,363.0,96.0,357.0,108.0,351.0,120.0" stroke="black" stroke-width="1" fill="none" />
<polyline points="367.5,113.25,368.25,119.25,367.5,125.25,366.75,130.5,368.25,136.5,372.0,140.25" stroke="black" stroke-width="1" fill="none" />
<polyline points="391.5,116.25,390.75,110.25,389.25,104.25,388.5,98.25,387.75,92.25,386.25,86.25,384.75,80.25,383.25,77.25,377.25,82.5,371.25,93.75,365.25,104.25" stroke="black" stroke-width="1" fill="none" />
<polyline points="362.25,87.0,360.0,83.25,360.0,77.25,359.25,71.25,354.0,79.5" stroke="black" stroke-width="1" fill="none" />
<polyline points="357.75,69.75,355.5,75.75,354.75,81.75,354.75,87.75,356.25,93.75,357.0,99.75,356.25,105.75,353.25,111.75,350.25,117.75,346.5,123.75,344.25,125.25,342.75,131.25,348.0,123.0,354.0,109.5" stroke="black" stroke-width="1" fill="none" />
<polyline points="339.0,108.75,337.5,112.5,340.5,106.5,341.25,100.5" stroke="black" stroke-width="1" fill="none" />
<polyline points="342.0,101.25,336.0,108.0,334.5,111.75,337.5,105.75,339.75,99.75" stroke="black" stroke-width="1" fill="none" />
<polyline points="336.0,100.5,330.0,115.5,324.0,129.75,318.0,130.5,315.75,129.75,318.75,123.75,321.75,117.75,323.25,111.75,326.25,105.75,327.75,99.75,330.75,93.75,333.0,87.75,334.5,81.75,336.75,75.75,332.25,81.0" stroke="black" stroke-width="1" fill="none" />
<polyline points="336.75,75.0,339.75,75.0,342.0,81.0,342.0,87.0,339.0,93.0,336.75,99.0,334.5,105.0,332.25,111.0,329.25,117.0,327.0,123.0,324.75,129.0,322.5,135.0,326.25,141.75,325.5,147.75,326.25,153.75,327.0,159.75,325.5,165.75,326.25,163.5" stroke="black" stroke-width="1" fill="none" />
<polyline points="318.75,186.0,312.0,188.25,306.0,192.0,315.0,186.75" stroke="black" stroke-width="1" fill="none" />
<polyline points="315.0,188.25,304.5,194.25,304.5,194.25,310.5,192.0,318.0,189.0" stroke="black" stroke-width="1" fill="none" />
<polyline points="315.0,195.75,305.25,201.75,300.75,207.75,300.75,207.75,306.75,200.25,312.75,197.25" stroke="black" stroke-width="1" fill="none" />
<polyline points="314.25,202.5,303.75,208.5,302.25,214.5" stroke="black" stroke-width="1" fill="none" />
<polyline points="330.0,205.5,324.0,212.25,318.0,214.5,312.0,217.5,306.0,216.0,298.5,214.5,297.0,208.5,295.5,202.5,298.5,196.5,303.75,190.5,315.0,184.5,322.5,178.5,322.5,172.5,321.75,166.5,321.0,160.5,320.25,154.5,320.25,148.5,318.75,142.5,317.25,136.5,312.75,130.5,312.0,124.5,316.5,118.5,318.75,112.5,321.0,106.5,323.25,100.5,325.5,94.5,327.0,88.5,329.25,82.5,331.5,76.5,333.75,70.5,333.0,64.5,337.5,58.5,339.75,52.5,342.0,46.5,344.25,40.5,346.5,34.5,348.0,28.5,350.25,22.5,352.5,16.5,354.0,10.5,356.25,4.5,357.0,2.25,351.0,19.5,345.0,36.75,339.0,54.0,333.0,63.0" stroke="black" stroke-width="1" fill="none" />
<polyline points="341.25,62.25,347.25,46.5,353.25,30.0,359.25,13.5,365.25,10.5" stroke="black" stroke-width="1" fill="none" />
<polyline points="363.0,9.0,366.75,15.0" stroke="black" stroke-width="1" fill="none" />
<polyline points="369.75,9.0,369.75,3.0,368.25,0.75" stroke="black" stroke-width="1" fill="none" />
<polyline points="364.5,0.0,363.0,6.0,360.0,12.0,357.75,18.0,355.5,24.0,353.25,30.0,351.75,36.0,349.5,42.0,347.25,48.0,345.0,54.0,342.75,60.0,341.25,66.0,341.25,72.75,343.5,78.75,345.0,78.75,351.0,64.5,357.0,48.75,363.0,33.75,369.0,19.5,375.0,4.5" stroke="black" stroke-width="1" fill="none" />
<polyline points="376.5,0.0,374.25,6.0,372.0,12.0,369.75,18.0,367.5,24.0,365.25,30.0,362.25,36.0,360.0,42.0,357.75,48.0,354.75,54.0,352.5,60.0,350.25,66.0,348.0,72.0,345.75,78.0" stroke="black" stroke-width="1" fill="none" />
<polyline points="332.25,89.25,326.25,103.5,320.25,120.0" stroke="black" stroke-width="1" fill="none" />
<polyline points="312.0,124.5,318.0,113.25,324.0,96.75,330.0,79.5,336.0,72.0,333.75,78.0,331.5,84.0,329.25,90.0,327.0,96.0,324.75,102.0,322.5,108.0,324.0,104.25,330.0,88.5" stroke="black" stroke-width="1" fill="none" />
<polyline points="354.75,72.75,353.25,75.75,356.25,69.75,359.25,63.75,359.25,57.75" stroke="black" stroke-width="1" fill="none" />
<polyline points="357.75,57.0,354.75,63.0,352.5,69.0,350.25,75.0,351.0,72.75,357.0,57.75" stroke="black" stroke-width="1" fill="none" />
<polyline points="354.75,47.25,351.0,41.25" stroke="black" stroke-width="1" fill="none" />
<polyline points="357.0,39.75,359.25,34.5,358.5,28.5,357.0,26.25" stroke="black" stroke-width="1" fill="none" />
<polyline points="363.0,26.25,361.5,20.25,360.0,18.0" stroke="black" stroke-width="1" fill="none" />
<polyline points="372.75,23.25,378.75,17.25,383.25,12.0,381.0,18.0,378.75,24.0,378.75,30.0,379.5,36.0,381.0,42.0,381.75,48.0,382.5,54.0,379.5,60.0,375.75,66.0,372.75,72.0,369.75,78.0,366.75,84.0,363.75,90.0,360.75,96.0,366.0,85.5,372.0,73.5,378.0,62.25" stroke="black" stroke-width="1" fill="none" />
<polyline points="386.25,77.25,392.25,66.75,398.25,60.0,399.75,64.5,400.5,70.5,401.25,76.5,402.75,82.5,403.5,88.5,405.0,94.5,405.0,100.5,400.5,106.5,396.75,112.5,392.25,118.5,387.75,124.5,384.0,130.5,379.5,136.5,375.0,142.5,370.5,148.5,365.25,156.0,361.5,162.0,357.0,168.0,352.5,174.0,351.75,179.25,347.25,185.25,342.75,191.25,338.25,197.25,333.75,203.25,330.0,209.25,330.75,207.75,336.75,199.5,342.75,191.25,348.75,183.0,351.0,176.25,357.75,166.5,363.75,158.25,371.25,147.75,377.25,139.5,383.25,131.25,389.25,122.25,395.25,114.0,401.25,105.75,406.5,98.25,412.5,90.0,422.25,83.25,428.25,75.0,434.25,66.75,440.25,58.5,446.25,50.25,452.25,42.0,458.25,33.75,464.25,25.5,470.25,17.25,476.25,9.75,482.25,1.5" stroke="black" stroke-width="1" fill="none" />
<polyline points="483.0,0.0,479.25,6.0,474.75,12.0,470.25,18.0,465.75,24.0,461.25,30.0,456.75,36.0,452.25,42.0,447.75,48.0,443.25,54.0,439.5,60.0,435.0,66.0,430.5,72.0,426.0,78.0,421.5,84.0,423.0,75.75,429.0,67.5,435.0,58.5,441.0,50.25,447.0,42.0,453.0,33.75,459.0,25.5,465.0,17.25,471.0,9.0,477.0,0.75" stroke="black" stroke-width="1" fill="none" />
<polyline points="477.75,0.0,473.25,6.0,468.75,12.0,464.25,18.0" stroke="black" stroke-width="1" fill="none" />
<polyline points="459.0,6.0,460.5,12.0,462.0,18.0,459.75,24.0,456.0,30.0" stroke="black" stroke-width="1" fill="none" />
<polyline points="449.25,18.75,452.25,15.75,450.0,21.75,451.5,27.75,453.0,33.75,448.5,39.75,444.0,45.75,439.5,51.75,435.75,57.75,431.25,63.75,427.5,69.75,423.0,75.75,419.25,81.75,418.5,87.75,420.0,93.0,426.0,87.75,432.0,80.25,438.0,72.0,444.0,64.5,450.0,57.0,456.0,48.75,462.0,41.25,468.0,33.0,474.0,25.5,480.0,18.0,486.0,9.75,492.0,1.5" stroke="black" stroke-width="1" fill="none" />
<polyline points="493.5,0.0,489.0,6.0,484.5,12.0,480.0,18.0,475.5,24.0,471.0,30.0,465.75,36.0,461.25,42.0,456.75,48.0,452.25,54.0,447.75,60.0,443.25,66.0,438.0,72.0,433.5,78.0,429.0,84.0,424.5,90.0,421.5,96.0,422.25,102.0" stroke="black" stroke-width="1" fill="none" />
<polyline points="418.5,100.5,418.5,106.5,414.0,112.5,413.25,118.5,413.25,124.5,411.0,130.5,406.5,136.5,401.25,142.5,392.25,144.0,394.5,150.0" stroke="black" stroke-width="1" fill="none" />
<polyline points="412.5,114.0,418.5,106.5" stroke="black" stroke-width="1" fill="none" />
<polyline points="414.0,94.5,408.0,102.75,402.0,110.25,396.0,118.5,390.0,126.75,384.0,135.0,378.0,143.25,372.0,151.5,366.0,159.75,360.0,168.0,357.0,171.75,361.5,165.75,366.0,159.75,370.5,153.75,375.0,147.75,379.5,141.75,384.0,135.75,387.75,129.75,392.25,123.75,396.75,117.75,401.25,111.75,405.75,105.75,410.25,99.75,414.75,93.75,416.25,87.75" stroke="black" stroke-width="1" fill="none" />
<polyline points="414.75,87.0,410.25,93.0" stroke="black" stroke-width="1" fill="none" />
<polyline points="399.0,90.75,399.0,80.25,397.5,85.5" stroke="black" stroke-width="1" fill="none" />
<polyline points="390.0,90.75,389.25,84.75,390.0,78.75,393.0,72.75,394.5,70.5,388.5,80.25" stroke="black" stroke-width="1" fill="none" />
<polyline points="396.75,69.0,398.25,75.0,395.25,81.0,398.25,84.75,397.5,90.75,399.75,94.5,401.25,100.5" stroke="black" stroke-width="1" fill="none" />
<polyline points="438.0,84.0,443.25,92.25,449.25,87.0,455.25,80.25,461.25,72.75,467.25,66.0,473.25,57.75,479.25,56.25" stroke="black" stroke-width="1" fill="none" />
<polyline points="478.5,55.5,480.0,61.5" stroke="black" stroke-width="1" fill="none" />
<polyline points="471.0,69.75,472.5,75.75,471.75,81.75,465.75,87.75,465.75,93.75,470.25,102.0,471.75,106.5" stroke="black" stroke-width="1" fill="none" />
<polyline points="473.25,108.0,477.75,105.75,479.25,111.75,480.75,117.75,483.0,123.75" stroke="black" stroke-width="1" fill="none" />
<polyline points="481.5,132.75,488.25,126.75,495.75,120.75,501.75,117.0,510.0,111.0" stroke="black" stroke-width="1" fill="none" />
<polyline points="510.0,129.0,502.5,135.0,495.75,140.25,487.5,146.25,479.25,152.25,471.0,158.25,462.75,164.25,454.5,170.25,447.0,176.25,438.75,182.25,439.5,188.25,436.5,192.0,428.25,198.0,419.25,204.0,411.0,210.0,402.0,216.0,393.0,222.0,384.75,228.0,375.75,234.0,367.5,240.0,360.75,244.5,351.75,250.5,342.75,256.5,334.5,262.5,336.0,256.5,342.0,252.75,348.0,248.25,354.0,243.75,360.0,238.5,367.5,234.0,373.5,229.5,379.5,225.0,385.5,221.25,391.5,216.75,397.5,212.25,403.5,207.75,409.5,203.25,415.5,198.75,421.5,194.25,427.5,190.5,433.5,185.25,442.5,179.25,448.5,175.5,454.5,170.25,460.5,165.75,466.5,161.25,472.5,157.5,478.5,153.0,484.5,148.5,490.5,144.0,496.5,139.5,502.5,135.0,508.5,130.5" stroke="black" stroke-width="1" fill="none" />
<polyline points="510.0,141.75,501.75,147.75,492.75,153.75,483.75,159.75,475.5,165.75,466.5,171.75,457.5,177.75,449.25,183.75,440.25,189.0,446.25,186.0,452.25,181.5,458.25,177.75,464.25,173.25,470.25,169.5,476.25,165.0,482.25,161.25,488.25,156.75,494.25,153.0,500.25,148.5,506.25,144.75" stroke="black" stroke-width="1" fill="none" />
<polyline points="503.25,171.0,509.25,168.0,501.75,169.5,492.75,175.5,482.25,181.5,472.5,187.5,462.0,193.5,455.25,198.0,461.25,194.25,467.25,190.5,473.25,186.75,479.25,183.75,485.25,180.0,491.25,176.25,497.25,172.5,503.25,169.5,509.25,165.75,503.25,171.75,504.75,177.75,506.25,183.75" stroke="black" stroke-width="1" fill="none" />
<polyline points="435.0,184.5,427.5,190.5,418.5,196.5,410.25,202.5,402.75,208.5,394.5,214.5,386.25,220.5,378.0,226.5,369.75,232.5,363.0,238.5,360.75,239.25,351.75,245.25,343.5,251.25,335.25,257.25,331.5,263.25,336.0,261.75,342.0,257.25,348.0,253.5,354.0,249.0,360.0,245.25,366.75,240.75,372.75,236.25,378.75,232.5,384.75,228.0,390.75,223.5,396.75,219.75,402.75,215.25,408.75,211.5,414.75,207.0,420.75,203.25,426.75,198.75,432.75,195.0" stroke="black" stroke-width="1" fill="none" />
<polyline points="432.0,190.5,426.0,194.25,420.0,198.75,414.0,203.25,408.0,207.75,402.0,212.25,403.5,210.75,411.75,204.75,419.25,198.75,428.25,192.75,435.0,186.75" stroke="black" stroke-width="1" fill="none" />
<polyline points="438.0,207.75,427.5,213.75,418.5,219.75,407.25,225.75,403.5,228.0,409.5,225.0,415.5,221.25,421.5,218.25,427.5,213.75,433.5,210.75" stroke="black" stroke-width="1" fill="none" />
<polyline points="495.0,264.0,501.0,261.75,507.0,261.0" stroke="black" stroke-width="1" fill="none" />
<polyline points="507.0,258.0,501.0,259.5,495.0,261.75,493.5,264.75,503.25,258.75" stroke="black" stroke-width="1" fill="none" />
<polyline points="505.5,114.0,499.5,118.5,492.75,123.0,486.75,128.25,480.75,133.5,474.75,138.0,471.75,137.25,475.5,137.25,479.25,131.25,477.0,125.25,475.5,119.25,474.0,113.25,474.0,107.25,473.25,104.25,476.25,98.25" stroke="black" stroke-width="1" fill="none" />
<polyline points="474.75,90.75,468.75,97.5,465.0,102.0,470.25,96.0,475.5,90.0" stroke="black" stroke-width="1" fill="none" />
<polyline points="472.5,90.0,466.5,95.25,471.75,90.75,475.5,84.75" stroke="black" stroke-width="1" fill="none" />
<polyline points="471.0,82.5,465.0,88.5" stroke="black" stroke-width="1" fill="none" />
<polyline points="468.0,44.25,462.0,51.75,456.0,59.25,450.0,66.75,444.0,74.25,438.0,82.5,432.0,89.25,426.0,96.75,415.5,101.25,409.5,109.5,403.5,117.0,397.5,125.25,391.5,132.75,385.5,140.25,379.5,148.5,373.5,156.0,367.5,163.5,361.5,171.75,354.75,183.0,348.75,188.25,342.75,196.5,336.75,204.0,330.75,212.25,323.25,222.0,319.5,222.0,318.0,231.0,312.0,240.0,306.0,249.0,300.75,246.0,298.5,238.5,305.25,235.5,309.0,229.5,312.75,223.5,321.0,221.25,324.75,219.0,328.5,215.25,333.0,209.25,337.5,203.25,342.0,197.25,346.5,191.25,351.0,185.25,356.25,182.25,357.75,176.25,363.0,170.25,367.5,164.25,372.0,158.25,376.5,152.25,381.0,146.25,385.5,140.25,390.75,134.25,395.25,128.25,399.75,122.25,404.25,116.25,408.75,110.25,413.25,104.25,423.75,100.5,428.25,94.5,432.75,88.5,438.0,82.5,442.5,76.5,447.0,70.5,452.25,64.5,456.75,58.5,462.0,52.5,466.5,46.5,476.25,41.25,475.5,35.25,480.0,29.25,485.25,23.25,489.75,17.25,494.25,11.25,499.5,5.25,504.0,0.75,498.0,6.75,492.0,14.25,486.0,21.75,480.0,29.25,474.0,36.0" stroke="black" stroke-width="1" fill="none" />
<polyline points="477.75,42.75,476.25,48.75,477.0,54.75,471.0,60.75,466.5,66.75,461.25,72.75,456.0,78.75,450.75,84.75,444.75,90.75,443.25,92.25,445.5,98.25" stroke="black" stroke-width="1" fill="none" />
<polyline points="397.5,52.5,397.5,58.5,393.75,64.5,390.0,70.5,387.0,76.5,378.75,80.25,375.75,86.25,372.0,92.25,369.0,98.25,365.25,104.25,367.5,110.25,366.0,116.25,364.5,122.25,361.5,128.25,362.25,134.25" stroke="black" stroke-width="1" fill="none" />
<polyline points="328.5,131.25,327.0,137.25,328.5,140.25,329.25,146.25,330.0,152.25" stroke="black" stroke-width="1" fill="none" />
<polyline points="318.0,136.5,312.0,132.0" stroke="black" stroke-width="1" fill="none" />
<polyline points="327.0,130.5,324.0,136.5,324.0,142.5,328.5,130.5" stroke="black" stroke-width="1" fill="none" />
<polyline points="342.75,187.5,336.75,195.75,334.5,194.25,333.75,188.25,333.0,182.25,327.75,178.5,325.5,174.0,328.5,168.0,331.5,162.0,334.5,156.0,338.25,150.0,341.25,144.0,344.25,138.0,347.25,132.0,353.25,126.75,351.0,120.75,354.0,114.75,357.0,108.75,360.0,102.75,363.0,96.75,366.0,90.75,369.0,84.75,372.0,78.75,375.75,72.75,378.75,66.75,381.75,60.75,384.75,54.75,387.75,48.75,390.75,42.75,393.75,36.75,396.75,30.75,400.5,24.75,402.0,18.75,408.0,10.5,411.0,4.5,411.75,2.25,405.75,14.25" stroke="black" stroke-width="1" fill="none" />
<polyline points="403.5,12.0,409.5,0.75,406.5,5.25,404.25,11.25,403.5,17.25,398.25,22.5,395.25,28.5,392.25,34.5,390.0,35.25,396.0,26.25" stroke="black" stroke-width="1" fill="none" />
<polyline points="386.25,21.75,383.25,33.75" stroke="black" stroke-width="1" fill="none" />
<polyline points="378.0,24.75,384.0,11.25,386.25,16.5,386.25,22.5,387.75,24.75,386.25,30.75,387.75,33.75,389.25,39.75,386.25,45.75" stroke="black" stroke-width="1" fill="none" />
<polyline points="401.25,39.0,395.25,49.5,393.0,55.5,389.25,63.0,392.25,57.0,395.25,50.25,398.25,44.25,402.0,38.25,404.25,32.25,409.5,24.75,412.5,18.75,415.5,12.75,419.25,6.75,421.5,0.75,427.5,0.0" stroke="black" stroke-width="1" fill="none" />
<polyline points="429.75,0.0,426.75,6.0,425.25,4.5,428.25,3.0,435.75,0.75" stroke="black" stroke-width="1" fill="none" />
<polyline points="435.75,0.0,432.0,6.0,433.5,12.0,434.25,18.0,435.75,24.0,437.25,30.0" stroke="black" stroke-width="1" fill="none" />
<polyline points="447.0,18.75,450.75,12.75,450.75,6.75" stroke="black" stroke-width="1" fill="none" />
<polyline points="451.5,0.75,445.5,10.5,441.0,18.0,444.0,12.0,448.5,6.0,451.5,0.0" stroke="black" stroke-width="1" fill="none" />
<polyline points="450.0,0.0,446.25,6.0,444.75,7.5" stroke="black" stroke-width="1" fill="none" />
<polyline points="442.5,5.25,441.75,6.0,446.25,0.0" stroke="black" stroke-width="1" fill="none" />
<polyline points="423.0,0.75,425.25,6.75,428.25,12.75,429.75,18.75,431.25,24.75,432.75,30.75,434.25,36.75,435.75,42.75,437.25,48.75" stroke="black" stroke-width="1" fill="none" />
<polyline points="417.75,0.0,414.75,6.0,411.75,12.0,408.75,18.0,406.5,24.0,406.5,30.0,400.5,32.25,397.5,38.25,394.5,44.25,391.5,50.25,387.75,56.25,384.75,62.25,381.75,68.25,378.75,74.25,375.0,80.25,372.0,86.25,369.0,92.25,366.0,98.25,362.25,104.25,359.25,110.25,356.25,116.25,353.25,122.25,349.5,128.25,348.75,135.0,345.75,141.0,347.25,146.25,348.0,151.5,343.5,157.5,342.0,163.5,342.75,169.5,343.5,175.5,344.25,181.5,342.75,187.5,338.25,193.5" stroke="black" stroke-width="1" fill="none" />
<polyline points="349.5,198.0,346.5,205.5" stroke="black" stroke-width="1" fill="none" />
<polyline points="337.5,214.5,338.25,220.5,339.0,226.5,339.75,232.5,340.5,238.5" stroke="black" stroke-width="1" fill="none" />
<polyline points="325.5,205.5,324.0,199.5,324.75,193.5" stroke="black" stroke-width="1" fill="none" />
<polyline points="190.5,236.25,193.5,242.25,193.5,248.25,193.5,254.25,194.25,256.5,193.5,254.25,199.5,261.75" stroke="black" stroke-width="1" fill="none" />
<polyline points="149.25,186.0,143.25,177.0,137.25,168.75,131.25,160.5,125.25,152.25,118.5,142.5,112.5,135.0,106.5,126.75,100.5,117.75,94.5,109.5,88.5,101.25,82.5,93.0,76.5,84.75,70.5,75.75,64.5,67.5,58.5,59.25,52.5,51.0,46.5,42.75,40.5,33.75,34.5,25.5,28.5,17.25,22.5,9.0,16.5,0.75" stroke="black" stroke-width="1" fill="none" />
<polyline points="15.75,0.0,19.5,6.0,24.0,12.0,28.5,18.0,32.25,24.0,36.75,30.0,41.25,36.0,45.75,42.0,49.5,48.0,54.0,54.0,58.5,60.0,63.0,66.0,66.75,72.0,71.25,78.0,75.75,84.0,79.5,90.0,84.0,96.0,88.5,102.0,93.0,108.0,96.75,114.0,101.25,120.0,105.75,126.0,110.25,132.0,114.0,138.0,123.0,145.5,127.5,151.5,132.0,157.5,135.75,163.5,140.25,169.5,144.0,175.5,148.5,181.5,157.5,186.75,162.0,189.75,165.75,195.75,169.5,201.75,174.0,207.75,171.75,213.75,173.25,219.75,176.25,222.0,174.0,231.0,174.0,237.0,173.25,243.0,173.25,249.75,173.25,255.0,171.75,261.0,171.0,267.75,171.0,273.75,171.0,279.75,170.25,285.75,170.25,291.75,169.5,297.75,167.25,299.25,171.75,300.75" stroke="black" stroke-width="1" fill="none" />
<polyline points="102.0,241.5,96.0,237.75,90.0,234.75" stroke="black" stroke-width="1" fill="none" />
<polyline points="90.0,234.75,99.75,240.75" stroke="black" stroke-width="1" fill="none" />
<polyline points="92.25,241.5,100.5,247.5,99.75,253.5,99.0,259.5,98.25,265.5,97.5,271.5,96.75,277.5,98.25,278.25,96.0,286.5" stroke="black" stroke-width="1" fill="none" />
<polyline points="75.75,240.75,75.75,237.75,69.75,234.75,63.75,231.0" stroke="black" stroke-width="1" fill="none" />
<polyline points="63.0,231.0,64.5,237.0,63.75,243.0,63.0,249.0,61.5,255.0,60.75,261.0,60.0,267.0,58.5,273.0,62.25,272.25,63.0,274.5" stroke="black" stroke-width="1" fill="none" />
<polyline points="70.5,237.75,64.5,236.25" stroke="black" stroke-width="1" fill="none" />
<polyline points="66.75,236.25,72.75,242.25,72.0,248.25,71.25,254.25,70.5,260.25,69.0,266.25,69.0,272.25,80.25,278.25,91.5,281.25,96.75,282.75,102.75,284.25" stroke="black" stroke-width="1" fill="none" />
<polyline points="54.75,271.5,49.5,270.0,43.5,268.5,37.5,267.0,31.5,265.5,25.5,264.0,19.5,262.5,14.25,261.0,5.25,267.75,1.5,258.0,0.75,252.0" stroke="black" stroke-width="1" fill="none" />
<polyline points="2.25,258.0,8.25,259.5" stroke="black" stroke-width="1" fill="none" />
<polyline points="6.0,268.5,4.5,274.5,3.0,280.5,0.75,286.5,2.25,294.0" stroke="black" stroke-width="1" fill="none" />
<polyline points="57.75,238.5,58.5,232.5,59.25,226.5,60.0,220.5,60.0,214.5,64.5,208.5,63.0,211.5,57.0,210.0,51.0,207.0,45.0,203.25,39.0,199.5,33.0,195.75,27.0,195.75" stroke="black" stroke-width="1" fill="none" />
<polyline points="27.0,195.75,37.5,201.75,48.0,207.75" stroke="black" stroke-width="1" fill="none" />
<polyline points="52.5,210.0,46.5,206.25,40.5,202.5,34.5,199.5,28.5,195.75" stroke="black" stroke-width="1" fill="none" />
<polyline points="28.5,194.25,39.0,200.25,49.5,206.25" stroke="black" stroke-width="1" fill="none" />
<polyline points="42.0,210.75,36.0,207.75,30.0,206.25,24.0,205.5" stroke="black" stroke-width="1" fill="none" />
<polyline points="22.5,203.25,21.75,209.25,21.0,215.25,22.5,216.75,33.0,217.5,45.0,223.5,44.25,229.5,41.25,231.75" stroke="black" stroke-width="1" fill="none" />
<polyline points="63.0,231.0,69.0,231.0,75.0,234.75" stroke="black" stroke-width="1" fill="none" />
<polyline points="81.0,235.5,75.0,231.75,69.0,228.75,63.0,225.75" stroke="black" stroke-width="1" fill="none" />
<polyline points="64.5,227.25,72.0,233.25,81.75,237.0" stroke="black" stroke-width="1" fill="none" />
<polyline points="88.5,234.75,87.75,240.75,87.0,246.75,86.25,252.75,85.5,258.75,84.75,264.75,83.25,270.75,82.5,276.75,83.25,282.75,86.25,291.75,84.0,297.75,84.75,298.5" stroke="black" stroke-width="1" fill="none" />
<polyline points="147.75,294.75,142.5,292.5,135.75,292.5,129.0,291.0,119.25,286.5,113.25,285.75,106.5,285.75,103.5,277.5,104.25,271.5,105.0,265.5,105.0,259.5,106.5,253.5,106.5,247.5,107.25,241.5,102.75,235.5,101.25,229.5" stroke="black" stroke-width="1" fill="none" />
<polyline points="92.25,224.25,94.5,230.25,95.25,234.75,103.5,240.75" stroke="black" stroke-width="1" fill="none" />
<polyline points="67.5,228.75,78.75,234.75,78.0,240.75,77.25,246.75,76.5,252.75,75.0,258.75,74.25,264.75,73.5,270.75,70.5,272.25,75.75,273.75,81.75,278.25" stroke="black" stroke-width="1" fill="none" />
<polyline points="75.75,227.25,64.5,221.25" stroke="black" stroke-width="1" fill="none" />
<polyline points="32.25,238.5,32.25,243.75,30.75,242.25,26.25,236.25,28.5,225.75,30.0,219.75,27.0,215.25,29.25,208.5,23.25,213.0" stroke="black" stroke-width="1" fill="none" />
<polyline points="12.0,201.75,6.0,199.5" stroke="black" stroke-width="1" fill="none" />
<polyline points="0.0,201.0,3.0,197.25,5.25,203.25,3.75,209.25,3.0,215.25,1.5,221.25" stroke="black" stroke-width="1" fill="none" />
<polyline points="12.0,200.25,6.0,195.75,0.0,193.5" stroke="black" stroke-width="1" fill="none" />
<polyline points="0.75,193.5,10.5,199.5" stroke="black" stroke-width="1" fill="none" />
<polyline points="18.0,190.5,12.0,191.25,6.0,188.25,0.0,185.25" stroke="black" stroke-width="1" fill="none" />
<polyline points="0.75,185.25,10.5,191.25" stroke="black" stroke-width="1" fill="none" />
<polyline points="12.0,186.0,6.0,183.0,0.0,179.25" stroke="black" stroke-width="1" fill="none" />
<polyline points="0.75,177.75,6.75,183.75" stroke="black" stroke-width="1" fill="none" />
<polyline points="4.5,180.0,15.0,186.0,24.75,190.5,30.75,185.25,36.75,195.0,42.75,198.75" stroke="black" stroke-width="1" fill="none" />
<polyline points="30.0,185.25,22.5,191.25" stroke="black" stroke-width="1" fill="none" />
<polyline points="23.25,180.75,17.25,183.75,11.25,180.0,5.25,172.5" stroke="black" stroke-width="1" fill="none" />
<polyline points="0.0,168.0,4.5,168.75,6.0,174.75,11.25,180.75" stroke="black" stroke-width="1" fill="none" />
<polyline points="0.0,177.0,6.0,180.0,12.0,183.75,18.0,187.5,23.25,183.0" stroke="black" stroke-width="1" fill="none" />
<polyline points="102.75,195.0,101.25,189.0,102.75,183.0,103.5,177.0,103.5,171.0,104.25,165.0,104.25,159.75,105.75,151.5,107.25,145.5,105.75,139.5,105.75,135.75,101.25,129.75" stroke="black" stroke-width="1" fill="none" />
<polyline points="120.0,129.0,114.0,119.25,108.0,110.25,102.0,101.25,96.0,92.25,90.0,82.5,84.0,74.25,78.0,64.5,72.0,55.5,66.0,46.5,60.0,36.75,54.0,27.75,48.0,18.75,42.0,9.75,36.0,0.75" stroke="black" stroke-width="1" fill="none" />
<polyline points="35.25,0.0,39.0,6.0,42.75,12.0,46.5,18.0,51.0,24.0,54.75,30.0,58.5,36.0,62.25,42.0,66.75,48.0,70.5,54.0,74.25,60.0,75.75,66.0,80.25,72.0,84.0,78.0,87.75,84.0,91.5,90.0,96.0,96.0,99.75,102.0,103.5,108.0,107.25,114.0,111.75,120.0,115.5,126.0,123.0,133.5,120.0,139.5,126.75,143.25,130.5,149.25,135.0,155.25,138.75,161.25,142.5,167.25,146.25,173.25,150.75,179.25,156.0,183.75,153.0,191.25,156.75,197.25,161.25,203.25,165.75,209.25,165.75,213.0,163.5,219.0,162.75,225.0,162.0,231.0,161.25,237.0,161.25,243.0,166.5,248.25,170.25,258.75,169.5,264.75,169.5,270.75,167.25,276.75,167.25,282.75,165.0,288.75,164.25,297.0,159.75,297.0" stroke="black" stroke-width="1" fill="none" />
<polyline points="174.75,212.25,167.25,210.75,157.5,204.0,153.75,199.5,145.5,203.25,144.75,203.25,142.5,197.25,144.75,191.25,146.25,189.75,141.75,183.75" stroke="black" stroke-width="1" fill="none" />
<polyline points="141.0,182.25,131.25,171.75" stroke="black" stroke-width="1" fill="none" />
<polyline points="131.25,169.5,133.5,175.5,133.5,181.5,132.75,187.5,133.5,192.75,141.0,189.0" stroke="black" stroke-width="1" fill="none" />
<polyline points="143.25,182.25,147.75,188.25,147.75,194.25,149.25,197.25,147.75,203.25,147.75,210.0,147.0,216.0,146.25,222.0,146.25,228.0" stroke="black" stroke-width="1" fill="none" />
<polyline points="124.5,210.0,125.25,204.0,126.0,198.0,126.75,192.0,127.5,186.0,127.5,180.0,129.0,174.0,129.75,168.0" stroke="black" stroke-width="1" fill="none" />
<polyline points="123.0,167.25,122.25,173.25,120.0,182.25,119.25,188.25,118.5,194.25,117.75,200.25,117.0,206.25" stroke="black" stroke-width="1" fill="none" />
<polyline points="122.25,211.5,119.25,209.25,120.75,203.25,121.5,197.25,122.25,191.25,122.25,185.25,120.75,179.25,120.75,171.0,121.5,165.0,120.75,159.0" stroke="black" stroke-width="1" fill="none" />
<polyline points="119.25,157.5,118.5,163.5,117.75,169.5,117.0,176.25,116.25,182.25,115.5,188.25,114.75,194.25,114.0,200.25,113.25,206.25,117.75,212.25,124.5,218.25,131.25,224.25,138.75,230.25,145.5,236.25" stroke="black" stroke-width="1" fill="none" />
<polyline points="141.75,162.0,135.75,153.0,129.75,143.25,123.0,135.75,117.0,135.75,111.0,127.5,105.75,120.0,99.75,111.0,93.75,102.0,87.75,93.0,81.75,84.0,75.75,75.0,69.75,66.75" stroke="black" stroke-width="1" fill="none" />
<polyline points="69.75,66.75,72.75,72.75,77.25,78.75,81.75,84.75,85.5,90.75,88.5,96.75,93.75,102.75,98.25,108.75,102.0,114.75,105.75,120.75,110.25,127.5,115.5,133.5,121.5,141.75,125.25,140.25,131.25,149.25,137.25,158.25,143.25,167.25,149.25,176.25,156.0,186.75,162.0,196.5,168.0,205.5,173.25,206.25,179.25,213.75" stroke="black" stroke-width="1" fill="none" />
<polyline points="190.5,267.0,184.5,267.0,178.5,267.75,172.5,269.25,162.75,270.75,166.5,266.25,166.5,260.25,160.5,254.25,153.0,248.25,149.25,245.25,149.25,238.5,149.25,232.5,150.0,226.5,150.0,220.5,150.75,214.5,151.5,208.5,155.25,202.5,153.75,196.5,153.0,195.0,147.75,185.25,144.0,179.25,139.5,173.25,135.0,167.25,131.25,161.25,126.75,155.25,122.25,149.25,121.5,143.25,124.5,137.25" stroke="black" stroke-width="1" fill="none" />
<polyline points="128.25,71.25,122.25,60.75,116.25,45.75,108.75,31.5,102.75,13.5,96.75,7.5,95.25,11.25" stroke="black" stroke-width="1" fill="none" />
<polyline points="95.25,3.75,101.25,8.25,102.0,12.75,104.25,18.75,106.5,24.75,108.0,30.75,110.25,36.75,112.5,42.75,114.75,48.75,115.5,54.75,118.5,60.75,121.5,66.75,123.75,72.75" stroke="black" stroke-width="1" fill="none" />
<polyline points="123.0,69.75,117.0,57.0,111.0,39.0,106.5,31.5,104.25,25.5,102.0,19.5,100.5,13.5,100.5,7.5,99.0,1.5,93.0,0.75" stroke="black" stroke-width="1" fill="none" />
<polyline points="90.75,0.75,93.75,8.25,96.75,14.25,98.25,15.0,100.5,21.0" stroke="black" stroke-width="1" fill="none" />
<polyline points="107.25,18.0,101.25,0.75" stroke="black" stroke-width="1" fill="none" />
<polyline points="101.25,0.0,103.5,6.0,105.0,12.0,107.25,18.0,108.75,24.0,111.0,30.0,112.5,36.0,114.75,42.0,117.0,48.0,118.5,54.0,121.5,60.0,124.5,66.0,130.5,72.0,124.5,78.0" stroke="black" stroke-width="1" fill="none" />
<polyline points="126.75,75.0,120.75,74.25,114.75,62.25,108.75,49.5,102.75,36.75,96.75,24.75,90.75,12.75,84.75,0.75" stroke="black" stroke-width="1" fill="none" />
<polyline points="84.0,0.0,87.0,6.0,90.0,12.0,92.25,16.5,95.25,22.5,98.25,28.5,101.25,34.5,104.25,40.5,107.25,46.5,109.5,52.5,109.5,58.5,111.75,64.5,114.75,70.5,117.75,76.5,117.0,86.25,117.75,92.25,117.0,98.25,116.25,104.25,115.5,110.25" stroke="black" stroke-width="1" fill="none" />
<polyline points="97.5,63.0,96.75,69.0,96.0,75.0,95.25,81.0,96.75,87.0,101.25,93.0,105.0,99.0,108.75,105.0,111.75,111.0,115.5,117.0,120.0,123.0,123.0,129.0,128.25,132.0,128.25,136.5,132.0,142.5,135.75,148.5,136.5,154.5,141.75,157.5,141.75,162.0,145.5,164.25,150.0,170.25,153.75,176.25,154.5,182.25,156.0,187.5,159.75,193.5,163.5,199.5,167.25,204.75,171.0,207.0,174.75,212.25,174.75,218.25,177.0,218.25,183.0,215.25,189.75,219.75,195.75,219.0,201.75,220.5,207.75,220.5,213.75,219.75,219.75,219.75,225.75,219.75,231.75,219.75,237.75,219.75" stroke="black" stroke-width="1" fill="none" />
<polyline points="104.25,47.25,98.25,36.0,92.25,24.75" stroke="black" stroke-width="1" fill="none" />
<polyline points="90.0,34.5,93.75,40.5,96.0,46.5,94.5,51.0,98.25,57.0,102.0,57.75,99.75,59.25,99.75,65.25" stroke="black" stroke-width="1" fill="none" />
<polyline points="111.75,49.5,105.75,37.5,99.75,24.75,93.75,12.0,87.75,0.75" stroke="black" stroke-width="1" fill="none" />
<polyline points="87.0,0.0,90.0,6.0,93.0,12.0,96.0,18.0,99.0,24.0,102.0,30.0,105.0,36.0,108.0,42.0,110.25,48.0,113.25,54.0,112.5,65.25,118.5,76.5,124.5,81.0,130.5,78.0" stroke="black" stroke-width="1" fill="none" />
<polyline points="101.25,45.75,95.25,34.5,91.5,23.25,85.5,15.0,79.5,3.75" stroke="black" stroke-width="1" fill="none" />
<polyline points="79.5,0.0,82.5,6.0,85.5,12.0,89.25,18.0,92.25,25.5,96.0,31.5,99.0,37.5,102.0,43.5,105.0,49.5,108.75,55.5,114.75,63.0,117.75,69.0,120.75,75.0,123.75,81.0,122.25,87.0,121.5,93.0,120.75,99.0,120.0,105.0,119.25,111.0,118.5,117.0" stroke="black" stroke-width="1" fill="none" />
<polyline points="68.25,41.25,64.5,35.25,63.75,29.25,65.25,23.25,66.0,17.25,67.5,11.25,70.5,6.0,67.5,0.0,67.5,0.75" stroke="black" stroke-width="1" fill="none" />
<polyline points="63.75,0.0,62.25,6.0,60.75,12.0,59.25,18.0,57.75,24.75" stroke="black" stroke-width="1" fill="none" />
<polyline points="44.25,30.0,48.0,36.0,51.0,40.5,54.0,46.5,59.25,52.5" stroke="black" stroke-width="1" fill="none" />
<polyline points="56.25,47.25,50.25,38.25,44.25,30.0" stroke="black" stroke-width="1" fill="none" />
<polyline points="48.0,50.25,52.5,56.25,54.75,62.25,59.25,68.25,63.75,74.25,68.25,80.25,72.75,86.25,75.0,92.25,74.25,98.25,73.5,104.25,72.0,110.25,70.5,116.25,69.75,122.25,69.0,128.25,67.5,134.25,66.75,140.25,65.25,146.25,64.5,152.25,62.25,158.25,72.0,167.25" stroke="black" stroke-width="1" fill="none" />
<polyline points="37.5,75.0,31.5,70.5,26.25,63.75,27.75,57.75,29.25,51.75,30.0,48.75" stroke="black" stroke-width="1" fill="none" />
<polyline points="31.5,49.5,31.5,55.5,30.0,61.5,29.25,67.5,33.75,73.5" stroke="black" stroke-width="1" fill="none" />
<polyline points="31.5,75.75,25.5,68.25,19.5,61.5,13.5,54.75,7.5,48.0,1.5,41.25" stroke="black" stroke-width="1" fill="none" />
<polyline points="2.25,39.75,7.5,45.75" stroke="black" stroke-width="1" fill="none" />
<polyline points="9.0,44.25,4.5,38.25,8.25,29.25,4.5,31.5" stroke="black" stroke-width="1" fill="none" />
<polyline points="3.0,36.0,9.0,44.25" stroke="black" stroke-width="1" fill="none" />
<polyline points="6.0,43.5,0.0,40.5" stroke="black" stroke-width="1" fill="none" />
<polyline points="9.75,64.5,9.75,70.5,7.5,76.5,12.75,66.75" stroke="black" stroke-width="1" fill="none" />
<polyline points="12.75,66.75,13.5,72.75,11.25,78.75,9.75,84.75,8.25,90.75,6.0,96.75,4.5,102.75,3.75,106.5" stroke="black" stroke-width="1" fill="none" />
<polyline points="15.0,117.0,15.0,111.0,16.5,105.0,18.0,99.0,19.5,93.0,21.0,87.0,22.5,81.0,25.5,75.0" stroke="black" stroke-width="1" fill="none" />
<polyline points="11.25,69.0,9.75,75.0,6.75,81.0,5.25,87.0,2.25,93.0,1.5,99.0" stroke="black" stroke-width="1" fill="none" />
<polyline points="38.25,69.0,39.0,63.0,35.25,57.0,34.5,51.0" stroke="black" stroke-width="1" fill="none" />
<polyline points="51.0,53.25,45.0,47.25,39.0,39.0,33.0,31.5,27.0,23.25,21.0,15.0,15.0,6.75" stroke="black" stroke-width="1" fill="none" />
<polyline points="11.25,8.25,17.25,15.75" stroke="black" stroke-width="1" fill="none" />
<polyline points="9.75,12.0,13.5,18.0,21.0,21.0,25.5,27.75,30.0,33.75,33.75,39.75,39.0,45.75,42.75,51.75,50.25,60.0,48.75,66.0,47.25,72.0,45.75,78.0,44.25,84.0,43.5,90.0,42.75,96.0,41.25,102.0,39.75,108.0,38.25,114.0,36.75,120.0,36.0,126.0,34.5,132.0" stroke="black" stroke-width="1" fill="none" />
<polyline points="89.25,15.0,83.25,6.75,77.25,0.75" stroke="black" stroke-width="1" fill="none" />
<polyline points="77.25,0.0,80.25,6.0,83.25,12.0,86.25,18.0,87.0,22.5,84.0,26.25,86.25,32.25,84.75,38.25,84.0,44.25,82.5,50.25,81.75,56.25" stroke="black" stroke-width="1" fill="none" />
<polyline points="51.0,6.0,51.75,0.0" stroke="black" stroke-width="1" fill="none" />
<polyline points="376.5,11.25,375.75,24.0,378.75,18.0,381.0,12.0,384.0,6.0,386.25,0.0" stroke="black" stroke-width="1" fill="none" />
<polyline points="381.0,0.0,378.75,6.0,376.5,12.0,374.25,18.0,372.75,24.0,375.75,30.0,377.25,36.0,378.0,42.0,378.75,48.0,380.25,54.0" stroke="black" stroke-width="1" fill="none" />
<polyline points="0.0,64.0,512.0,64.0" stroke="black" stroke-width="1" fill="none" />
</svg>