<svg xmlns="http://www.w3.org/2000/svg" height="425px" width="490px" version="1.1"><polyline points="167.0,10.0,175.0,12.0,168.0,17.0,170.0,22.0,171.0,26.0,166.0,34.0,161.0,42.0,150.0,47.0,148.0,55.0,154.0,57.0,154.0,65.0,153.0,71.0,158.0,75.0,152.0,82.0,144.0,87.0,145.0,91.0,151.0,94.0,151.0,90.0,149.0,98.0,163.0,93.0,168.0,99.0,169.0,97.0" stroke="black" stroke-width="1" fill="none" />
<polyline points="174.0,107.0,182.0,112.0,184.0,105.0,192.0,94.0" stroke="black" stroke-width="1" fill="none" />
<polyline points="188.0,96.0,196.0,86.0,198.0,87.0,210.0,89.0,218.0,87.0,223.0,91.0,231.0,90.0,242.0,86.0,250.0,82.0,257.0,84.0,265.0,78.0" stroke="black" stroke-width="1" fill="none" />
<polyline points="267.0,74.0,269.0,82.0,264.0,91.0,269.0,95.0,255.0,98.0,244.0,106.0,244.0,112.0,237.0,120.0,239.0,128.0,238.0,137.0,247.0,136.0,257.0,140.0,260.0,145.0,268.0,150.0,281.0,150.0,289.0,150.0,292.0,157.0,300.0,156.0,308.0,154.0,311.0,153.0,312.0,153.0,320.0,153.0,324.0,146.0,332.0,146.0,335.0,142.0,341.0,131.0,343.0,141.0,350.0,139.0,350.0,142.0,355.0,136.0,359.0,135.0,367.0,132.0,372.0,133.0,380.0,136.0" stroke="black" stroke-width="1" fill="none" />
<polyline points="385.0,134.0,384.0,142.0" stroke="black" stroke-width="1" fill="none" />
<polyline points="367.0,135.0,361.0,145.0,355.0,156.0,351.0,163.0,355.0,165.0,351.0,171.0,345.0,176.0,355.0,175.0,361.0,178.0,363.0,184.0,365.0,187.0,360.0,198.0,364.0,206.0,359.0,209.0,363.0,211.0,368.0,203.0,376.0,195.0,378.0,202.0,384.0,208.0,383.0,223.0,386.0,230.0,394.0,229.0,402.0,232.0,411.0,226.0,413.0,229.0,423.0,231.0" stroke="black" stroke-width="1" fill="none" />
<polyline points="419.0,218.0,411.0,214.0" stroke="black" stroke-width="1" fill="none" />
<polyline points="422.0,208.0,425.0,201.0,426.0,202.0,424.0,211.0,433.0,220.0,437.0,224.0,440.0,219.0" stroke="black" stroke-width="1" fill="none" />
<polyline points="440.0,225.0,433.0,220.0,435.0,212.0" stroke="black" stroke-width="1" fill="none" />
<polyline points="449.0,201.0,441.0,193.0,433.0,190.0,425.0,200.0,417.0,204.0,419.0,209.0,411.0,208.0,405.0,199.0,395.0,192.0,393.0,195.0,385.0,196.0,377.0,197.0" stroke="black" stroke-width="1" fill="none" />
<polyline points="371.0,204.0,369.0,212.0,374.0,212.0,383.0,220.0,379.0,230.0,386.0,228.0,396.0,224.0,404.0,225.0,415.0,219.0,425.0,210.0,433.0,209.0,438.0,218.0" stroke="black" stroke-width="1" fill="none" />
<polyline points="445.0,230.0,446.0,238.0,443.0,246.0,437.0,254.0,433.0,254.0,433.0,266.0,430.0,272.0,433.0,280.0,429.0,281.0,437.0,288.0,438.0,283.0,441.0,285.0,450.0,288.0,458.0,288.0" stroke="black" stroke-width="1" fill="none" />
<polyline points="456.0,291.0,463.0,299.0,469.0,307.0" stroke="black" stroke-width="1" fill="none" />
<polyline points="480.0,324.0,476.0,337.0,468.0,341.0" stroke="black" stroke-width="1" fill="none" />
<polyline points="453.0,347.0,458.0,347.0,468.0,349.0,470.0,349.0,463.0,355.0,462.0,363.0,466.0,363.0,471.0,367.0,466.0,374.0,466.0,381.0,459.0,389.0,463.0,390.0" stroke="black" stroke-width="1" fill="none" />
<polyline points="470.0,402.0,478.0,402.0" stroke="black" stroke-width="1" fill="none" />
<polyline points="474.0,378.0,482.0,374.0" stroke="black" stroke-width="1" fill="none" />
<polyline points="464.0,368.0,456.0,376.0" stroke="black" stroke-width="1" fill="none" />
<polyline points="460.0,382.0,452.0,382.0,447.0,381.0,445.0,375.0,444.0,372.0,436.0,379.0,428.0,383.0,421.0,378.0,423.0,375.0,420.0,367.0,419.0,359.0,414.0,353.0,417.0,355.0,422.0,347.0,419.0,339.0,420.0,331.0,419.0,317.0,415.0,312.0,418.0,304.0,417.0,302.0,415.0,294.0,404.0,285.0" stroke="black" stroke-width="1" fill="none" />
<polyline points="405.0,283.0,413.0,286.0,420.0,297.0,423.0,309.0,422.0,313.0,423.0,316.0" stroke="black" stroke-width="1" fill="none" />
<polyline points="424.0,320.0,416.0,320.0" stroke="black" stroke-width="1" fill="none" />
<polyline points="411.0,326.0,422.0,327.0,423.0,335.0,424.0,343.0,429.0,351.0,433.0,354.0,437.0,363.0,437.0,369.0,430.0,375.0,432.0,383.0,438.0,392.0,433.0,400.0,434.0,405.0,442.0,400.0" stroke="black" stroke-width="1" fill="none" />
<polyline points="446.0,393.0,438.0,392.0,434.0,386.0,426.0,397.0" stroke="black" stroke-width="1" fill="none" />
<polyline points="423.0,414.0,416.0,416.0,415.0,408.0,421.0,404.0,419.0,401.0,421.0,399.0,421.0,391.0,428.0,387.0,421.0,382.0,420.0,379.0,425.0,374.0,423.0,365.0,423.0,357.0,426.0,349.0,428.0,341.0,427.0,337.0,430.0,325.0,420.0,320.0,409.0,318.0,403.0,310.0,409.0,296.0,407.0,296.0,405.0,288.0,412.0,284.0,403.0,278.0" stroke="black" stroke-width="1" fill="none" />
<polyline points="403.0,282.0,411.0,280.0,420.0,281.0,428.0,284.0,436.0,285.0" stroke="black" stroke-width="1" fill="none" />
<polyline points="435.0,293.0,447.0,293.0,451.0,294.0,459.0,298.0,462.0,304.0,466.0,308.0,463.0,311.0,462.0,319.0" stroke="black" stroke-width="1" fill="none" />
<polyline points="483.0,305.0,476.0,320.0,474.0,322.0,466.0,332.0,473.0,337.0,476.0,329.0,477.0,325.0,477.0,319.0,483.0,311.0,480.0,300.0,483.0,292.0,484.0,284.0,479.0,274.0,479.0,266.0,475.0,264.0,461.0,264.0,459.0,258.0,463.0,261.0,463.0,250.0,463.0,244.0,460.0,248.0,453.0,246.0,451.0,243.0" stroke="black" stroke-width="1" fill="none" />
<polyline points="446.0,246.0,446.0,254.0,441.0,256.0,438.0,264.0,451.0,268.0,457.0,273.0,463.0,274.0,462.0,282.0,464.0,288.0,465.0,296.0,458.0,303.0,456.0,311.0,459.0,319.0,457.0,331.0,464.0,331.0,452.0,340.0,444.0,348.0,445.0,356.0,442.0,365.0,444.0,373.0,437.0,377.0,441.0,379.0,445.0,383.0,446.0,391.0,436.0,400.0,443.0,406.0,440.0,407.0,449.0,411.0,457.0,411.0" stroke="black" stroke-width="1" fill="none" />
<polyline points="450.0,393.0,444.0,390.0,440.0,390.0,439.0,386.0,431.0,382.0,424.0,396.0,419.0,397.0,416.0,392.0,409.0,404.0,404.0,409.0,407.0,401.0,403.0,397.0,403.0,389.0,404.0,386.0,408.0,378.0,413.0,368.0,412.0,366.0,409.0,358.0,406.0,351.0,409.0,347.0,408.0,343.0,411.0,339.0,412.0,330.0,407.0,317.0,394.0,311.0,400.0,304.0,397.0,297.0,396.0,296.0" stroke="black" stroke-width="1" fill="none" />
<polyline points="390.0,301.0,389.0,301.0,391.0,302.0,390.0,306.0" stroke="black" stroke-width="1" fill="none" />
<polyline points="387.0,279.0,395.0,282.0,408.0,275.0,414.0,284.0,422.0,287.0,430.0,289.0,438.0,291.0,445.0,296.0" stroke="black" stroke-width="1" fill="none" />
<polyline points="442.0,301.0,450.0,305.0,458.0,302.0,466.0,312.0" stroke="black" stroke-width="1" fill="none" />
<polyline points="451.0,300.0,443.0,298.0,435.0,301.0" stroke="black" stroke-width="1" fill="none" />
<polyline points="433.0,299.0,440.0,303.0,442.0,311.0,443.0,321.0,446.0,322.0" stroke="black" stroke-width="1" fill="none" />
<polyline points="448.0,344.0,447.0,354.0" stroke="black" stroke-width="1" fill="none" />
<polyline points="453.0,352.0,455.0,360.0,458.0,362.0,459.0,370.0,457.0,379.0,457.0,387.0,453.0,389.0,458.0,394.0,452.0,397.0,457.0,405.0,455.0,406.0" stroke="black" stroke-width="1" fill="none" />
<polyline points="480.0,406.0,478.0,408.0,470.0,410.0,462.0,413.0,454.0,415.0,446.0,417.0,438.0,419.0,430.0,420.0,422.0,422.0,414.0,423.0,406.0,424.0,398.0,425.0,390.0,422.0,382.0,420.0,374.0,417.0,366.0,413.0,358.0,408.0,350.0,403.0,342.0,398.0,334.0,399.0,326.0,400.0,318.0,402.0,310.0,404.0,302.0,407.0,294.0,409.0,286.0,411.0,278.0,413.0,270.0,414.0,262.0,413.0,254.0,411.0,246.0,408.0" stroke="black" stroke-width="1" fill="none" />
<polyline points="252.0,398.0,260.0,394.0" stroke="black" stroke-width="1" fill="none" />
<polyline points="258.0,373.0,250.0,371.0,242.0,370.0,234.0,368.0,226.0,367.0,218.0,365.0,210.0,361.0,207.0,369.0,199.0,365.0" stroke="black" stroke-width="1" fill="none" />
<polyline points="204.0,361.0,212.0,359.0" stroke="black" stroke-width="1" fill="none" />
<polyline points="202.0,357.0,210.0,356.0,215.0,348.0,221.0,336.0,229.0,337.0,237.0,338.0,245.0,339.0,253.0,339.0,261.0,342.0,269.0,349.0,276.0,358.0,284.0,364.0,292.0,366.0,300.0,364.0,308.0,360.0,319.0,364.0" stroke="black" stroke-width="1" fill="none" />
<polyline points="319.0,350.0,311.0,343.0" stroke="black" stroke-width="1" fill="none" />
<polyline points="312.0,341.0,320.0,349.0,327.0,361.0" stroke="black" stroke-width="1" fill="none" />
<polyline points="340.0,363.0,339.0,358.0,337.0,350.0,335.0,342.0,325.0,339.0" stroke="black" stroke-width="1" fill="none" />
<polyline points="310.0,352.0,318.0,358.0" stroke="black" stroke-width="1" fill="none" />
<polyline points="308.0,324.0,305.0,312.0,297.0,309.0" stroke="black" stroke-width="1" fill="none" />
<polyline points="296.0,306.0,304.0,301.0" stroke="black" stroke-width="1" fill="none" />
<polyline points="293.0,305.0,301.0,298.0,308.0,306.0,315.0,312.0,323.0,320.0,323.0,315.0,331.0,319.0,339.0,318.0" stroke="black" stroke-width="1" fill="none" />
<polyline points="335.0,310.0,343.0,309.0" stroke="black" stroke-width="1" fill="none" />
<polyline points="347.0,319.0,344.0,311.0,340.0,314.0,335.0,320.0,321.0,312.0" stroke="black" stroke-width="1" fill="none" />
<polyline points="316.0,313.0,319.0,321.0,319.0,320.0,327.0,324.0,330.0,327.0,333.0,332.0" stroke="black" stroke-width="1" fill="none" />
<polyline points="356.0,336.0,360.0,337.0,359.0,345.0,360.0,342.0" stroke="black" stroke-width="1" fill="none" />
<polyline points="364.0,342.0,361.0,334.0" stroke="black" stroke-width="1" fill="none" />
<polyline points="378.0,341.0,386.0,349.0,393.0,358.0" stroke="black" stroke-width="1" fill="none" />
<polyline points="397.0,374.0,405.0,367.0,408.0,369.0,405.0,372.0,406.0,375.0,415.0,376.0,428.0,373.0" stroke="black" stroke-width="1" fill="none" />
<polyline points="415.0,360.0,416.0,368.0,417.0,376.0,411.0,384.0,411.0,392.0" stroke="black" stroke-width="1" fill="none" />
<polyline points="402.0,387.0,399.0,390.0" stroke="black" stroke-width="1" fill="none" />
<polyline points="400.0,396.0,395.0,395.0" stroke="black" stroke-width="1" fill="none" />
<polyline points="368.0,415.0,356.0,407.0,343.0,399.0" stroke="black" stroke-width="1" fill="none" />
<polyline points="336.0,359.0,328.0,360.0,320.0,360.0,314.0,355.0,313.0,353.0,316.0,349.0,310.0,341.0,305.0,333.0,306.0,326.0,304.0,324.0,303.0,314.0,298.0,306.0,310.0,300.0,302.0,296.0,303.0,295.0,295.0,290.0" stroke="black" stroke-width="1" fill="none" />
<polyline points="295.0,275.0,287.0,272.0" stroke="black" stroke-width="1" fill="none" />
<polyline points="289.0,275.0,295.0,277.0,297.0,283.0,305.0,283.0,313.0,288.0,320.0,281.0,328.0,286.0,339.0,292.0" stroke="black" stroke-width="1" fill="none" />
<polyline points="351.0,291.0,354.0,299.0,352.0,307.0,359.0,315.0,361.0,324.0" stroke="black" stroke-width="1" fill="none" />
<polyline points="366.0,304.0,358.0,309.0,357.0,303.0,352.0,303.0,346.0,307.0,343.0,306.0,335.0,305.0,326.0,301.0,318.0,294.0" stroke="black" stroke-width="1" fill="none" />
<polyline points="319.0,295.0,324.0,303.0,329.0,304.0,334.0,308.0,338.0,309.0,347.0,317.0,343.0,322.0,347.0,326.0" stroke="black" stroke-width="1" fill="none" />
<polyline points="363.0,299.0,369.0,307.0,365.0,310.0,365.0,310.0,367.0,308.0,374.0,304.0" stroke="black" stroke-width="1" fill="none" />
<polyline points="382.0,277.0,390.0,276.0,392.0,285.0,400.0,288.0" stroke="black" stroke-width="1" fill="none" />
<polyline points="395.0,274.0,387.0,272.0" stroke="black" stroke-width="1" fill="none" />
<polyline points="373.0,265.0,370.0,266.0" stroke="black" stroke-width="1" fill="none" />
<polyline points="369.0,245.0,377.0,247.0,383.0,256.0,392.0,263.0" stroke="black" stroke-width="1" fill="none" />
<polyline points="393.0,245.0,389.0,241.0" stroke="black" stroke-width="1" fill="none" />
<polyline points="409.0,240.0,405.0,248.0,405.0,250.0,413.0,248.0,421.0,252.0,429.0,253.0,434.0,265.0,435.0,267.0,443.0,268.0,445.0,269.0,453.0,264.0,458.0,261.0,460.0,269.0,468.0,274.0,471.0,270.0,472.0,274.0,480.0,269.0" stroke="black" stroke-width="1" fill="none" />
<polyline points="483.0,273.0,482.0,259.0,474.0,255.0,463.0,250.0,458.0,250.0,450.0,252.0,446.0,250.0,442.0,244.0,440.0,254.0,437.0,258.0,431.0,258.0,423.0,259.0,416.0,268.0,413.0,273.0,412.0,265.0,418.0,259.0,413.0,248.0,416.0,244.0,410.0,238.0,417.0,233.0,417.0,225.0,403.0,224.0,396.0,220.0,401.0,213.0,396.0,212.0,398.0,206.0,391.0,200.0,398.0,197.0,409.0,195.0,402.0,187.0,417.0,189.0,412.0,181.0,406.0,174.0,408.0,167.0,403.0,159.0,400.0,154.0,394.0,152.0,384.0,149.0,383.0,145.0,391.0,141.0,390.0,134.0,385.0,126.0,380.0,120.0,371.0,117.0,362.0,109.0,357.0,109.0,351.0,107.0,349.0,101.0,342.0,93.0,338.0,85.0,330.0,81.0,325.0,73.0,314.0,70.0,301.0,75.0,293.0,69.0,285.0,69.0" stroke="black" stroke-width="1" fill="none" />
<polyline points="295.0,60.0,285.0,50.0,277.0,44.0,269.0,37.0,261.0,30.0,253.0,24.0,245.0,21.0,236.0,16.0,234.0,15.0,226.0,11.0,218.0,10.0,210.0,7.0" stroke="black" stroke-width="1" fill="none" />
<polyline points="209.0,5.0,217.0,7.0,225.0,8.0,232.0,18.0,241.0,19.0,258.0,27.0,265.0,35.0,271.0,43.0,285.0,51.0,295.0,61.0,294.0,64.0,302.0,71.0,298.0,73.0,303.0,81.0,306.0,80.0,306.0,88.0,305.0,91.0,303.0,102.0,304.0,105.0,307.0,108.0,303.0,115.0,295.0,119.0,299.0,123.0,313.0,134.0,321.0,141.0,324.0,146.0,317.0,154.0,304.0,157.0,296.0,169.0,290.0,175.0,287.0,183.0,280.0,187.0,276.0,195.0,281.0,200.0,271.0,204.0,268.0,209.0,280.0,212.0,292.0,220.0,297.0,225.0,288.0,230.0,289.0,238.0,294.0,239.0,296.0,240.0,300.0,244.0,301.0,252.0,308.0,260.0,312.0,265.0,316.0,270.0,315.0,275.0,320.0,276.0,322.0,279.0,330.0,280.0,331.0,288.0,328.0,293.0,327.0,288.0,335.0,284.0,343.0,285.0,345.0,292.0,348.0,295.0,357.0,292.0,360.0,295.0,364.0,294.0,365.0,296.0,371.0,301.0,377.0,302.0,385.0,297.0,388.0,298.0,396.0,299.0,404.0,302.0,409.0,310.0,411.0,299.0,419.0,300.0,427.0,295.0,427.0,299.0,430.0,300.0,437.0,309.0,445.0,314.0,446.0,319.0,451.0,321.0" stroke="black" stroke-width="1" fill="none" />
<polyline points="453.0,324.0,450.0,316.0,448.0,308.0,444.0,304.0,439.0,297.0,432.0,297.0" stroke="black" stroke-width="1" fill="none" />
<polyline points="427.0,307.0,419.0,302.0" stroke="black" stroke-width="1" fill="none" />
<polyline points="426.0,291.0,419.0,293.0,411.0,292.0,407.0,293.0,406.0,290.0,398.0,290.0,395.0,289.0,391.0,288.0,385.0,289.0,380.0,291.0,375.0,288.0,373.0,284.0,372.0,280.0,362.0,271.0,353.0,278.0,349.0,271.0,340.0,271.0,331.0,281.0,326.0,286.0,331.0,275.0,329.0,267.0,326.0,254.0,322.0,246.0,317.0,242.0,308.0,238.0,299.0,238.0,298.0,229.0,301.0,221.0,298.0,213.0,296.0,201.0" stroke="black" stroke-width="1" fill="none" />
<polyline points="301.0,210.0,310.0,218.0,303.0,229.0,308.0,230.0,316.0,228.0,318.0,233.0,326.0,239.0,335.0,241.0,343.0,244.0" stroke="black" stroke-width="1" fill="none" />
<polyline points="349.0,244.0,341.0,247.0,333.0,247.0,325.0,245.0,314.0,243.0,309.0,238.0,307.0,240.0" stroke="black" stroke-width="1" fill="none" />
<polyline points="303.0,246.0,309.0,254.0,318.0,259.0,325.0,265.0,323.0,268.0,327.0,272.0,328.0,277.0,339.0,281.0" stroke="black" stroke-width="1" fill="none" />
<polyline points="352.0,285.0,360.0,286.0" stroke="black" stroke-width="1" fill="none" />
<polyline points="346.0,268.0,346.0,260.0,334.0,257.0,326.0,254.0" stroke="black" stroke-width="1" fill="none" />
<polyline points="317.0,250.0,323.0,258.0,332.0,266.0,334.0,274.0" stroke="black" stroke-width="1" fill="none" />
<polyline points="345.0,269.0,344.0,253.0,336.0,249.0,331.0,254.0,323.0,246.0,322.0,240.0,314.0,235.0" stroke="black" stroke-width="1" fill="none" />
<polyline points="322.0,233.0,330.0,231.0" stroke="black" stroke-width="1" fill="none" />
<polyline points="324.0,216.0,317.0,208.0,305.0,208.0" stroke="black" stroke-width="1" fill="none" />
<polyline points="317.0,219.0,325.0,219.0,333.0,217.0,341.0,209.0" stroke="black" stroke-width="1" fill="none" />
<polyline points="352.0,197.0,360.0,200.0" stroke="black" stroke-width="1" fill="none" />
<polyline points="356.0,191.0,347.0,187.0,340.0,185.0,332.0,185.0,324.0,185.0,316.0,183.0,314.0,179.0,301.0,181.0,288.0,181.0,283.0,190.0,271.0,187.0,269.0,183.0,269.0,180.0" stroke="black" stroke-width="1" fill="none" />
<polyline points="279.0,168.0,284.0,172.0,277.0,180.0,279.0,179.0,281.0,178.0,288.0,185.0,296.0,187.0,304.0,186.0,309.0,186.0,317.0,190.0,320.0,191.0,320.0,182.0,321.0,179.0,329.0,180.0,337.0,182.0" stroke="black" stroke-width="1" fill="none" />
<polyline points="343.0,178.0,335.0,177.0,327.0,177.0,319.0,176.0" stroke="black" stroke-width="1" fill="none" />
<polyline points="309.0,176.0,312.0,173.0,320.0,173.0,328.0,170.0,336.0,158.0,344.0,156.0" stroke="black" stroke-width="1" fill="none" />
<polyline points="336.0,160.0,344.0,161.0,352.0,159.0,357.0,166.0,369.0,163.0" stroke="black" stroke-width="1" fill="none" />
<polyline points="365.0,162.0,367.0,170.0,371.0,168.0" stroke="black" stroke-width="1" fill="none" />
<polyline points="366.0,158.0,363.0,166.0,367.0,174.0,368.0,181.0,376.0,179.0,376.0,176.0,381.0,183.0,385.0,183.0,390.0,185.0,396.0,179.0,404.0,183.0,412.0,184.0,418.0,190.0,427.0,187.0" stroke="black" stroke-width="1" fill="none" />
<polyline points="409.0,197.0,398.0,197.0,390.0,199.0" stroke="black" stroke-width="1" fill="none" />
<polyline points="387.0,205.0,395.0,208.0" stroke="black" stroke-width="1" fill="none" />
<polyline points="372.0,219.0,376.0,227.0" stroke="black" stroke-width="1" fill="none" />
<polyline points="363.0,227.0,365.0,235.0,366.0,243.0,369.0,246.0,369.0,251.0,361.0,261.0,360.0,268.0,364.0,276.0" stroke="black" stroke-width="1" fill="none" />
<polyline points="361.0,246.0,369.0,241.0,374.0,253.0,370.0,261.0,369.0,266.0,371.0,280.0,365.0,289.0,368.0,297.0,375.0,305.0,372.0,309.0,373.0,318.0,373.0,326.0,363.0,340.0,371.0,340.0,379.0,338.0,387.0,345.0,392.0,342.0,400.0,343.0,408.0,349.0,417.0,355.0,425.0,350.0" stroke="black" stroke-width="1" fill="none" />
<polyline points="437.0,352.0,439.0,360.0" stroke="black" stroke-width="1" fill="none" />
<polyline points="437.0,346.0,441.0,354.0,445.0,363.0,448.0,370.0,440.0,375.0,439.0,383.0,446.0,396.0,445.0,404.0,437.0,406.0" stroke="black" stroke-width="1" fill="none" />
<polyline points="454.0,399.0,446.0,401.0,444.0,406.0,437.0,410.0,427.0,407.0,421.0,408.0,418.0,413.0,409.0,413.0,411.0,416.0,408.0,414.0,413.0,406.0,416.0,398.0,415.0,390.0,409.0,389.0,402.0,383.0,397.0,375.0,399.0,367.0,393.0,370.0,396.0,358.0,400.0,357.0,392.0,347.0,392.0,343.0,389.0,335.0,387.0,335.0,379.0,334.0,377.0,324.0,381.0,315.0,380.0,310.0,384.0,302.0,389.0,294.0,392.0,286.0,386.0,281.0,382.0,273.0,395.0,268.0,399.0,267.0,397.0,259.0,390.0,255.0,390.0,246.0,385.0,244.0,380.0,239.0,372.0,236.0,373.0,233.0,368.0,224.0,366.0,216.0,356.0,209.0,363.0,202.0,371.0,202.0,371.0,194.0,370.0,187.0,373.0,179.0,377.0,172.0,376.0,167.0,370.0,165.0,379.0,158.0,373.0,154.0,367.0,151.0,368.0,143.0,369.0,135.0,365.0,132.0,371.0,125.0,368.0,117.0,362.0,118.0,365.0,122.0,357.0,122.0,353.0,118.0,350.0,112.0,347.0,112.0,340.0,109.0,338.0,114.0,333.0,112.0,326.0,107.0,321.0,111.0,313.0,114.0,309.0,108.0,307.0,110.0,307.0,117.0,299.0,117.0,295.0,117.0,293.0,113.0,287.0,116.0,284.0,121.0,281.0,118.0,273.0,121.0,265.0,123.0,259.0,122.0,255.0,127.0,247.0,128.0,246.0,119.0,241.0,116.0,239.0,112.0,236.0,108.0,228.0,111.0,229.0,105.0,221.0,99.0,221.0,93.0,221.0,86.0,229.0,79.0,245.0,68.0,253.0,66.0,249.0,67.0,241.0,68.0,233.0,69.0" stroke="black" stroke-width="1" fill="none" />
<polyline points="232.0,78.0,233.0,70.0,223.0,64.0" stroke="black" stroke-width="1" fill="none" />
<polyline points="221.0,63.0,229.0,58.0,223.0,62.0,224.0,65.0,214.0,73.0,219.0,84.0,208.0,89.0,215.0,83.0,218.0,76.0,221.0,80.0,229.0,78.0,234.0,78.0,246.0,76.0,250.0,69.0,256.0,70.0,257.0,72.0,269.0,72.0,272.0,76.0,275.0,74.0,283.0,78.0,285.0,83.0,293.0,83.0,301.0,78.0,302.0,84.0,310.0,85.0,313.0,88.0,319.0,87.0,319.0,93.0,333.0,88.0,338.0,90.0,342.0,96.0,350.0,101.0" stroke="black" stroke-width="1" fill="none" />
<polyline points="361.0,100.0,356.0,97.0,346.0,96.0,334.0,93.0,327.0,88.0,324.0,88.0,318.0,80.0,314.0,74.0,306.0,75.0" stroke="black" stroke-width="1" fill="none" />
<polyline points="309.0,84.0,317.0,86.0,320.0,98.0,325.0,102.0,336.0,109.0,337.0,114.0,340.0,120.0,340.0,123.0,348.0,114.0,356.0,114.0,356.0,118.0,358.0,124.0,354.0,133.0,356.0,140.0,361.0,140.0,366.0,146.0,369.0,151.0,374.0,156.0,376.0,149.0,383.0,144.0,391.0,148.0,399.0,151.0,399.0,156.0,401.0,159.0,409.0,158.0" stroke="black" stroke-width="1" fill="none" />
<polyline points="404.0,160.0,401.0,163.0,391.0,154.0,389.0,159.0,383.0,153.0,376.0,145.0,372.0,143.0,362.0,143.0,354.0,149.0,346.0,149.0,341.0,150.0,339.0,143.0,334.0,158.0,326.0,158.0,318.0,158.0,310.0,155.0,303.0,160.0,298.0,166.0,287.0,169.0,279.0,172.0,271.0,163.0,265.0,161.0,261.0,168.0,255.0,175.0,251.0,184.0,243.0,186.0,235.0,193.0,227.0,195.0,227.0,208.0" stroke="black" stroke-width="1" fill="none" />
<polyline points="226.0,215.0,234.0,220.0,228.0,226.0" stroke="black" stroke-width="1" fill="none" />
<polyline points="233.0,212.0,241.0,215.0,241.0,217.0,249.0,209.0,250.0,205.0,264.0,204.0,265.0,199.0,277.0,196.0,284.0,197.0,292.0,196.0,295.0,193.0,303.0,194.0,308.0,192.0,319.0,196.0,327.0,199.0,331.0,190.0,337.0,191.0,343.0,190.0,344.0,195.0,349.0,183.0,357.0,186.0,365.0,187.0" stroke="black" stroke-width="1" fill="none" />
<polyline points="364.0,178.0,356.0,175.0" stroke="black" stroke-width="1" fill="none" />
<polyline points="348.0,183.0,350.0,191.0,339.0,195.0,345.0,207.0,349.0,215.0,349.0,211.0,357.0,215.0,358.0,211.0,366.0,215.0,374.0,215.0,371.0,220.0,378.0,220.0,383.0,213.0,389.0,204.0,397.0,201.0,399.0,203.0,403.0,208.0,403.0,213.0,406.0,217.0,410.0,223.0,418.0,223.0,425.0,218.0,425.0,212.0,438.0,212.0,449.0,215.0" stroke="black" stroke-width="1" fill="none" />
<polyline points="447.0,256.0,455.0,256.0,463.0,254.0" stroke="black" stroke-width="1" fill="none" />
<polyline points="465.0,267.0,457.0,266.0" stroke="black" stroke-width="1" fill="none" />
<polyline points="470.0,274.0,467.0,277.0,470.0,285.0,462.0,296.0,470.0,301.0,481.0,293.0,485.0,293.0,483.0,301.0,481.0,309.0,483.0,318.0,479.0,326.0,481.0,329.0,478.0,335.0,484.0,336.0,482.0,344.0,469.0,352.0" stroke="black" stroke-width="1" fill="none" />
<polyline points="472.0,371.0,468.0,361.0,465.0,355.0,458.0,371.0,454.0,365.0,446.0,364.0,438.0,362.0,433.0,362.0,429.0,359.0,422.0,366.0,420.0,372.0,410.0,369.0,411.0,357.0,406.0,362.0,399.0,361.0,397.0,368.0,393.0,368.0,391.0,364.0,391.0,360.0,387.0,358.0,379.0,353.0,375.0,355.0,369.0,344.0,373.0,340.0,368.0,335.0,369.0,323.0,365.0,316.0,360.0,313.0,360.0,305.0,357.0,301.0,350.0,296.0,340.0,294.0,341.0,288.0,352.0,287.0,352.0,279.0,358.0,276.0,353.0,273.0,347.0,273.0,349.0,271.0,348.0,263.0,344.0,255.0,351.0,252.0,347.0,241.0,339.0,238.0,328.0,234.0,322.0,229.0,316.0,216.0,310.0,215.0,303.0,207.0,299.0,201.0,295.0,195.0,284.0,188.0" stroke="black" stroke-width="1" fill="none" />
<polyline points="289.0,193.0,292.0,191.0,300.0,190.0,302.0,199.0,310.0,200.0" stroke="black" stroke-width="1" fill="none" />
<polyline points="330.0,188.0,329.0,196.0,322.0,203.0,321.0,199.0,329.0,199.0,337.0,199.0,338.0,199.0,345.0,203.0,347.0,197.0,355.0,194.0,364.0,195.0" stroke="black" stroke-width="1" fill="none" />
<polyline points="384.0,175.0,394.0,172.0,396.0,176.0,392.0,182.0,397.0,188.0,402.0,186.0,397.0,187.0,405.0,195.0,413.0,196.0,416.0,196.0,426.0,201.0,437.0,199.0,440.0,204.0,446.0,204.0,454.0,209.0,462.0,223.0,470.0,233.0" stroke="black" stroke-width="1" fill="none" />
<polyline points="455.0,225.0,447.0,227.0,441.0,235.0,434.0,241.0,434.0,242.0,432.0,233.0,428.0,229.0,430.0,227.0,425.0,223.0,419.0,219.0,417.0,211.0,410.0,203.0,419.0,200.0,423.0,190.0,429.0,188.0,426.0,179.0,418.0,173.0,410.0,174.0,402.0,176.0,398.0,166.0,396.0,172.0,387.0,169.0,379.0,172.0,374.0,173.0,372.0,172.0,364.0,171.0,357.0,171.0,353.0,169.0,348.0,168.0,346.0,165.0,345.0,171.0,337.0,169.0,328.0,163.0,326.0,156.0,335.0,152.0,322.0,151.0" stroke="black" stroke-width="1" fill="none" />
<polyline points="316.0,143.0,324.0,143.0,334.0,149.0" stroke="black" stroke-width="1" fill="none" />
<polyline points="324.0,138.0,316.0,139.0" stroke="black" stroke-width="1" fill="none" />
<polyline points="315.0,137.0,323.0,134.0,327.0,140.0,335.0,137.0" stroke="black" stroke-width="1" fill="none" />
<polyline points="342.0,132.0,338.0,140.0,340.0,142.0,334.0,141.0,336.0,145.0,343.0,150.0,337.0,153.0,332.0,157.0,330.0,165.0,333.0,165.0,331.0,179.0,340.0,183.0,339.0,188.0,333.0,191.0,335.0,201.0,330.0,204.0,331.0,211.0,327.0,214.0,334.0,216.0,333.0,222.0,333.0,226.0,338.0,232.0,337.0,228.0,345.0,226.0,346.0,223.0,354.0,230.0,357.0,234.0,361.0,237.0,369.0,235.0,377.0,244.0,384.0,248.0,390.0,241.0,397.0,234.0,400.0,240.0,401.0,242.0,407.0,239.0,410.0,231.0,418.0,233.0,426.0,234.0,430.0,225.0,435.0,232.0,443.0,231.0,451.0,230.0,457.0,231.0,458.0,234.0,460.0,237.0" stroke="black" stroke-width="1" fill="none" />
<polyline points="480.0,258.0,484.0,266.0,485.0,274.0,488.0,282.0,490.0,290.0,488.0,298.0,488.0,306.0,487.0,314.0,488.0,322.0,488.0,330.0,488.0,338.0,487.0,346.0,486.0,354.0,481.0,361.0,484.0,356.0" stroke="black" stroke-width="1" fill="none" />
<polyline points="452.0,368.0,450.0,376.0,452.0,382.0" stroke="black" stroke-width="1" fill="none" />
<polyline points="422.0,387.0,414.0,385.0,411.0,391.0,408.0,398.0,399.0,403.0,397.0,402.0,396.0,394.0,402.0,379.0,402.0,367.0,407.0,359.0,399.0,352.0,404.0,344.0" stroke="black" stroke-width="1" fill="none" />
<polyline points="388.0,348.0,380.0,340.0" stroke="black" stroke-width="1" fill="none" />
<polyline points="379.0,338.0,377.0,346.0,377.0,351.0,385.0,352.0,393.0,354.0,401.0,357.0" stroke="black" stroke-width="1" fill="none" />
<polyline points="461.0,314.0,447.0,311.0,436.0,324.0,432.0,322.0,432.0,309.0,424.0,309.0,419.0,315.0,415.0,311.0,410.0,319.0,402.0,312.0,394.0,308.0,389.0,314.0,385.0,301.0,384.0,313.0,377.0,319.0,381.0,310.0,373.0,318.0,369.0,319.0,361.0,323.0,354.0,322.0,352.0,319.0,345.0,322.0,336.0,326.0,329.0,316.0,327.0,305.0,321.0,300.0,310.0,300.0,305.0,295.0,298.0,294.0,296.0,286.0,288.0,286.0,291.0,281.0,282.0,277.0,270.0,268.0" stroke="black" stroke-width="1" fill="none" />
<polyline points="265.0,266.0,273.0,271.0,281.0,272.0,289.0,275.0,297.0,278.0,300.0,280.0,306.0,290.0,319.0,290.0,322.0,286.0" stroke="black" stroke-width="1" fill="none" />
<polyline points="319.0,277.0,312.0,279.0,300.0,273.0,293.0,270.0,285.0,270.0,277.0,267.0" stroke="black" stroke-width="1" fill="none" />
<polyline points="274.0,273.0,279.0,274.0,287.0,283.0" stroke="black" stroke-width="1" fill="none" />
<polyline points="279.0,282.0,271.0,275.0" stroke="black" stroke-width="1" fill="none" />
<polyline points="285.0,264.0,293.0,266.0,304.0,272.0" stroke="black" stroke-width="1" fill="none" />
<polyline points="316.0,272.0,318.0,262.0,314.0,254.0,308.0,256.0,300.0,250.0,294.0,236.0,286.0,228.0,278.0,219.0,276.0,213.0,268.0,209.0,261.0,219.0,256.0,220.0,248.0,223.0" stroke="black" stroke-width="1" fill="none" />
<polyline points="251.0,216.0,253.0,214.0,261.0,222.0,264.0,235.0,266.0,243.0,270.0,246.0,271.0,249.0,281.0,244.0,293.0,240.0,297.0,246.0,305.0,247.0,313.0,251.0,315.0,247.0,321.0,257.0,329.0,262.0,332.0,271.0" stroke="black" stroke-width="1" fill="none" />
<polyline points="321.0,266.0,313.0,270.0,306.0,270.0,298.0,268.0,291.0,262.0,283.0,259.0" stroke="black" stroke-width="1" fill="none" />
<polyline points="286.0,253.0,294.0,251.0,294.0,252.0" stroke="black" stroke-width="1" fill="none" />
<polyline points="290.0,250.0,298.0,256.0" stroke="black" stroke-width="1" fill="none" />
<polyline points="277.0,239.0,285.0,242.0,285.0,251.0,292.0,254.0,298.0,260.0,309.0,262.0,313.0,258.0,321.0,260.0,327.0,266.0,336.0,256.0,344.0,258.0,349.0,251.0,353.0,256.0" stroke="black" stroke-width="1" fill="none" />
<polyline points="361.0,243.0,364.0,251.0,364.0,251.0,371.0,259.0,376.0,253.0,384.0,252.0,392.0,256.0,397.0,250.0,403.0,253.0,405.0,252.0,413.0,252.0" stroke="black" stroke-width="1" fill="none" />
<polyline points="423.0,241.0,413.0,243.0,412.0,239.0,401.0,228.0,398.0,221.0,392.0,211.0,390.0,218.0,381.0,217.0,372.0,209.0,368.0,207.0,356.0,205.0,348.0,207.0,337.0,202.0,332.0,203.0,324.0,203.0,316.0,203.0,309.0,207.0,307.0,203.0,299.0,209.0,292.0,203.0,284.0,201.0" stroke="black" stroke-width="1" fill="none" />
<polyline points="275.0,203.0,278.0,211.0,293.0,218.0,305.0,215.0,313.0,214.0,320.0,210.0,325.0,216.0,333.0,210.0,343.0,214.0,351.0,218.0,364.0,218.0,373.0,228.0,374.0,231.0,376.0,239.0" stroke="black" stroke-width="1" fill="none" />
<polyline points="356.0,231.0,358.0,239.0,349.0,247.0,357.0,259.0,356.0,261.0,349.0,264.0,353.0,271.0" stroke="black" stroke-width="1" fill="none" />
<polyline points="340.0,265.0,337.0,257.0" stroke="black" stroke-width="1" fill="none" />
<polyline points="353.0,230.0,352.0,238.0,357.0,246.0,354.0,248.0,361.0,258.0,365.0,270.0,374.0,271.0,383.0,267.0,393.0,271.0,398.0,274.0,402.0,264.0,404.0,270.0,412.0,265.0,422.0,264.0,430.0,263.0,432.0,268.0,440.0,271.0,447.0,274.0,450.0,281.0,458.0,283.0,459.0,277.0,461.0,281.0" stroke="black" stroke-width="1" fill="none" />
<polyline points="445.0,284.0,448.0,285.0,455.0,282.0,450.0,289.0,453.0,297.0,452.0,308.0,454.0,316.0,456.0,324.0" stroke="black" stroke-width="1" fill="none" />
<polyline points="479.0,304.0,471.0,315.0,467.0,313.0,471.0,305.0,468.0,297.0,476.0,289.0,476.0,282.0,475.0,274.0,464.0,270.0,458.0,262.0,453.0,260.0,461.0,255.0,467.0,252.0,474.0,247.0,472.0,239.0,462.0,236.0,465.0,228.0,460.0,220.0,455.0,212.0,445.0,204.0,442.0,196.0,433.0,186.0,425.0,182.0,417.0,182.0,413.0,189.0,402.0,185.0,396.0,190.0,388.0,190.0,380.0,191.0,372.0,191.0,372.0,188.0,368.0,192.0,367.0,183.0,356.0,180.0,348.0,178.0,341.0,176.0,339.0,174.0,331.0,172.0,324.0,168.0,317.0,160.0,318.0,152.0,316.0,144.0,316.0,136.0,329.0,135.0,338.0,128.0,337.0,121.0,340.0,113.0,335.0,101.0,327.0,100.0,319.0,99.0,311.0,96.0,303.0,97.0,295.0,94.0" stroke="black" stroke-width="1" fill="none" />
<polyline points="297.0,90.0,290.0,96.0,295.0,97.0,291.0,103.0,289.0,110.0,289.0,114.0,290.0,118.0,288.0,130.0,293.0,132.0,295.0,134.0,298.0,144.0,302.0,144.0,308.0,148.0,311.0,148.0,315.0,159.0,317.0,167.0,322.0,167.0,326.0,165.0,329.0,167.0,336.0,166.0,339.0,158.0,348.0,153.0,355.0,156.0,361.0,151.0,363.0,154.0,365.0,155.0,369.0,161.0,373.0,159.0,379.0,167.0,384.0,164.0,392.0,167.0,397.0,164.0,405.0,167.0,406.0,176.0,414.0,181.0,422.0,179.0" stroke="black" stroke-width="1" fill="none" />
<polyline points="422.0,176.0,414.0,167.0,415.0,160.0,407.0,150.0,399.0,139.0,391.0,131.0,385.0,125.0,377.0,116.0,369.0,109.0,361.0,99.0,353.0,101.0,345.0,95.0,344.0,86.0,336.0,80.0,331.0,77.0,323.0,70.0,315.0,67.0,311.0,66.0,307.0,63.0,299.0,64.0,291.0,63.0,284.0,61.0,280.0,62.0,276.0,53.0,275.0,55.0,269.0,51.0,264.0,45.0,256.0,43.0,255.0,38.0,247.0,35.0,242.0,28.0,234.0,28.0,226.0,25.0,218.0,20.0,214.0,18.0,206.0,15.0,198.0,15.0,190.0,14.0,182.0,18.0,177.0,15.0,178.0,20.0,170.0,17.0,160.0,24.0,152.0,26.0,144.0,32.0,136.0,36.0,128.0,39.0,125.0,43.0,136.0,37.0,148.0,29.0,157.0,25.0,163.0,19.0,155.0,18.0,154.0,23.0" stroke="black" stroke-width="1" fill="none" />
<polyline points="160.0,31.0,168.0,30.0,167.0,25.0" stroke="black" stroke-width="1" fill="none" />
<polyline points="176.0,33.0,184.0,31.0,192.0,33.0,194.0,30.0,206.0,24.0,214.0,22.0" stroke="black" stroke-width="1" fill="none" />
<polyline points="217.0,16.0,223.0,24.0,209.0,31.0,198.0,39.0,202.0,40.0,194.0,45.0" stroke="black" stroke-width="1" fill="none" />
<polyline points="202.0,43.0,210.0,42.0,218.0,39.0,221.0,47.0,212.0,55.0,202.0,59.0,205.0,73.0,196.0,78.0,191.0,86.0,187.0,84.0,180.0,96.0,183.0,105.0,180.0,115.0,186.0,116.0,186.0,126.0,188.0,128.0,187.0,136.0,189.0,144.0,190.0,152.0,183.0,157.0,182.0,162.0,181.0,167.0,179.0,173.0,186.0,175.0,186.0,180.0,191.0,189.0,197.0,197.0" stroke="black" stroke-width="1" fill="none" />
<polyline points="198.0,189.0,197.0,185.0,190.0,181.0,182.0,182.0,174.0,171.0" stroke="black" stroke-width="1" fill="none" />
<polyline points="173.0,168.0,181.0,174.0,189.0,174.0,199.0,178.0,207.0,182.0,215.0,179.0" stroke="black" stroke-width="1" fill="none" />
<polyline points="227.0,179.0,226.0,187.0,227.0,188.0,235.0,188.0,245.0,190.0,252.0,184.0,264.0,183.0,272.0,177.0,277.0,174.0,285.0,176.0,293.0,174.0,301.0,176.0,309.0,171.0,317.0,171.0" stroke="black" stroke-width="1" fill="none" />
<polyline points="302.0,144.0,298.0,144.0,306.0,143.0,315.0,134.0,323.0,131.0,327.0,125.0,335.0,128.0" stroke="black" stroke-width="1" fill="none" />
<polyline points="351.0,126.0,359.0,127.0" stroke="black" stroke-width="1" fill="none" />
<polyline points="355.0,130.0,347.0,131.0,346.0,128.0,334.0,133.0,326.0,129.0,318.0,129.0,310.0,129.0,302.0,126.0,301.0,133.0,297.0,137.0,289.0,137.0,285.0,135.0,278.0,129.0,274.0,124.0,271.0,130.0,264.0,130.0,260.0,134.0,264.0,126.0,264.0,118.0,266.0,119.0" stroke="black" stroke-width="1" fill="none" />
<polyline points="266.0,113.0,274.0,110.0,278.0,114.0,286.0,111.0,294.0,106.0,302.0,103.0,305.0,105.0" stroke="black" stroke-width="1" fill="none" />
<polyline points="308.0,114.0,309.0,122.0,321.0,117.0,325.0,116.0" stroke="black" stroke-width="1" fill="none" />
<polyline points="327.0,123.0,319.0,124.0,316.0,126.0,315.0,121.0,310.0,118.0,310.0,120.0,318.0,114.0,323.0,109.0,321.0,101.0" stroke="black" stroke-width="1" fill="none" />
<polyline points="337.0,93.0,333.0,85.0" stroke="black" stroke-width="1" fill="none" />
<polyline points="333.0,85.0,325.0,84.0,325.0,76.0,317.0,75.0" stroke="black" stroke-width="1" fill="none" />
<polyline points="339.0,83.0,346.0,91.0" stroke="black" stroke-width="1" fill="none" />
<polyline points="376.0,121.0,377.0,129.0,375.0,134.0,375.0,139.0,376.0,147.0,378.0,155.0,383.0,156.0,381.0,166.0,379.0,177.0,385.0,179.0,386.0,187.0,386.0,197.0,382.0,202.0,388.0,206.0,393.0,216.0,400.0,232.0,400.0,244.0,403.0,249.0,394.0,260.0,399.0,262.0,407.0,262.0,416.0,255.0,422.0,247.0,430.0,248.0,438.0,245.0,446.0,242.0,454.0,241.0,462.0,243.0,476.0,248.0" stroke="black" stroke-width="1" fill="none" />
<polyline points="426.0,278.0,429.0,286.0,432.0,286.0,435.0,294.0,426.0,303.0,431.0,308.0,438.0,311.0,440.0,319.0,436.0,324.0,435.0,329.0,444.0,328.0,431.0,337.0,433.0,338.0,436.0,349.0,436.0,357.0,427.0,361.0,429.0,364.0,435.0,369.0,433.0,372.0,433.0,380.0,429.0,393.0,420.0,394.0,428.0,401.0,432.0,408.0,425.0,410.0,430.0,411.0" stroke="black" stroke-width="1" fill="none" />
<polyline points="295.0,327.0,287.0,328.0" stroke="black" stroke-width="1" fill="none" />
<polyline points="288.0,325.0,286.0,326.0,289.0,334.0,299.0,336.0,297.0,340.0,295.0,338.0,293.0,343.0" stroke="black" stroke-width="1" fill="none" />
<polyline points="281.0,331.0,281.0,323.0,281.0,322.0" stroke="black" stroke-width="1" fill="none" />
<polyline points="272.0,325.0,276.0,333.0" stroke="black" stroke-width="1" fill="none" />
<polyline points="280.0,332.0,272.0,325.0" stroke="black" stroke-width="1" fill="none" />
<polyline points="268.0,327.0,274.0,335.0" stroke="black" stroke-width="1" fill="none" />
<polyline points="272.0,331.0,264.0,326.0,256.0,323.0,248.0,323.0,240.0,323.0" stroke="black" stroke-width="1" fill="none" />
<polyline points="238.0,323.0,246.0,320.0" stroke="black" stroke-width="1" fill="none" />
<polyline points="235.0,316.0,238.0,319.0,227.0,327.0,240.0,331.0,247.0,336.0" stroke="black" stroke-width="1" fill="none" />
<polyline points="248.0,333.0,244.0,325.0,236.0,330.0,228.0,328.0" stroke="black" stroke-width="1" fill="none" />
<polyline points="227.0,326.0,235.0,321.0,243.0,317.0,251.0,318.0,257.0,329.0" stroke="black" stroke-width="1" fill="none" />
<polyline points="252.0,343.0,244.0,351.0,236.0,356.0,236.0,356.0,246.0,348.0" stroke="black" stroke-width="1" fill="none" />
<polyline points="246.0,353.0,236.0,359.0,244.0,356.0" stroke="black" stroke-width="1" fill="none" />
<polyline points="253.0,346.0,250.0,346.0,267.0,347.0,272.0,356.0,284.0,364.0" stroke="black" stroke-width="1" fill="none" />
<polyline points="261.0,375.0,253.0,374.0,245.0,373.0,237.0,372.0,229.0,370.0,221.0,371.0,217.0,375.0,209.0,371.0,201.0,375.0,200.0,369.0,192.0,373.0" stroke="black" stroke-width="1" fill="none" />
<polyline points="187.0,379.0,195.0,377.0,203.0,378.0,211.0,380.0,219.0,381.0,227.0,383.0,235.0,385.0,243.0,387.0,251.0,388.0,259.0,386.0,256.0,392.0,255.0,399.0,245.0,407.0,248.0,402.0,256.0,399.0,264.0,399.0" stroke="black" stroke-width="1" fill="none" />
<polyline points="260.0,399.0,257.0,392.0,249.0,396.0,239.0,400.0,237.0,398.0,237.0,390.0,239.0,389.0" stroke="black" stroke-width="1" fill="none" />
<polyline points="225.0,351.0,225.0,346.0,217.0,351.0,221.0,352.0,227.0,351.0,230.0,343.0,230.0,343.0,222.0,344.0" stroke="black" stroke-width="1" fill="none" />
<polyline points="219.0,336.0,216.0,344.0,211.0,352.0,199.0,362.0,196.0,370.0,187.0,379.0,187.0,387.0,182.0,395.0,178.0,403.0,174.0,411.0,171.0,413.0,177.0,404.0,185.0,392.0" stroke="black" stroke-width="1" fill="none" />
<polyline points="170.0,397.0,161.0,402.0,157.0,415.0,149.0,411.0,139.0,402.0,131.0,399.0,128.0,408.0,120.0,413.0,118.0,409.0" stroke="black" stroke-width="1" fill="none" />
<polyline points="117.0,406.0,125.0,400.0,133.0,394.0,141.0,388.0,139.0,397.0,128.0,402.0,118.0,413.0,118.0,418.0,125.0,416.0,129.0,418.0,133.0,407.0,135.0,403.0,141.0,394.0,149.0,389.0,152.0,385.0" stroke="black" stroke-width="1" fill="none" />
<polyline points="148.0,392.0,140.0,399.0" stroke="black" stroke-width="1" fill="none" />
<polyline points="136.0,400.0,132.0,408.0,129.0,410.0" stroke="black" stroke-width="1" fill="none" />
<polyline points="141.0,416.0,149.0,416.0" stroke="black" stroke-width="1" fill="none" />
<polyline points="170.0,419.0,162.0,422.0,154.0,422.0,146.0,422.0,138.0,422.0,130.0,422.0,122.0,420.0,117.0,418.0,116.0,410.0,122.0,402.0,131.0,394.0,143.0,386.0,154.0,376.0,152.0,367.0,158.0,359.0,150.0,357.0" stroke="black" stroke-width="1" fill="none" />
<polyline points="139.0,365.0,139.0,359.0,147.0,353.0,155.0,347.0,163.0,341.0,156.0,345.0,147.0,353.0,137.0,361.0,139.0,369.0,148.0,377.0,157.0,377.0,149.0,382.0,151.0,390.0,148.0,398.0,146.0,405.0,148.0,414.0,154.0,420.0" stroke="black" stroke-width="1" fill="none" />
<polyline points="168.0,421.0,171.0,413.0,173.0,405.0" stroke="black" stroke-width="1" fill="none" />
<polyline points="170.0,404.0,165.0,412.0,159.0,411.0,162.0,409.0" stroke="black" stroke-width="1" fill="none" />
<polyline points="154.0,365.0,146.0,371.0,138.0,367.0" stroke="black" stroke-width="1" fill="none" />
<polyline points="138.0,365.0,146.0,357.0,156.0,350.0,150.0,354.0,140.0,362.0,143.0,373.0,151.0,379.0,159.0,371.0" stroke="black" stroke-width="1" fill="none" />
<polyline points="227.0,335.0,235.0,335.0" stroke="black" stroke-width="1" fill="none" />
<polyline points="280.0,281.0,274.0,273.0,276.0,267.0,271.0,266.0,271.0,258.0,268.0,250.0,270.0,243.0,274.0,241.0,277.0,237.0,279.0,228.0,274.0,220.0,270.0,218.0" stroke="black" stroke-width="1" fill="none" />
<polyline points="286.0,222.0,283.0,230.0,279.0,238.0,278.0,242.0,278.0,249.0,270.0,254.0,274.0,258.0,279.0,261.0,285.0,265.0,297.0,266.0,303.0,272.0,303.0,282.0,303.0,290.0,295.0,291.0,299.0,299.0,298.0,302.0,293.0,310.0,290.0,318.0,293.0,326.0,308.0,330.0,301.0,337.0,303.0,339.0,309.0,342.0,317.0,346.0,323.0,354.0,331.0,355.0,340.0,363.0" stroke="black" stroke-width="1" fill="none" />
<polyline points="370.0,333.0,362.0,334.0,358.0,338.0,350.0,340.0,342.0,341.0,341.0,336.0,333.0,336.0,329.0,346.0,326.0,337.0,327.0,324.0,323.0,316.0,313.0,313.0,305.0,313.0,307.0,305.0,319.0,304.0,317.0,296.0,311.0,290.0,311.0,282.0,314.0,280.0" stroke="black" stroke-width="1" fill="none" />
<polyline points="272.0,276.0,267.0,268.0,266.0,260.0,265.0,252.0,264.0,248.0,264.0,240.0,255.0,236.0,254.0,228.0,255.0,225.0,260.0,221.0,268.0,212.0,259.0,204.0,249.0,203.0" stroke="black" stroke-width="1" fill="none" />
<polyline points="254.0,209.0,254.0,217.0,260.0,218.0,266.0,220.0,266.0,228.0,269.0,228.0,265.0,232.0,261.0,235.0,261.0,243.0,261.0,251.0" stroke="black" stroke-width="1" fill="none" />
<polyline points="286.0,222.0,294.0,227.0" stroke="black" stroke-width="1" fill="none" />
<polyline points="315.0,224.0,321.0,232.0,323.0,238.0,332.0,240.0,333.0,250.0,335.0,252.0,336.0,262.0,339.0,270.0,343.0,271.0,345.0,277.0,349.0,285.0,343.0,294.0,346.0,304.0,353.0,312.0,357.0,318.0,351.0,323.0,352.0,329.0,346.0,342.0,348.0,343.0,352.0,347.0,354.0,346.0,358.0,352.0,369.0,344.0,372.0,345.0,382.0,345.0,389.0,350.0,398.0,351.0,406.0,349.0,420.0,347.0,432.0,344.0,437.0,345.0,438.0,353.0" stroke="black" stroke-width="1" fill="none" />
<polyline points="350.0,239.0,341.0,238.0,340.0,232.0,339.0,238.0,331.0,233.0,322.0,229.0,314.0,226.0,306.0,228.0,296.0,230.0,288.0,225.0,282.0,227.0,276.0,229.0,270.0,236.0,262.0,237.0,255.0,240.0,249.0,242.0,241.0,242.0,240.0,235.0,238.0,240.0,238.0,232.0,239.0,227.0,235.0,217.0,228.0,211.0,223.0,205.0,228.0,196.0,228.0,190.0,236.0,181.0,232.0,173.0,223.0,165.0" stroke="black" stroke-width="1" fill="none" />
<polyline points="209.0,154.0,196.0,158.0,202.0,162.0,202.0,170.0,206.0,178.0,212.0,181.0,218.0,183.0,207.0,187.0,210.0,182.0,218.0,186.0,217.0,175.0,225.0,177.0,233.0,182.0,233.0,184.0,233.0,188.0,243.0,192.0,242.0,200.0,233.0,203.0,239.0,210.0,242.0,210.0,247.0,213.0,250.0,221.0,245.0,223.0,242.0,226.0,249.0,231.0,251.0,232.0,248.0,240.0,251.0,245.0,255.0,248.0" stroke="black" stroke-width="1" fill="none" />
<polyline points="244.0,228.0,244.0,221.0,236.0,218.0,239.0,213.0,254.0,201.0,249.0,193.0,241.0,201.0,233.0,203.0" stroke="black" stroke-width="1" fill="none" />
<polyline points="219.0,201.0,219.0,203.0,226.0,215.0,232.0,223.0,228.0,226.0,232.0,229.0,240.0,231.0" stroke="black" stroke-width="1" fill="none" />
<polyline points="191.0,252.0,188.0,252.0,193.0,260.0,192.0,268.0" stroke="black" stroke-width="1" fill="none" />
<polyline points="177.0,270.0,183.0,268.0,184.0,260.0,183.0,252.0,176.0,239.0,168.0,240.0" stroke="black" stroke-width="1" fill="none" />
<polyline points="173.0,247.0,165.0,242.0,157.0,233.0,146.0,231.0,142.0,225.0,134.0,221.0" stroke="black" stroke-width="1" fill="none" />
<polyline points="161.0,216.0,162.0,212.0,157.0,208.0,155.0,215.0,155.0,218.0,149.0,223.0,141.0,215.0,134.0,200.0,125.0,206.0,119.0,195.0,111.0,189.0,111.0,182.0,103.0,167.0,95.0,160.0,91.0,150.0,83.0,147.0,75.0,141.0,67.0,138.0,59.0,134.0,51.0,127.0,57.0,119.0,66.0,117.0,60.0,118.0" stroke="black" stroke-width="1" fill="none" />
<polyline points="63.0,131.0,71.0,130.0" stroke="black" stroke-width="1" fill="none" />
<polyline points="83.0,129.0,91.0,126.0,99.0,127.0" stroke="black" stroke-width="1" fill="none" />
<polyline points="103.0,114.0,111.0,112.0,119.0,111.0,130.0,105.0,138.0,105.0,146.0,103.0,150.0,106.0,155.0,108.0,160.0,115.0" stroke="black" stroke-width="1" fill="none" />
<polyline points="159.0,122.0,167.0,122.0,175.0,130.0,183.0,132.0,183.0,142.0" stroke="black" stroke-width="1" fill="none" />
<polyline points="180.0,127.0,182.0,125.0" stroke="black" stroke-width="1" fill="none" />
<polyline points="183.0,120.0,191.0,122.0" stroke="black" stroke-width="1" fill="none" />
<polyline points="210.0,130.0,218.0,131.0,223.0,138.0,229.0,143.0,235.0,142.0,239.0,137.0,247.0,142.0" stroke="black" stroke-width="1" fill="none" />
<polyline points="249.0,136.0,241.0,136.0,233.0,130.0" stroke="black" stroke-width="1" fill="none" />
<polyline points="232.0,104.0,240.0,101.0,247.0,100.0,253.0,94.0,263.0,95.0,271.0,91.0" stroke="black" stroke-width="1" fill="none" />
<polyline points="267.0,100.0,263.0,108.0,250.0,114.0,246.0,123.0,248.0,122.0,252.0,118.0,260.0,118.0,268.0,117.0,270.0,110.0,278.0,108.0,286.0,106.0" stroke="black" stroke-width="1" fill="none" />
<polyline points="275.0,105.0,283.0,103.0,296.0,97.0" stroke="black" stroke-width="1" fill="none" />
<polyline points="280.0,100.0,267.0,99.0,262.0,110.0,254.0,107.0,250.0,105.0,242.0,104.0,234.0,104.0" stroke="black" stroke-width="1" fill="none" />
<polyline points="225.0,98.0,226.0,96.0,226.0,94.0,234.0,92.0" stroke="black" stroke-width="1" fill="none" />
<polyline points="224.0,88.0,218.0,82.0,225.0,74.0" stroke="black" stroke-width="1" fill="none" />
<polyline points="204.0,74.0,196.0,76.0" stroke="black" stroke-width="1" fill="none" />
<polyline points="200.0,60.0,202.0,51.0,202.0,53.0,200.0,61.0,204.0,69.0,212.0,62.0,213.0,54.0,221.0,47.0,229.0,41.0,242.0,33.0,251.0,39.0" stroke="black" stroke-width="1" fill="none" />
<polyline points="251.0,36.0,252.0,44.0" stroke="black" stroke-width="1" fill="none" />
<polyline points="269.0,48.0,261.0,52.0,259.0,61.0,258.0,56.0,257.0,53.0,254.0,48.0,246.0,44.0,245.0,42.0,244.0,39.0,236.0,42.0,235.0,42.0,232.0,34.0" stroke="black" stroke-width="1" fill="none" />
<polyline points="233.0,32.0,237.0,40.0,240.0,49.0,244.0,57.0,241.0,70.0,242.0,74.0,238.0,80.0,232.0,84.0,240.0,79.0,245.0,80.0,253.0,77.0,259.0,74.0,269.0,68.0,277.0,67.0,288.0,67.0,296.0,68.0,301.0,70.0,303.0,77.0,311.0,82.0,319.0,83.0,327.0,87.0,329.0,82.0,340.0,87.0,346.0,93.0,354.0,96.0,363.0,106.0,367.0,116.0" stroke="black" stroke-width="1" fill="none" />
<polyline points="396.0,163.0,401.0,171.0" stroke="black" stroke-width="1" fill="none" />
<polyline points="308.0,124.0,300.0,123.0,292.0,130.0" stroke="black" stroke-width="1" fill="none" />
<polyline points="269.0,128.0,267.0,131.0,272.0,135.0,280.0,140.0,285.0,141.0,282.0,135.0,279.0,143.0,282.0,149.0,286.0,152.0,286.0,161.0,287.0,156.0,289.0,158.0,297.0,162.0,302.0,170.0,310.0,168.0,318.0,167.0" stroke="black" stroke-width="1" fill="none" />
<polyline points="295.0,162.0,287.0,161.0" stroke="black" stroke-width="1" fill="none" />
<polyline points="279.0,157.0,277.0,165.0,269.0,166.0,269.0,174.0,267.0,179.0,274.0,181.0,277.0,189.0,272.0,191.0,268.0,193.0,270.0,195.0,278.0,206.0,280.0,212.0,284.0,207.0,288.0,218.0,290.0,216.0,298.0,218.0,300.0,222.0,310.0,221.0,318.0,223.0,326.0,225.0,327.0,223.0,332.0,220.0,340.0,222.0,340.0,216.0,349.0,220.0,355.0,223.0,362.0,226.0,367.0,233.0,374.0,233.0,382.0,236.0" stroke="black" stroke-width="1" fill="none" />
<polyline points="264.0,147.0,261.0,146.0,250.0,141.0,249.0,143.0,241.0,147.0,238.0,159.0,227.0,169.0,225.0,166.0,217.0,167.0,211.0,172.0,203.0,163.0" stroke="black" stroke-width="1" fill="none" />
<polyline points="204.0,169.0,205.0,172.0,199.0,170.0,199.0,162.0,197.0,159.0" stroke="black" stroke-width="1" fill="none" />
<polyline points="183.0,164.0,183.0,162.0,179.0,163.0,171.0,163.0,168.0,157.0" stroke="black" stroke-width="1" fill="none" />
<polyline points="167.0,155.0,175.0,153.0,183.0,157.0,191.0,153.0,202.0,154.0" stroke="black" stroke-width="1" fill="none" />
<polyline points="198.0,177.0,199.0,186.0,201.0,189.0,203.0,186.0" stroke="black" stroke-width="1" fill="none" />
<polyline points="180.0,199.0,172.0,196.0,164.0,197.0" stroke="black" stroke-width="1" fill="none" />
<polyline points="159.0,190.0,167.0,196.0,166.0,204.0,172.0,204.0" stroke="black" stroke-width="1" fill="none" />
<polyline points="158.0,186.0,166.0,177.0,173.0,189.0,169.0,198.0,174.0,203.0,170.0,214.0,172.0,215.0,174.0,226.0,174.0,232.0,176.0,233.0,181.0,236.0,176.0,240.0,182.0,242.0,186.0,246.0,185.0,254.0,186.0,264.0" stroke="black" stroke-width="1" fill="none" />
<polyline points="190.0,256.0,185.0,242.0,183.0,234.0,181.0,229.0,171.0,230.0,163.0,226.0,157.0,227.0,161.0,225.0,158.0,217.0,153.0,209.0,155.0,201.0,151.0,199.0,156.0,191.0,153.0,188.0,162.0,186.0,150.0,190.0,147.0,191.0" stroke="black" stroke-width="1" fill="none" />
<polyline points="163.0,180.0,171.0,185.0,179.0,191.0,186.0,194.0,192.0,193.0,200.0,197.0" stroke="black" stroke-width="1" fill="none" />
<polyline points="168.0,227.0,172.0,235.0,169.0,245.0,177.0,250.0,177.0,256.0" stroke="black" stroke-width="1" fill="none" />
<polyline points="158.0,248.0,156.0,240.0" stroke="black" stroke-width="1" fill="none" />
<polyline points="127.0,187.0,122.0,181.0,114.0,175.0" stroke="black" stroke-width="1" fill="none" />
<polyline points="112.0,171.0,116.0,163.0,112.0,171.0,117.0,179.0,130.0,190.0,130.0,198.0,134.0,206.0,140.0,212.0,142.0,220.0,153.0,222.0,155.0,231.0,161.0,237.0,162.0,245.0,163.0,249.0,171.0,256.0,173.0,258.0,173.0,266.0,174.0,274.0,171.0,282.0,174.0,289.0,174.0,297.0,173.0,305.0,171.0,313.0,170.0,321.0,169.0,326.0,165.0,334.0,153.0,340.0,157.0,339.0,165.0,333.0" stroke="black" stroke-width="1" fill="none" />
<polyline points="172.0,132.0,164.0,127.0" stroke="black" stroke-width="1" fill="none" />
<polyline points="157.0,130.0,161.0,138.0,160.0,146.0,143.0,152.0,151.0,152.0" stroke="black" stroke-width="1" fill="none" />
<polyline points="152.0,120.0,155.0,128.0,165.0,132.0,170.0,140.0,178.0,148.0,171.0,153.0,170.0,161.0,173.0,170.0,177.0,175.0,182.0,183.0" stroke="black" stroke-width="1" fill="none" />
<polyline points="187.0,134.0,180.0,135.0,173.0,136.0,170.0,139.0,167.0,133.0,159.0,127.0,151.0,122.0,147.0,119.0,144.0,113.0,136.0,115.0,128.0,108.0,126.0,113.0,124.0,109.0,116.0,109.0,108.0,107.0,101.0,111.0,99.0,107.0,89.0,99.0,87.0,88.0,92.0,83.0,93.0,74.0,101.0,70.0,98.0,58.0" stroke="black" stroke-width="1" fill="none" />
<polyline points="91.0,54.0,99.0,49.0,101.0,44.0,109.0,42.0,117.0,33.0,125.0,28.0,133.0,22.0,141.0,17.0,149.0,14.0,157.0,10.0,165.0,13.0,170.0,13.0,174.0,13.0" stroke="black" stroke-width="1" fill="none" />
<polyline points="183.0,19.0,185.0,16.0,177.0,18.0,175.0,26.0,177.0,27.0,176.0,36.0,170.0,40.0,172.0,46.0,168.0,54.0,166.0,68.0,169.0,70.0,164.0,74.0,161.0,82.0,164.0,84.0,166.0,82.0,171.0,80.0,179.0,78.0,181.0,87.0,189.0,89.0,194.0,84.0,202.0,80.0" stroke="black" stroke-width="1" fill="none" />
<polyline points="182.0,83.0,174.0,83.0,166.0,85.0,158.0,87.0,150.0,85.0" stroke="black" stroke-width="1" fill="none" />
<polyline points="154.0,73.0,162.0,73.0" stroke="black" stroke-width="1" fill="none" />
<polyline points="159.0,56.0,151.0,59.0" stroke="black" stroke-width="1" fill="none" />
<polyline points="140.0,57.0,132.0,53.0,129.0,60.0,120.0,60.0,108.0,72.0,102.0,79.0,94.0,81.0,91.0,73.0,82.0,71.0,80.0,73.0" stroke="black" stroke-width="1" fill="none" />
<polyline points="91.0,70.0,90.0,58.0,82.0,60.0,76.0,64.0,76.0,69.0,69.0,79.0,63.0,74.0,58.0,70.0,50.0,68.0,42.0,70.0,34.0,72.0,26.0,78.0,18.0,80.0,10.0,77.0,2.0,79.0" stroke="black" stroke-width="1" fill="none" />
<polyline points="4.0,76.0,2.0,84.0,13.0,84.0,17.0,95.0,17.0,94.0" stroke="black" stroke-width="1" fill="none" />
<polyline points="14.0,99.0,11.0,91.0" stroke="black" stroke-width="1" fill="none" />
<polyline points="2.0,97.0,3.0,101.0" stroke="black" stroke-width="1" fill="none" />
<polyline points="13.0,110.0,21.0,111.0,29.0,116.0,37.0,123.0,45.0,125.0,53.0,125.0" stroke="black" stroke-width="1" fill="none" />
<polyline points="46.0,119.0,44.0,115.0,42.0,111.0,34.0,111.0" stroke="black" stroke-width="1" fill="none" />
<polyline points="26.0,107.0,34.0,97.0,27.0,104.0,32.0,104.0,35.0,116.0,39.0,119.0,47.0,116.0,55.0,116.0,63.0,114.0,71.0,122.0" stroke="black" stroke-width="1" fill="none" />
<polyline points="85.0,126.0,82.0,134.0,83.0,142.0,90.0,145.0,93.0,153.0,95.0,161.0,104.0,169.0,108.0,177.0,111.0,185.0,116.0,193.0,125.0,201.0,129.0,209.0,132.0,215.0,135.0,219.0,138.0,227.0,145.0,231.0,145.0,239.0,151.0,238.0,159.0,250.0,163.0,248.0,171.0,255.0,176.0,259.0,180.0,254.0,182.0,263.0,187.0,259.0,190.0,269.0" stroke="black" stroke-width="1" fill="none" />
<polyline points="119.0,171.0,114.0,161.0,106.0,158.0,98.0,158.0,86.0,152.0,78.0,151.0,70.0,143.0,62.0,140.0,55.0,129.0,47.0,130.0,39.0,127.0,31.0,121.0,23.0,115.0,15.0,112.0" stroke="black" stroke-width="1" fill="none" />
<polyline points="18.0,113.0,30.0,121.0,41.0,129.0,52.0,122.0,55.0,127.0,59.0,129.0,67.0,127.0,75.0,127.0,89.0,120.0,98.0,121.0,105.0,121.0,110.0,128.0,118.0,130.0" stroke="black" stroke-width="1" fill="none" />
<polyline points="113.0,124.0,125.0,121.0" stroke="black" stroke-width="1" fill="none" />
<polyline points="128.0,117.0,133.0,117.0,134.0,119.0" stroke="black" stroke-width="1" fill="none" />
<polyline points="140.0,126.0,150.0,118.0" stroke="black" stroke-width="1" fill="none" />
<polyline points="150.0,106.0,158.0,114.0,167.0,122.0,170.0,129.0,167.0,130.0,174.0,135.0,176.0,137.0,177.0,143.0" stroke="black" stroke-width="1" fill="none" />
<polyline points="216.0,103.0,224.0,103.0,228.0,108.0,235.0,97.0,243.0,97.0,246.0,85.0,247.0,89.0,254.0,92.0,257.0,88.0,265.0,83.0" stroke="black" stroke-width="1" fill="none" />
<polyline points="266.0,72.0,263.0,80.0,259.0,80.0,259.0,87.0,249.0,91.0,241.0,100.0,242.0,108.0,249.0,111.0,257.0,107.0,261.0,112.0,269.0,106.0,270.0,104.0,273.0,98.0,281.0,94.0,294.0,92.0,302.0,93.0,306.0,99.0,314.0,100.0,322.0,106.0,330.0,102.0" stroke="black" stroke-width="1" fill="none" />
<polyline points="281.0,84.0,283.0,92.0,274.0,101.0,278.0,104.0,272.0,111.0,260.0,108.0,259.0,116.0,254.0,119.0,251.0,128.0,242.0,134.0,236.0,148.0,234.0,154.0,235.0,157.0,233.0,166.0,230.0,175.0,223.0,180.0,221.0,189.0,212.0,192.0,214.0,192.0,221.0,184.0,230.0,171.0,238.0,170.0" stroke="black" stroke-width="1" fill="none" />
<polyline points="255.0,74.0,247.0,72.0" stroke="black" stroke-width="1" fill="none" />
<polyline points="263.0,65.0,257.0,73.0,251.0,81.0,237.0,86.0,227.0,95.0,224.0,106.0,221.0,118.0,224.0,113.0" stroke="black" stroke-width="1" fill="none" />
<polyline points="173.0,87.0,177.0,82.0,170.0,75.0,176.0,64.0,179.0,56.0,186.0,49.0,188.0,44.0,191.0,36.0,183.0,29.0,175.0,31.0,167.0,39.0" stroke="black" stroke-width="1" fill="none" />
<polyline points="177.0,49.0,185.0,43.0" stroke="black" stroke-width="1" fill="none" />
<polyline points="183.0,55.0,177.0,53.0,168.0,54.0,177.0,50.0,181.0,48.0,186.0,40.0,186.0,32.0,192.0,30.0,191.0,22.0,196.0,21.0,188.0,27.0" stroke="black" stroke-width="1" fill="none" />
<polyline points="190.0,26.0,198.0,25.0,206.0,18.0" stroke="black" stroke-width="1" fill="none" />
<polyline points="198.0,19.0,190.0,20.0" stroke="black" stroke-width="1" fill="none" />
<polyline points="205.0,39.0,213.0,34.0,221.0,31.0" stroke="black" stroke-width="1" fill="none" />
<polyline points="221.0,39.0,213.0,42.0" stroke="black" stroke-width="1" fill="none" />
<polyline points="212.0,57.0,207.0,65.0,209.0,67.0,218.0,68.0,220.0,73.0,228.0,71.0,236.0,66.0,244.0,62.0,252.0,58.0,252.0,60.0,260.0,64.0,268.0,65.0,276.0,58.0,284.0,58.0,295.0,57.0" stroke="black" stroke-width="1" fill="none" />
<polyline points="281.0,51.0,273.0,44.0,265.0,35.0,257.0,29.0,249.0,25.0" stroke="black" stroke-width="1" fill="none" />
<polyline points="239.0,30.0,246.0,31.0,258.0,31.0,269.0,38.0,275.0,46.0,285.0,54.0,278.0,61.0,282.0,62.0,286.0,76.0,282.0,81.0,277.0,89.0,270.0,92.0,255.0,91.0,249.0,95.0,249.0,102.0,257.0,97.0,262.0,100.0,268.0,90.0,270.0,85.0,272.0,80.0,280.0,81.0,283.0,91.0,290.0,86.0,292.0,91.0,300.0,87.0,308.0,91.0,316.0,95.0,324.0,97.0,332.0,97.0,340.0,97.0,343.0,102.0,351.0,106.0,356.0,108.0,364.0,111.0,373.0,117.0,376.0,127.0,380.0,131.0,385.0,136.0,393.0,138.0,397.0,138.0,403.0,146.0,409.0,154.0,395.0,158.0,388.0,166.0,391.0,168.0,389.0,176.0,383.0,181.0,382.0,192.0,376.0,196.0,376.0,202.0,376.0,210.0,387.0,213.0,386.0,219.0,393.0,221.0,390.0,229.0,385.0,230.0,403.0,229.0,415.0,232.0,424.0,235.0,432.0,237.0,430.0,243.0,433.0,247.0,430.0,251.0,424.0,256.0,427.0,258.0,421.0,261.0,418.0,266.0,419.0,274.0,416.0,280.0,419.0,273.0,422.0,271.0,426.0,278.0,432.0,274.0,435.0,282.0,436.0,283.0,438.0,273.0,443.0,280.0,451.0,285.0,452.0,291.0,460.0,292.0,468.0,291.0,470.0,285.0,477.0,282.0,482.0,280.0,484.0,281.0,479.0,289.0,475.0,297.0,477.0,308.0,471.0,316.0,468.0,329.0,468.0,337.0,476.0,339.0,478.0,347.0,484.0,348.0,483.0,357.0,485.0,359.0,483.0,369.0,477.0,376.0,475.0,384.0,474.0,392.0,466.0,402.0,462.0,406.0,459.0,409.0,463.0,400.0,465.0,404.0,473.0,398.0,477.0,391.0" stroke="black" stroke-width="1" fill="none" />
<polyline points="233.0,32.0,225.0,28.0,218.0,28.0,210.0,31.0,202.0,36.0,194.0,41.0,189.0,43.0,186.0,37.0,178.0,38.0,173.0,46.0,171.0,44.0,165.0,45.0,165.0,38.0,156.0,42.0,151.0,53.0,145.0,45.0,140.0,50.0,138.0,64.0,130.0,65.0,125.0,74.0,122.0,70.0,127.0,64.0,126.0,56.0,128.0,57.0" stroke="black" stroke-width="1" fill="none" />
<polyline points="129.0,65.0,123.0,70.0,115.0,70.0,107.0,75.0" stroke="black" stroke-width="1" fill="none" />
<polyline points="110.0,81.0,110.0,79.0,118.0,79.0,126.0,82.0" stroke="black" stroke-width="1" fill="none" />
<polyline points="115.0,98.0,107.0,96.0,96.0,92.0" stroke="black" stroke-width="1" fill="none" />
<polyline points="94.0,85.0,97.0,93.0,104.0,101.0,106.0,109.0,107.0,117.0,110.0,124.0" stroke="black" stroke-width="1" fill="none" />
<polyline points="114.0,117.0,106.0,115.0" stroke="black" stroke-width="1" fill="none" />
<polyline points="93.0,113.0,88.0,121.0,94.0,121.0,101.0,125.0,111.0,121.0,119.0,124.0,127.0,122.0,135.0,123.0,143.0,123.0,153.0,126.0,158.0,131.0" stroke="black" stroke-width="1" fill="none" />
<polyline points="161.0,76.0,152.0,82.0,151.0,79.0,145.0,85.0,133.0,79.0,128.0,84.0,124.0,79.0,113.0,74.0,113.0,69.0,109.0,61.0,108.0,53.0,114.0,49.0,114.0,45.0" stroke="black" stroke-width="1" fill="none" />
<polyline points="123.0,49.0,131.0,41.0,131.0,40.0,123.0,49.0,115.0,52.0,107.0,56.0" stroke="black" stroke-width="1" fill="none" />
<polyline points="134.0,42.0,142.0,40.0" stroke="black" stroke-width="1" fill="none" />
<polyline points="138.0,55.0,135.0,63.0,138.0,64.0,142.0,75.0,144.0,76.0,152.0,72.0,160.0,65.0,161.0,70.0,169.0,66.0,173.0,70.0" stroke="black" stroke-width="1" fill="none" />
<polyline points="142.0,102.0,138.0,100.0,130.0,97.0,119.0,102.0,117.0,100.0,111.0,94.0,102.0,91.0,101.0,86.0,93.0,86.0,90.0,89.0,85.0,77.0,76.0,78.0,81.0,76.0,77.0,76.0,75.0,66.0,82.0,64.0,86.0,56.0,97.0,50.0,109.0,42.0,112.0,36.0,121.0,31.0,131.0,23.0,142.0,15.0" stroke="black" stroke-width="1" fill="none" />
<polyline points="107.0,101.0,99.0,102.0,91.0,100.0,83.0,94.0,75.0,90.0,67.0,86.0,59.0,90.0,51.0,87.0,43.0,89.0" stroke="black" stroke-width="1" fill="none" />
<polyline points="50.0,90.0,54.0,83.0,46.0,85.0,41.0,79.0,40.0,81.0,46.0,80.0" stroke="black" stroke-width="1" fill="none" />
<polyline points="36.0,78.0,35.0,84.0,27.0,85.0,19.0,88.0,11.0,81.0,3.0,83.0" stroke="black" stroke-width="1" fill="none" />
<polyline points="23.0,89.0,34.0,84.0,30.0,76.0" stroke="black" stroke-width="1" fill="none" />
<polyline points="31.0,101.0,39.0,99.0,47.0,101.0,55.0,97.0,63.0,97.0,71.0,96.0,74.0,99.0,81.0,108.0" stroke="black" stroke-width="1" fill="none" />
<polyline points="84.0,137.0,88.0,138.0" stroke="black" stroke-width="1" fill="none" />
<polyline points="77.0,151.0,79.0,146.0,64.0,138.0,57.0,128.0,42.0,121.0,44.0,113.0,40.0,104.0,38.0,101.0" stroke="black" stroke-width="1" fill="none" />
<polyline points="20.0,111.0,31.0,119.0,43.0,127.0,57.0,137.0,65.0,142.0" stroke="black" stroke-width="1" fill="none" />
<polyline points="55.0,69.0,69.0,74.0,71.0,77.0,72.0,89.0,81.0,99.0,76.0,107.0,83.0,112.0,81.0,120.0,72.0,128.0,77.0,135.0,82.0,139.0,90.0,145.0,98.0,152.0,106.0,151.0,114.0,152.0,122.0,152.0,130.0,152.0,138.0,151.0,146.0,148.0,154.0,149.0,162.0,145.0" stroke="black" stroke-width="1" fill="none" />
<polyline points="178.0,222.5,356.0,222.5" stroke="black" stroke-width="1" fill="none" />
</svg>