<svg xmlns="http://www.w3.org/2000/svg" height="617px" width="507px" version="1.1"><polyline points="195.0,136.5,168.0,148.5,147.0,160.5,130.5,172.5,118.5,184.5,109.5,196.5,99.0,208.5,88.5,220.5,85.5,232.5,82.5,244.5,88.5,258.0,91.5,237.0,94.5,213.0,106.5,199.5,118.5,184.5,130.5,172.5,142.5,163.5,154.5,157.5,166.5,150.0,178.5,145.5,190.5,139.5,202.5,136.5,214.5,135.0,226.5,136.5,238.5,141.0,250.5,142.5,262.5,145.5" stroke="black" stroke-width="1" fill="none" />
<polyline points="252.0,160.5,240.0,160.5,228.0,162.0,216.0,163.5,204.0,166.5,192.0,172.5,180.0,178.5,168.0,184.5,172.5,181.5,192.0,181.5,216.0,177.0" stroke="black" stroke-width="1" fill="none" />
<polyline points="225.0,184.5,211.5,196.5,216.0,192.0" stroke="black" stroke-width="1" fill="none" />
<polyline points="226.5,189.0,220.5,204.0,235.5,192.0" stroke="black" stroke-width="1" fill="none" />
<polyline points="235.5,192.0,223.5,202.5,210.0,216.0,220.5,195.0,232.5,183.0" stroke="black" stroke-width="1" fill="none" />
<polyline points="238.5,208.5,228.0,220.5,217.5,232.5,205.5,244.5,187.5,250.5,168.0,262.5,147.0,274.5,135.0,286.5,139.5,282.0,151.5,271.5,163.5,265.5,175.5,258.0,187.5,250.5,199.5,243.0,211.5,237.0,223.5,225.0,235.5,210.0" stroke="black" stroke-width="1" fill="none" />
<polyline points="267.0,240.0,277.5,228.0,283.5,216.0,294.0,204.0,289.5,207.0,277.5,228.0,265.5,241.5,253.5,247.5,241.5,250.5,229.5,252.0,217.5,250.5" stroke="black" stroke-width="1" fill="none" />
<polyline points="214.5,250.5,226.5,247.5,238.5,246.0,250.5,240.0,262.5,226.5,274.5,201.0" stroke="black" stroke-width="1" fill="none" />
<polyline points="279.0,201.0,280.5,189.0" stroke="black" stroke-width="1" fill="none" />
<polyline points="276.0,187.5,276.0,199.5,271.5,211.5,265.5,223.5,255.0,235.5" stroke="black" stroke-width="1" fill="none" />
<polyline points="261.0,291.0,273.0,285.0,267.0,294.0,262.5,297.0,274.5,289.5,286.5,286.5,298.5,283.5,310.5,286.5,322.5,286.5,334.5,288.0,343.5,297.0" stroke="black" stroke-width="1" fill="none" />
<polyline points="330.0,300.0,348.0,312.0" stroke="black" stroke-width="1" fill="none" />
<polyline points="331.5,319.5,319.5,313.5,307.5,310.5" stroke="black" stroke-width="1" fill="none" />
<polyline points="322.5,315.0,333.0,316.5" stroke="black" stroke-width="1" fill="none" />
<polyline points="327.0,322.5,313.5,325.5,301.5,330.0,289.5,325.5" stroke="black" stroke-width="1" fill="none" />
<polyline points="286.5,318.0,294.0,330.0,298.5,334.5,312.0,331.5,324.0,334.5,336.0,328.5" stroke="black" stroke-width="1" fill="none" />
<polyline points="349.5,312.0,337.5,303.0,325.5,300.0,313.5,301.5,301.5,303.0,289.5,303.0,277.5,300.0" stroke="black" stroke-width="1" fill="none" />
<polyline points="274.5,306.0,267.0,316.5,267.0,316.5,279.0,312.0,291.0,310.5,303.0,310.5,315.0,309.0,327.0,312.0,339.0,319.5" stroke="black" stroke-width="1" fill="none" />
<polyline points="310.5,336.0,312.0,324.0,298.5,325.5,286.5,321.0,274.5,324.0" stroke="black" stroke-width="1" fill="none" />
<polyline points="270.0,327.0,282.0,325.5,268.5,325.5,280.5,337.5,292.5,342.0,304.5,345.0,316.5,345.0,328.5,340.5" stroke="black" stroke-width="1" fill="none" />
<polyline points="328.5,322.5,316.5,319.5,304.5,315.0,292.5,315.0,280.5,316.5,268.5,322.5" stroke="black" stroke-width="1" fill="none" />
<polyline points="262.5,312.0,274.5,306.0,286.5,306.0" stroke="black" stroke-width="1" fill="none" />
<polyline points="267.0,298.5,279.0,294.0,291.0,295.5,303.0,292.5" stroke="black" stroke-width="1" fill="none" />
<polyline points="339.0,240.0,343.5,252.0,349.5,264.0,352.5,276.0,358.5,288.0,361.5,300.0,363.0,312.0,364.5,324.0,366.0,336.0,366.0,348.0,364.5,360.0,363.0,372.0,363.0,384.0,363.0,396.0,361.5,408.0,360.0,420.0,358.5,432.0,354.0,433.5,354.0,445.5,346.5,457.5,339.0,466.5,351.0,450.0" stroke="black" stroke-width="1" fill="none" />
<polyline points="325.5,438.0,313.5,426.0,301.5,420.0" stroke="black" stroke-width="1" fill="none" />
<polyline points="307.5,423.0,310.5,435.0" stroke="black" stroke-width="1" fill="none" />
<polyline points="307.5,450.0,295.5,442.5" stroke="black" stroke-width="1" fill="none" />
<polyline points="294.0,441.0,303.0,453.0,303.0,466.5,301.5,478.5,292.5,492.0,292.5,511.5,297.0,510.0,313.5,505.5,325.5,514.5,337.5,507.0,342.0,511.5" stroke="black" stroke-width="1" fill="none" />
<polyline points="334.5,519.0,352.5,531.0,352.5,543.0,349.5,555.0,342.0,567.0,334.5,579.0,322.5,591.0,303.0,603.0" stroke="black" stroke-width="1" fill="none" />
<polyline points="291.0,540.0,289.5,537.0" stroke="black" stroke-width="1" fill="none" />
<polyline points="261.0,540.0,258.0,552.0,262.5,564.0" stroke="black" stroke-width="1" fill="none" />
<polyline points="252.0,567.0,246.0,564.0,237.0,570.0,237.0,558.0,241.5,556.5,237.0,553.5" stroke="black" stroke-width="1" fill="none" />
<polyline points="217.5,565.5,208.5,562.5,207.0,556.5,211.5,544.5,198.0,547.5" stroke="black" stroke-width="1" fill="none" />
<polyline points="198.0,556.5,202.5,544.5,192.0,558.0,180.0,547.5" stroke="black" stroke-width="1" fill="none" />
<polyline points="175.5,535.5,163.5,526.5" stroke="black" stroke-width="1" fill="none" />
<polyline points="163.5,526.5,175.5,538.5,181.5,550.5,198.0,561.0,210.0,550.5,217.5,561.0" stroke="black" stroke-width="1" fill="none" />
<polyline points="259.5,564.0,253.5,552.0,252.0,540.0,253.5,528.0" stroke="black" stroke-width="1" fill="none" />
<polyline points="226.5,516.0,219.0,528.0,225.0,516.0" stroke="black" stroke-width="1" fill="none" />
<polyline points="214.5,490.5,211.5,492.0,217.5,480.0" stroke="black" stroke-width="1" fill="none" />
<polyline points="246.0,483.0,258.0,480.0,270.0,469.5,282.0,459.0,303.0,457.5,315.0,465.0" stroke="black" stroke-width="1" fill="none" />
<polyline points="313.5,498.0,301.5,499.5,295.5,490.5,283.5,496.5,277.5,493.5,261.0,484.5,267.0,471.0,282.0,459.0,280.5,453.0,273.0,447.0,294.0,438.0" stroke="black" stroke-width="1" fill="none" />
<polyline points="324.0,421.5,312.0,408.0" stroke="black" stroke-width="1" fill="none" />
<polyline points="312.0,408.0,322.5,420.0,322.5,436.5,340.5,451.5" stroke="black" stroke-width="1" fill="none" />
<polyline points="309.0,442.5,297.0,439.5,286.5,447.0,280.5,448.5,267.0,448.5,264.0,430.5,258.0,430.5,253.5,418.5" stroke="black" stroke-width="1" fill="none" />
<polyline points="253.5,418.5,265.5,433.5" stroke="black" stroke-width="1" fill="none" />
<polyline points="247.5,433.5,247.5,445.5,247.5,456.0,238.5,451.5,249.0,445.5,259.5,450.0,265.5,456.0" stroke="black" stroke-width="1" fill="none" />
<polyline points="273.0,403.5,261.0,406.5,253.5,403.5,276.0,402.0,265.5,402.0,253.5,403.5,241.5,406.5,229.5,408.0,217.5,403.5,216.0,411.0" stroke="black" stroke-width="1" fill="none" />
<polyline points="196.5,450.0,213.0,457.5,226.5,469.5,219.0,466.5,229.5,459.0,241.5,459.0" stroke="black" stroke-width="1" fill="none" />
<polyline points="216.0,450.0,202.5,454.5,184.5,450.0,172.5,466.5,178.5,460.5,186.0,448.5" stroke="black" stroke-width="1" fill="none" />
<polyline points="180.0,435.0,168.0,435.0,154.5,456.0,160.5,444.0,171.0,432.0" stroke="black" stroke-width="1" fill="none" />
<polyline points="114.0,441.0,126.0,475.5,132.0,489.0,144.0,502.5,162.0,492.0" stroke="black" stroke-width="1" fill="none" />
<polyline points="156.0,535.5,157.5,523.5,151.5,519.0,139.5,534.0" stroke="black" stroke-width="1" fill="none" />
<polyline points="124.5,523.5,112.5,528.0,139.5,522.0,135.0,516.0,123.0,514.5,111.0,514.5" stroke="black" stroke-width="1" fill="none" />
<polyline points="111.0,514.5,108.0,526.5" stroke="black" stroke-width="1" fill="none" />
<polyline points="108.0,510.0,105.0,522.0,109.5,510.0,121.5,510.0,133.5,511.5,148.5,508.5,162.0,523.5,174.0,522.0,181.5,514.5" stroke="black" stroke-width="1" fill="none" />
<polyline points="144.0,576.0,156.0,595.5,168.0,604.5,180.0,609.0,192.0,613.5,204.0,615.0,216.0,616.5,228.0,616.5,240.0,616.5,252.0,615.0,264.0,615.0,276.0,612.0,288.0,609.0,300.0,604.5,312.0,598.5,324.0,589.5,336.0,576.0,348.0,556.5" stroke="black" stroke-width="1" fill="none" />
<polyline points="336.0,522.0,348.0,526.5,361.5,525.0,385.5,535.5" stroke="black" stroke-width="1" fill="none" />
<polyline points="334.5,519.0,346.5,517.5,358.5,520.5,370.5,528.0,382.5,529.5,394.5,534.0,406.5,535.5,418.5,535.5,430.5,534.0,442.5,534.0,454.5,541.5" stroke="black" stroke-width="1" fill="none" />
<polyline points="444.0,535.5,456.0,547.5,462.0,552.0,474.0,553.5,486.0,556.5,498.0,559.5" stroke="black" stroke-width="1" fill="none" />
<polyline points="501.0,522.0,489.0,496.5,477.0,471.0,465.0,447.0,453.0,421.5,441.0,397.5" stroke="black" stroke-width="1" fill="none" />
<polyline points="439.5,393.0,451.5,381.0,463.5,370.5,475.5,358.5,487.5,348.0,499.5,337.5,507.0,330.0,493.5,342.0,481.5,354.0,468.0,366.0,454.5,378.0,442.5,390.0,442.5,402.0,448.5,414.0,454.5,426.0,460.5,438.0,465.0,450.0,471.0,462.0,477.0,474.0,483.0,486.0,489.0,498.0,495.0,510.0,499.5,522.0,505.5,534.0" stroke="black" stroke-width="1" fill="none" />
<polyline points="346.5,505.5,345.0,493.5" stroke="black" stroke-width="1" fill="none" />
<polyline points="330.0,510.0,321.0,522.0,307.5,534.0,294.0,538.5,280.5,550.5,289.5,552.0,265.5,562.5,258.0,571.5,264.0,567.0,273.0,562.5,285.0,555.0,294.0,547.5,306.0,538.5,318.0,529.5" stroke="black" stroke-width="1" fill="none" />
<polyline points="310.5,513.0,316.5,496.5,321.0,483.0,321.0,471.0,327.0,459.0,330.0,450.0,333.0,438.0,333.0,426.0,336.0,414.0" stroke="black" stroke-width="1" fill="none" />
<polyline points="370.5,412.5,382.5,397.5,394.5,384.0,406.5,370.5,418.5,355.5,430.5,342.0,442.5,327.0,454.5,313.5,466.5,298.5,478.5,285.0,490.5,270.0,502.5,256.5,505.5,253.5,495.0,265.5,484.5,277.5,474.0,289.5,465.0,301.5,454.5,313.5,444.0,325.5,433.5,337.5,424.5,349.5,414.0,361.5,403.5,373.5,393.0,385.5,382.5,397.5,372.0,409.5" stroke="black" stroke-width="1" fill="none" />
<polyline points="381.0,336.0,378.0,348.0,375.0,360.0,375.0,372.0,373.5,384.0,370.5,396.0,366.0,408.0,366.0,420.0,363.0,432.0,360.0,444.0,355.5,456.0,351.0,468.0,346.5,480.0,340.5,492.0,334.5,504.0,339.0,505.5,349.5,508.5" stroke="black" stroke-width="1" fill="none" />
<polyline points="162.0,601.5,150.0,589.5,144.0,577.5,141.0,565.5,139.5,553.5,139.5,541.5,142.5,529.5,150.0,517.5,139.5,499.5,130.5,487.5,124.5,475.5,120.0,463.5,117.0,451.5,112.5,439.5,111.0,427.5,111.0,415.5,109.5,403.5,112.5,391.5,114.0,379.5,112.5,367.5,111.0,355.5,109.5,343.5,109.5,331.5,109.5,319.5,109.5,307.5,111.0,295.5,118.5,283.5,126.0,271.5,111.0,285.0,114.0,273.0,118.5,261.0,114.0,270.0" stroke="black" stroke-width="1" fill="none" />
<polyline points="103.5,267.0,100.5,279.0,93.0,289.5,90.0,298.5" stroke="black" stroke-width="1" fill="none" />
<polyline points="91.5,259.5,94.5,249.0,96.0,252.0,91.5,264.0,88.5,273.0,88.5,285.0,88.5,297.0,88.5,309.0,91.5,321.0,96.0,333.0,100.5,345.0,102.0,357.0,106.5,361.5,108.0,373.5,108.0,385.5,115.5,406.5,117.0,418.5,117.0,411.0" stroke="black" stroke-width="1" fill="none" />
<polyline points="141.0,331.5,153.0,327.0,165.0,321.0,177.0,319.5,189.0,319.5,201.0,322.5" stroke="black" stroke-width="1" fill="none" />
<polyline points="201.0,327.0,189.0,325.5,177.0,336.0,165.0,331.5" stroke="black" stroke-width="1" fill="none" />
<polyline points="165.0,321.0,153.0,333.0,159.0,334.5,171.0,340.5,183.0,339.0,192.0,331.5,202.5,333.0" stroke="black" stroke-width="1" fill="none" />
<polyline points="184.5,333.0,195.0,328.5,175.5,331.5,163.5,330.0,151.5,334.5" stroke="black" stroke-width="1" fill="none" />
<polyline points="141.0,325.5,153.0,319.5,165.0,316.5,177.0,313.5,189.0,313.5,201.0,313.5,213.0,321.0" stroke="black" stroke-width="1" fill="none" />
<polyline points="214.5,325.5,199.5,313.5" stroke="black" stroke-width="1" fill="none" />
<polyline points="213.0,307.5,223.5,319.5,222.0,331.5,220.5,343.5" stroke="black" stroke-width="1" fill="none" />
<polyline points="214.5,307.5,210.0,294.0,198.0,289.5,186.0,288.0,174.0,291.0,162.0,291.0,150.0,294.0,138.0,298.5,126.0,309.0,126.0,309.0,141.0,297.0,154.5,298.5,142.5,303.0" stroke="black" stroke-width="1" fill="none" />
<polyline points="145.5,286.5,129.0,298.5,120.0,310.5,124.5,301.5,136.5,292.5,148.5,286.5,160.5,285.0,172.5,285.0" stroke="black" stroke-width="1" fill="none" />
<polyline points="199.5,297.0,187.5,294.0,186.0,304.5,174.0,306.0,162.0,306.0,150.0,306.0,138.0,309.0,126.0,316.5" stroke="black" stroke-width="1" fill="none" />
<polyline points="157.5,313.5,136.5,325.5,141.0,321.0,153.0,315.0,165.0,312.0" stroke="black" stroke-width="1" fill="none" />
<polyline points="133.5,261.0,145.5,250.5,153.0,228.0" stroke="black" stroke-width="1" fill="none" />
<polyline points="163.5,226.5,151.5,249.0,139.5,264.0,133.5,282.0,142.5,270.0,144.0,258.0,153.0,246.0,160.5,234.0,166.5,222.0" stroke="black" stroke-width="1" fill="none" />
<polyline points="171.0,223.5,169.5,226.5,175.5,214.5" stroke="black" stroke-width="1" fill="none" />
<polyline points="163.5,213.0,156.0,225.0,147.0,237.0,144.0,250.5,133.5,262.5,121.5,268.5,115.5,280.5,118.5,283.5" stroke="black" stroke-width="1" fill="none" />
<polyline points="115.5,240.0,120.0,228.0,118.5,231.0" stroke="black" stroke-width="1" fill="none" />
<polyline points="94.5,231.0,96.0,223.5,100.5,214.5,103.5,211.5,109.5,213.0,120.0,198.0" stroke="black" stroke-width="1" fill="none" />
<polyline points="118.5,198.0,112.5,210.0,94.5,220.5,100.5,225.0,91.5,237.0,85.5,249.0,82.5,261.0,82.5,273.0,81.0,285.0,97.5,283.5" stroke="black" stroke-width="1" fill="none" />
<polyline points="184.5,246.0,172.5,255.0,181.5,249.0,186.0,237.0" stroke="black" stroke-width="1" fill="none" />
<polyline points="186.0,237.0,175.5,243.0,163.5,253.5,159.0,258.0,172.5,246.0,184.5,234.0" stroke="black" stroke-width="1" fill="none" />
<polyline points="181.5,229.5,174.0,237.0,187.5,225.0" stroke="black" stroke-width="1" fill="none" />
<polyline points="187.5,186.0,199.5,175.5" stroke="black" stroke-width="1" fill="none" />
<polyline points="210.0,163.5,186.0,165.0,169.5,177.0,154.5,189.0,159.0,184.5,171.0,177.0,183.0,168.0" stroke="black" stroke-width="1" fill="none" />
<polyline points="165.0,163.5,144.0,175.5,135.0,177.0,138.0,180.0,150.0,171.0,162.0,166.5" stroke="black" stroke-width="1" fill="none" />
<polyline points="199.5,127.5,211.5,127.5,223.5,129.0,235.5,132.0,247.5,129.0,259.5,135.0,271.5,139.5,283.5,145.5,295.5,153.0,307.5,160.5,319.5,171.0,331.5,175.5,343.5,186.0,355.5,195.0,367.5,211.5,367.5,219.0,379.5,232.5" stroke="black" stroke-width="1" fill="none" />
<polyline points="369.0,234.0,366.0,246.0,364.5,258.0,373.5,268.5,376.5,273.0,379.5,276.0,379.5,288.0,379.5,300.0,379.5,312.0,388.5,306.0" stroke="black" stroke-width="1" fill="none" />
<polyline points="394.5,301.5,393.0,313.5" stroke="black" stroke-width="1" fill="none" />
<polyline points="381.0,264.0,378.0,252.0,370.5,240.0" stroke="black" stroke-width="1" fill="none" />
<polyline points="357.0,240.0,358.5,228.0" stroke="black" stroke-width="1" fill="none" />
<polyline points="358.5,222.0,354.0,234.0,361.5,244.5,363.0,240.0" stroke="black" stroke-width="1" fill="none" />
<polyline points="348.0,219.0,348.0,231.0,346.5,243.0,349.5,255.0,352.5,273.0" stroke="black" stroke-width="1" fill="none" />
<polyline points="309.0,211.5,307.5,216.0,313.5,204.0" stroke="black" stroke-width="1" fill="none" />
<polyline points="306.0,193.5,300.0,205.5,292.5,210.0,286.5,222.0,300.0,204.0" stroke="black" stroke-width="1" fill="none" />
<polyline points="235.5,138.0,249.0,138.0,268.5,139.5,292.5,151.5,309.0,163.5,330.0,175.5,345.0,187.5,357.0,199.5,366.0,211.5,372.0,223.5,379.5,235.5,385.5,247.5,388.5,259.5,391.5,271.5,393.0,283.5,394.5,295.5,388.5,307.5,384.0,319.5,387.0,331.5,387.0,343.5" stroke="black" stroke-width="1" fill="none" />
<polyline points="33.0,447.0,21.0,447.0" stroke="black" stroke-width="1" fill="none" />
<polyline points="15.0,454.5,27.0,454.5,39.0,454.5" stroke="black" stroke-width="1" fill="none" />
<polyline points="36.0,489.0,24.0,493.5,12.0,489.0,0.0,486.0" stroke="black" stroke-width="1" fill="none" />
<polyline points="0.0,481.5,12.0,483.0,24.0,484.5,36.0,486.0,37.5,493.5" stroke="black" stroke-width="1" fill="none" />
<polyline points="25.5,523.5,15.0,517.5,12.0,510.0,0.0,508.5" stroke="black" stroke-width="1" fill="none" />
<polyline points="0.0,504.0,18.0,511.5,25.5,523.5,31.5,525.0,39.0,537.0" stroke="black" stroke-width="1" fill="none" />
<polyline points="16.5,535.5,4.5,528.0" stroke="black" stroke-width="1" fill="none" />
<polyline points="1.5,531.0,10.5,531.0,7.5,546.0" stroke="black" stroke-width="1" fill="none" />
<polyline points="12.0,549.0,0.0,540.0" stroke="black" stroke-width="1" fill="none" />
<polyline points="3.0,535.5,15.0,537.0" stroke="black" stroke-width="1" fill="none" />
<polyline points="28.5,535.5,22.5,544.5,18.0,532.5,0.0,531.0" stroke="black" stroke-width="1" fill="none" />
<polyline points="0.0,525.0,12.0,525.0,24.0,529.5" stroke="black" stroke-width="1" fill="none" />
<polyline points="30.0,544.5,30.0,546.0,28.5,531.0,15.0,519.0,6.0,507.0,1.5,495.0" stroke="black" stroke-width="1" fill="none" />
<polyline points="0.0,493.5,12.0,505.5,24.0,513.0,30.0,522.0,42.0,541.5,54.0,543.0,66.0,541.5,78.0,538.5,90.0,535.5,102.0,532.5,115.5,531.0,127.5,526.5,139.5,522.0" stroke="black" stroke-width="1" fill="none" />
<polyline points="36.0,477.0,24.0,477.0,12.0,478.5,0.0,477.0" stroke="black" stroke-width="1" fill="none" />
<polyline points="0.0,465.0,12.0,466.5,24.0,468.0,36.0,469.5" stroke="black" stroke-width="1" fill="none" />
<polyline points="0.0,457.5,12.0,454.5,24.0,438.0,3.0,442.5,9.0,438.0,18.0,432.0" stroke="black" stroke-width="1" fill="none" />
<polyline points="0.0,432.0,12.0,426.0,22.5,441.0,4.5,454.5,31.5,468.0" stroke="black" stroke-width="1" fill="none" />
<polyline points="0.0,450.0,400.0,450.0" stroke="black" stroke-width="1" fill="none" />
</svg>